%TF.GenerationSoftware,KiCad,Pcbnew,(6.0.8-1)-1*%
%TF.CreationDate,2022-11-17T19:15:11-05:00*%
%TF.ProjectId,HermEIS,4865726d-4549-4532-9e6b-696361645f70,rev?*%
%TF.SameCoordinates,Original*%
%TF.FileFunction,Copper,L3,Inr*%
%TF.FilePolarity,Positive*%
%FSLAX46Y46*%
G04 Gerber Fmt 4.6, Leading zero omitted, Abs format (unit mm)*
G04 Created by KiCad (PCBNEW (6.0.8-1)-1) date 2022-11-17 19:15:11*
%MOMM*%
%LPD*%
G01*
G04 APERTURE LIST*
%TA.AperFunction,ComponentPad*%
%ADD10C,2.000000*%
%TD*%
%TA.AperFunction,ComponentPad*%
%ADD11C,2.200000*%
%TD*%
%TA.AperFunction,ComponentPad*%
%ADD12C,1.016000*%
%TD*%
%TA.AperFunction,ComponentPad*%
%ADD13C,1.397000*%
%TD*%
%TA.AperFunction,ComponentPad*%
%ADD14C,1.270000*%
%TD*%
%TA.AperFunction,ComponentPad*%
%ADD15C,1.320800*%
%TD*%
%TA.AperFunction,ComponentPad*%
%ADD16R,1.408000X1.408000*%
%TD*%
%TA.AperFunction,ComponentPad*%
%ADD17C,1.408000*%
%TD*%
%TA.AperFunction,ComponentPad*%
%ADD18C,2.100000*%
%TD*%
%TA.AperFunction,ViaPad*%
%ADD19C,0.800000*%
%TD*%
%TA.AperFunction,ViaPad*%
%ADD20C,4.000000*%
%TD*%
%TA.AperFunction,Conductor*%
%ADD21C,0.250000*%
%TD*%
%TA.AperFunction,Conductor*%
%ADD22C,0.200000*%
%TD*%
G04 APERTURE END LIST*
D10*
%TO.N,/CE*%
%TO.C,J2*%
X107000000Y-57200000D03*
D11*
%TO.N,GND*%
X103850000Y-60350000D03*
X110150000Y-60350000D03*
X110150000Y-54050000D03*
X103850000Y-54050000D03*
%TD*%
D10*
%TO.N,/V_ref*%
%TO.C,J7*%
X107000000Y-73200000D03*
D11*
%TO.N,GND*%
X103850000Y-76350000D03*
X110150000Y-76350000D03*
X110150000Y-70050000D03*
X103850000Y-70050000D03*
%TD*%
D12*
%TO.N,N/C*%
%TO.C,J19*%
X138282000Y-36709750D03*
X138282000Y-71190250D03*
%TD*%
D13*
%TO.N,/C22*%
%TO.C,J18*%
X190032800Y-73355000D03*
%TO.N,/A21*%
X190032800Y-70815000D03*
%TO.N,/A20*%
X190032800Y-68275000D03*
%TO.N,/J20*%
X190032800Y-65735000D03*
%TO.N,/J22*%
X190032800Y-63195000D03*
%TO.N,/W20*%
X190032800Y-60655000D03*
%TO.N,/T19*%
X190032800Y-58115000D03*
%TO.N,/W22*%
X190032800Y-55575000D03*
%TO.N,/T20*%
X190032800Y-53035000D03*
%TO.N,/U19*%
X190032800Y-50495000D03*
%TO.N,/P17*%
X190032800Y-47955000D03*
%TO.N,/V20*%
X190032800Y-45415000D03*
%TO.N,/N16*%
X190032800Y-42875000D03*
%TO.N,/C5*%
X190032800Y-40335000D03*
%TO.N,/M17*%
X190032800Y-37795000D03*
%TO.N,/A5*%
X190032800Y-35255000D03*
%TO.N,/M18*%
X187492800Y-73355000D03*
%TO.N,/D14*%
X187492800Y-70815000D03*
%TO.N,/P18*%
X187492800Y-68275000D03*
%TO.N,/C14*%
X187492800Y-65735000D03*
%TO.N,/R19*%
X187492800Y-63195000D03*
%TO.N,/E16*%
X187492800Y-60655000D03*
%TO.N,/D9*%
X187492800Y-58115000D03*
%TO.N,/D17*%
X187492800Y-55575000D03*
%TO.N,/C8*%
X187492800Y-53035000D03*
%TO.N,/D7*%
X187492800Y-50495000D03*
%TO.N,/D10*%
X187492800Y-47955000D03*
%TO.N,/D8*%
X187492800Y-45415000D03*
%TO.N,/C10*%
X187492800Y-42875000D03*
%TO.N,/L17*%
X187492800Y-40335000D03*
%TO.N,/D11*%
X187492800Y-37795000D03*
%TO.N,/K18*%
X187492800Y-35255000D03*
%TD*%
%TO.N,/Vref_o*%
%TO.C,J17*%
X183112800Y-123745000D03*
%TO.N,/chn1*%
X183112800Y-121205000D03*
%TO.N,/chn2*%
X183112800Y-118665000D03*
%TO.N,/chn3*%
X183112800Y-116125000D03*
%TO.N,/chn4*%
X183112800Y-113585000D03*
%TO.N,/chn5*%
X183112800Y-111045000D03*
%TO.N,/chn6*%
X183112800Y-108505000D03*
%TO.N,/chn7*%
X183112800Y-105965000D03*
%TO.N,/WE1*%
X183112800Y-103425000D03*
%TO.N,/WE2*%
X183112800Y-100885000D03*
%TO.N,/WE3*%
X183112800Y-98345000D03*
%TO.N,/WE4*%
X183112800Y-95805000D03*
%TO.N,/WE5*%
X183112800Y-93265000D03*
%TO.N,/WE6*%
X183112800Y-90725000D03*
%TO.N,/WE7*%
X183112800Y-88185000D03*
%TO.N,/F_EIS_DDS*%
X183112800Y-85645000D03*
%TO.N,/CV_S2*%
X180572800Y-123745000D03*
%TO.N,/EIS_S3*%
X180572800Y-121205000D03*
%TO.N,/SIN_2*%
X180572800Y-118665000D03*
%TO.N,/SIN_1*%
X180572800Y-116125000D03*
%TO.N,/V_ref*%
X180572800Y-113585000D03*
X180572800Y-111045000D03*
%TO.N,/CE*%
X180572800Y-108505000D03*
X180572800Y-105965000D03*
%TO.N,/WE1*%
X180572800Y-103425000D03*
%TO.N,/WE2*%
X180572800Y-100885000D03*
%TO.N,/WE3*%
X180572800Y-98345000D03*
%TO.N,/WE4*%
X180572800Y-95805000D03*
%TO.N,/WE5*%
X180572800Y-93265000D03*
%TO.N,/WE6*%
X180572800Y-90725000D03*
%TO.N,/WE7*%
X180572800Y-88185000D03*
%TO.N,/CV_DAC*%
X180572800Y-85645000D03*
%TD*%
D14*
%TO.N,unconnected-(J16-Pad1)*%
%TO.C,J16*%
X55115700Y-51255000D03*
%TO.N,unconnected-(J16-Pad2)*%
X55115700Y-53795000D03*
%TO.N,unconnected-(J16-Pad3)*%
X55115700Y-56335000D03*
%TO.N,unconnected-(J16-Pad4)*%
X55115700Y-58875000D03*
%TO.N,unconnected-(J16-Pad5)*%
X55115700Y-61415000D03*
%TO.N,unconnected-(J16-Pad6)*%
X55115700Y-63955000D03*
%TO.N,unconnected-(J16-Pad7)*%
X55115700Y-66495000D03*
%TO.N,unconnected-(J16-Pad8)*%
X55115700Y-69035000D03*
%TO.N,unconnected-(J16-Pad9)*%
X55115700Y-71575000D03*
%TO.N,unconnected-(J16-Pad10)*%
X55115700Y-74115000D03*
%TO.N,unconnected-(J16-Pad11)*%
X55115700Y-76655000D03*
%TD*%
D12*
%TO.N,N/C*%
%TO.C,J20*%
X178282000Y-36709750D03*
X178282000Y-71190250D03*
%TD*%
D10*
%TO.N,/CV_S1*%
%TO.C,J6*%
X123000000Y-41200000D03*
D11*
%TO.N,GND*%
X126150000Y-44350000D03*
X126150000Y-38050000D03*
X119850000Y-44350000D03*
X119850000Y-38050000D03*
%TD*%
D13*
%TO.N,/A_NCS*%
%TO.C,J21*%
X134710000Y-95926133D03*
%TO.N,/A_SCK*%
X137250000Y-95926133D03*
%TO.N,/A_SDI*%
X139790000Y-95926133D03*
%TO.N,/A_SDO1*%
X142330000Y-95926133D03*
%TO.N,/A_SDO2*%
X144870000Y-95926133D03*
%TO.N,/A_SDO3*%
X147410000Y-95926133D03*
%TO.N,/A_SDO4*%
X149950000Y-95926133D03*
%TO.N,/A_SDO5*%
X152490000Y-95926133D03*
%TO.N,/A_SDO6*%
X155030000Y-95926133D03*
%TO.N,/A_SDO7*%
X157570000Y-95926133D03*
%TO.N,/A_SDO8*%
X160110000Y-95926133D03*
%TO.N,/D20*%
X162650000Y-95926133D03*
%TO.N,/D_7*%
X165190000Y-95926133D03*
%TO.N,/D_6*%
X167730000Y-95926133D03*
%TO.N,/D_5*%
X170270000Y-95926133D03*
%TO.N,/D_4*%
X172810000Y-95926133D03*
%TO.N,/D_3*%
X134710000Y-93386133D03*
%TO.N,/D_2*%
X137250000Y-93386133D03*
%TO.N,/D_1*%
X139790000Y-93386133D03*
%TO.N,/D_0*%
X142330000Y-93386133D03*
%TO.N,/FQ_UD*%
X144870000Y-93386133D03*
%TO.N,/K20*%
X147410000Y-93386133D03*
%TO.N,/FT_NCS*%
X149950000Y-93386133D03*
%TO.N,/FT_SCK*%
X152490000Y-93386133D03*
%TO.N,/FT_SDI*%
X155030000Y-93386133D03*
%TO.N,/FT_SDO*%
X157570000Y-93386133D03*
%TO.N,/Rin_scl*%
X160110000Y-93386133D03*
%TO.N,/Rin_sda*%
X162650000Y-93386133D03*
%TO.N,/P21*%
X165190000Y-93386133D03*
%TO.N,/R20*%
X167730000Y-93386133D03*
%TO.N,/P22*%
X170270000Y-93386133D03*
%TO.N,/DAC1_LDAC*%
X172810000Y-93386133D03*
%TD*%
%TO.N,GND*%
%TO.C,J22*%
X134710000Y-87142800D03*
%TO.N,/SQ_1*%
X137250000Y-87142800D03*
%TO.N,/SQ_2*%
X139790000Y-87142800D03*
%TO.N,unconnected-(J22-PadA4)*%
X142330000Y-87142800D03*
%TO.N,/A18*%
X144870000Y-87142800D03*
%TO.N,/F_VREF_1*%
X147410000Y-87142800D03*
%TO.N,/V_ref*%
X149950000Y-87142800D03*
%TO.N,/chn1_r*%
X152490000Y-87142800D03*
%TO.N,/chn2_r*%
X155030000Y-87142800D03*
%TO.N,/chn3_r*%
X157570000Y-87142800D03*
%TO.N,/chn4_r*%
X160110000Y-87142800D03*
%TO.N,/chn5_r*%
X162650000Y-87142800D03*
%TO.N,/chn6_r*%
X165190000Y-87142800D03*
%TO.N,/chn7_r*%
X167730000Y-87142800D03*
%TO.N,GND*%
X170270000Y-87142800D03*
X172810000Y-87142800D03*
%TO.N,/L19*%
X134710000Y-84602800D03*
%TO.N,/H21*%
X137250000Y-84602800D03*
%TO.N,/K21*%
X139790000Y-84602800D03*
%TO.N,/H22*%
X142330000Y-84602800D03*
%TO.N,/K22*%
X144870000Y-84602800D03*
%TO.N,/F21*%
X147410000Y-84602800D03*
%TO.N,/G20*%
X149950000Y-84602800D03*
%TO.N,/F22*%
X152490000Y-84602800D03*
%TO.N,/G22*%
X155030000Y-84602800D03*
%TO.N,/D21*%
X157570000Y-84602800D03*
%TO.N,/E20*%
X160110000Y-84602800D03*
%TO.N,/D22*%
X162650000Y-84602800D03*
%TO.N,/E22*%
X165190000Y-84602800D03*
%TO.N,/B21*%
X167730000Y-84602800D03*
%TO.N,/C20*%
X170270000Y-84602800D03*
%TO.N,/B22*%
X172810000Y-84602800D03*
%TD*%
D10*
%TO.N,/WE7*%
%TO.C,J11*%
X123000000Y-120600000D03*
D11*
%TO.N,GND*%
X126150000Y-117450000D03*
X119850000Y-117450000D03*
X119850000Y-123750000D03*
X126150000Y-123750000D03*
%TD*%
D10*
%TO.N,/WE6*%
%TO.C,J5*%
X107010000Y-120680000D03*
D11*
%TO.N,GND*%
X110160000Y-123830000D03*
X110160000Y-117530000D03*
X103860000Y-123830000D03*
X103860000Y-117530000D03*
%TD*%
D15*
%TO.N,/SIN_2*%
%TO.C,J15*%
X55407500Y-91955000D03*
%TO.N,/SIN_1*%
X55407500Y-94495000D03*
%TO.N,/SQ_2*%
X55407500Y-97035000D03*
%TO.N,/SQ_1*%
X55407500Y-99575000D03*
%TO.N,GND*%
X55407500Y-102115000D03*
%TO.N,/N22*%
X55407500Y-104655000D03*
%TO.N,/L20*%
X55407500Y-107195000D03*
%TO.N,/FQ_UD*%
X55407500Y-109735000D03*
%TO.N,/K20*%
X55407500Y-112275000D03*
%TO.N,+3.3V*%
X55407500Y-114815000D03*
%TD*%
D10*
%TO.N,/WE5*%
%TO.C,J10*%
X123000000Y-104820000D03*
D11*
%TO.N,GND*%
X119850000Y-107970000D03*
X126150000Y-107970000D03*
X126150000Y-101670000D03*
X119850000Y-101670000D03*
%TD*%
D10*
%TO.N,/CE*%
%TO.C,J1*%
X123000000Y-57100000D03*
D11*
%TO.N,GND*%
X119850000Y-53950000D03*
X119850000Y-60250000D03*
X126150000Y-53950000D03*
X126150000Y-60250000D03*
%TD*%
D10*
%TO.N,/WE1*%
%TO.C,J8*%
X123000000Y-73300000D03*
D11*
%TO.N,GND*%
X126150000Y-70150000D03*
X119850000Y-70150000D03*
X126150000Y-76450000D03*
X119850000Y-76450000D03*
%TD*%
D10*
%TO.N,/WE4*%
%TO.C,J4*%
X107010000Y-104840000D03*
D11*
%TO.N,GND*%
X103860000Y-107990000D03*
X110160000Y-107990000D03*
X103860000Y-101690000D03*
X110160000Y-101690000D03*
%TD*%
D10*
%TO.N,/WE2*%
%TO.C,J3*%
X106990000Y-88970000D03*
D11*
%TO.N,GND*%
X110140000Y-85820000D03*
X103840000Y-92120000D03*
X110140000Y-92120000D03*
X103840000Y-85820000D03*
%TD*%
D13*
%TO.N,/JTAG_TCK*%
%TO.C,J12*%
X134710000Y-104709466D03*
%TO.N,/JTAG_TMS*%
X137250000Y-104709466D03*
%TO.N,/JTAG_TDO*%
X139790000Y-104709466D03*
%TO.N,/JTAG_TDI*%
X142330000Y-104709466D03*
%TO.N,unconnected-(J12-PadA5)*%
X144870000Y-104709466D03*
%TO.N,/SYS_CLK4*%
X147410000Y-104709466D03*
%TO.N,/SYS_CLK5*%
X149950000Y-104709466D03*
%TO.N,/USB_SCL*%
X152490000Y-104709466D03*
%TO.N,/USB_SDA*%
X155030000Y-104709466D03*
%TO.N,/+VCCO1*%
X157570000Y-104709466D03*
%TO.N,/+VCCO0*%
X160110000Y-104709466D03*
%TO.N,/+1.8V*%
X162650000Y-104709466D03*
X165190000Y-104709466D03*
%TO.N,/+1.2V*%
X167730000Y-104709466D03*
X170270000Y-104709466D03*
%TO.N,+5V*%
X172810000Y-104709466D03*
%TO.N,/DAC1_NCS*%
X134710000Y-102169466D03*
%TO.N,/DAC1_SCK*%
X137250000Y-102169466D03*
%TO.N,/DAC1_SDI*%
X139790000Y-102169466D03*
%TO.N,/N22*%
X142330000Y-102169466D03*
%TO.N,/L20*%
X144870000Y-102169466D03*
%TO.N,/F_RST_I*%
X147410000Y-102169466D03*
%TO.N,/F_RST_O*%
X149950000Y-102169466D03*
%TO.N,+5V*%
X152490000Y-102169466D03*
X155030000Y-102169466D03*
%TO.N,-3V*%
X157570000Y-102169466D03*
X160110000Y-102169466D03*
%TO.N,-0v5*%
X162650000Y-102169466D03*
%TO.N,nVDD_2*%
X165190000Y-102169466D03*
%TO.N,GND*%
X167730000Y-102169466D03*
%TO.N,+3.3V*%
X170270000Y-102169466D03*
X172810000Y-102169466D03*
%TD*%
D14*
%TO.N,unconnected-(J14-Pad1)*%
%TO.C,J14*%
X34910000Y-51255000D03*
%TO.N,unconnected-(J14-Pad2)*%
X34910000Y-53795000D03*
%TO.N,GND*%
X34910000Y-56335000D03*
%TO.N,/FT_SCK*%
X34910000Y-58875000D03*
%TO.N,/FT_SDO*%
X34910000Y-61415000D03*
%TO.N,/FT_SDI*%
X34910000Y-63955000D03*
%TO.N,/FT_NCS*%
X34910000Y-66495000D03*
%TO.N,unconnected-(J14-Pad8)*%
X34910000Y-69035000D03*
%TO.N,unconnected-(J14-Pad9)*%
X34910000Y-71575000D03*
%TO.N,unconnected-(J14-Pad10)*%
X34910000Y-74115000D03*
%TO.N,unconnected-(J14-Pad11)*%
X34910000Y-76655000D03*
%TD*%
D16*
%TO.N,/CV_S1*%
%TO.C,S1*%
X159950000Y-121750000D03*
D17*
%TO.N,/CV_ref*%
X164950000Y-121750000D03*
%TO.N,/CV_S2*%
X167450000Y-121750000D03*
%TO.N,unconnected-(S1-Pad4)*%
X169950000Y-121750000D03*
D18*
%TO.N,Net-(S1-PadS1)*%
X155850000Y-124550000D03*
X172050000Y-118950000D03*
%TD*%
D15*
%TO.N,GND*%
%TO.C,J13*%
X35420000Y-91955000D03*
%TO.N,/D_7*%
X35420000Y-94495000D03*
%TO.N,/D_6*%
X35420000Y-97035000D03*
%TO.N,/D_5*%
X35420000Y-99575000D03*
%TO.N,/D_4*%
X35420000Y-102115000D03*
%TO.N,/D_3*%
X35420000Y-104655000D03*
%TO.N,/D_2*%
X35420000Y-107195000D03*
%TO.N,/D_1*%
X35420000Y-109735000D03*
%TO.N,/D_0*%
X35420000Y-112275000D03*
%TO.N,+3.3V*%
X35420000Y-114815000D03*
%TD*%
D10*
%TO.N,/WE3*%
%TO.C,J9*%
X123000000Y-88970000D03*
D11*
%TO.N,GND*%
X126150000Y-85820000D03*
X126150000Y-92120000D03*
X119850000Y-92120000D03*
X119850000Y-85820000D03*
%TD*%
D16*
%TO.N,/EIS_S3*%
%TO.C,S2*%
X138950000Y-121750000D03*
D17*
%TO.N,/V_dds*%
X143950000Y-121750000D03*
%TO.N,/SIN_1*%
X146450000Y-121750000D03*
%TO.N,/SIN_2*%
X148950000Y-121750000D03*
D18*
%TO.N,Net-(S2-PadS1)*%
X134850000Y-124550000D03*
X151050000Y-118950000D03*
%TD*%
D19*
%TO.N,/CE*%
X114090000Y-64580000D03*
%TO.N,/F_RST_O*%
X144226071Y-70973929D03*
X137403278Y-69302962D03*
%TO.N,/C22*%
X136354500Y-69383710D03*
%TO.N,/DAC1_SDI*%
X141305287Y-58385287D03*
%TO.N,/+VCCO1*%
X136570000Y-59130500D03*
%TO.N,/K20*%
X134850000Y-53310000D03*
D20*
%TO.N,*%
X194270000Y-130955000D03*
X30270000Y-26955000D03*
X194270000Y-26955000D03*
X30270000Y-130955000D03*
D19*
%TO.N,GND*%
X109270000Y-120680000D03*
X67340000Y-112580000D03*
X63130000Y-98245000D03*
X67270000Y-89405000D03*
X81670000Y-47255000D03*
X84130000Y-43295000D03*
X88370000Y-35005000D03*
X135650000Y-35839500D03*
X75360000Y-73795000D03*
X129645000Y-83035000D03*
X129550000Y-35089500D03*
X40819500Y-43205000D03*
X98820000Y-41655000D03*
X96870000Y-36205000D03*
X100340000Y-118010000D03*
X98990000Y-54585000D03*
X70620000Y-119905000D03*
X74632701Y-45592299D03*
X63830000Y-63835000D03*
X61610000Y-81331999D03*
X46870000Y-51255000D03*
X55800000Y-27255000D03*
X76757701Y-36242701D03*
X63480000Y-60935000D03*
X108170000Y-32255000D03*
X67260000Y-82665000D03*
X83520000Y-116005000D03*
X83750000Y-72615000D03*
X72645500Y-89355000D03*
X66830000Y-73575000D03*
X78210000Y-89785000D03*
X75820000Y-69755000D03*
X136628929Y-43136671D03*
X171727652Y-125272652D03*
X128900000Y-61800000D03*
X186480000Y-123635000D03*
X79080000Y-32625000D03*
X68040000Y-36785000D03*
X43470000Y-41605000D03*
X64390000Y-50415000D03*
X98560000Y-72275000D03*
X83620000Y-64525000D03*
X153710000Y-126865000D03*
X46920000Y-48629500D03*
X75520000Y-119575000D03*
X136130000Y-83035000D03*
X67350000Y-63875000D03*
X70775000Y-97280000D03*
X47820000Y-32555000D03*
X136047935Y-40211565D03*
X43470000Y-31655000D03*
X72870000Y-33305000D03*
X67400000Y-47668000D03*
X52970000Y-41955000D03*
X78230000Y-85775000D03*
%TO.N,+5V*%
X162040000Y-27975000D03*
X71070000Y-48405000D03*
X187220000Y-101955000D03*
X144170000Y-33255000D03*
X59070000Y-51055000D03*
X97620000Y-69455000D03*
X151170000Y-107705000D03*
X97570000Y-93405000D03*
X35720000Y-47905000D03*
X117110000Y-30239500D03*
X97620000Y-81455000D03*
X97544500Y-117655000D03*
X97620000Y-32555000D03*
X172820000Y-107675000D03*
X163920000Y-40805000D03*
X97620000Y-46405000D03*
X97620000Y-57555000D03*
X164770000Y-34555000D03*
X109900000Y-31065000D03*
X97620000Y-105405000D03*
X184982701Y-35117701D03*
%TO.N,/chn2*%
X83444500Y-57205000D03*
X81820000Y-79205000D03*
X119230000Y-127070500D03*
X81820000Y-110305000D03*
X81820000Y-121205000D03*
X98970000Y-120255000D03*
X81820000Y-99505000D03*
X97970000Y-124255000D03*
X81820000Y-88755000D03*
X84070000Y-35105000D03*
X83570000Y-46505000D03*
%TO.N,-3V*%
X70820000Y-63815000D03*
X72314560Y-118635038D03*
X78020000Y-52155000D03*
X72870000Y-96555000D03*
X60120000Y-45905000D03*
X72570000Y-74455000D03*
X71070000Y-67155000D03*
X71270000Y-111655000D03*
X70420000Y-88955000D03*
X76570000Y-34755000D03*
%TO.N,/chn3*%
X84520000Y-47755000D03*
X84420000Y-111605000D03*
X112040000Y-120805000D03*
X84420000Y-90105000D03*
X175270000Y-119255000D03*
X136790000Y-121055000D03*
X84570000Y-58505000D03*
X84670000Y-36305000D03*
X84420000Y-100855000D03*
X84570000Y-69255000D03*
X84420000Y-122555000D03*
%TO.N,+3.3V*%
X135850000Y-37470100D03*
X93400000Y-118755000D03*
X47970000Y-43155000D03*
X76320000Y-85755000D03*
X171570000Y-33355000D03*
X59970000Y-110025000D03*
X76280000Y-112845000D03*
X112120000Y-36105000D03*
X67370000Y-96555000D03*
X93390000Y-94515000D03*
X45370000Y-35255000D03*
X93460000Y-106515000D03*
X111150000Y-28235000D03*
X93420000Y-46505000D03*
X72920000Y-52255000D03*
X75820000Y-68405000D03*
X76520000Y-89755000D03*
X76270000Y-107925000D03*
X140735500Y-37385600D03*
X93420000Y-58505000D03*
X93410000Y-82485000D03*
X154470000Y-50855000D03*
X70710000Y-118835000D03*
X93420000Y-33755000D03*
X63250000Y-27685000D03*
X61770000Y-91855000D03*
X38370000Y-38855000D03*
X75170000Y-49205000D03*
X63720000Y-35655000D03*
X192410000Y-75810000D03*
X42620000Y-43155000D03*
X93420000Y-70505000D03*
X70570000Y-74455500D03*
X74831250Y-63603750D03*
%TO.N,/chn1*%
X82720000Y-98305000D03*
X82720000Y-119955000D03*
X82720000Y-109005000D03*
X80970000Y-40605000D03*
X175175497Y-128210497D03*
X80570000Y-36355000D03*
X118520000Y-121418500D03*
X82720000Y-87555000D03*
X82720000Y-66105000D03*
X82720000Y-76855000D03*
X80570000Y-39055000D03*
X83250000Y-45075000D03*
X99120000Y-118105000D03*
%TO.N,-0v5*%
X33670000Y-38455000D03*
%TO.N,nVDD_2*%
X76110000Y-43255000D03*
X51770000Y-37855000D03*
X74120000Y-122515000D03*
X67570000Y-100155000D03*
X48270000Y-37445000D03*
X74370000Y-100355000D03*
X88470000Y-36255000D03*
X65020000Y-80655000D03*
X166420000Y-109655000D03*
X107930000Y-37155000D03*
X136420000Y-112205000D03*
X74170000Y-78305000D03*
X58120000Y-57955000D03*
X151540000Y-32125000D03*
X65170000Y-125979500D03*
X63620000Y-40935000D03*
X108370000Y-115626500D03*
%TO.N,/Vref_o*%
X87570000Y-86305000D03*
X57370000Y-118205000D03*
X69920000Y-39805000D03*
X87820000Y-107855000D03*
X138370000Y-133179500D03*
X87720000Y-64855000D03*
X87770000Y-97055000D03*
X87920000Y-54105000D03*
X87770000Y-118705000D03*
X87920000Y-75555000D03*
X87970000Y-32505000D03*
%TO.N,/WE2*%
X70420000Y-72705000D03*
X66220000Y-68555000D03*
X120600985Y-90249015D03*
X62595500Y-81565000D03*
%TO.N,/chn4*%
X87870000Y-49055000D03*
X87770000Y-102105000D03*
X129600000Y-118870000D03*
X90570000Y-115730500D03*
X88745500Y-123805000D03*
X99220000Y-112555000D03*
X87770000Y-112905000D03*
X87870000Y-59755000D03*
X87920000Y-70505000D03*
X88770000Y-37605000D03*
X87770000Y-81255000D03*
%TO.N,/chn5*%
X87720000Y-82505000D03*
X87770000Y-114155000D03*
X87920000Y-71755000D03*
X84170000Y-124679500D03*
X87920000Y-38855000D03*
X87920000Y-61055000D03*
X87920000Y-50305000D03*
X171970000Y-116329500D03*
X87770000Y-93205000D03*
%TO.N,/chn6*%
X87870000Y-83805000D03*
X87920000Y-40105000D03*
X87920000Y-124655000D03*
X87870000Y-62355000D03*
X87870000Y-105255000D03*
X130120000Y-88655000D03*
X122370000Y-95855000D03*
X175870000Y-90605000D03*
X87870000Y-94555000D03*
X87920000Y-73055000D03*
X162720000Y-89255000D03*
X87870000Y-51605000D03*
%TO.N,/chn7*%
X175470000Y-108555000D03*
X105020000Y-114356500D03*
X123645500Y-116405000D03*
%TO.N,/A_NCS*%
X146570000Y-27879500D03*
X89570000Y-76930000D03*
X89030000Y-124965000D03*
X141420000Y-43950000D03*
X89570000Y-64880000D03*
X89620000Y-52880000D03*
X89470000Y-88930000D03*
X132130000Y-97925000D03*
X89520000Y-112880000D03*
X89670000Y-40155000D03*
X89470000Y-100880000D03*
%TO.N,/A_SDO1*%
X94350000Y-37555000D03*
X131270000Y-42525600D03*
X112599015Y-66269015D03*
X109590000Y-40465000D03*
%TO.N,/A_SCK*%
X94510000Y-61055000D03*
X94070000Y-73005000D03*
X94177701Y-36377299D03*
X114345500Y-123802119D03*
X94020000Y-49055000D03*
X134610000Y-43914500D03*
X93870000Y-97005000D03*
X93740000Y-121245000D03*
X93820000Y-109105000D03*
X126450000Y-104115000D03*
X92650000Y-124780500D03*
X93920000Y-85055000D03*
%TO.N,/WE1*%
X130120000Y-80805000D03*
X72870000Y-37405000D03*
X112620000Y-48705000D03*
X83400000Y-31429500D03*
X80942701Y-28207701D03*
%TO.N,/V_ref*%
X185220000Y-109775000D03*
X114070000Y-29055000D03*
%TO.N,/CV_ref*%
X105900000Y-75700000D03*
X108400000Y-51700000D03*
X123710000Y-109650000D03*
X124250000Y-126570500D03*
%TO.N,/CE*%
X47620000Y-41705000D03*
X189070000Y-76355000D03*
X77520000Y-44155000D03*
X91120000Y-43455000D03*
%TO.N,/A_SDO2*%
X147070000Y-98005000D03*
X130924500Y-57434850D03*
X146920000Y-77740500D03*
X146770000Y-82829500D03*
X137544500Y-44979856D03*
%TO.N,/WE4*%
X107020000Y-95155000D03*
X62090000Y-88255000D03*
X57957701Y-88267299D03*
X66884549Y-91704951D03*
X153950000Y-82785000D03*
X75620000Y-94909500D03*
%TO.N,Net-(R39-Pad2)*%
X77334549Y-38235049D03*
X69170000Y-33755000D03*
%TO.N,/WE6*%
X173260000Y-132355000D03*
X57610000Y-124785000D03*
X67120000Y-118355000D03*
X66590000Y-113605000D03*
%TO.N,/A_SDO4*%
X121500000Y-79205000D03*
X129363030Y-40830600D03*
X134117299Y-109852299D03*
X126470000Y-41895000D03*
X137520000Y-46330000D03*
X123390000Y-66680000D03*
X119370000Y-112305000D03*
%TO.N,/A_SDO6*%
X150370000Y-73405000D03*
X150780000Y-78465000D03*
X153320000Y-89500500D03*
X117156968Y-90136968D03*
%TO.N,/A_SDO8*%
X142770000Y-118005000D03*
X164420000Y-68505000D03*
X156470000Y-56355000D03*
X177120000Y-128685000D03*
X153520000Y-123255000D03*
X191720000Y-114405000D03*
X104360000Y-121665000D03*
X167920000Y-109175000D03*
X183170000Y-79205000D03*
X94526452Y-121901677D03*
X138570000Y-117779500D03*
X164820000Y-99305000D03*
%TO.N,Net-(R11-Pad2)*%
X37970000Y-33955000D03*
X38670000Y-36879500D03*
%TO.N,/SIN_2*%
X175270000Y-120455000D03*
X51870000Y-91955000D03*
%TO.N,/SIN_1*%
X50970000Y-94455000D03*
X175270000Y-117555000D03*
X146470000Y-114755000D03*
%TO.N,/SQ_2*%
X143470000Y-98055000D03*
X49370000Y-97055000D03*
X137670000Y-128955000D03*
%TO.N,/SQ_1*%
X48370000Y-99555000D03*
X137670000Y-126355000D03*
%TO.N,Net-(C37-Pad1)*%
X126780000Y-29795000D03*
X165870000Y-29155000D03*
%TO.N,/D_3*%
X117220000Y-59735000D03*
X136735500Y-50330000D03*
X101240000Y-72725000D03*
X130770000Y-129255000D03*
%TO.N,/D_2*%
X130600000Y-49885600D03*
X131986350Y-76546359D03*
X125070000Y-128530500D03*
X129564500Y-53229600D03*
X133970000Y-89379500D03*
%TO.N,/D_1*%
X128214500Y-57840000D03*
X148428296Y-60582589D03*
X106010000Y-85575000D03*
X133270000Y-129055000D03*
%TO.N,Net-(R28-Pad2)*%
X79080000Y-101005000D03*
X79070000Y-97165000D03*
%TO.N,/D_0*%
X135039015Y-51080985D03*
X145950000Y-92045000D03*
X135470000Y-128855000D03*
X148570000Y-91080500D03*
X152750000Y-77805000D03*
X127250000Y-64185600D03*
%TO.N,/FT_SCK*%
X126410000Y-49705000D03*
X172557299Y-77867701D03*
X43170000Y-58955000D03*
X131155985Y-54361585D03*
X155570000Y-98255000D03*
%TO.N,/FT_SDO*%
X190920000Y-82805000D03*
X178320000Y-32855000D03*
X178570000Y-96330500D03*
X43070000Y-61305000D03*
X123770000Y-54455000D03*
X159370000Y-99255000D03*
X129670000Y-37780500D03*
%TO.N,Net-(SW2-Pad2)*%
X47570000Y-39605000D03*
X106020000Y-39655000D03*
%TO.N,/F_RST_I*%
X136870000Y-77455000D03*
X134990000Y-59130000D03*
%TO.N,/F_RST_O*%
X148830000Y-107645000D03*
X158470000Y-66845000D03*
X182630000Y-65265000D03*
X154570000Y-115215000D03*
X174180000Y-98880500D03*
%TO.N,/FT_SDI*%
X43060000Y-64025000D03*
X121320000Y-110005000D03*
X122320000Y-112455000D03*
X144770079Y-54383792D03*
X111390000Y-89830000D03*
%TO.N,/JTAG_TCK*%
X192470000Y-107655000D03*
X137120048Y-119479500D03*
X142170000Y-39370000D03*
%TO.N,/JTAG_TMS*%
X153570000Y-117955000D03*
X177470000Y-127205000D03*
X142160000Y-40740000D03*
X184870000Y-28905000D03*
X153520000Y-121105000D03*
%TO.N,/JTAG_TDO*%
X148670000Y-99605000D03*
X148520000Y-77079500D03*
X134830000Y-40755600D03*
X144220000Y-91105000D03*
%TO.N,/JTAG_TDI*%
X154720000Y-118055000D03*
X119761515Y-41281515D03*
X137240000Y-40191100D03*
X118100000Y-56200000D03*
X149070000Y-118299500D03*
X141420000Y-121605000D03*
%TO.N,/F_VREF_1*%
X137267701Y-75159500D03*
X130720000Y-53425600D03*
X128934500Y-63885500D03*
%TO.N,/SYS_CLK4*%
X163020000Y-99605000D03*
X139870000Y-35155000D03*
X169757700Y-90792700D03*
%TO.N,/A5*%
X182670000Y-47955000D03*
%TO.N,/D_7*%
X148410000Y-50054500D03*
X158320353Y-56354647D03*
X163449951Y-74679549D03*
%TO.N,/D_6*%
X134826316Y-48741916D03*
X177270000Y-100955000D03*
%TO.N,/D_5*%
X175760000Y-129985000D03*
X170770000Y-129455000D03*
X177457371Y-79605500D03*
X140953099Y-50406901D03*
X191740000Y-112275000D03*
%TO.N,/D_4*%
X66870000Y-125979500D03*
X130649015Y-48724615D03*
X54970000Y-126955000D03*
X132044500Y-80455000D03*
X118624500Y-94430000D03*
X130961131Y-63180000D03*
X102470000Y-114420000D03*
X44382299Y-130042701D03*
X168770000Y-130055000D03*
%TO.N,/B21*%
X155020000Y-66355000D03*
X167270000Y-78055000D03*
X148947609Y-66116397D03*
X161870000Y-51605000D03*
%TO.N,/B22*%
X159990000Y-53375000D03*
X155295047Y-61429952D03*
X147409339Y-67074839D03*
X170270000Y-77879500D03*
%TO.N,/A20*%
X143275337Y-71103357D03*
X152870000Y-41505000D03*
X161544503Y-73410497D03*
X154070000Y-48355000D03*
%TO.N,/A21*%
X149220000Y-68905000D03*
X184970000Y-64105000D03*
X155170000Y-41504500D03*
%TO.N,/FT_NCS*%
X176070000Y-85505000D03*
X144750000Y-53424500D03*
X43000000Y-66465000D03*
%TO.N,/FQ_UD*%
X148596000Y-57820524D03*
X108660000Y-99245000D03*
X108250000Y-91315000D03*
%TO.N,/D8*%
X177570000Y-53055000D03*
%TO.N,/D10*%
X170670000Y-51555000D03*
%TO.N,/C10*%
X177770000Y-47955000D03*
%TO.N,/D14*%
X192780000Y-68710000D03*
X182670000Y-49455000D03*
%TO.N,/C14*%
X180820000Y-49555000D03*
X180120000Y-72605000D03*
%TO.N,/J22*%
X147070000Y-69655000D03*
X148220000Y-45940000D03*
%TO.N,/J20*%
X184470000Y-61605000D03*
X145920000Y-71355000D03*
X165100000Y-64695000D03*
X146660000Y-45939500D03*
%TO.N,/C22*%
X142600000Y-67759500D03*
X142570000Y-73955000D03*
X120395000Y-32855000D03*
X138020000Y-34405000D03*
X124420000Y-32855000D03*
X132050000Y-75385600D03*
%TO.N,/C20*%
X136354500Y-68280000D03*
X165833107Y-71351893D03*
X168770000Y-77955000D03*
X148770000Y-73055000D03*
X162870000Y-51005000D03*
%TO.N,/E22*%
X163590000Y-72255000D03*
X160620000Y-51805000D03*
X174520000Y-85705000D03*
X151120000Y-64205000D03*
X136630000Y-67300000D03*
%TO.N,/E20*%
X157819500Y-77805000D03*
X137130000Y-66430000D03*
X160779951Y-72009549D03*
%TO.N,/G22*%
X156770000Y-48055000D03*
X150495500Y-57096024D03*
X144120000Y-74705000D03*
X135655395Y-65335027D03*
%TO.N,/F22*%
X156524500Y-47005000D03*
X179169500Y-104375000D03*
X154270000Y-55355000D03*
X162948381Y-91691322D03*
X187000000Y-88945000D03*
X152190000Y-91075000D03*
X182820000Y-73315000D03*
%TO.N,/G20*%
X155470000Y-42954000D03*
X136668783Y-65588619D03*
X143870000Y-82829500D03*
X146870000Y-73505000D03*
X155220000Y-63855000D03*
%TO.N,/F21*%
X154930000Y-58575000D03*
X137780000Y-77015000D03*
X141354503Y-83150497D03*
X155160000Y-52705000D03*
X147970000Y-73825000D03*
X156085500Y-57825000D03*
X151152299Y-61837299D03*
X148767701Y-61522701D03*
%TO.N,/K22*%
X154270000Y-43505000D03*
X136076010Y-63182020D03*
X141970000Y-77740500D03*
X150112753Y-51987799D03*
%TO.N,/H22*%
X150620000Y-45255000D03*
X142440000Y-62360000D03*
X133135500Y-70830000D03*
%TO.N,/K21*%
X134420000Y-80179500D03*
X153270000Y-47405000D03*
X142310000Y-65045750D03*
X137320000Y-80179500D03*
X150495500Y-58855000D03*
X137210348Y-62670348D03*
%TO.N,/H21*%
X151732701Y-45392299D03*
X137833999Y-61359848D03*
X147070451Y-61255451D03*
X141895500Y-60455000D03*
%TO.N,/L19*%
X149470000Y-44005000D03*
X136140000Y-61319500D03*
X145050000Y-43090000D03*
%TO.N,/C5*%
X182870000Y-37055000D03*
X164420000Y-46505000D03*
X175257701Y-44842701D03*
X149020000Y-36855000D03*
%TO.N,/+VCCO1*%
X129032299Y-91467299D03*
X136735500Y-51960000D03*
X138520000Y-100505000D03*
X141070000Y-107605000D03*
X122420000Y-69620000D03*
%TO.N,/A_SDI*%
X93915000Y-87600000D03*
X93865000Y-99550000D03*
X126094500Y-96655000D03*
X94065000Y-63600000D03*
X94065000Y-75550000D03*
X98580000Y-96200000D03*
X141396886Y-44909224D03*
X94015000Y-51600000D03*
X93815000Y-111650000D03*
X93710000Y-123915000D03*
X94015000Y-38850000D03*
%TO.N,/L20*%
X115700000Y-102855000D03*
X122800000Y-82489500D03*
X146732747Y-58403247D03*
%TO.N,/N22*%
X131754015Y-58295985D03*
X155450000Y-89379500D03*
X152770000Y-98855000D03*
X156370000Y-78355000D03*
X116890000Y-119610000D03*
X49470000Y-104655000D03*
X156370000Y-73955000D03*
%TO.N,/A_SDO3*%
X130474500Y-45017546D03*
X129455265Y-59442235D03*
%TO.N,/A_SDO5*%
X93940000Y-86345000D03*
X129639015Y-46364615D03*
X147370000Y-90229500D03*
X122070000Y-91875000D03*
X132824500Y-86579500D03*
%TO.N,/A_SDO7*%
X106570000Y-111015500D03*
X155470000Y-81929500D03*
X131300000Y-47105600D03*
X123150000Y-92675000D03*
X130961131Y-60985115D03*
X93820000Y-110355000D03*
%TO.N,/R20*%
X134980000Y-56094500D03*
X123300000Y-37820500D03*
X70430000Y-25170500D03*
X82522299Y-43430500D03*
X44170000Y-123615000D03*
X48590000Y-87499501D03*
X80940000Y-70405000D03*
X53150000Y-81605000D03*
X66160000Y-70815000D03*
X66360000Y-93275000D03*
X80770000Y-35105000D03*
X72760000Y-28049500D03*
X50620000Y-118895000D03*
X62170000Y-89675000D03*
X62595500Y-117175000D03*
X79160000Y-116325000D03*
X80530000Y-93275000D03*
%TO.N,/P21*%
X142435500Y-56240000D03*
X77340000Y-93999500D03*
X63030000Y-71595000D03*
X47572701Y-86082299D03*
X71550000Y-28375000D03*
X77010000Y-71565000D03*
X62280000Y-115745000D03*
X70650000Y-44985000D03*
X50780000Y-117645000D03*
X76250000Y-115865000D03*
X53200000Y-80565000D03*
X67630000Y-45455000D03*
X60470000Y-49585000D03*
X44330000Y-122545000D03*
X79310000Y-33630500D03*
X63320000Y-93615000D03*
%TO.N,/K20*%
X129230000Y-106330000D03*
X113210000Y-112875000D03*
X137744500Y-54120000D03*
X108476701Y-107310000D03*
X121911344Y-86340893D03*
%TO.N,/chn1_r*%
X104370000Y-66705000D03*
X69420000Y-38035000D03*
X109320000Y-72455000D03*
X83875992Y-32308384D03*
X87200000Y-27229500D03*
X108520000Y-30305000D03*
X91040000Y-29530500D03*
X110320000Y-35905000D03*
X103857299Y-38917701D03*
%TO.N,/chn2_r*%
X126790000Y-35089500D03*
X158370000Y-28355000D03*
X59870000Y-71555000D03*
X127007299Y-74267701D03*
X142370000Y-27955000D03*
X51170000Y-70655000D03*
%TO.N,/chn4_r*%
X64860000Y-90025000D03*
X124734500Y-51980000D03*
X140670000Y-90555000D03*
X57780000Y-87065000D03*
X131180000Y-91095000D03*
%TO.N,/chn6_r*%
X62400000Y-111775000D03*
X60830500Y-117105000D03*
X154310000Y-31945000D03*
X136962701Y-106737701D03*
X53580000Y-123065000D03*
X31380000Y-83475000D03*
%TO.N,/+1.2V*%
X170870000Y-39155000D03*
X179270000Y-107155000D03*
X193132299Y-98567299D03*
X179282701Y-77692299D03*
X186370000Y-104855000D03*
%TO.N,/+1.8V*%
X178670000Y-113705000D03*
X186320000Y-112055000D03*
X183020000Y-35555000D03*
X165870000Y-112955000D03*
%TO.N,/SYS_CLK5*%
X169970000Y-41355000D03*
X181020000Y-81779500D03*
X168870000Y-97455000D03*
%TO.N,/USB_SCL*%
X180385500Y-79179500D03*
X191670000Y-110555000D03*
X171370000Y-35955000D03*
%TO.N,/USB_SDA*%
X156220000Y-117954500D03*
X171570000Y-41505000D03*
X191720000Y-117205000D03*
X178520000Y-73180500D03*
X162520000Y-120179500D03*
%TO.N,/W20*%
X192770000Y-38955000D03*
X152820000Y-42555000D03*
X179770000Y-33805000D03*
%TO.N,/T19*%
X170870000Y-42355000D03*
X163870000Y-47755000D03*
X148744500Y-40555000D03*
%TO.N,/W22*%
X175620000Y-42355000D03*
X164070000Y-42955000D03*
%TO.N,/T20*%
X153151620Y-38329500D03*
X170870000Y-43855000D03*
X193170000Y-40955000D03*
X162520000Y-45605000D03*
%TO.N,/U19*%
X185170000Y-42655000D03*
X192370000Y-42855000D03*
X165920000Y-47455000D03*
X153386261Y-39588739D03*
%TO.N,/P17*%
X185270000Y-46055000D03*
X169970000Y-44655000D03*
X161420000Y-46755000D03*
X148770000Y-39055000D03*
X176794500Y-49955000D03*
%TO.N,/V20*%
X154420000Y-36555000D03*
%TO.N,/N16*%
X171070000Y-46855000D03*
X176870000Y-48755000D03*
X154420000Y-38355000D03*
%TO.N,/M17*%
X175170000Y-47155000D03*
%TO.N,/M18*%
X169120000Y-47905000D03*
X193235500Y-72510000D03*
X170344500Y-56655000D03*
X176120000Y-73180500D03*
%TO.N,/P18*%
X192710000Y-65270000D03*
X181045500Y-73805500D03*
X171082299Y-48767299D03*
%TO.N,/R19*%
X165770000Y-49555000D03*
%TO.N,/E16*%
X185070000Y-48955000D03*
X185170000Y-54755000D03*
%TO.N,/D9*%
X168470000Y-50355000D03*
%TO.N,/D17*%
X174970000Y-52955000D03*
%TO.N,/C8*%
X175139027Y-50585973D03*
%TO.N,/+VCCO0*%
X171670000Y-51755000D03*
X178870000Y-110855000D03*
X171620000Y-59955000D03*
X166245500Y-61755000D03*
X161420000Y-112179500D03*
X180920000Y-83755000D03*
%TO.N,/L17*%
X184270000Y-52755000D03*
%TO.N,/D11*%
X183470000Y-54355000D03*
X174970000Y-54355000D03*
%TO.N,/K18*%
X176670000Y-55155000D03*
%TO.N,/A18*%
X159220000Y-89305000D03*
X187320000Y-84055000D03*
X168082351Y-90561736D03*
X184382701Y-66117701D03*
%TO.N,/CV_DAC*%
X67920000Y-53405000D03*
X59170000Y-35655000D03*
X79000000Y-61370500D03*
X99070000Y-65515000D03*
%TO.N,/CV_S2*%
X65970000Y-31429500D03*
X81280000Y-49965000D03*
X56790000Y-39835000D03*
X63290000Y-38635000D03*
X140170000Y-129055000D03*
X56470000Y-120355000D03*
%TO.N,/EIS_S3*%
X120319015Y-120580985D03*
X80170000Y-120255000D03*
X122678267Y-118966336D03*
X72970000Y-54155000D03*
X70420000Y-56855000D03*
%TO.N,Net-(C39-Pad1)*%
X70420000Y-53305000D03*
X81620000Y-59155000D03*
%TO.N,Net-(C39-Pad2)*%
X81770000Y-56205000D03*
X72720000Y-50355000D03*
%TO.N,Net-(C40-Pad1)*%
X67220000Y-57105000D03*
X60170000Y-57105000D03*
X76370000Y-52855000D03*
%TO.N,Net-(C41-Pad1)*%
X74920000Y-55965000D03*
X75930000Y-50705500D03*
%TO.N,/D21*%
X184950000Y-97545000D03*
X158970497Y-53794503D03*
X157790000Y-42815000D03*
X185457701Y-84467299D03*
X146555415Y-64844183D03*
X173330000Y-71535000D03*
%TO.N,/D22*%
X165000000Y-82169500D03*
X159010000Y-43345000D03*
X164345500Y-77885408D03*
X157470000Y-67365000D03*
X147657701Y-65342701D03*
%TO.N,/DAC1_NCS*%
X128100000Y-105100000D03*
X63370000Y-52155000D03*
X124842300Y-78432700D03*
X146794168Y-56494168D03*
%TO.N,/DAC1_SCK*%
X105770000Y-79355000D03*
X58970000Y-118955000D03*
X120970000Y-103855000D03*
X58970000Y-53555000D03*
X134450000Y-57611485D03*
X129430000Y-100190000D03*
%TO.N,/DAC1_SDI*%
X114815500Y-72553763D03*
X121919500Y-66610000D03*
X128570000Y-43580500D03*
X141480000Y-55100000D03*
X113570000Y-87990000D03*
X122200000Y-108620000D03*
X80670000Y-83955000D03*
X108206265Y-87238235D03*
%TO.N,/DAC1_LDAC*%
X160770000Y-77955000D03*
X178070000Y-84555000D03*
X136868280Y-57449578D03*
X64470000Y-54755000D03*
X122770000Y-46455000D03*
%TO.N,Net-(R53-Pad1)*%
X78170000Y-54255000D03*
X60370000Y-47855000D03*
%TO.N,Net-(R53-Pad2)*%
X81360000Y-54135000D03*
X62900000Y-44915000D03*
%TO.N,Net-(R55-Pad2)*%
X81430000Y-51275000D03*
X64370000Y-43740500D03*
%TO.N,/F_EIS_DDS*%
X72030000Y-45235000D03*
X128220000Y-30545000D03*
X107750000Y-47045000D03*
%TO.N,/CV_S1*%
X122510301Y-126028076D03*
X119880000Y-109730000D03*
X118784500Y-67100000D03*
X123020000Y-99305000D03*
%TO.N,/V_dds*%
X39820000Y-33705000D03*
%TO.N,/Rin_scl*%
X126683030Y-47160600D03*
X49130000Y-29695000D03*
X170520000Y-126355000D03*
X174820000Y-105705000D03*
X49520000Y-34255000D03*
X132620000Y-36155000D03*
X134730000Y-46350000D03*
%TO.N,/Rin_sda*%
X167770000Y-89105000D03*
X43510000Y-25330500D03*
X49501487Y-27229500D03*
X177082302Y-94888790D03*
X150135500Y-55370900D03*
X134805932Y-54268490D03*
X154194500Y-56505000D03*
X51020000Y-34130500D03*
%TO.N,/Vref_r*%
X160320000Y-31655000D03*
X64070000Y-33205000D03*
X60720000Y-35605000D03*
X112310000Y-29779500D03*
%TO.N,/P22*%
X174420500Y-95155000D03*
X147760000Y-58495000D03*
X178520000Y-93185000D03*
X177550000Y-83225000D03*
X155080000Y-59765000D03*
%TO.N,/D20*%
X166270000Y-91155000D03*
X165820500Y-77879500D03*
X134870000Y-47505600D03*
X151577701Y-50054500D03*
%TO.N,/Ref_generator/W_in*%
X43870000Y-36005000D03*
X35870000Y-41755000D03*
X52120000Y-31405000D03*
X39070000Y-40755000D03*
%TO.N,/Ref_generator/B_in*%
X53070000Y-32155000D03*
X99080000Y-30475000D03*
X39370000Y-41905000D03*
%TO.N,/WE3*%
X80060000Y-68645000D03*
X80420000Y-77955000D03*
X64077299Y-82622299D03*
X177570000Y-81055000D03*
X90720000Y-79655000D03*
X75450000Y-75705000D03*
%TO.N,/WE5*%
X76370000Y-97855000D03*
X79170000Y-103805000D03*
X122910000Y-115260000D03*
X168384101Y-99914946D03*
X58090000Y-91275000D03*
%TO.N,/WE7*%
X55330000Y-125090500D03*
X72260000Y-121055000D03*
X181750000Y-130745000D03*
X80650000Y-113615000D03*
%TO.N,/chn3_r*%
X71845500Y-76385000D03*
X53060000Y-82845000D03*
X107910000Y-49425000D03*
X62592367Y-84977387D03*
X80040000Y-60535000D03*
X124320000Y-35755000D03*
X80460000Y-76325000D03*
%TO.N,/chn5_r*%
X83580000Y-59755000D03*
X79020000Y-93999500D03*
X106160000Y-45585000D03*
X132580000Y-32395000D03*
X83600000Y-94165000D03*
X58240000Y-85235000D03*
X61500000Y-71535000D03*
X64550000Y-84275000D03*
X135220000Y-89379500D03*
X94710000Y-55775000D03*
X71820000Y-98445000D03*
X90660000Y-55755000D03*
X83570000Y-86315000D03*
X117154500Y-38900000D03*
%TO.N,/chn7_r*%
X149190000Y-32405000D03*
X50342500Y-107747500D03*
X116750000Y-25895000D03*
X64044500Y-120305000D03*
X120850000Y-27955000D03*
X41760000Y-120540000D03*
X138920000Y-91065000D03*
X161300000Y-90225000D03*
X83670000Y-118405000D03*
X30200000Y-84725000D03*
X101850000Y-120155000D03*
%TD*%
D21*
%TO.N,/F_RST_O*%
X144226071Y-70973929D02*
X142555104Y-69302962D01*
X142555104Y-69302962D02*
X137403278Y-69302962D01*
%TO.N,/A_SDO3*%
X129455265Y-59442235D02*
X129468030Y-59455000D01*
X129468030Y-59455000D02*
X134346263Y-59455000D01*
X134346263Y-59455000D02*
X134706263Y-59815000D01*
X134706263Y-59815000D02*
X138195172Y-59815000D01*
X138195172Y-59815000D02*
X138445172Y-59565000D01*
X138445172Y-59565000D02*
X142307208Y-59565000D01*
X142307208Y-59565000D02*
X146072659Y-63330451D01*
X146072659Y-63330451D02*
X147186263Y-63330451D01*
X147186263Y-63330451D02*
X150170000Y-66314188D01*
X150170000Y-66314188D02*
X150170000Y-67850584D01*
X150170000Y-67850584D02*
X155620000Y-73300584D01*
X155620000Y-73300584D02*
X155620000Y-74230305D01*
X155620000Y-74230305D02*
X156069695Y-74680000D01*
X156069695Y-74680000D02*
X156545000Y-74680000D01*
X156545000Y-74680000D02*
X160045000Y-78180000D01*
X160045000Y-78180000D02*
X160045000Y-78255305D01*
X160045000Y-78255305D02*
X160469695Y-78680000D01*
X160469695Y-78680000D02*
X160545000Y-78680000D01*
X160545000Y-78680000D02*
X161133500Y-79268500D01*
X161133500Y-79268500D02*
X161133500Y-89033195D01*
X161133500Y-89033195D02*
X162670000Y-90569695D01*
X162670000Y-90569695D02*
X162670000Y-90955000D01*
X162670000Y-90955000D02*
X156013685Y-90955000D01*
X156013685Y-90955000D02*
X154006500Y-92962185D01*
X154006500Y-92962185D02*
X154006500Y-96318500D01*
X154006500Y-96318500D02*
X152370000Y-97955000D01*
X152370000Y-97955000D02*
X148320000Y-97955000D01*
X148320000Y-97955000D02*
X147410000Y-97045000D01*
X147410000Y-97045000D02*
X147410000Y-95926133D01*
%TO.N,/chn3_r*%
X150054010Y-68399010D02*
X147900000Y-66245000D01*
X146260000Y-66245000D02*
X145410000Y-65395000D01*
X140755000Y-61140000D02*
X139840000Y-60225000D01*
X145410000Y-65395000D02*
X145410000Y-63247620D01*
X157094500Y-76429500D02*
X150054010Y-69389010D01*
X124580000Y-36015000D02*
X124320000Y-35755000D01*
X158593500Y-79604305D02*
X157094500Y-78105305D01*
X150054010Y-69389010D02*
X150054010Y-68399010D01*
X158593500Y-86119300D02*
X158593500Y-79604305D01*
X127945000Y-54693514D02*
X127945000Y-50130600D01*
X147900000Y-66245000D02*
X146260000Y-66245000D01*
X157570000Y-87142800D02*
X158593500Y-86119300D01*
X142229237Y-61090000D02*
X142179237Y-61140000D01*
X142179237Y-61140000D02*
X140755000Y-61140000D01*
X139840000Y-60225000D02*
X134536435Y-60225000D01*
X157094500Y-78105305D02*
X157094500Y-76429500D01*
X134176435Y-59865000D02*
X132320305Y-59865000D01*
X134536435Y-60225000D02*
X134176435Y-59865000D01*
X145410000Y-63247620D02*
X143252380Y-61090000D01*
X132320305Y-59865000D02*
X132012805Y-60172500D01*
X132012805Y-60172500D02*
X129217500Y-60172500D01*
X129217500Y-60172500D02*
X127530000Y-58485000D01*
X143252380Y-61090000D02*
X142229237Y-61090000D01*
X127530000Y-55108514D02*
X127945000Y-54693514D01*
X124580000Y-46765600D02*
X124580000Y-36015000D01*
X127530000Y-58485000D02*
X127530000Y-55108514D01*
X127945000Y-50130600D02*
X124580000Y-46765600D01*
%TO.N,/DAC1_LDAC*%
X136868280Y-57449578D02*
X137061259Y-57642557D01*
X137061259Y-57642557D02*
X141657557Y-57642557D01*
X141657557Y-57642557D02*
X146445451Y-62430451D01*
X146445451Y-62430451D02*
X147559055Y-62430451D01*
X147559055Y-62430451D02*
X151070000Y-65941396D01*
X151070000Y-65941396D02*
X151070000Y-67477792D01*
X151070000Y-67477792D02*
X160770000Y-77177792D01*
X160770000Y-77177792D02*
X160770000Y-77955000D01*
%TO.N,/R20*%
X136846279Y-55930000D02*
X137111279Y-56195000D01*
X137111279Y-56195000D02*
X140935305Y-56195000D01*
X134980000Y-56094500D02*
X135144500Y-55930000D01*
X135144500Y-55930000D02*
X136846279Y-55930000D01*
X146720756Y-61980451D02*
X147855451Y-61980451D01*
X140935305Y-56195000D02*
X146720756Y-61980451D01*
X161583500Y-79728500D02*
X163814666Y-81959666D01*
X161583500Y-77354896D02*
X161583500Y-79728500D01*
X151520000Y-67291396D02*
X161583500Y-77354896D01*
X151520000Y-65645000D02*
X151520000Y-67291396D01*
X147855451Y-61980451D02*
X151520000Y-65645000D01*
X163814666Y-81959666D02*
X163814666Y-89999666D01*
X163814666Y-89999666D02*
X167201133Y-93386133D01*
X167201133Y-93386133D02*
X167730000Y-93386133D01*
%TO.N,/D_1*%
X128214500Y-57840000D02*
X128700000Y-57840000D01*
X128700000Y-57840000D02*
X131130000Y-55410000D01*
X136906107Y-55410000D02*
X137281107Y-55785000D01*
X131130000Y-55410000D02*
X136906107Y-55410000D01*
X142138737Y-55410000D02*
X142770763Y-55410000D01*
X137281107Y-55785000D02*
X141763737Y-55785000D01*
X141763737Y-55785000D02*
X142138737Y-55410000D01*
X147943352Y-60582589D02*
X148428296Y-60582589D01*
X142770763Y-55410000D02*
X147943352Y-60582589D01*
%TO.N,/DAC1_SDI*%
X140957016Y-55100000D02*
X140842015Y-55215001D01*
X137290935Y-55215000D02*
X137055935Y-54980000D01*
X140842015Y-55215001D02*
X137290935Y-55215000D01*
X141480000Y-55100000D02*
X140957016Y-55100000D01*
X133448637Y-54980000D02*
X131013737Y-52545100D01*
X137055935Y-54980000D02*
X133448637Y-54980000D01*
X131013737Y-52545100D02*
X129299500Y-52545100D01*
X129299500Y-52545100D02*
X128360000Y-51605600D01*
X128360000Y-51605600D02*
X128360000Y-49965772D01*
X128360000Y-49965772D02*
X125950000Y-47555772D01*
X125950000Y-47555772D02*
X125950000Y-46765600D01*
X125950000Y-46765600D02*
X128570000Y-44145600D01*
X128570000Y-44145600D02*
X128570000Y-43580500D01*
%TO.N,/Rin_sda*%
X134805932Y-54268490D02*
X135017442Y-54480000D01*
X134805932Y-54268490D02*
X133738490Y-54268490D01*
X133738490Y-54268490D02*
X132540000Y-53070000D01*
X132540000Y-53070000D02*
X132118465Y-53070000D01*
X135017442Y-54480000D02*
X137135763Y-54480000D01*
X137135763Y-54480000D02*
X137460763Y-54805000D01*
X137460763Y-54805000D02*
X140672188Y-54805000D01*
X140672188Y-54805000D02*
X141527188Y-53950000D01*
X128200000Y-49225944D02*
X128200000Y-45095428D01*
X128770000Y-49795944D02*
X128200000Y-49225944D01*
X141527188Y-53950000D02*
X143130000Y-53950000D01*
X143130000Y-53950000D02*
X144485000Y-55305000D01*
X144485000Y-55305000D02*
X150069600Y-55305000D01*
X150069600Y-55305000D02*
X150135500Y-55370900D01*
X132118465Y-53070000D02*
X131183565Y-52135100D01*
X131183565Y-52135100D02*
X129559500Y-52135100D01*
X129559500Y-52135100D02*
X128770000Y-51345600D01*
X128770000Y-51345600D02*
X128770000Y-49795944D01*
X130500500Y-42794928D02*
X130500500Y-34485500D01*
X130500500Y-34485500D02*
X129620000Y-33605000D01*
X128200000Y-45095428D02*
X130500500Y-42794928D01*
X129620000Y-33605000D02*
X101094695Y-33605000D01*
X101094695Y-33605000D02*
X98369695Y-30880000D01*
X98369695Y-30880000D02*
X89825195Y-30880000D01*
X89825195Y-30880000D02*
X85880195Y-26935000D01*
X85880195Y-26935000D02*
X59440000Y-26935000D01*
X59440000Y-26935000D02*
X52244500Y-34130500D01*
X52244500Y-34130500D02*
X51020000Y-34130500D01*
%TO.N,/K20*%
X134850000Y-53310000D02*
X135250000Y-53710000D01*
X135250000Y-53710000D02*
X137334500Y-53710000D01*
X137334500Y-53710000D02*
X137744500Y-54120000D01*
%TO.N,/N22*%
X137261666Y-58295985D02*
X137274425Y-58308744D01*
X137274425Y-58308744D02*
X137768744Y-58308744D01*
X138615000Y-59155000D02*
X142533604Y-59155000D01*
X131754015Y-58295985D02*
X137261666Y-58295985D01*
X147372659Y-62880451D02*
X150620000Y-66127792D01*
X150620000Y-66127792D02*
X150620000Y-67664188D01*
X137768744Y-58308744D02*
X138615000Y-59155000D01*
X142533604Y-59155000D02*
X146259055Y-62880451D01*
X146259055Y-62880451D02*
X147372659Y-62880451D01*
X150620000Y-67664188D02*
X156370000Y-73414188D01*
X156370000Y-73414188D02*
X156370000Y-73955000D01*
D22*
%TO.N,GND*%
X126150000Y-38050000D02*
X125390000Y-38810000D01*
X125390000Y-38810000D02*
X125390000Y-43590000D01*
X125390000Y-43590000D02*
X126150000Y-44350000D01*
D21*
%TO.N,/C22*%
X142600000Y-67759500D02*
X142580500Y-67740000D01*
X142580500Y-67740000D02*
X137998210Y-67740000D01*
X137998210Y-67740000D02*
X136354500Y-69383710D01*
%TO.N,/G20*%
X136668783Y-65588619D02*
X135270000Y-66987402D01*
X135270000Y-72115000D02*
X143870000Y-80715000D01*
X143870000Y-80715000D02*
X143870000Y-82829500D01*
X135270000Y-66987402D02*
X135270000Y-72115000D01*
%TO.N,/H21*%
X137833999Y-61359848D02*
X137895348Y-61421197D01*
X137895348Y-61421197D02*
X137895348Y-63343791D01*
X137895348Y-63343791D02*
X136639139Y-64600000D01*
X136639139Y-64600000D02*
X135422392Y-64600000D01*
X132330000Y-67692392D02*
X132330000Y-71353299D01*
X132330000Y-71353299D02*
X133595000Y-72618299D01*
X133595000Y-72618299D02*
X133595000Y-75480805D01*
X135422392Y-64600000D02*
X132330000Y-67692392D01*
X133595000Y-75480805D02*
X134444597Y-76330402D01*
X134444597Y-76330402D02*
X134444597Y-78129597D01*
X134444597Y-78129597D02*
X136595000Y-80280000D01*
X136595000Y-80280000D02*
X136595000Y-80479805D01*
X136595000Y-80479805D02*
X137019695Y-80904500D01*
X137019695Y-80904500D02*
X137219500Y-80904500D01*
X137219500Y-80904500D02*
X137250000Y-80935000D01*
X137250000Y-80935000D02*
X137250000Y-84602800D01*
%TO.N,/C20*%
X136354500Y-68280000D02*
X136770000Y-68280000D01*
X136770000Y-68280000D02*
X138980000Y-66070000D01*
X142435000Y-66070000D02*
X148770000Y-72405000D01*
X148770000Y-72405000D02*
X148770000Y-73055000D01*
X138980000Y-66070000D02*
X142435000Y-66070000D01*
%TO.N,/H22*%
X141520000Y-79637792D02*
X141520000Y-82291396D01*
X142330000Y-83101396D02*
X142330000Y-84602800D01*
X133135500Y-70830000D02*
X133270000Y-70964500D01*
X133270000Y-70964500D02*
X133270000Y-71235000D01*
X133270000Y-71235000D02*
X134400000Y-72365000D01*
X134400000Y-72365000D02*
X134888198Y-72365000D01*
X134888198Y-72365000D02*
X134888198Y-73805302D01*
X134888198Y-73805302D02*
X136987896Y-75905000D01*
X136987896Y-75905000D02*
X137787208Y-75905000D01*
X137787208Y-75905000D02*
X141520000Y-79637792D01*
X141520000Y-82291396D02*
X142330000Y-83101396D01*
%TO.N,/L19*%
X136140000Y-61319500D02*
X136140000Y-61746653D01*
X136140000Y-61746653D02*
X131340000Y-66546653D01*
X131340000Y-66546653D02*
X131340000Y-74959695D01*
X131340000Y-74959695D02*
X131301850Y-74997845D01*
X131301850Y-74997845D02*
X131301850Y-78286850D01*
X131301850Y-78286850D02*
X134710000Y-81695000D01*
X134710000Y-81695000D02*
X134710000Y-84602800D01*
%TO.N,/A_SDO7*%
X130961131Y-60985115D02*
X131363746Y-60582500D01*
X131363746Y-60582500D02*
X131416246Y-60635000D01*
X131416246Y-60635000D02*
X139075305Y-60635000D01*
X139075305Y-60635000D02*
X155470000Y-77029695D01*
X155470000Y-77029695D02*
X155470000Y-81929500D01*
%TO.N,/K21*%
X137210348Y-62670348D02*
X137210348Y-63016420D01*
X137210348Y-63016420D02*
X136036768Y-64190000D01*
X136036768Y-64190000D02*
X135195996Y-64190000D01*
X131790000Y-67595996D02*
X131790000Y-71449695D01*
X135195996Y-64190000D02*
X131790000Y-67595996D01*
X133145000Y-72804695D02*
X133145000Y-78904500D01*
X131790000Y-71449695D02*
X133145000Y-72804695D01*
X133145000Y-78904500D02*
X134420000Y-80179500D01*
%TO.N,/FT_NCS*%
X144750000Y-53424500D02*
X150429500Y-53424500D01*
X150429500Y-53424500D02*
X151970000Y-54965000D01*
X162033500Y-77168500D02*
X162033500Y-79542104D01*
X162033500Y-79542104D02*
X163736396Y-81245000D01*
X151970000Y-54965000D02*
X151970000Y-67105000D01*
X151970000Y-67105000D02*
X162033500Y-77168500D01*
X171810000Y-81245000D02*
X176070000Y-85505000D01*
X163736396Y-81245000D02*
X171810000Y-81245000D01*
%TO.N,/SYS_CLK4*%
X169757700Y-90792700D02*
X169820000Y-90855000D01*
X169820000Y-90855000D02*
X170770000Y-90855000D01*
X170770000Y-90855000D02*
X175320000Y-86305000D01*
X175320000Y-86305000D02*
X176770000Y-86305000D01*
X176770000Y-86305000D02*
X177170000Y-85905000D01*
X177170000Y-85905000D02*
X177170000Y-85316701D01*
X177170000Y-85316701D02*
X172638299Y-80785000D01*
X172638299Y-80785000D02*
X163912792Y-80785000D01*
X163912792Y-80785000D02*
X162483500Y-79355708D01*
X162483500Y-79355708D02*
X162483500Y-76982104D01*
X162483500Y-76982104D02*
X152420000Y-66918604D01*
X152420000Y-66918604D02*
X152420000Y-54540000D01*
X152420000Y-54540000D02*
X150552799Y-52672799D01*
X150552799Y-52672799D02*
X149829016Y-52672799D01*
X149586217Y-52430000D02*
X137234237Y-52430000D01*
X149829016Y-52672799D02*
X149586217Y-52430000D01*
X137234237Y-52430000D02*
X137019237Y-52645000D01*
X137019237Y-52645000D02*
X135635000Y-52645000D01*
X135635000Y-52645000D02*
X132713198Y-49723198D01*
X132713198Y-49723198D02*
X132713198Y-46511802D01*
X132713198Y-46511802D02*
X133670000Y-45555000D01*
X133670000Y-45555000D02*
X133670000Y-43905000D01*
X133670000Y-43905000D02*
X132485000Y-42720000D01*
X132485000Y-42720000D02*
X132399695Y-42720000D01*
X132399695Y-42720000D02*
X131970000Y-42290305D01*
X131970000Y-42290305D02*
X131970000Y-38355000D01*
X131970000Y-38355000D02*
X135170000Y-35155000D01*
X135170000Y-35155000D02*
X139870000Y-35155000D01*
%TO.N,/D_4*%
X128250000Y-67101778D02*
X128250000Y-75085600D01*
X130961131Y-63180000D02*
X130961131Y-64390647D01*
X130961131Y-64390647D02*
X128250000Y-67101778D01*
X130070000Y-78480500D02*
X132044500Y-80455000D01*
X128250000Y-75085600D02*
X130070000Y-76905600D01*
X130070000Y-76905600D02*
X130070000Y-78480500D01*
%TO.N,/D_6*%
X134826316Y-48741916D02*
X135868232Y-47700000D01*
X135868232Y-47700000D02*
X142770000Y-47700000D01*
X142770000Y-47700000D02*
X144360000Y-49290000D01*
X144360000Y-49290000D02*
X149787896Y-49290000D01*
X149787896Y-49290000D02*
X152870000Y-52372104D01*
X152870000Y-52372104D02*
X152870000Y-66732208D01*
X152870000Y-66732208D02*
X162933500Y-76795708D01*
X162933500Y-76795708D02*
X162933500Y-79169312D01*
X162933500Y-79169312D02*
X163969188Y-80205000D01*
X163969188Y-80205000D02*
X172694695Y-80205000D01*
X172694695Y-80205000D02*
X177620000Y-85130305D01*
X177620000Y-85130305D02*
X177620000Y-86755000D01*
X177620000Y-86755000D02*
X176370000Y-86755000D01*
X176370000Y-86755000D02*
X170762367Y-92362633D01*
X170762367Y-92362633D02*
X169846052Y-92362633D01*
X169846052Y-92362633D02*
X169070000Y-93138685D01*
X169070000Y-93138685D02*
X169070000Y-94586133D01*
X169070000Y-94586133D02*
X167730000Y-95926133D01*
%TO.N,/D20*%
X134870000Y-47505600D02*
X135176426Y-47199174D01*
X135176426Y-47199174D02*
X143639174Y-47199174D01*
X143639174Y-47199174D02*
X145320000Y-48880000D01*
X145320000Y-48880000D02*
X150403201Y-48880000D01*
X150403201Y-48880000D02*
X151577701Y-50054500D01*
%TO.N,/chn2_r*%
X127535000Y-73740000D02*
X127535000Y-68570600D01*
X127007299Y-74267701D02*
X127535000Y-73740000D01*
X126560000Y-67595600D02*
X126560000Y-62575600D01*
X127535000Y-68570600D02*
X126560000Y-67595600D01*
X127535000Y-61600600D02*
X127535000Y-59676314D01*
X126560000Y-62575600D02*
X127535000Y-61600600D01*
X127120000Y-59261314D02*
X127120000Y-54938686D01*
X127535000Y-59676314D02*
X127120000Y-59261314D01*
X127120000Y-54938686D02*
X127535000Y-54523686D01*
X127535000Y-54523686D02*
X127535000Y-53376314D01*
X127535000Y-53376314D02*
X121380000Y-47221314D01*
X121380000Y-47221314D02*
X121380000Y-40420000D01*
X121380000Y-40420000D02*
X122920000Y-38880000D01*
X122920000Y-38880000D02*
X123810000Y-38880000D01*
X123810000Y-38880000D02*
X123985000Y-38705000D01*
X123985000Y-38705000D02*
X123985000Y-36875000D01*
X123985000Y-36875000D02*
X123290000Y-36180000D01*
X123290000Y-36180000D02*
X123290000Y-35170000D01*
X123290000Y-35170000D02*
X124010000Y-34450000D01*
X124010000Y-34450000D02*
X125610000Y-34450000D01*
X125610000Y-34450000D02*
X126249500Y-35089500D01*
X126249500Y-35089500D02*
X126790000Y-35089500D01*
D22*
%TO.N,GND*%
X136047935Y-40211565D02*
X134400000Y-38563630D01*
X134400000Y-38563630D02*
X134400000Y-37089500D01*
X134400000Y-37089500D02*
X135650000Y-35839500D01*
D21*
X43470000Y-45179500D02*
X46920000Y-48629500D01*
X119770000Y-117530000D02*
X119850000Y-117450000D01*
X100820000Y-117530000D02*
X103860000Y-117530000D01*
X110160000Y-114540000D02*
X110160000Y-112734366D01*
X78210000Y-89845000D02*
X78210000Y-89785000D01*
X70775000Y-97280000D02*
X64095000Y-97280000D01*
X126150000Y-76450000D02*
X126150000Y-70150000D01*
X171750000Y-125295000D02*
X184820000Y-125295000D01*
X137910305Y-129740000D02*
X132986263Y-129740000D01*
X140785305Y-126865000D02*
X137910305Y-129740000D01*
X64095000Y-97280000D02*
X63130000Y-98245000D01*
X103840000Y-101670000D02*
X103860000Y-101690000D01*
X171727652Y-125272652D02*
X171750000Y-125295000D01*
X98990000Y-54585000D02*
X99525000Y-54050000D01*
X106835000Y-114555000D02*
X110145000Y-114555000D01*
X103840000Y-92120000D02*
X103840000Y-101670000D01*
X47820000Y-32555000D02*
X49965000Y-30410000D01*
X109270000Y-120680000D02*
X110160000Y-121570000D01*
X153710000Y-126865000D02*
X140785305Y-126865000D01*
X98820000Y-41655000D02*
X116245000Y-41655000D01*
X105415634Y-107990000D02*
X103860000Y-107990000D01*
X83750000Y-72615000D02*
X83750000Y-64655000D01*
X95660000Y-34995000D02*
X88380000Y-34995000D01*
X119920000Y-38180000D02*
X119920000Y-40240000D01*
X126150000Y-79540000D02*
X126150000Y-76450000D01*
X70775000Y-97280000D02*
X78210000Y-89845000D01*
X49965000Y-30410000D02*
X52645000Y-30410000D01*
X126150000Y-70150000D02*
X126150000Y-60250000D01*
X84020000Y-39355000D02*
X84020000Y-43115000D01*
X131656263Y-128410000D02*
X130810000Y-128410000D01*
X120820000Y-41140000D02*
X120820000Y-43460000D01*
X119920000Y-40240000D02*
X120820000Y-41140000D01*
X113810000Y-44350000D02*
X119950000Y-44350000D01*
X110150000Y-48010000D02*
X113810000Y-44350000D01*
X110160000Y-117530000D02*
X119770000Y-117530000D01*
X63870000Y-63875000D02*
X63830000Y-63835000D01*
X132986263Y-129740000D02*
X131656263Y-128410000D01*
X120820000Y-43460000D02*
X119950000Y-44330000D01*
X110150000Y-54050000D02*
X110150000Y-48010000D01*
X116245000Y-41655000D02*
X119850000Y-38050000D01*
X43470000Y-41605000D02*
X43470000Y-45179500D01*
X83750000Y-64655000D02*
X83620000Y-64525000D01*
D22*
X129110500Y-35089500D02*
X126150000Y-38050000D01*
D21*
X100340000Y-118010000D02*
X100820000Y-117530000D01*
X110160000Y-121570000D02*
X110160000Y-123830000D01*
X67350000Y-63875000D02*
X63870000Y-63875000D01*
X99525000Y-54050000D02*
X103850000Y-54050000D01*
X84020000Y-43185000D02*
X84130000Y-43295000D01*
D22*
X129550000Y-35089500D02*
X129110500Y-35089500D01*
D21*
X110160000Y-112734366D02*
X105415634Y-107990000D01*
X129645000Y-83035000D02*
X126150000Y-79540000D01*
X88370000Y-35005000D02*
X84020000Y-39355000D01*
X110145000Y-114555000D02*
X110160000Y-114540000D01*
X52645000Y-30410000D02*
X55800000Y-27255000D01*
X96870000Y-36205000D02*
X95660000Y-34995000D01*
X84020000Y-43115000D02*
X84020000Y-43185000D01*
X110160000Y-117530000D02*
X110160000Y-114540000D01*
X88380000Y-34995000D02*
X88370000Y-35005000D01*
X103860000Y-117530000D02*
X106835000Y-114555000D01*
X103860000Y-123830000D02*
X110160000Y-123830000D01*
X184820000Y-125295000D02*
X186480000Y-123635000D01*
X119950000Y-44330000D02*
X119950000Y-44350000D01*
X130810000Y-128410000D02*
X126150000Y-123750000D01*
%TO.N,+5V*%
X172810000Y-104709466D02*
X175435534Y-104709466D01*
X97620000Y-46405000D02*
X97620000Y-57555000D01*
X175435534Y-104709466D02*
X177740000Y-102405000D01*
X97620000Y-117579500D02*
X97544500Y-117655000D01*
X86345000Y-31780000D02*
X78245000Y-39880000D01*
X74295305Y-48405000D02*
X71070000Y-48405000D01*
X97620000Y-57555000D02*
X97620000Y-69455000D01*
X177740000Y-102405000D02*
X179270000Y-102405000D01*
X97620000Y-81455000D02*
X97620000Y-117579500D01*
X97620000Y-32555000D02*
X97620000Y-46405000D01*
X97620000Y-69455000D02*
X97620000Y-81455000D01*
X179720000Y-101955000D02*
X187220000Y-101955000D01*
X78245000Y-44455305D02*
X74295305Y-48405000D01*
X97620000Y-32555000D02*
X96845000Y-31780000D01*
X96845000Y-31780000D02*
X86345000Y-31780000D01*
X78245000Y-39880000D02*
X78245000Y-44455305D01*
X179270000Y-102405000D02*
X179720000Y-101955000D01*
%TO.N,/chn2*%
X83444500Y-57205000D02*
X83444500Y-58355805D01*
X83405000Y-35770000D02*
X84070000Y-35105000D01*
X81820000Y-99505000D02*
X81820000Y-110305000D01*
X83444500Y-58355805D02*
X81820000Y-59980305D01*
X83444500Y-57205000D02*
X83570000Y-57079500D01*
X81820000Y-110305000D02*
X81820000Y-121205000D01*
X83405000Y-43595305D02*
X83405000Y-35770000D01*
X81820000Y-79205000D02*
X81820000Y-88755000D01*
X81820000Y-59980305D02*
X81820000Y-79205000D01*
X83570000Y-46505000D02*
X84230000Y-45845000D01*
X84230000Y-44420305D02*
X83405000Y-43595305D01*
X81820000Y-88755000D02*
X81820000Y-99505000D01*
X83570000Y-57079500D02*
X83570000Y-46505000D01*
X84230000Y-45845000D02*
X84230000Y-44420305D01*
%TO.N,-3V*%
X70820000Y-63815000D02*
X73110000Y-63815000D01*
X79170000Y-52155000D02*
X78020000Y-52155000D01*
X80270000Y-56655000D02*
X80270000Y-53255000D01*
X73110000Y-63815000D02*
X80270000Y-56655000D01*
X80270000Y-53255000D02*
X79170000Y-52155000D01*
%TO.N,/chn3*%
X181952800Y-117285000D02*
X183112800Y-116125000D01*
X177240000Y-117285000D02*
X181952800Y-117285000D01*
X175270000Y-119255000D02*
X177240000Y-117285000D01*
%TO.N,+3.3V*%
X63720000Y-35655000D02*
X64820000Y-34555000D01*
X67370000Y-96555000D02*
X74170000Y-89755000D01*
X188729695Y-75670000D02*
X190640000Y-75670000D01*
X93340000Y-70425000D02*
X93420000Y-70505000D01*
X193920000Y-35355000D02*
X190695000Y-32130000D01*
X93190000Y-94315000D02*
X93390000Y-94515000D01*
X189320000Y-97805000D02*
X189320000Y-77630305D01*
X93390000Y-94515000D02*
X93390000Y-94555000D01*
X93420000Y-58505000D02*
X93340000Y-58585000D01*
X62995000Y-36380000D02*
X46495000Y-36380000D01*
X188345000Y-76655305D02*
X188345000Y-76054695D01*
X93390000Y-94555000D02*
X93110000Y-94835000D01*
X93460000Y-106515000D02*
X92890000Y-107085000D01*
X61770000Y-93275000D02*
X65050000Y-96555000D01*
X93110000Y-106165000D02*
X93460000Y-106515000D01*
X93190000Y-82705000D02*
X93190000Y-94315000D01*
X175030229Y-102169466D02*
X177494695Y-99705000D01*
X92890000Y-107085000D02*
X92890000Y-118245000D01*
X93410000Y-82485000D02*
X93190000Y-82705000D01*
X190640000Y-75670000D02*
X190820000Y-75850000D01*
X187420000Y-99705000D02*
X189320000Y-97805000D01*
X92780000Y-71145000D02*
X92780000Y-81855000D01*
X64820000Y-34555000D02*
X64820000Y-31285000D01*
X46495000Y-36380000D02*
X45370000Y-35255000D01*
X190820000Y-75850000D02*
X190860000Y-75810000D01*
X64820000Y-31285000D02*
X64820000Y-29255000D01*
X74170000Y-89755000D02*
X76520000Y-89755000D01*
X64820000Y-29255000D02*
X63250000Y-27685000D01*
X193920000Y-74300000D02*
X193920000Y-35355000D01*
X93340000Y-58585000D02*
X93340000Y-70425000D01*
X188345000Y-76054695D02*
X188729695Y-75670000D01*
X189320000Y-77630305D02*
X188345000Y-76655305D01*
X93420000Y-70505000D02*
X92780000Y-71145000D01*
X76520000Y-89755000D02*
X76520000Y-85955000D01*
X190860000Y-75810000D02*
X192410000Y-75810000D01*
X76520000Y-85955000D02*
X76320000Y-85755000D01*
X59970000Y-110252500D02*
X59970000Y-110025000D01*
X63720000Y-35655000D02*
X62995000Y-36380000D01*
X61770000Y-91855000D02*
X61770000Y-93275000D01*
X65050000Y-96555000D02*
X67370000Y-96555000D01*
X177494695Y-99705000D02*
X187420000Y-99705000D01*
X92890000Y-118245000D02*
X93400000Y-118755000D01*
X92780000Y-81855000D02*
X93410000Y-82485000D01*
X192410000Y-75810000D02*
X193920000Y-74300000D01*
X55407500Y-114815000D02*
X59970000Y-110252500D01*
X190695000Y-32130000D02*
X172795000Y-32130000D01*
X93110000Y-94835000D02*
X93110000Y-106165000D01*
X172795000Y-32130000D02*
X171570000Y-33355000D01*
X172810000Y-102169466D02*
X175030229Y-102169466D01*
%TO.N,nVDD_2*%
X80895000Y-124943604D02*
X80895000Y-119780000D01*
X74170000Y-100155000D02*
X74370000Y-100355000D01*
X80895000Y-119780000D02*
X80520000Y-119405000D01*
X77230000Y-119405000D02*
X74120000Y-122515000D01*
X166420000Y-103399466D02*
X166420000Y-108505000D01*
X65020000Y-80655000D02*
X71820000Y-80655000D01*
X67570000Y-100155000D02*
X74170000Y-100155000D01*
X80520000Y-119405000D02*
X77230000Y-119405000D01*
X108370000Y-115626500D02*
X108262104Y-115626500D01*
X108262104Y-115626500D02*
X97423604Y-126465000D01*
X165190000Y-102169466D02*
X166420000Y-103399466D01*
X166420000Y-108505000D02*
X166420000Y-109655000D01*
X97423604Y-126465000D02*
X82416396Y-126465000D01*
X71820000Y-80655000D02*
X74170000Y-78305000D01*
X82416396Y-126465000D02*
X80895000Y-124943604D01*
%TO.N,/chn4*%
X172619544Y-117575000D02*
X172984772Y-117940228D01*
X150849544Y-116805000D02*
X152999544Y-118955000D01*
X129600000Y-117925000D02*
X130720000Y-116805000D01*
X172984772Y-117940228D02*
X175823500Y-115101500D01*
X130720000Y-116805000D02*
X150849544Y-116805000D01*
X129600000Y-118870000D02*
X129600000Y-117925000D01*
X181596300Y-115101500D02*
X183112800Y-113585000D01*
X171480456Y-117575000D02*
X172619544Y-117575000D01*
X175823500Y-115101500D02*
X181596300Y-115101500D01*
X152999544Y-118955000D02*
X170100456Y-118955000D01*
X170100456Y-118955000D02*
X171480456Y-117575000D01*
%TO.N,/chn5*%
X85920000Y-93205000D02*
X87770000Y-93205000D01*
X85920000Y-71755000D02*
X85920000Y-82455000D01*
X172315500Y-116329500D02*
X175740000Y-112905000D01*
X87920000Y-38855000D02*
X85920000Y-38855000D01*
X85920000Y-82455000D02*
X85920000Y-93205000D01*
X85920000Y-93205000D02*
X85920000Y-114155000D01*
X178370000Y-112205000D02*
X181952800Y-112205000D01*
X87920000Y-61055000D02*
X85970000Y-61055000D01*
X85920000Y-42805000D02*
X85920000Y-50355000D01*
X87920000Y-50305000D02*
X85970000Y-50305000D01*
X87720000Y-82505000D02*
X85970000Y-82505000D01*
X85920000Y-50355000D02*
X85920000Y-61105000D01*
X85970000Y-82505000D02*
X85920000Y-82455000D01*
X85920000Y-122929500D02*
X85920000Y-114155000D01*
X175740000Y-112905000D02*
X177670000Y-112905000D01*
X181952800Y-112205000D02*
X183112800Y-111045000D01*
X85920000Y-61105000D02*
X85920000Y-71755000D01*
X87920000Y-71755000D02*
X85920000Y-71755000D01*
X85970000Y-50305000D02*
X85920000Y-50355000D01*
X84170000Y-124679500D02*
X85920000Y-122929500D01*
X87770000Y-114155000D02*
X85920000Y-114155000D01*
X171970000Y-116329500D02*
X172315500Y-116329500D01*
X85970000Y-61055000D02*
X85920000Y-61105000D01*
X85920000Y-38855000D02*
X85920000Y-42805000D01*
X177670000Y-112905000D02*
X178370000Y-112205000D01*
%TO.N,/chn6*%
X87870000Y-94555000D02*
X88460000Y-94555000D01*
X88870000Y-54029695D02*
X88870000Y-62355000D01*
X88280000Y-76220305D02*
X88280000Y-80739695D01*
X87870000Y-83805000D02*
X88870000Y-83805000D01*
X88795000Y-105380000D02*
X88870000Y-105305000D01*
X88610000Y-51865000D02*
X88610000Y-53769695D01*
X88645000Y-70204695D02*
X88645000Y-75855305D01*
X88460000Y-94555000D02*
X88495000Y-94590000D01*
X88495000Y-92904695D02*
X88495000Y-94590000D01*
X88645000Y-75855305D02*
X88280000Y-76220305D01*
X88495000Y-104930000D02*
X88870000Y-105305000D01*
X88870000Y-40555000D02*
X88870000Y-51605000D01*
X88420000Y-40105000D02*
X88870000Y-40555000D01*
X87920000Y-124655000D02*
X87920000Y-122605000D01*
X88340000Y-84335000D02*
X88340000Y-92749695D01*
X88500000Y-62725000D02*
X88500000Y-70059695D01*
X88820000Y-105255000D02*
X88870000Y-105305000D01*
X88340000Y-92749695D02*
X88495000Y-92904695D01*
X87920000Y-122605000D02*
X88795000Y-121730000D01*
X88500000Y-70059695D02*
X88645000Y-70204695D01*
X88795000Y-121730000D02*
X88795000Y-105380000D01*
X87920000Y-73055000D02*
X88870000Y-73055000D01*
X87870000Y-51605000D02*
X88870000Y-51605000D01*
X88610000Y-53769695D02*
X88870000Y-54029695D01*
X88495000Y-94590000D02*
X88495000Y-104930000D01*
X88280000Y-80739695D02*
X88870000Y-81329695D01*
X87920000Y-40105000D02*
X88420000Y-40105000D01*
X88870000Y-81329695D02*
X88870000Y-83805000D01*
X88870000Y-62355000D02*
X88500000Y-62725000D01*
X87870000Y-62355000D02*
X88870000Y-62355000D01*
X88870000Y-51605000D02*
X88610000Y-51865000D01*
X87870000Y-105255000D02*
X88820000Y-105255000D01*
X88870000Y-83805000D02*
X88340000Y-84335000D01*
%TO.N,/chn7*%
X175470000Y-108555000D02*
X176220000Y-108555000D01*
X176220000Y-108555000D02*
X180070000Y-104705000D01*
X181852800Y-104705000D02*
X183112800Y-105965000D01*
X180070000Y-104705000D02*
X181852800Y-104705000D01*
%TO.N,/A_SCK*%
X94200000Y-120785000D02*
X93740000Y-121245000D01*
X96090000Y-124325000D02*
X96090000Y-121295000D01*
X92650000Y-124780500D02*
X95634500Y-124780500D01*
X96090000Y-121295000D02*
X95580000Y-120785000D01*
X95580000Y-120785000D02*
X94200000Y-120785000D01*
X95634500Y-124780500D02*
X96090000Y-124325000D01*
%TO.N,/WE1*%
X117920000Y-48705000D02*
X121720000Y-52505000D01*
X121590000Y-67249237D02*
X121590000Y-71825000D01*
X121234500Y-66893737D02*
X121590000Y-67249237D01*
X79595000Y-34618299D02*
X79595000Y-34623604D01*
X80899500Y-33930000D02*
X80283299Y-33930000D01*
X77158555Y-37060049D02*
X76847848Y-37060049D01*
X76847848Y-37060049D02*
X76502897Y-37405000D01*
X76502897Y-37405000D02*
X72870000Y-37405000D01*
X83400000Y-30665000D02*
X83400000Y-31429500D01*
X83400000Y-31429500D02*
X80899500Y-33930000D01*
X121720000Y-52505000D02*
X121234500Y-52990500D01*
X80942701Y-28207701D02*
X83400000Y-30665000D01*
X79595000Y-34623604D02*
X77158555Y-37060049D01*
X112620000Y-48705000D02*
X117920000Y-48705000D01*
X121590000Y-71825000D02*
X123020000Y-73255000D01*
X121234500Y-52990500D02*
X121234500Y-66893737D01*
X80283299Y-33930000D02*
X79595000Y-34618299D01*
%TO.N,/V_ref*%
X194370000Y-100625000D02*
X194370000Y-34785000D01*
X194370000Y-34785000D02*
X190330000Y-30745000D01*
X185220000Y-109775000D02*
X194370000Y-100625000D01*
X158270000Y-29605000D02*
X127615305Y-29605000D01*
X190330000Y-30745000D02*
X159410000Y-30745000D01*
X127080305Y-29070000D02*
X115155000Y-29070000D01*
X159410000Y-30745000D02*
X158270000Y-29605000D01*
X114620000Y-29605000D02*
X114070000Y-29055000D01*
X115155000Y-29070000D02*
X114620000Y-29605000D01*
X127615305Y-29605000D02*
X127080305Y-29070000D01*
%TO.N,/CV_ref*%
X108430000Y-51730000D02*
X108430000Y-67970000D01*
X105900000Y-75600000D02*
X105900000Y-75700000D01*
X103900000Y-73600000D02*
X105900000Y-75600000D01*
X108400000Y-51700000D02*
X108430000Y-51730000D01*
X103900000Y-72500000D02*
X103900000Y-73600000D01*
X108430000Y-67970000D02*
X103900000Y-72500000D01*
%TO.N,/CE*%
X50105000Y-44190000D02*
X63200305Y-44190000D01*
X63200305Y-44190000D02*
X63475305Y-44465000D01*
X63475305Y-44465000D02*
X70144695Y-44465000D01*
X70144695Y-44465000D02*
X70454695Y-44155000D01*
X47620000Y-41705000D02*
X50105000Y-44190000D01*
X180572800Y-105965000D02*
X181862800Y-107255000D01*
X181862800Y-107255000D02*
X186970000Y-107255000D01*
X187020000Y-107305000D02*
X189970000Y-104355000D01*
X186970000Y-107255000D02*
X187020000Y-107305000D01*
X70454695Y-44155000D02*
X77520000Y-44155000D01*
X180572800Y-105965000D02*
X180572800Y-108505000D01*
X189970000Y-104355000D02*
X189970000Y-77255000D01*
X189970000Y-77255000D02*
X189070000Y-76355000D01*
%TO.N,/A_SDO2*%
X146770000Y-82829500D02*
X146920000Y-82679500D01*
X146920000Y-82679500D02*
X146920000Y-77740500D01*
%TO.N,/WE4*%
X62077701Y-88267299D02*
X62090000Y-88255000D01*
X57957701Y-88267299D02*
X62077701Y-88267299D01*
%TO.N,/WE6*%
X121004015Y-122304015D02*
X121004015Y-119874015D01*
X121004015Y-119874015D02*
X120600000Y-119470000D01*
X127585000Y-132355000D02*
X121330000Y-126100000D01*
X118160000Y-118510000D02*
X112610000Y-118510000D01*
X121330000Y-122630000D02*
X121004015Y-122304015D01*
X60690000Y-124785000D02*
X67120000Y-118355000D01*
X119120000Y-119470000D02*
X118160000Y-118510000D01*
X111640000Y-119480000D02*
X108190000Y-119480000D01*
X120600000Y-119470000D02*
X119120000Y-119470000D01*
X108190000Y-119480000D02*
X107000000Y-120670000D01*
X57610000Y-124785000D02*
X60690000Y-124785000D01*
X121330000Y-126100000D02*
X121330000Y-122630000D01*
X173260000Y-132355000D02*
X127585000Y-132355000D01*
X112610000Y-118510000D02*
X111640000Y-119480000D01*
%TO.N,/A_SDO4*%
X116270000Y-82805000D02*
X117970000Y-81105000D01*
X112720000Y-90130305D02*
X112720000Y-87180000D01*
X119370000Y-112305000D02*
X119370000Y-112300000D01*
X113820000Y-106750000D02*
X113820000Y-91230305D01*
X116270000Y-83630000D02*
X116270000Y-82805000D01*
X119876802Y-79205000D02*
X121500000Y-79205000D01*
X123390000Y-70090000D02*
X124285000Y-70985000D01*
X123390000Y-66680000D02*
X123390000Y-70090000D01*
X119370000Y-112300000D02*
X113820000Y-106750000D01*
X124285000Y-76420000D02*
X121500000Y-79205000D01*
X118106396Y-81105000D02*
X119876802Y-79334594D01*
X112720000Y-87180000D02*
X116270000Y-83630000D01*
X113820000Y-91230305D02*
X112720000Y-90130305D01*
X124285000Y-70985000D02*
X124285000Y-76420000D01*
X119876802Y-79334594D02*
X119876802Y-79205000D01*
X117970000Y-81105000D02*
X118106396Y-81105000D01*
%TO.N,/A_SDO6*%
X151220000Y-88325000D02*
X151220000Y-78905000D01*
X153320000Y-89500500D02*
X152395500Y-89500500D01*
X151220000Y-78905000D02*
X150780000Y-78465000D01*
X152395500Y-89500500D02*
X151220000Y-88325000D01*
%TO.N,/A_SDO8*%
X176869503Y-128935497D02*
X174875192Y-128935497D01*
X158085456Y-128730000D02*
X153520000Y-124164544D01*
X142544500Y-117779500D02*
X138570000Y-117779500D01*
X142770000Y-118005000D02*
X142544500Y-117779500D01*
X164420000Y-68505000D02*
X172470000Y-68505000D01*
X174669695Y-128730000D02*
X158085456Y-128730000D01*
X172470000Y-68505000D02*
X183170000Y-79205000D01*
X174875192Y-128935497D02*
X174669695Y-128730000D01*
X177120000Y-128685000D02*
X176869503Y-128935497D01*
X153520000Y-124164544D02*
X153520000Y-123255000D01*
%TO.N,/SIN_2*%
X175270000Y-120455000D02*
X177060000Y-118665000D01*
X177060000Y-118665000D02*
X180572800Y-118665000D01*
%TO.N,/SIN_1*%
X132190172Y-114755000D02*
X128915000Y-118030172D01*
X128915000Y-118030172D02*
X128915000Y-119153737D01*
X176700000Y-116125000D02*
X175270000Y-117555000D01*
X146470000Y-114755000D02*
X132190172Y-114755000D01*
X128915000Y-119153737D02*
X130091263Y-120330000D01*
X130091263Y-120330000D02*
X145030000Y-120330000D01*
X145030000Y-120330000D02*
X146450000Y-121750000D01*
X180572800Y-116125000D02*
X176700000Y-116125000D01*
%TO.N,/SQ_1*%
X124560000Y-112970000D02*
X128505000Y-116915000D01*
X124560000Y-91080000D02*
X124560000Y-112970000D01*
X137250000Y-88575000D02*
X135470000Y-90355000D01*
X137250000Y-87142800D02*
X137250000Y-88575000D01*
X128505000Y-119323565D02*
X131636435Y-122455000D01*
X137670000Y-125425456D02*
X137670000Y-126355000D01*
X131636435Y-122455000D02*
X134699544Y-122455000D01*
X125285000Y-90355000D02*
X124560000Y-91080000D01*
X134699544Y-122455000D02*
X137670000Y-125425456D01*
X135470000Y-90355000D02*
X125285000Y-90355000D01*
X128505000Y-116915000D02*
X128505000Y-119323565D01*
%TO.N,/D_3*%
X102455000Y-75786314D02*
X103276314Y-74965000D01*
X128780000Y-129260000D02*
X121715000Y-122195000D01*
X121715000Y-122195000D02*
X121715000Y-117356314D01*
X103276314Y-74965000D02*
X103480000Y-74965000D01*
X103286314Y-103075000D02*
X102455000Y-102243686D01*
X130770000Y-129255000D02*
X129335000Y-129255000D01*
X129335000Y-129255000D02*
X129330000Y-129260000D01*
X107433686Y-103075000D02*
X103286314Y-103075000D01*
X129330000Y-129260000D02*
X128780000Y-129260000D01*
X103480000Y-74965000D02*
X101240000Y-72725000D01*
X102455000Y-102243686D02*
X102455000Y-75786314D01*
X121715000Y-117356314D02*
X107433686Y-103075000D01*
%TO.N,/D_1*%
X130095000Y-125525000D02*
X130939828Y-125525000D01*
X123363267Y-118793267D02*
X130095000Y-125525000D01*
X105532000Y-86053000D02*
X105532000Y-100017000D01*
X105532000Y-100017000D02*
X123363267Y-117848267D01*
X123363267Y-117848267D02*
X123363267Y-118793267D01*
X130939828Y-125525000D02*
X133270000Y-127855172D01*
X106010000Y-85575000D02*
X105532000Y-86053000D01*
X133270000Y-127855172D02*
X133270000Y-129055000D01*
%TO.N,/D_0*%
X153019695Y-90225500D02*
X154339500Y-90225500D01*
X149655500Y-89995000D02*
X152789195Y-89995000D01*
X154350000Y-89405000D02*
X153690000Y-88745000D01*
X153690000Y-83550305D02*
X152750000Y-82610305D01*
X148570000Y-91080500D02*
X149655500Y-89995000D01*
X152750000Y-82610305D02*
X152750000Y-77805000D01*
X152789195Y-89995000D02*
X153019695Y-90225500D01*
X154339500Y-90225500D02*
X154350000Y-90215000D01*
X153690000Y-88745000D02*
X153690000Y-83550305D01*
X154350000Y-90215000D02*
X154350000Y-89405000D01*
%TO.N,/FT_SCK*%
X167120000Y-98455000D02*
X155720000Y-98455000D01*
X173482701Y-77867701D02*
X176845000Y-81230000D01*
X167520000Y-98855000D02*
X167120000Y-98455000D01*
X176845000Y-81230000D02*
X176845000Y-81355305D01*
X177269695Y-81780000D02*
X178675000Y-81780000D01*
X178675000Y-81780000D02*
X179270000Y-82375000D01*
X175046404Y-98155000D02*
X171640000Y-98155000D01*
X172557299Y-77867701D02*
X173482701Y-77867701D01*
X155570000Y-98305000D02*
X155570000Y-98255000D01*
X179270000Y-93931404D02*
X175046404Y-98155000D01*
X155720000Y-98455000D02*
X155570000Y-98305000D01*
X179270000Y-82375000D02*
X179270000Y-93931404D01*
X171640000Y-98155000D02*
X171440000Y-98355000D01*
X170580000Y-98375000D02*
X170100000Y-98855000D01*
X176845000Y-81355305D02*
X177269695Y-81780000D01*
X171470000Y-98335000D02*
X171430000Y-98375000D01*
X171430000Y-98375000D02*
X170580000Y-98375000D01*
X170100000Y-98855000D02*
X167520000Y-98855000D01*
%TO.N,/FT_SDO*%
X178570000Y-97993299D02*
X175923353Y-100639946D01*
X175923353Y-100639946D02*
X160754946Y-100639946D01*
X178570000Y-96330500D02*
X178570000Y-97993299D01*
X160754946Y-100639946D02*
X159370000Y-99255000D01*
%TO.N,/F_RST_I*%
X137620305Y-79454500D02*
X138150000Y-79984195D01*
X140970305Y-89830000D02*
X141870000Y-90729695D01*
X138150000Y-81065000D02*
X140970305Y-83885305D01*
X141675000Y-91450000D02*
X140330305Y-91450000D01*
X138766500Y-93455185D02*
X138766500Y-96451500D01*
X138619695Y-90340000D02*
X137970000Y-90989695D01*
X149395000Y-98880000D02*
X149770000Y-99255000D01*
X140970305Y-83885305D02*
X140970305Y-89830000D01*
X137449500Y-79454500D02*
X137620305Y-79454500D01*
X141870000Y-91255000D02*
X141675000Y-91450000D01*
X139220305Y-90340000D02*
X138619695Y-90340000D01*
X136870000Y-77455000D02*
X136870000Y-78875000D01*
X137970000Y-92658685D02*
X138766500Y-93455185D01*
X149770000Y-99809466D02*
X147410000Y-102169466D01*
X136870000Y-78875000D02*
X137449500Y-79454500D01*
X141870000Y-90729695D02*
X141870000Y-91255000D01*
X138766500Y-96451500D02*
X141195000Y-98880000D01*
X141195000Y-98880000D02*
X149395000Y-98880000D01*
X137970000Y-90989695D02*
X137970000Y-92658685D01*
X149770000Y-99255000D02*
X149770000Y-99809466D01*
X140330305Y-91450000D02*
X139220305Y-90340000D01*
X138150000Y-79984195D02*
X138150000Y-81065000D01*
%TO.N,/F_RST_O*%
X154580000Y-115215000D02*
X154570000Y-115215000D01*
X153510000Y-115215000D02*
X154580000Y-115215000D01*
X148830000Y-110535000D02*
X153510000Y-115215000D01*
X148830000Y-107645000D02*
X148830000Y-110535000D01*
%TO.N,/JTAG_TCK*%
X137120048Y-119479500D02*
X146645500Y-119479500D01*
X176070000Y-121555000D02*
X177620000Y-120005000D01*
X151619544Y-120325000D02*
X152489544Y-119455000D01*
X146645500Y-119479500D02*
X147520000Y-118605000D01*
X152489544Y-119455000D02*
X170610456Y-119455000D01*
X172710456Y-121555000D02*
X176070000Y-121555000D01*
X177620000Y-120005000D02*
X183220248Y-120005000D01*
X183220248Y-120005000D02*
X184136300Y-119088948D01*
X149240000Y-120325000D02*
X151619544Y-120325000D01*
X192470000Y-110780305D02*
X192470000Y-107655000D01*
X147520000Y-118605000D02*
X149240000Y-120325000D01*
X184136300Y-118318700D02*
X191175000Y-111280000D01*
X191175000Y-111280000D02*
X191970305Y-111280000D01*
X170610456Y-119455000D02*
X172710456Y-121555000D01*
X184136300Y-119088948D02*
X184136300Y-118318700D01*
X191970305Y-111280000D02*
X192470000Y-110780305D01*
%TO.N,/JTAG_TMS*%
X157870000Y-123555000D02*
X155420000Y-121105000D01*
X137250000Y-105735000D02*
X137250000Y-104709466D01*
X141420000Y-106655000D02*
X138170000Y-106655000D01*
X168220000Y-127155000D02*
X164620000Y-123555000D01*
X168270000Y-127205000D02*
X168220000Y-127155000D01*
X138170000Y-106655000D02*
X137250000Y-105735000D01*
X177470000Y-127205000D02*
X168270000Y-127205000D01*
X153570000Y-121105000D02*
X153520000Y-121105000D01*
X153570000Y-117955000D02*
X152720000Y-117955000D01*
X152720000Y-117955000D02*
X141420000Y-106655000D01*
X155420000Y-121105000D02*
X153570000Y-121105000D01*
X164620000Y-123555000D02*
X157870000Y-123555000D01*
%TO.N,/JTAG_TDO*%
X146225248Y-89775000D02*
X148920000Y-87080248D01*
X141020000Y-101205000D02*
X141020000Y-103479466D01*
X144220000Y-91105000D02*
X145550000Y-89775000D01*
X141020000Y-103479466D02*
X139790000Y-104709466D01*
X148670000Y-99605000D02*
X142620000Y-99605000D01*
X142620000Y-99605000D02*
X141020000Y-101205000D01*
X145550000Y-89775000D02*
X146225248Y-89775000D01*
X148920000Y-77479500D02*
X148520000Y-77079500D01*
X148920000Y-87080248D02*
X148920000Y-77479500D01*
%TO.N,/JTAG_TDI*%
X154720000Y-117099466D02*
X142330000Y-104709466D01*
X119086263Y-112990000D02*
X120110000Y-112990000D01*
X128059828Y-122910000D02*
X129888604Y-122910000D01*
X154720000Y-118055000D02*
X154720000Y-117099466D01*
X109715000Y-89736314D02*
X113200000Y-93221314D01*
X121935000Y-115663237D02*
X123773267Y-117501504D01*
X139320000Y-127105000D02*
X141420000Y-125005000D01*
X141420000Y-125005000D02*
X141420000Y-121605000D01*
X129888604Y-122910000D02*
X134083604Y-127105000D01*
X115500000Y-81338604D02*
X111525000Y-85313604D01*
X111525000Y-85313604D02*
X111525000Y-86393686D01*
X111525000Y-86393686D02*
X109715000Y-88203686D01*
X113200000Y-93221314D02*
X113200000Y-107103737D01*
X123773267Y-118623439D02*
X128059828Y-122910000D01*
X120110000Y-112990000D02*
X121935000Y-114815000D01*
X121935000Y-114815000D02*
X121935000Y-115663237D01*
X123773267Y-117501504D02*
X123773267Y-118623439D01*
X113200000Y-107103737D02*
X119086263Y-112990000D01*
X115500000Y-58800000D02*
X115500000Y-81338604D01*
X118100000Y-56200000D02*
X115500000Y-58800000D01*
X109715000Y-88203686D02*
X109715000Y-89736314D01*
X134083604Y-127105000D02*
X139320000Y-127105000D01*
%TO.N,/F_VREF_1*%
X143520000Y-83655000D02*
X143520000Y-84755000D01*
X144667800Y-85902800D02*
X146170000Y-85902800D01*
X143520000Y-84755000D02*
X144667800Y-85902800D01*
X137678104Y-75159500D02*
X141970000Y-79451396D01*
X137267701Y-75159500D02*
X137678104Y-75159500D01*
X146170000Y-85902800D02*
X147410000Y-87142800D01*
X141970000Y-82105000D02*
X143520000Y-83655000D01*
X141970000Y-79451396D02*
X141970000Y-82105000D01*
%TO.N,/D_7*%
X178770000Y-84355000D02*
X178820000Y-84355000D01*
X167595305Y-78755000D02*
X173733604Y-78755000D01*
X167570305Y-78780000D02*
X167595305Y-78755000D01*
X172773685Y-94515000D02*
X171570000Y-95718685D01*
X166545000Y-78355305D02*
X166969695Y-78780000D01*
X178445000Y-82330000D02*
X178445000Y-83830000D01*
X178820000Y-89405000D02*
X173710000Y-94515000D01*
X178820000Y-84355000D02*
X178820000Y-89405000D01*
X171570000Y-95718685D02*
X171570000Y-96748604D01*
X176395000Y-81416396D02*
X176395000Y-81541701D01*
X178345000Y-82230000D02*
X178445000Y-82330000D01*
X168120000Y-98405000D02*
X167020000Y-97305000D01*
X166568867Y-97305000D02*
X165190000Y-95926133D01*
X178445000Y-83830000D02*
X178770000Y-84155000D01*
X173710000Y-94515000D02*
X172773685Y-94515000D01*
X176395000Y-81541701D02*
X177083299Y-82230000D01*
X166545000Y-76800000D02*
X166545000Y-78355305D01*
X166969695Y-78780000D02*
X167570305Y-78780000D01*
X163449951Y-74679549D02*
X164424549Y-74679549D01*
X164424549Y-74679549D02*
X166545000Y-76800000D01*
X167020000Y-97305000D02*
X166568867Y-97305000D01*
X173733604Y-78755000D02*
X176395000Y-81416396D01*
X169913604Y-98405000D02*
X168120000Y-98405000D01*
X171570000Y-96748604D02*
X169913604Y-98405000D01*
X177083299Y-82230000D02*
X178345000Y-82230000D01*
X178770000Y-84155000D02*
X178770000Y-84355000D01*
%TO.N,/D_4*%
X66870000Y-125979500D02*
X65894500Y-126955000D01*
X65894500Y-126955000D02*
X54970000Y-126955000D01*
%TO.N,/A21*%
X184970000Y-64105000D02*
X184970000Y-64155000D01*
X185570000Y-70705000D02*
X186920000Y-72055000D01*
X186920000Y-72055000D02*
X188792800Y-72055000D01*
X184970000Y-64155000D02*
X185570000Y-64755000D01*
X188792800Y-72055000D02*
X190032800Y-70815000D01*
X185570000Y-64755000D02*
X185570000Y-70705000D01*
%TO.N,/D10*%
X184593105Y-50854695D02*
X187492800Y-47955000D01*
X172570000Y-49655000D02*
X175232652Y-49655000D01*
X176432347Y-50854695D02*
X184593105Y-50854695D01*
X170670000Y-51555000D02*
X172570000Y-49655000D01*
X175232652Y-49655000D02*
X176432347Y-50854695D01*
%TO.N,/J20*%
X165100000Y-64695000D02*
X165160000Y-64755000D01*
X165160000Y-64755000D02*
X168620000Y-64755000D01*
X171770000Y-61605000D02*
X184470000Y-61605000D01*
X168620000Y-64755000D02*
X171770000Y-61605000D01*
%TO.N,/C20*%
X162870000Y-68388786D02*
X162870000Y-51005000D01*
X165833107Y-71351893D02*
X162870000Y-68388786D01*
%TO.N,/E22*%
X174270000Y-85955000D02*
X166542200Y-85955000D01*
X166542200Y-85955000D02*
X165190000Y-84602800D01*
X174520000Y-85705000D02*
X174270000Y-85955000D01*
%TO.N,/E20*%
X160110000Y-80095500D02*
X160110000Y-84602800D01*
X157819500Y-77805000D02*
X160110000Y-80095500D01*
%TO.N,/G22*%
X144120000Y-74705000D02*
X151720000Y-74705000D01*
X151720000Y-74705000D02*
X154722200Y-77707200D01*
X154722200Y-77707200D02*
X154722200Y-84295000D01*
X154722200Y-84295000D02*
X155030000Y-84602800D01*
%TO.N,/F22*%
X156870000Y-41895000D02*
X156524500Y-42240500D01*
X163595000Y-50040000D02*
X160090000Y-46535000D01*
X163320000Y-65080305D02*
X163595000Y-64805305D01*
X163719695Y-65480000D02*
X163320000Y-65080305D01*
X160090000Y-42945000D02*
X159040000Y-41895000D01*
X168605000Y-65480000D02*
X163719695Y-65480000D01*
X160090000Y-46535000D02*
X160090000Y-42945000D01*
X182820000Y-73315000D02*
X173608198Y-64103198D01*
X169981802Y-64103198D02*
X168605000Y-65480000D01*
X156524500Y-42240500D02*
X156524500Y-47005000D01*
X163595000Y-64805305D02*
X163595000Y-50040000D01*
X159040000Y-41895000D02*
X156870000Y-41895000D01*
X173608198Y-64103198D02*
X169981802Y-64103198D01*
%TO.N,/G20*%
X143320000Y-74155000D02*
X143770000Y-73705000D01*
X143320000Y-74930305D02*
X143320000Y-74155000D01*
X149950000Y-84602800D02*
X149950000Y-77035000D01*
X143994695Y-75605000D02*
X143320000Y-74930305D01*
X146670000Y-73705000D02*
X146870000Y-73505000D01*
X148520000Y-75605000D02*
X146820000Y-75605000D01*
X149950000Y-77035000D02*
X148520000Y-75605000D01*
X146820000Y-75605000D02*
X143994695Y-75605000D01*
X143770000Y-73705000D02*
X146220000Y-73705000D01*
X146220000Y-73705000D02*
X146670000Y-73705000D01*
%TO.N,/F21*%
X140813500Y-80762104D02*
X140813500Y-82609494D01*
X137780000Y-77015000D02*
X137780000Y-77728604D01*
X140813500Y-82609494D02*
X141354503Y-83150497D01*
X137780000Y-77728604D02*
X140813500Y-80762104D01*
%TO.N,/K22*%
X144870000Y-80640500D02*
X141970000Y-77740500D01*
X144870000Y-84602800D02*
X144870000Y-80640500D01*
%TO.N,/K21*%
X137370000Y-80129500D02*
X137320000Y-80179500D01*
X139790000Y-84602800D02*
X137700000Y-82512800D01*
X137700000Y-82512800D02*
X137700000Y-80435000D01*
X137370000Y-80105000D02*
X137370000Y-80129500D01*
X137700000Y-80435000D02*
X137370000Y-80105000D01*
%TO.N,/C5*%
X164795000Y-46130000D02*
X173970402Y-46130000D01*
X173970402Y-46130000D02*
X175257701Y-44842701D01*
X164420000Y-46505000D02*
X164795000Y-46130000D01*
%TO.N,/+VCCO1*%
X136070000Y-92905000D02*
X134985000Y-91820000D01*
X128970000Y-91455000D02*
X129020000Y-91455000D01*
X138520000Y-100505000D02*
X136070000Y-98055000D01*
X129335000Y-91820000D02*
X128970000Y-91455000D01*
X134985000Y-91820000D02*
X129335000Y-91820000D01*
X129020000Y-91455000D02*
X129032299Y-91467299D01*
X136070000Y-98055000D02*
X136070000Y-92905000D01*
%TO.N,/L20*%
X123320000Y-86070000D02*
X121000000Y-88390000D01*
X117935906Y-88390000D02*
X115690000Y-90635906D01*
X121000000Y-88390000D02*
X117935906Y-88390000D01*
X123320000Y-83009500D02*
X123320000Y-86070000D01*
X115690000Y-90635906D02*
X115690000Y-102845000D01*
X122800000Y-82489500D02*
X123320000Y-83009500D01*
X115690000Y-102845000D02*
X115700000Y-102855000D01*
%TO.N,/N22*%
X155450000Y-89379500D02*
X156370000Y-88459500D01*
X49470000Y-126855000D02*
X49470000Y-104655000D01*
X113170000Y-131255000D02*
X53870000Y-131255000D01*
X116890000Y-121235000D02*
X115970000Y-122155000D01*
X156370000Y-88459500D02*
X156370000Y-78355000D01*
X53870000Y-131255000D02*
X49470000Y-126855000D01*
X115970000Y-122155000D02*
X115970000Y-128455000D01*
X116890000Y-119610000D02*
X116890000Y-121235000D01*
X115970000Y-128455000D02*
X113170000Y-131255000D01*
%TO.N,/A_SDO5*%
X128615000Y-86305000D02*
X132640000Y-86305000D01*
X132640000Y-86305000D02*
X132824500Y-86489500D01*
X132824500Y-86489500D02*
X132824500Y-86579500D01*
X123045000Y-91875000D02*
X128615000Y-86305000D01*
X122070000Y-91875000D02*
X123045000Y-91875000D01*
%TO.N,/R20*%
X123300000Y-36990000D02*
X121042000Y-34732000D01*
X52035000Y-117480000D02*
X58851378Y-117480000D01*
X69125000Y-39080000D02*
X66770000Y-36725000D01*
X98183299Y-31330000D02*
X86158604Y-31330000D01*
X82395000Y-54450000D02*
X82395000Y-46954695D01*
X86158604Y-31330000D02*
X82383604Y-35105000D01*
X60125689Y-116205689D02*
X61715384Y-116205689D01*
X121042000Y-34732000D02*
X101585299Y-34732000D01*
X62595500Y-117085805D02*
X62595500Y-117175000D01*
X72105500Y-27395000D02*
X72760000Y-28049500D01*
X50620000Y-118895000D02*
X52035000Y-117480000D01*
X101585299Y-34732000D02*
X98183299Y-31330000D01*
X80895000Y-55950000D02*
X82395000Y-54450000D01*
X80530000Y-70815000D02*
X80940000Y-70405000D01*
X66770000Y-30935000D02*
X70310000Y-27395000D01*
X82070000Y-43882799D02*
X82522299Y-43430500D01*
X77425000Y-39080000D02*
X69125000Y-39080000D01*
X82395000Y-46954695D02*
X82070000Y-46629695D01*
X79845000Y-37110000D02*
X77650000Y-39305000D01*
X123300000Y-37820500D02*
X123300000Y-36990000D01*
X66160000Y-70815000D02*
X80530000Y-70815000D01*
X66770000Y-36725000D02*
X66770000Y-30935000D01*
X79845000Y-36030000D02*
X79845000Y-37110000D01*
X80940000Y-70405000D02*
X80895000Y-70360000D01*
X58851378Y-117480000D02*
X60125689Y-116205689D01*
X80770000Y-35105000D02*
X79845000Y-36030000D01*
X82383604Y-35105000D02*
X80770000Y-35105000D01*
X82070000Y-46629695D02*
X82070000Y-43882799D01*
X80895000Y-70360000D02*
X80895000Y-55950000D01*
X77650000Y-39305000D02*
X77425000Y-39080000D01*
X70310000Y-27395000D02*
X72105500Y-27395000D01*
X61715384Y-116205689D02*
X62595500Y-117085805D01*
%TO.N,/P21*%
X54060000Y-80565000D02*
X63030000Y-71595000D01*
X74220805Y-33630500D02*
X79310000Y-33630500D01*
X61699787Y-115164787D02*
X62280000Y-115745000D01*
X71550000Y-30959695D02*
X74220805Y-33630500D01*
X63030000Y-71595000D02*
X76980000Y-71595000D01*
X53200000Y-80565000D02*
X54060000Y-80565000D01*
X62280000Y-115745000D02*
X62845000Y-116310000D01*
X75805000Y-116310000D02*
X76250000Y-115865000D01*
X63320000Y-92379695D02*
X62070305Y-91130000D01*
X51500000Y-116925000D02*
X58769982Y-116925000D01*
X65275000Y-83974695D02*
X64850305Y-83550000D01*
X64135000Y-91470000D02*
X64135000Y-89724695D01*
X76980000Y-71595000D02*
X77010000Y-71565000D01*
X58769982Y-116925000D02*
X60530195Y-115164787D01*
X61045000Y-91480000D02*
X61045000Y-114510000D01*
X63352299Y-71917299D02*
X63030000Y-71595000D01*
X64850305Y-83550000D02*
X63979695Y-83550000D01*
X60530195Y-115164787D02*
X61699787Y-115164787D01*
X64800000Y-92135000D02*
X64135000Y-91470000D01*
X63352299Y-82922604D02*
X63352299Y-71917299D01*
X71550000Y-28375000D02*
X71550000Y-30959695D01*
X63320000Y-93615000D02*
X64800000Y-92135000D01*
X65275000Y-88584695D02*
X65275000Y-83974695D01*
X61395000Y-91130000D02*
X61045000Y-91480000D01*
X50780000Y-117645000D02*
X51500000Y-116925000D01*
X63979695Y-83550000D02*
X63352299Y-82922604D01*
X62845000Y-116310000D02*
X75805000Y-116310000D01*
X61045000Y-114510000D02*
X62280000Y-115745000D01*
X63320000Y-93615000D02*
X63320000Y-92379695D01*
X64135000Y-89724695D02*
X65275000Y-88584695D01*
X62070305Y-91130000D02*
X61395000Y-91130000D01*
%TO.N,/K20*%
X112978934Y-112875000D02*
X108490000Y-108386066D01*
X113210000Y-112875000D02*
X112978934Y-112875000D01*
X108486701Y-107320000D02*
X108476701Y-107310000D01*
X108490000Y-108386066D02*
X108490000Y-107320000D01*
X108490000Y-107320000D02*
X108486701Y-107320000D01*
%TO.N,/chn1_r*%
X77344951Y-37510049D02*
X77034244Y-37510049D01*
X76530000Y-38325000D02*
X69710000Y-38325000D01*
X103857299Y-38917701D02*
X106870000Y-35905000D01*
X80045000Y-34810000D02*
X77344951Y-37510049D01*
X80045000Y-34804695D02*
X80045000Y-34810000D01*
X80469695Y-34380000D02*
X80045000Y-34804695D01*
X106870000Y-35905000D02*
X110320000Y-35905000D01*
X83875992Y-32308384D02*
X83626616Y-32308384D01*
X83626616Y-32308384D02*
X81555000Y-34380000D01*
X69710000Y-38325000D02*
X69420000Y-38035000D01*
X76609549Y-38245451D02*
X76530000Y-38325000D01*
X77034244Y-37510049D02*
X76609549Y-37934744D01*
X81555000Y-34380000D02*
X80469695Y-34380000D01*
X76609549Y-37934744D02*
X76609549Y-38245451D01*
%TO.N,/chn2_r*%
X36570000Y-26355000D02*
X29570000Y-33355000D01*
X58930000Y-70615000D02*
X59870000Y-71555000D01*
X32710000Y-70615000D02*
X51130000Y-70615000D01*
X148270500Y-28604500D02*
X150520000Y-26355000D01*
X143019500Y-28604500D02*
X148270500Y-28604500D01*
X117050305Y-26620000D02*
X116449695Y-26620000D01*
X29570000Y-67555000D02*
X32670000Y-70655000D01*
X117315305Y-26355000D02*
X117050305Y-26620000D01*
X51210000Y-70615000D02*
X58930000Y-70615000D01*
X116184695Y-26355000D02*
X36570000Y-26355000D01*
X116449695Y-26620000D02*
X116184695Y-26355000D01*
X158370000Y-28355000D02*
X156370000Y-26355000D01*
X29570000Y-33355000D02*
X29570000Y-67555000D01*
X156370000Y-26355000D02*
X150520000Y-26355000D01*
X51170000Y-70655000D02*
X51210000Y-70615000D01*
X51130000Y-70615000D02*
X51170000Y-70655000D01*
X150520000Y-26355000D02*
X117315305Y-26355000D01*
X32670000Y-70655000D02*
X32710000Y-70615000D01*
X142370000Y-27955000D02*
X143019500Y-28604500D01*
%TO.N,/chn4_r*%
X124695000Y-68620172D02*
X124695000Y-76589828D01*
X123646583Y-79976583D02*
X129525000Y-85855000D01*
X123646583Y-77638246D02*
X123646583Y-79976583D01*
X137700000Y-85855000D02*
X138450000Y-86605000D01*
X124500000Y-68425172D02*
X124695000Y-68620172D01*
X124695000Y-76589828D02*
X123646583Y-77638246D01*
X140580000Y-90555000D02*
X140670000Y-90555000D01*
X124500000Y-52214500D02*
X124500000Y-68425172D01*
X129525000Y-85855000D02*
X137700000Y-85855000D01*
X138450000Y-88425000D02*
X140580000Y-90555000D01*
X138450000Y-86605000D02*
X138450000Y-88425000D01*
X124734500Y-51980000D02*
X124500000Y-52214500D01*
%TO.N,/chn6_r*%
X53590000Y-123075000D02*
X53580000Y-123065000D01*
X60830500Y-121464500D02*
X59220000Y-123075000D01*
X60830500Y-117105000D02*
X60830500Y-121464500D01*
X59220000Y-123075000D02*
X53590000Y-123075000D01*
%TO.N,/+1.2V*%
X178870000Y-107155000D02*
X175070000Y-110955000D01*
X175070000Y-110955000D02*
X172370000Y-110955000D01*
X179270000Y-107155000D02*
X178870000Y-107155000D01*
X170270000Y-108855000D02*
X170270000Y-104709466D01*
X172370000Y-110955000D02*
X170270000Y-108855000D01*
%TO.N,/+1.8V*%
X175965305Y-113705000D02*
X178670000Y-113705000D01*
X165870000Y-112955000D02*
X165920000Y-112955000D01*
X172551701Y-117118604D02*
X175965305Y-113705000D01*
X170083604Y-117118604D02*
X172551701Y-117118604D01*
X165920000Y-112955000D02*
X170083604Y-117118604D01*
%TO.N,/USB_SCL*%
X178270000Y-109555000D02*
X176370000Y-111455000D01*
X159235534Y-111455000D02*
X152490000Y-104709466D01*
X176370000Y-111455000D02*
X159235534Y-111455000D01*
X184170000Y-110655000D02*
X183070000Y-109555000D01*
X183070000Y-109555000D02*
X178270000Y-109555000D01*
X191570000Y-110655000D02*
X184170000Y-110655000D01*
X191670000Y-110555000D02*
X191570000Y-110655000D01*
%TO.N,/USB_SDA*%
X156220000Y-110155000D02*
X151170000Y-105105000D01*
X170014500Y-120179500D02*
X172063500Y-122228500D01*
X172063500Y-122228500D02*
X186696500Y-122228500D01*
X151170000Y-105105000D02*
X151170000Y-104255000D01*
X151170000Y-104255000D02*
X152120000Y-103305000D01*
X152120000Y-103305000D02*
X153625534Y-103305000D01*
X153625534Y-103305000D02*
X155030000Y-104709466D01*
X186696500Y-122228500D02*
X191720000Y-117205000D01*
X162520000Y-120179500D02*
X170014500Y-120179500D01*
X156220000Y-117954500D02*
X156220000Y-110155000D01*
%TO.N,/T20*%
X173366500Y-41358500D02*
X170870000Y-43855000D01*
X192766500Y-41358500D02*
X173366500Y-41358500D01*
X162520000Y-45605000D02*
X164270000Y-43855000D01*
X164270000Y-43855000D02*
X170870000Y-43855000D01*
X193170000Y-40955000D02*
X192766500Y-41358500D01*
%TO.N,/U19*%
X175443866Y-51954171D02*
X177269695Y-53780000D01*
X169945000Y-47704695D02*
X169945000Y-51855305D01*
X169945000Y-51855305D02*
X170569695Y-52480000D01*
X186612196Y-54455000D02*
X187920000Y-54455000D01*
X187920000Y-54455000D02*
X188620000Y-53755000D01*
X185712196Y-53555000D02*
X186612196Y-54455000D01*
X181795000Y-53555000D02*
X185712196Y-53555000D01*
X172496134Y-51954171D02*
X175443866Y-51954171D01*
X165920000Y-47455000D02*
X166195000Y-47180000D01*
X177269695Y-53780000D02*
X181570000Y-53780000D01*
X169420305Y-47180000D02*
X169945000Y-47704695D01*
X188620000Y-53755000D02*
X188620000Y-51907800D01*
X166195000Y-47180000D02*
X169420305Y-47180000D01*
X188620000Y-51907800D02*
X190032800Y-50495000D01*
X170569695Y-52480000D02*
X171970305Y-52480000D01*
X181570000Y-53780000D02*
X181795000Y-53555000D01*
X171970305Y-52480000D02*
X172496134Y-51954171D01*
%TO.N,/P17*%
X169970000Y-44655000D02*
X164220000Y-44655000D01*
X164220000Y-44655000D02*
X163570000Y-45305000D01*
X162770000Y-46755000D02*
X161420000Y-46755000D01*
X163570000Y-45305000D02*
X163270000Y-45605000D01*
X163270000Y-46255000D02*
X162770000Y-46755000D01*
X163270000Y-45605000D02*
X163270000Y-46255000D01*
%TO.N,/N16*%
X172870000Y-48655000D02*
X176770000Y-48655000D01*
X171070000Y-46855000D02*
X172870000Y-48655000D01*
X176770000Y-48655000D02*
X176870000Y-48755000D01*
%TO.N,/M18*%
X167745000Y-54055500D02*
X170344500Y-56655000D01*
X169120000Y-47905000D02*
X167745000Y-49280000D01*
X167745000Y-49280000D02*
X167745000Y-54055500D01*
%TO.N,/D17*%
X175695000Y-53680000D02*
X174970000Y-52955000D01*
X176288500Y-56273500D02*
X175670000Y-55655000D01*
X175670000Y-55655000D02*
X175695000Y-55630000D01*
X175695000Y-55630000D02*
X175695000Y-53680000D01*
X187492800Y-55575000D02*
X186794300Y-56273500D01*
X186794300Y-56273500D02*
X176288500Y-56273500D01*
%TO.N,/C8*%
X186487800Y-52030000D02*
X187492800Y-53035000D01*
X176583054Y-52030000D02*
X186487800Y-52030000D01*
X175139027Y-50585973D02*
X176583054Y-52030000D01*
%TO.N,/+VCCO0*%
X176556396Y-111905000D02*
X166720000Y-111905000D01*
X177606396Y-110855000D02*
X176556396Y-111905000D01*
X161694500Y-111905000D02*
X161420000Y-112179500D01*
X166720000Y-111905000D02*
X161694500Y-111905000D01*
X178870000Y-110855000D02*
X177606396Y-110855000D01*
%TO.N,/A18*%
X184520000Y-81755000D02*
X186820000Y-84055000D01*
X184520000Y-66255000D02*
X184520000Y-80605000D01*
X184520000Y-80605000D02*
X184520000Y-81755000D01*
X184382701Y-66117701D02*
X184520000Y-66255000D01*
X186820000Y-84055000D02*
X187320000Y-84055000D01*
%TO.N,/CV_S2*%
X167450000Y-121750000D02*
X169445000Y-123745000D01*
X169445000Y-123745000D02*
X180572800Y-123745000D01*
X63290000Y-38635000D02*
X62090000Y-39835000D01*
X62090000Y-39835000D02*
X56790000Y-39835000D01*
%TO.N,/EIS_S3*%
X80170000Y-120255000D02*
X80170000Y-124855000D01*
X115050000Y-120481263D02*
X116606263Y-118925000D01*
X117865000Y-118925000D02*
X118820000Y-119880000D01*
X70420000Y-56705000D02*
X72970000Y-54155000D01*
X119618030Y-119880000D02*
X120319015Y-120580985D01*
X70420000Y-56855000D02*
X70420000Y-56705000D01*
X80170000Y-124855000D02*
X82260000Y-126945000D01*
X118820000Y-119880000D02*
X119618030Y-119880000D01*
X113045000Y-126945000D02*
X115050000Y-124940000D01*
X82260000Y-126945000D02*
X113045000Y-126945000D01*
X116606263Y-118925000D02*
X117865000Y-118925000D01*
X115050000Y-124940000D02*
X115050000Y-120481263D01*
%TO.N,Net-(C40-Pad1)*%
X73270305Y-53430000D02*
X73275305Y-53435000D01*
X68920000Y-57105000D02*
X72595000Y-53430000D01*
X73275305Y-53435000D02*
X75790000Y-53435000D01*
X75790000Y-53435000D02*
X76370000Y-52855000D01*
X72595000Y-53430000D02*
X73270305Y-53430000D01*
X60170000Y-57105000D02*
X68920000Y-57105000D01*
%TO.N,/D21*%
X184950000Y-97545000D02*
X184950000Y-84975000D01*
X184950000Y-84975000D02*
X185457701Y-84467299D01*
%TO.N,/D22*%
X162559695Y-73980500D02*
X162559695Y-72454695D01*
X164345500Y-76180500D02*
X163569549Y-75404549D01*
X162559695Y-72454695D02*
X157470000Y-67365000D01*
X162724951Y-74979854D02*
X162724951Y-74145756D01*
X162724951Y-74145756D02*
X162559695Y-73980500D01*
X163149646Y-75404549D02*
X162724951Y-74979854D01*
X159010000Y-46840305D02*
X157470000Y-48380305D01*
X157470000Y-48380305D02*
X157470000Y-67365000D01*
X159010000Y-43345000D02*
X159010000Y-46840305D01*
X163569549Y-75404549D02*
X163149646Y-75404549D01*
X164345500Y-77885408D02*
X164345500Y-76180500D01*
%TO.N,/DAC1_SCK*%
X136226500Y-103192966D02*
X137250000Y-102169466D01*
X132432966Y-103192966D02*
X136226500Y-103192966D01*
X129430000Y-100190000D02*
X132432966Y-103192966D01*
%TO.N,/DAC1_SDI*%
X114380000Y-102503737D02*
X114380000Y-90865000D01*
X108206265Y-85168735D02*
X114815500Y-78559500D01*
X122200000Y-107780000D02*
X119340000Y-104920000D01*
X113570000Y-90055000D02*
X113570000Y-87990000D01*
X119340000Y-104920000D02*
X116796263Y-104920000D01*
X108206265Y-87238235D02*
X108206265Y-85168735D01*
X114815500Y-78559500D02*
X114815500Y-72553763D01*
X116796263Y-104920000D02*
X114380000Y-102503737D01*
X114380000Y-90865000D02*
X113570000Y-90055000D01*
X122200000Y-108620000D02*
X122200000Y-107780000D01*
%TO.N,/DAC1_LDAC*%
X178070000Y-87055000D02*
X175145000Y-89980000D01*
X178070000Y-84555000D02*
X178070000Y-87055000D01*
X175145000Y-89980000D02*
X175145000Y-91051133D01*
X175145000Y-91051133D02*
X172810000Y-93386133D01*
%TO.N,Net-(R53-Pad1)*%
X78170000Y-53629695D02*
X78170000Y-54255000D01*
X66005000Y-52580000D02*
X72008604Y-52580000D01*
X75219695Y-52980000D02*
X76069695Y-52130000D01*
X65550000Y-53035000D02*
X66005000Y-52580000D01*
X76069695Y-52130000D02*
X76670305Y-52130000D01*
X76670305Y-52130000D02*
X78170000Y-53629695D01*
X60370000Y-47855000D02*
X65550000Y-53035000D01*
X72008604Y-52580000D02*
X72408604Y-52980000D01*
X72408604Y-52980000D02*
X75219695Y-52980000D01*
%TO.N,Net-(R53-Pad2)*%
X79880000Y-51165000D02*
X81360000Y-52645000D01*
X65750000Y-44915000D02*
X72000000Y-51165000D01*
X62900000Y-44915000D02*
X65750000Y-44915000D01*
X81360000Y-52645000D02*
X81360000Y-54135000D01*
X76230305Y-51430500D02*
X76495805Y-51165000D01*
X75629695Y-51430500D02*
X76230305Y-51430500D01*
X72000000Y-51165000D02*
X75364195Y-51165000D01*
X76495805Y-51165000D02*
X79880000Y-51165000D01*
X75364195Y-51165000D02*
X75629695Y-51430500D01*
%TO.N,/Rin_scl*%
X170520000Y-126355000D02*
X181970000Y-126355000D01*
X194820000Y-116755000D02*
X194820000Y-34555000D01*
X158595305Y-29155000D02*
X127801701Y-29155000D01*
X113345000Y-29380000D02*
X116095000Y-32130000D01*
X113345000Y-28754695D02*
X113345000Y-29380000D01*
X185220000Y-126355000D02*
X194420000Y-117155000D01*
X161445305Y-26305000D02*
X158595305Y-29155000D01*
X194820000Y-34555000D02*
X186570000Y-26305000D01*
X128795000Y-32130000D02*
X132620000Y-35955000D01*
X132620000Y-35955000D02*
X132620000Y-36155000D01*
X127801701Y-29155000D02*
X125876701Y-27230000D01*
X181970000Y-126355000D02*
X185220000Y-126355000D01*
X194420000Y-117155000D02*
X194820000Y-116755000D01*
X186570000Y-26305000D02*
X161445305Y-26305000D01*
X114869695Y-27230000D02*
X113345000Y-28754695D01*
X125876701Y-27230000D02*
X114869695Y-27230000D01*
X116095000Y-32130000D02*
X128795000Y-32130000D01*
%TO.N,/P22*%
X177760787Y-93185000D02*
X175790787Y-95155000D01*
X177540000Y-83215000D02*
X177550000Y-83225000D01*
X155080000Y-59765000D02*
X156745000Y-61430000D01*
X177010000Y-83215000D02*
X177540000Y-83215000D01*
X163383500Y-78925000D02*
X164213500Y-79755000D01*
X175790787Y-95155000D02*
X174420500Y-95155000D01*
X156745000Y-69970812D02*
X158759594Y-71985406D01*
X163310000Y-76495000D02*
X163383500Y-76568500D01*
X173550000Y-79755000D02*
X177010000Y-83215000D01*
X156745000Y-61430000D02*
X156745000Y-69970812D01*
X178520000Y-93185000D02*
X177760787Y-93185000D01*
X164213500Y-79755000D02*
X173550000Y-79755000D01*
X158759594Y-71985406D02*
X158810406Y-71985406D01*
X158810406Y-71985406D02*
X163310000Y-76485000D01*
X163383500Y-76568500D02*
X163383500Y-78925000D01*
X163310000Y-76485000D02*
X163310000Y-76495000D01*
%TO.N,/WE3*%
X186830000Y-98345000D02*
X183112800Y-98345000D01*
X177570000Y-81055000D02*
X183070000Y-81055000D01*
X188420000Y-96755000D02*
X186830000Y-98345000D01*
X188420000Y-86405000D02*
X188420000Y-96755000D01*
X183070000Y-81055000D02*
X188420000Y-86405000D01*
%TO.N,/WE5*%
X178269695Y-95605500D02*
X178779500Y-95605500D01*
X177845000Y-96030195D02*
X178269695Y-95605500D01*
X121873737Y-110820000D02*
X123020000Y-109673737D01*
X122790000Y-113785000D02*
X122185000Y-113180000D01*
X121420000Y-112580305D02*
X121420000Y-110820000D01*
X175751903Y-100175000D02*
X177845000Y-98081903D01*
X168644155Y-100175000D02*
X175751903Y-100175000D01*
X177845000Y-98081903D02*
X177845000Y-96030195D01*
X122790000Y-115140000D02*
X122790000Y-113785000D01*
X123020000Y-109673737D02*
X123020000Y-104825000D01*
X122019695Y-113180000D02*
X121420000Y-112580305D01*
X178779500Y-95605500D02*
X180572800Y-93812200D01*
X168384101Y-99914946D02*
X168644155Y-100175000D01*
X122910000Y-115260000D02*
X122790000Y-115140000D01*
X122185000Y-113180000D02*
X122019695Y-113180000D01*
X180572800Y-93812200D02*
X180572800Y-93265000D01*
X121420000Y-110820000D02*
X121873737Y-110820000D01*
%TO.N,/WE7*%
X55749500Y-125510000D02*
X64614195Y-125510000D01*
X69069195Y-121055000D02*
X72260000Y-121055000D01*
X64614195Y-125510000D02*
X69069195Y-121055000D01*
X55330000Y-125090500D02*
X55749500Y-125510000D01*
%TO.N,/chn3_r*%
X80460000Y-76325000D02*
X80355000Y-76430000D01*
X71890500Y-76430000D02*
X71845500Y-76385000D01*
X80355000Y-76430000D02*
X71890500Y-76430000D01*
X60459980Y-82845000D02*
X62592367Y-84977387D01*
X53060000Y-82845000D02*
X60459980Y-82845000D01*
%TO.N,/chn5_r*%
X63142613Y-85702387D02*
X64550000Y-84295000D01*
X83570000Y-93985000D02*
X83570000Y-94135000D01*
X58240000Y-85235000D02*
X58707387Y-85702387D01*
X74574500Y-98445000D02*
X79020000Y-93999500D01*
X64550000Y-84295000D02*
X64550000Y-84275000D01*
X83570000Y-94135000D02*
X83600000Y-94165000D01*
X83570000Y-86315000D02*
X83570000Y-93985000D01*
X58707387Y-85702387D02*
X63142613Y-85702387D01*
X71820000Y-98445000D02*
X74574500Y-98445000D01*
%TO.N,/chn7_r*%
X156107289Y-90225000D02*
X161300000Y-90225000D01*
X146250305Y-91320000D02*
X147065305Y-92135000D01*
X154197289Y-92135000D02*
X156107289Y-90225000D01*
X145505000Y-91320000D02*
X146250305Y-91320000D01*
X138920000Y-91065000D02*
X139755000Y-91900000D01*
X147065305Y-92135000D02*
X154197289Y-92135000D01*
X144925000Y-91900000D02*
X145505000Y-91320000D01*
X139755000Y-91900000D02*
X144925000Y-91900000D01*
%TD*%
M02*
