M48
; DRILL file {KiCad (6.0.8-1)-1} date Thursday, November 17, 2022 at 07:15:30 PM
; FORMAT={-:-/ absolute / metric / decimal}
; #@! TF.CreationDate,2022-11-17T19:15:30-05:00
; #@! TF.GenerationSoftware,Kicad,Pcbnew,(6.0.8-1)-1
; #@! TF.FileFunction,Plated,1,4,PTH
FMAT,2
METRIC
; #@! TA.AperFunction,Plated,PTH,ViaDrill
T1C0.400
; #@! TA.AperFunction,Plated,PTH,ComponentDrill
T2C0.800
; #@! TA.AperFunction,Plated,PTH,ComponentDrill
T3C0.889
; #@! TA.AperFunction,Plated,PTH,ComponentDrill
T4C0.900
; #@! TA.AperFunction,Plated,PTH,ComponentDrill
T5C1.016
; #@! TA.AperFunction,Plated,PTH,ComponentDrill
T6C1.067
; #@! TA.AperFunction,Plated,PTH,ComponentDrill
T7C1.200
; #@! TA.AperFunction,Plated,PTH,ComponentDrill
T8C1.400
; #@! TA.AperFunction,Plated,PTH,ComponentDrill
T9C1.600
; #@! TA.AperFunction,Plated,PTH,ViaDrill
T10C3.600
%
G90
G05
T1
X30.2Y-84.725
X31.38Y-83.475
X33.67Y-38.455
X35.72Y-47.905
X35.87Y-41.755
X37.97Y-33.955
X38.37Y-38.855
X38.67Y-36.88
X39.07Y-40.755
X39.37Y-41.905
X39.82Y-33.705
X40.819Y-43.205
X41.76Y-120.54
X42.62Y-43.155
X43.0Y-66.465
X43.06Y-64.025
X43.07Y-61.305
X43.17Y-58.955
X43.47Y-31.655
X43.47Y-41.605
X43.51Y-25.33
X43.87Y-36.005
X44.17Y-123.615
X44.33Y-122.545
X44.382Y-130.043
X45.37Y-35.255
X46.87Y-51.255
X46.92Y-48.63
X47.57Y-39.605
X47.573Y-86.082
X47.62Y-41.705
X47.82Y-32.555
X47.97Y-43.155
X48.27Y-37.445
X48.37Y-99.555
X48.59Y-87.5
X49.13Y-29.695
X49.37Y-97.055
X49.47Y-104.655
X49.501Y-27.229
X49.52Y-34.255
X50.343Y-107.747
X50.62Y-118.895
X50.78Y-117.645
X50.97Y-94.455
X51.02Y-34.13
X51.17Y-70.655
X51.77Y-37.855
X51.87Y-91.955
X52.12Y-31.405
X52.97Y-41.955
X53.06Y-82.845
X53.07Y-32.155
X53.15Y-81.605
X53.2Y-80.565
X53.58Y-123.065
X54.97Y-126.955
X55.33Y-125.09
X55.8Y-27.255
X56.47Y-120.355
X56.79Y-39.835
X57.37Y-118.205
X57.61Y-124.785
X57.78Y-87.065
X57.958Y-88.267
X58.09Y-91.275
X58.12Y-57.955
X58.24Y-85.235
X58.97Y-53.555
X58.97Y-118.955
X59.07Y-51.055
X59.17Y-35.655
X59.87Y-71.555
X59.97Y-110.025
X60.12Y-45.905
X60.17Y-57.105
X60.37Y-47.855
X60.47Y-49.585
X60.72Y-35.605
X60.831Y-117.105
X61.5Y-71.535
X61.61Y-81.332
X61.77Y-91.855
X62.09Y-88.255
X62.17Y-89.675
X62.28Y-115.745
X62.4Y-111.775
X62.592Y-84.977
X62.595Y-81.565
X62.595Y-117.175
X62.9Y-44.915
X63.03Y-71.595
X63.13Y-98.245
X63.25Y-27.685
X63.29Y-38.635
X63.32Y-93.615
X63.37Y-52.155
X63.48Y-60.935
X63.62Y-40.935
X63.72Y-35.655
X63.83Y-63.835
X64.044Y-120.305
X64.07Y-33.205
X64.077Y-82.622
X64.37Y-43.74
X64.39Y-50.415
X64.47Y-54.755
X64.55Y-84.275
X64.86Y-90.025
X65.02Y-80.655
X65.17Y-125.979
X65.97Y-31.429
X66.16Y-70.815
X66.22Y-68.555
X66.36Y-93.275
X66.59Y-113.605
X66.83Y-73.575
X66.87Y-125.979
X66.885Y-91.705
X67.12Y-118.355
X67.22Y-57.105
X67.26Y-82.665
X67.27Y-89.405
X67.34Y-112.58
X67.35Y-63.875
X67.37Y-96.555
X67.4Y-47.668
X67.57Y-100.155
X67.63Y-45.455
X67.92Y-53.405
X68.04Y-36.785
X69.17Y-33.755
X69.42Y-38.035
X69.92Y-39.805
X70.42Y-53.305
X70.42Y-56.855
X70.42Y-72.705
X70.42Y-88.955
X70.43Y-25.171
X70.57Y-74.456
X70.62Y-119.905
X70.65Y-44.985
X70.71Y-118.835
X70.775Y-97.28
X70.82Y-63.815
X71.07Y-48.405
X71.07Y-67.155
X71.27Y-111.655
X71.55Y-28.375
X71.82Y-98.445
X71.846Y-76.385
X72.03Y-45.235
X72.26Y-121.055
X72.315Y-118.635
X72.57Y-74.455
X72.645Y-89.355
X72.72Y-50.355
X72.76Y-28.049
X72.87Y-33.305
X72.87Y-37.405
X72.87Y-96.555
X72.92Y-52.255
X72.97Y-54.155
X74.12Y-122.515
X74.17Y-78.305
X74.37Y-100.355
X74.633Y-45.592
X74.831Y-63.604
X74.92Y-55.965
X75.17Y-49.205
X75.36Y-73.795
X75.45Y-75.705
X75.52Y-119.575
X75.62Y-94.909
X75.82Y-68.405
X75.82Y-69.755
X75.93Y-50.706
X76.11Y-43.255
X76.25Y-115.865
X76.27Y-107.925
X76.28Y-112.845
X76.32Y-85.755
X76.37Y-52.855
X76.37Y-97.855
X76.52Y-89.755
X76.57Y-34.755
X76.758Y-36.243
X77.01Y-71.565
X77.335Y-38.235
X77.34Y-93.999
X77.52Y-44.155
X78.02Y-52.155
X78.17Y-54.255
X78.21Y-89.785
X78.23Y-85.775
X79.0Y-61.37
X79.02Y-93.999
X79.07Y-97.165
X79.08Y-32.625
X79.08Y-101.005
X79.16Y-116.325
X79.17Y-103.805
X79.31Y-33.63
X80.04Y-60.535
X80.06Y-68.645
X80.17Y-120.255
X80.42Y-77.955
X80.46Y-76.325
X80.53Y-93.275
X80.57Y-36.355
X80.57Y-39.055
X80.65Y-113.615
X80.67Y-83.955
X80.77Y-35.105
X80.94Y-70.405
X80.943Y-28.208
X80.97Y-40.605
X81.28Y-49.965
X81.36Y-54.135
X81.43Y-51.275
X81.62Y-59.155
X81.67Y-47.255
X81.77Y-56.205
X81.82Y-79.205
X81.82Y-88.755
X81.82Y-99.505
X81.82Y-110.305
X81.82Y-121.205
X82.522Y-43.43
X82.72Y-66.105
X82.72Y-76.855
X82.72Y-87.555
X82.72Y-98.305
X82.72Y-109.005
X82.72Y-119.955
X83.25Y-45.075
X83.4Y-31.429
X83.444Y-57.205
X83.52Y-116.005
X83.57Y-46.505
X83.57Y-86.315
X83.58Y-59.755
X83.6Y-94.165
X83.62Y-64.525
X83.67Y-118.405
X83.75Y-72.615
X83.876Y-32.308
X84.07Y-35.105
X84.13Y-43.295
X84.17Y-124.679
X84.42Y-90.105
X84.42Y-100.855
X84.42Y-111.605
X84.42Y-122.555
X84.52Y-47.755
X84.57Y-58.505
X84.57Y-69.255
X84.67Y-36.305
X87.2Y-27.229
X87.57Y-86.305
X87.72Y-64.855
X87.72Y-82.505
X87.77Y-81.255
X87.77Y-93.205
X87.77Y-97.055
X87.77Y-102.105
X87.77Y-112.905
X87.77Y-114.155
X87.77Y-118.705
X87.82Y-107.855
X87.87Y-49.055
X87.87Y-51.605
X87.87Y-59.755
X87.87Y-62.355
X87.87Y-83.805
X87.87Y-94.555
X87.87Y-105.255
X87.92Y-38.855
X87.92Y-40.105
X87.92Y-50.305
X87.92Y-54.105
X87.92Y-61.055
X87.92Y-70.505
X87.92Y-71.755
X87.92Y-73.055
X87.92Y-75.555
X87.92Y-124.655
X87.97Y-32.505
X88.37Y-35.005
X88.47Y-36.255
X88.745Y-123.805
X88.77Y-37.605
X89.03Y-124.965
X89.47Y-88.93
X89.47Y-100.88
X89.52Y-112.88
X89.57Y-64.88
X89.57Y-76.93
X89.62Y-52.88
X89.67Y-40.155
X90.57Y-115.73
X90.66Y-55.755
X90.72Y-79.655
X91.04Y-29.53
X91.12Y-43.455
X92.65Y-124.78
X93.39Y-94.515
X93.4Y-118.755
X93.41Y-82.485
X93.42Y-33.755
X93.42Y-46.505
X93.42Y-58.505
X93.42Y-70.505
X93.46Y-106.515
X93.71Y-123.915
X93.74Y-121.245
X93.815Y-111.65
X93.82Y-109.105
X93.82Y-110.355
X93.865Y-99.55
X93.87Y-97.005
X93.915Y-87.6
X93.92Y-85.055
X93.94Y-86.345
X94.015Y-38.85
X94.015Y-51.6
X94.02Y-49.055
X94.065Y-63.6
X94.065Y-75.55
X94.07Y-73.005
X94.178Y-36.377
X94.35Y-37.555
X94.51Y-61.055
X94.526Y-121.902
X94.71Y-55.775
X96.87Y-36.205
X97.544Y-117.655
X97.57Y-93.405
X97.62Y-32.555
X97.62Y-46.405
X97.62Y-57.555
X97.62Y-69.455
X97.62Y-81.455
X97.62Y-105.405
X97.97Y-124.255
X98.56Y-72.275
X98.58Y-96.2
X98.82Y-41.655
X98.97Y-120.255
X98.99Y-54.585
X99.07Y-65.515
X99.08Y-30.475
X99.12Y-118.105
X99.22Y-112.555
X100.34Y-118.01
X101.24Y-72.725
X101.85Y-120.155
X102.47Y-114.42
X103.857Y-38.918
X104.36Y-121.665
X104.37Y-66.705
X105.02Y-114.356
X105.77Y-79.355
X105.9Y-75.7
X106.01Y-85.575
X106.02Y-39.655
X106.16Y-45.585
X106.57Y-111.015
X107.02Y-95.155
X107.75Y-47.045
X107.91Y-49.425
X107.93Y-37.155
X108.17Y-32.255
X108.206Y-87.238
X108.25Y-91.315
X108.37Y-115.626
X108.4Y-51.7
X108.477Y-107.31
X108.52Y-30.305
X108.66Y-99.245
X109.27Y-120.68
X109.32Y-72.455
X109.59Y-40.465
X109.9Y-31.065
X110.32Y-35.905
X111.15Y-28.235
X111.39Y-89.83
X112.04Y-120.805
X112.12Y-36.105
X112.31Y-29.779
X112.599Y-66.269
X112.62Y-48.705
X113.21Y-112.875
X113.57Y-87.99
X114.07Y-29.055
X114.09Y-64.58
X114.346Y-123.802
X114.816Y-72.554
X115.7Y-102.855
X116.75Y-25.895
X116.89Y-119.61
X117.11Y-30.239
X117.154Y-38.9
X117.157Y-90.137
X117.22Y-59.735
X118.1Y-56.2
X118.52Y-121.418
X118.624Y-94.43
X118.784Y-67.1
X119.23Y-127.07
X119.37Y-112.305
X119.762Y-41.282
X119.88Y-109.73
X120.319Y-120.581
X120.395Y-32.855
X120.601Y-90.249
X120.85Y-27.955
X120.97Y-103.855
X121.32Y-110.005
X121.5Y-79.205
X121.911Y-86.341
X121.919Y-66.61
X122.07Y-91.875
X122.2Y-108.62
X122.32Y-112.455
X122.37Y-95.855
X122.42Y-69.62
X122.51Y-126.028
X122.678Y-118.966
X122.77Y-46.455
X122.8Y-82.489
X122.91Y-115.26
X123.02Y-99.305
X123.15Y-92.675
X123.3Y-37.82
X123.39Y-66.68
X123.645Y-116.405
X123.71Y-109.65
X123.77Y-54.455
X124.25Y-126.57
X124.32Y-35.755
X124.42Y-32.855
X124.734Y-51.98
X124.842Y-78.433
X125.07Y-128.53
X126.094Y-96.655
X126.41Y-49.705
X126.45Y-104.115
X126.47Y-41.895
X126.683Y-47.161
X126.78Y-29.795
X126.79Y-35.09
X127.007Y-74.268
X127.25Y-64.186
X128.1Y-105.1
X128.214Y-57.84
X128.22Y-30.545
X128.57Y-43.581
X128.9Y-61.8
X128.934Y-63.886
X129.032Y-91.467
X129.23Y-106.33
X129.363Y-40.831
X129.43Y-100.19
X129.455Y-59.442
X129.55Y-35.09
X129.564Y-53.23
X129.6Y-118.87
X129.639Y-46.365
X129.645Y-83.035
X129.67Y-37.78
X130.12Y-80.805
X130.12Y-88.655
X130.475Y-45.018
X130.6Y-49.886
X130.649Y-48.725
X130.72Y-53.426
X130.77Y-129.255
X130.924Y-57.435
X130.961Y-60.985
X130.961Y-63.18
X131.156Y-54.362
X131.18Y-91.095
X131.27Y-42.526
X131.3Y-47.106
X131.754Y-58.296
X131.986Y-76.546
X132.044Y-80.455
X132.05Y-75.386
X132.13Y-97.925
X132.58Y-32.395
X132.62Y-36.155
X132.825Y-86.579
X133.136Y-70.83
X133.27Y-129.055
X133.97Y-89.379
X134.117Y-109.852
X134.42Y-80.179
X134.45Y-57.611
X134.61Y-43.914
X134.73Y-46.35
X134.806Y-54.268
X134.826Y-48.742
X134.83Y-40.756
X134.85Y-53.31
X134.87Y-47.506
X134.98Y-56.094
X134.99Y-59.13
X135.039Y-51.081
X135.22Y-89.379
X135.47Y-128.855
X135.65Y-35.84
X135.655Y-65.335
X135.85Y-37.47
X136.048Y-40.212
X136.076Y-63.182
X136.13Y-83.035
X136.14Y-61.319
X136.355Y-68.28
X136.355Y-69.384
X136.42Y-112.205
X136.57Y-59.13
X136.629Y-43.137
X136.63Y-67.3
X136.669Y-65.589
X136.736Y-50.33
X136.736Y-51.96
X136.79Y-121.055
X136.868Y-57.45
X136.87Y-77.455
X136.963Y-106.738
X137.12Y-119.48
X137.13Y-66.43
X137.21Y-62.67
X137.24Y-40.191
X137.268Y-75.159
X137.32Y-80.179
X137.403Y-69.303
X137.52Y-46.33
X137.544Y-44.98
X137.67Y-126.355
X137.67Y-128.955
X137.744Y-54.12
X137.78Y-77.015
X137.834Y-61.36
X138.02Y-34.405
X138.37Y-133.179
X138.52Y-100.505
X138.57Y-117.779
X138.92Y-91.065
X139.87Y-35.155
X140.17Y-129.055
X140.67Y-90.555
X140.736Y-37.386
X140.953Y-50.407
X141.07Y-107.605
X141.305Y-58.385
X141.355Y-83.15
X141.397Y-44.909
X141.42Y-43.95
X141.42Y-121.605
X141.48Y-55.1
X141.895Y-60.455
X141.97Y-77.74
X142.16Y-40.74
X142.17Y-39.37
X142.31Y-65.046
X142.37Y-27.955
X142.435Y-56.24
X142.44Y-62.36
X142.57Y-73.955
X142.6Y-67.76
X142.77Y-118.005
X143.275Y-71.103
X143.47Y-98.055
X143.87Y-82.829
X144.12Y-74.705
X144.17Y-33.255
X144.22Y-91.105
X144.226Y-70.974
X144.75Y-53.424
X144.77Y-54.384
X145.05Y-43.09
X145.92Y-71.355
X145.95Y-92.045
X146.47Y-114.755
X146.555Y-64.844
X146.57Y-27.88
X146.66Y-45.939
X146.733Y-58.403
X146.77Y-82.829
X146.794Y-56.494
X146.87Y-73.505
X146.92Y-77.74
X147.07Y-69.655
X147.07Y-98.005
X147.07Y-61.255
X147.37Y-90.23
X147.409Y-67.075
X147.658Y-65.343
X147.76Y-58.495
X147.97Y-73.825
X148.22Y-45.94
X148.41Y-50.054
X148.428Y-60.583
X148.52Y-77.079
X148.57Y-91.081
X148.596Y-57.821
X148.67Y-99.605
X148.744Y-40.555
X148.768Y-61.523
X148.77Y-39.055
X148.77Y-73.055
X148.83Y-107.645
X148.948Y-66.116
X149.02Y-36.855
X149.07Y-118.299
X149.19Y-32.405
X149.22Y-68.905
X149.47Y-44.005
X150.113Y-51.988
X150.135Y-55.371
X150.37Y-73.405
X150.495Y-57.096
X150.495Y-58.855
X150.62Y-45.255
X150.78Y-78.465
X151.12Y-64.205
X151.152Y-61.837
X151.17Y-107.705
X151.54Y-32.125
X151.578Y-50.054
X151.733Y-45.392
X152.19Y-91.075
X152.75Y-77.805
X152.77Y-98.855
X152.82Y-42.555
X152.87Y-41.505
X153.152Y-38.329
X153.27Y-47.405
X153.32Y-89.501
X153.386Y-39.589
X153.52Y-121.105
X153.52Y-123.255
X153.57Y-117.955
X153.71Y-126.865
X153.95Y-82.785
X154.07Y-48.355
X154.195Y-56.505
X154.27Y-43.505
X154.27Y-55.355
X154.31Y-31.945
X154.42Y-36.555
X154.42Y-38.355
X154.47Y-50.855
X154.57Y-115.215
X154.72Y-118.055
X154.93Y-58.575
X155.02Y-66.355
X155.08Y-59.765
X155.16Y-52.705
X155.17Y-41.505
X155.22Y-63.855
X155.295Y-61.43
X155.45Y-89.379
X155.47Y-42.954
X155.47Y-81.929
X155.57Y-98.255
X156.085Y-57.825
X156.22Y-117.954
X156.37Y-73.955
X156.37Y-78.355
X156.47Y-56.355
X156.524Y-47.005
X156.77Y-48.055
X157.47Y-67.365
X157.79Y-42.815
X157.82Y-77.805
X158.32Y-56.355
X158.37Y-28.355
X158.47Y-66.845
X158.97Y-53.795
X159.01Y-43.345
X159.22Y-89.305
X159.37Y-99.255
X159.99Y-53.375
X160.32Y-31.655
X160.62Y-51.805
X160.77Y-77.955
X160.78Y-72.01
X161.3Y-90.225
X161.42Y-46.755
X161.42Y-112.179
X161.545Y-73.41
X161.87Y-51.605
X162.04Y-27.975
X162.52Y-45.605
X162.52Y-120.179
X162.72Y-89.255
X162.87Y-51.005
X162.948Y-91.691
X163.02Y-99.605
X163.45Y-74.68
X163.59Y-72.255
X163.87Y-47.755
X163.92Y-40.805
X164.07Y-42.955
X164.345Y-77.885
X164.42Y-46.505
X164.42Y-68.505
X164.77Y-34.555
X164.82Y-99.305
X165.0Y-82.169
X165.1Y-64.695
X165.77Y-49.555
X165.82Y-77.879
X165.833Y-71.352
X165.87Y-29.155
X165.87Y-112.955
X165.92Y-47.455
X166.245Y-61.755
X166.27Y-91.155
X166.42Y-109.655
X167.27Y-78.055
X167.77Y-89.105
X167.92Y-109.175
X168.082Y-90.562
X168.384Y-99.915
X168.47Y-50.355
X168.77Y-77.955
X168.77Y-130.055
X168.87Y-97.455
X169.12Y-47.905
X169.758Y-90.793
X169.97Y-41.355
X169.97Y-44.655
X170.27Y-77.879
X170.344Y-56.655
X170.52Y-126.355
X170.67Y-51.555
X170.77Y-129.455
X170.87Y-39.155
X170.87Y-42.355
X170.87Y-43.855
X171.07Y-46.855
X171.082Y-48.767
X171.37Y-35.955
X171.57Y-33.355
X171.57Y-41.505
X171.62Y-59.955
X171.67Y-51.755
X171.728Y-125.273
X171.97Y-116.329
X172.557Y-77.868
X172.82Y-107.675
X173.26Y-132.355
X173.33Y-71.535
X174.18Y-98.88
X174.421Y-95.155
X174.52Y-85.705
X174.82Y-105.705
X174.97Y-52.955
X174.97Y-54.355
X175.139Y-50.586
X175.17Y-47.155
X175.175Y-128.21
X175.258Y-44.843
X175.27Y-117.555
X175.27Y-119.255
X175.27Y-120.455
X175.47Y-108.555
X175.62Y-42.355
X175.76Y-129.985
X175.87Y-90.605
X176.07Y-85.505
X176.12Y-73.18
X176.67Y-55.155
X176.794Y-49.955
X176.87Y-48.755
X177.082Y-94.889
X177.12Y-128.685
X177.27Y-100.955
X177.457Y-79.605
X177.47Y-127.205
X177.55Y-83.225
X177.57Y-53.055
X177.57Y-81.055
X177.77Y-47.955
X178.07Y-84.555
X178.32Y-32.855
X178.52Y-73.18
X178.52Y-93.185
X178.57Y-96.331
X178.67Y-113.705
X178.87Y-110.855
X179.169Y-104.375
X179.27Y-107.155
X179.283Y-77.692
X179.77Y-33.805
X180.12Y-72.605
X180.385Y-79.179
X180.82Y-49.555
X180.92Y-83.755
X181.02Y-81.779
X181.046Y-73.805
X181.75Y-130.745
X182.63Y-65.265
X182.67Y-47.955
X182.67Y-49.455
X182.82Y-73.315
X182.87Y-37.055
X183.02Y-35.555
X183.17Y-79.205
X183.47Y-54.355
X184.27Y-52.755
X184.383Y-66.118
X184.47Y-61.605
X184.87Y-28.905
X184.95Y-97.545
X184.97Y-64.105
X184.983Y-35.118
X185.07Y-48.955
X185.17Y-42.655
X185.17Y-54.755
X185.22Y-109.775
X185.27Y-46.055
X185.458Y-84.467
X186.32Y-112.055
X186.37Y-104.855
X186.48Y-123.635
X187.0Y-88.945
X187.22Y-101.955
X187.32Y-84.055
X189.07Y-76.355
X190.92Y-82.805
X191.67Y-110.555
X191.72Y-114.405
X191.72Y-117.205
X191.74Y-112.275
X192.37Y-42.855
X192.41Y-75.81
X192.47Y-107.655
X192.71Y-65.27
X192.77Y-38.955
X192.78Y-68.71
X193.132Y-98.567
X193.17Y-40.955
X193.236Y-72.51
T2
X34.91Y-51.255
X34.91Y-53.795
X34.91Y-56.335
X34.91Y-58.875
X34.91Y-61.415
X34.91Y-63.955
X34.91Y-66.495
X34.91Y-69.035
X34.91Y-71.575
X34.91Y-74.115
X34.91Y-76.655
X55.116Y-51.255
X55.116Y-53.795
X55.116Y-56.335
X55.116Y-58.875
X55.116Y-61.415
X55.116Y-63.955
X55.116Y-66.495
X55.116Y-69.035
X55.116Y-71.575
X55.116Y-74.115
X55.116Y-76.655
T3
X134.71Y-84.603
X134.71Y-87.143
X134.71Y-93.386
X134.71Y-95.926
X134.71Y-102.169
X134.71Y-104.709
X137.25Y-84.603
X137.25Y-87.143
X137.25Y-93.386
X137.25Y-95.926
X137.25Y-102.169
X137.25Y-104.709
X139.79Y-84.603
X139.79Y-87.143
X139.79Y-93.386
X139.79Y-95.926
X139.79Y-102.169
X139.79Y-104.709
X142.33Y-84.603
X142.33Y-87.143
X142.33Y-93.386
X142.33Y-95.926
X142.33Y-102.169
X142.33Y-104.709
X144.87Y-84.603
X144.87Y-87.143
X144.87Y-93.386
X144.87Y-95.926
X144.87Y-102.169
X144.87Y-104.709
X147.41Y-84.603
X147.41Y-87.143
X147.41Y-93.386
X147.41Y-95.926
X147.41Y-102.169
X147.41Y-104.709
X149.95Y-84.603
X149.95Y-87.143
X149.95Y-93.386
X149.95Y-95.926
X149.95Y-102.169
X149.95Y-104.709
X152.49Y-84.603
X152.49Y-87.143
X152.49Y-93.386
X152.49Y-95.926
X152.49Y-102.169
X152.49Y-104.709
X155.03Y-84.603
X155.03Y-87.143
X155.03Y-93.386
X155.03Y-95.926
X155.03Y-102.169
X155.03Y-104.709
X157.57Y-84.603
X157.57Y-87.143
X157.57Y-93.386
X157.57Y-95.926
X157.57Y-102.169
X157.57Y-104.709
X160.11Y-84.603
X160.11Y-87.143
X160.11Y-93.386
X160.11Y-95.926
X160.11Y-102.169
X160.11Y-104.709
X162.65Y-84.603
X162.65Y-87.143
X162.65Y-93.386
X162.65Y-95.926
X162.65Y-102.169
X162.65Y-104.709
X165.19Y-84.603
X165.19Y-87.143
X165.19Y-93.386
X165.19Y-95.926
X165.19Y-102.169
X165.19Y-104.709
X167.73Y-84.603
X167.73Y-87.143
X167.73Y-93.386
X167.73Y-95.926
X167.73Y-102.169
X167.73Y-104.709
X170.27Y-84.603
X170.27Y-87.143
X170.27Y-93.386
X170.27Y-95.926
X170.27Y-102.169
X170.27Y-104.709
X172.81Y-84.603
X172.81Y-87.143
X172.81Y-93.386
X172.81Y-95.926
X172.81Y-102.169
X172.81Y-104.709
X180.573Y-85.645
X180.573Y-88.185
X180.573Y-90.725
X180.573Y-93.265
X180.573Y-95.805
X180.573Y-98.345
X180.573Y-100.885
X180.573Y-103.425
X180.573Y-105.965
X180.573Y-108.505
X180.573Y-111.045
X180.573Y-113.585
X180.573Y-116.125
X180.573Y-118.665
X180.573Y-121.205
X180.573Y-123.745
X183.113Y-85.645
X183.113Y-88.185
X183.113Y-90.725
X183.113Y-93.265
X183.113Y-95.805
X183.113Y-98.345
X183.113Y-100.885
X183.113Y-103.425
X183.113Y-105.965
X183.113Y-108.505
X183.113Y-111.045
X183.113Y-113.585
X183.113Y-116.125
X183.113Y-118.665
X183.113Y-121.205
X183.113Y-123.745
X187.493Y-35.255
X187.493Y-37.795
X187.493Y-40.335
X187.493Y-42.875
X187.493Y-45.415
X187.493Y-47.955
X187.493Y-50.495
X187.493Y-53.035
X187.493Y-55.575
X187.493Y-58.115
X187.493Y-60.655
X187.493Y-63.195
X187.493Y-65.735
X187.493Y-68.275
X187.493Y-70.815
X187.493Y-73.355
X190.033Y-35.255
X190.033Y-37.795
X190.033Y-40.335
X190.033Y-42.875
X190.033Y-45.415
X190.033Y-47.955
X190.033Y-50.495
X190.033Y-53.035
X190.033Y-55.575
X190.033Y-58.115
X190.033Y-60.655
X190.033Y-63.195
X190.033Y-65.735
X190.033Y-68.275
X190.033Y-70.815
X190.033Y-73.355
T4
X138.95Y-121.75
X143.95Y-121.75
X146.45Y-121.75
X148.95Y-121.75
X159.95Y-121.75
X164.95Y-121.75
X167.45Y-121.75
X169.95Y-121.75
T5
X138.282Y-36.71
X138.282Y-71.19
X178.282Y-36.71
X178.282Y-71.19
T6
X35.42Y-91.955
X35.42Y-94.495
X35.42Y-97.035
X35.42Y-99.575
X35.42Y-102.115
X35.42Y-104.655
X35.42Y-107.195
X35.42Y-109.735
X35.42Y-112.275
X35.42Y-114.815
X55.407Y-91.955
X55.407Y-94.495
X55.407Y-97.035
X55.407Y-99.575
X55.407Y-102.115
X55.407Y-104.655
X55.407Y-107.195
X55.407Y-109.735
X55.407Y-112.275
X55.407Y-114.815
T7
X106.99Y-88.97
X107.0Y-57.2
X107.0Y-73.2
X107.01Y-104.84
X107.01Y-120.68
X123.0Y-41.2
X123.0Y-57.1
X123.0Y-73.3
X123.0Y-88.97
X123.0Y-104.82
X123.0Y-120.6
T8
X134.85Y-124.55
X151.05Y-118.95
X155.85Y-124.55
X172.05Y-118.95
T9
X103.84Y-85.82
X103.84Y-92.12
X103.85Y-54.05
X103.85Y-60.35
X103.85Y-70.05
X103.85Y-76.35
X103.86Y-101.69
X103.86Y-107.99
X103.86Y-117.53
X103.86Y-123.83
X110.14Y-85.82
X110.14Y-92.12
X110.15Y-54.05
X110.15Y-60.35
X110.15Y-70.05
X110.15Y-76.35
X110.16Y-101.69
X110.16Y-107.99
X110.16Y-117.53
X110.16Y-123.83
X119.85Y-38.05
X119.85Y-44.35
X119.85Y-53.95
X119.85Y-60.25
X119.85Y-70.15
X119.85Y-76.45
X119.85Y-85.82
X119.85Y-92.12
X119.85Y-101.67
X119.85Y-107.97
X119.85Y-117.45
X119.85Y-123.75
X126.15Y-38.05
X126.15Y-44.35
X126.15Y-53.95
X126.15Y-60.25
X126.15Y-70.15
X126.15Y-76.45
X126.15Y-85.82
X126.15Y-92.12
X126.15Y-101.67
X126.15Y-107.97
X126.15Y-117.45
X126.15Y-123.75
T10
X30.27Y-26.955
X30.27Y-130.955
X194.27Y-26.955
X194.27Y-130.955
T0
M30
