%TF.GenerationSoftware,KiCad,Pcbnew,(6.0.8-1)-1*%
%TF.CreationDate,2022-11-17T19:15:11-05:00*%
%TF.ProjectId,HermEIS,4865726d-4549-4532-9e6b-696361645f70,rev?*%
%TF.SameCoordinates,Original*%
%TF.FileFunction,Copper,L2,Inr*%
%TF.FilePolarity,Positive*%
%FSLAX46Y46*%
G04 Gerber Fmt 4.6, Leading zero omitted, Abs format (unit mm)*
G04 Created by KiCad (PCBNEW (6.0.8-1)-1) date 2022-11-17 19:15:11*
%MOMM*%
%LPD*%
G01*
G04 APERTURE LIST*
%TA.AperFunction,ComponentPad*%
%ADD10C,2.000000*%
%TD*%
%TA.AperFunction,ComponentPad*%
%ADD11C,2.200000*%
%TD*%
%TA.AperFunction,ComponentPad*%
%ADD12C,1.016000*%
%TD*%
%TA.AperFunction,ComponentPad*%
%ADD13C,1.397000*%
%TD*%
%TA.AperFunction,ComponentPad*%
%ADD14C,1.270000*%
%TD*%
%TA.AperFunction,ComponentPad*%
%ADD15C,1.320800*%
%TD*%
%TA.AperFunction,ComponentPad*%
%ADD16R,1.408000X1.408000*%
%TD*%
%TA.AperFunction,ComponentPad*%
%ADD17C,1.408000*%
%TD*%
%TA.AperFunction,ComponentPad*%
%ADD18C,2.100000*%
%TD*%
%TA.AperFunction,ViaPad*%
%ADD19C,0.800000*%
%TD*%
%TA.AperFunction,ViaPad*%
%ADD20C,4.000000*%
%TD*%
%TA.AperFunction,Conductor*%
%ADD21C,0.250000*%
%TD*%
%TA.AperFunction,Conductor*%
%ADD22C,0.200000*%
%TD*%
G04 APERTURE END LIST*
D10*
%TO.N,/CE*%
%TO.C,J2*%
X107000000Y-57200000D03*
D11*
%TO.N,GND*%
X103850000Y-60350000D03*
X110150000Y-60350000D03*
X110150000Y-54050000D03*
X103850000Y-54050000D03*
%TD*%
D10*
%TO.N,/V_ref*%
%TO.C,J7*%
X107000000Y-73200000D03*
D11*
%TO.N,GND*%
X103850000Y-76350000D03*
X110150000Y-76350000D03*
X110150000Y-70050000D03*
X103850000Y-70050000D03*
%TD*%
D12*
%TO.N,N/C*%
%TO.C,J19*%
X138282000Y-36709750D03*
X138282000Y-71190250D03*
%TD*%
D13*
%TO.N,/C22*%
%TO.C,J18*%
X190032800Y-73355000D03*
%TO.N,/A21*%
X190032800Y-70815000D03*
%TO.N,/A20*%
X190032800Y-68275000D03*
%TO.N,/J20*%
X190032800Y-65735000D03*
%TO.N,/J22*%
X190032800Y-63195000D03*
%TO.N,/W20*%
X190032800Y-60655000D03*
%TO.N,/T19*%
X190032800Y-58115000D03*
%TO.N,/W22*%
X190032800Y-55575000D03*
%TO.N,/T20*%
X190032800Y-53035000D03*
%TO.N,/U19*%
X190032800Y-50495000D03*
%TO.N,/P17*%
X190032800Y-47955000D03*
%TO.N,/V20*%
X190032800Y-45415000D03*
%TO.N,/N16*%
X190032800Y-42875000D03*
%TO.N,/C5*%
X190032800Y-40335000D03*
%TO.N,/M17*%
X190032800Y-37795000D03*
%TO.N,/A5*%
X190032800Y-35255000D03*
%TO.N,/M18*%
X187492800Y-73355000D03*
%TO.N,/D14*%
X187492800Y-70815000D03*
%TO.N,/P18*%
X187492800Y-68275000D03*
%TO.N,/C14*%
X187492800Y-65735000D03*
%TO.N,/R19*%
X187492800Y-63195000D03*
%TO.N,/E16*%
X187492800Y-60655000D03*
%TO.N,/D9*%
X187492800Y-58115000D03*
%TO.N,/D17*%
X187492800Y-55575000D03*
%TO.N,/C8*%
X187492800Y-53035000D03*
%TO.N,/D7*%
X187492800Y-50495000D03*
%TO.N,/D10*%
X187492800Y-47955000D03*
%TO.N,/D8*%
X187492800Y-45415000D03*
%TO.N,/C10*%
X187492800Y-42875000D03*
%TO.N,/L17*%
X187492800Y-40335000D03*
%TO.N,/D11*%
X187492800Y-37795000D03*
%TO.N,/K18*%
X187492800Y-35255000D03*
%TD*%
%TO.N,/Vref_o*%
%TO.C,J17*%
X183112800Y-123745000D03*
%TO.N,/chn1*%
X183112800Y-121205000D03*
%TO.N,/chn2*%
X183112800Y-118665000D03*
%TO.N,/chn3*%
X183112800Y-116125000D03*
%TO.N,/chn4*%
X183112800Y-113585000D03*
%TO.N,/chn5*%
X183112800Y-111045000D03*
%TO.N,/chn6*%
X183112800Y-108505000D03*
%TO.N,/chn7*%
X183112800Y-105965000D03*
%TO.N,/WE1*%
X183112800Y-103425000D03*
%TO.N,/WE2*%
X183112800Y-100885000D03*
%TO.N,/WE3*%
X183112800Y-98345000D03*
%TO.N,/WE4*%
X183112800Y-95805000D03*
%TO.N,/WE5*%
X183112800Y-93265000D03*
%TO.N,/WE6*%
X183112800Y-90725000D03*
%TO.N,/WE7*%
X183112800Y-88185000D03*
%TO.N,/F_EIS_DDS*%
X183112800Y-85645000D03*
%TO.N,/CV_S2*%
X180572800Y-123745000D03*
%TO.N,/EIS_S3*%
X180572800Y-121205000D03*
%TO.N,/SIN_2*%
X180572800Y-118665000D03*
%TO.N,/SIN_1*%
X180572800Y-116125000D03*
%TO.N,/V_ref*%
X180572800Y-113585000D03*
X180572800Y-111045000D03*
%TO.N,/CE*%
X180572800Y-108505000D03*
X180572800Y-105965000D03*
%TO.N,/WE1*%
X180572800Y-103425000D03*
%TO.N,/WE2*%
X180572800Y-100885000D03*
%TO.N,/WE3*%
X180572800Y-98345000D03*
%TO.N,/WE4*%
X180572800Y-95805000D03*
%TO.N,/WE5*%
X180572800Y-93265000D03*
%TO.N,/WE6*%
X180572800Y-90725000D03*
%TO.N,/WE7*%
X180572800Y-88185000D03*
%TO.N,/CV_DAC*%
X180572800Y-85645000D03*
%TD*%
D14*
%TO.N,unconnected-(J16-Pad1)*%
%TO.C,J16*%
X55115700Y-51255000D03*
%TO.N,unconnected-(J16-Pad2)*%
X55115700Y-53795000D03*
%TO.N,unconnected-(J16-Pad3)*%
X55115700Y-56335000D03*
%TO.N,unconnected-(J16-Pad4)*%
X55115700Y-58875000D03*
%TO.N,unconnected-(J16-Pad5)*%
X55115700Y-61415000D03*
%TO.N,unconnected-(J16-Pad6)*%
X55115700Y-63955000D03*
%TO.N,unconnected-(J16-Pad7)*%
X55115700Y-66495000D03*
%TO.N,unconnected-(J16-Pad8)*%
X55115700Y-69035000D03*
%TO.N,unconnected-(J16-Pad9)*%
X55115700Y-71575000D03*
%TO.N,unconnected-(J16-Pad10)*%
X55115700Y-74115000D03*
%TO.N,unconnected-(J16-Pad11)*%
X55115700Y-76655000D03*
%TD*%
D12*
%TO.N,N/C*%
%TO.C,J20*%
X178282000Y-36709750D03*
X178282000Y-71190250D03*
%TD*%
D10*
%TO.N,/CV_S1*%
%TO.C,J6*%
X123000000Y-41200000D03*
D11*
%TO.N,GND*%
X126150000Y-44350000D03*
X126150000Y-38050000D03*
X119850000Y-44350000D03*
X119850000Y-38050000D03*
%TD*%
D13*
%TO.N,/A_NCS*%
%TO.C,J21*%
X134710000Y-95926133D03*
%TO.N,/A_SCK*%
X137250000Y-95926133D03*
%TO.N,/A_SDI*%
X139790000Y-95926133D03*
%TO.N,/A_SDO1*%
X142330000Y-95926133D03*
%TO.N,/A_SDO2*%
X144870000Y-95926133D03*
%TO.N,/A_SDO3*%
X147410000Y-95926133D03*
%TO.N,/A_SDO4*%
X149950000Y-95926133D03*
%TO.N,/A_SDO5*%
X152490000Y-95926133D03*
%TO.N,/A_SDO6*%
X155030000Y-95926133D03*
%TO.N,/A_SDO7*%
X157570000Y-95926133D03*
%TO.N,/A_SDO8*%
X160110000Y-95926133D03*
%TO.N,/D20*%
X162650000Y-95926133D03*
%TO.N,/D_7*%
X165190000Y-95926133D03*
%TO.N,/D_6*%
X167730000Y-95926133D03*
%TO.N,/D_5*%
X170270000Y-95926133D03*
%TO.N,/D_4*%
X172810000Y-95926133D03*
%TO.N,/D_3*%
X134710000Y-93386133D03*
%TO.N,/D_2*%
X137250000Y-93386133D03*
%TO.N,/D_1*%
X139790000Y-93386133D03*
%TO.N,/D_0*%
X142330000Y-93386133D03*
%TO.N,/FQ_UD*%
X144870000Y-93386133D03*
%TO.N,/K20*%
X147410000Y-93386133D03*
%TO.N,/FT_NCS*%
X149950000Y-93386133D03*
%TO.N,/FT_SCK*%
X152490000Y-93386133D03*
%TO.N,/FT_SDI*%
X155030000Y-93386133D03*
%TO.N,/FT_SDO*%
X157570000Y-93386133D03*
%TO.N,/Rin_scl*%
X160110000Y-93386133D03*
%TO.N,/Rin_sda*%
X162650000Y-93386133D03*
%TO.N,/P21*%
X165190000Y-93386133D03*
%TO.N,/R20*%
X167730000Y-93386133D03*
%TO.N,/P22*%
X170270000Y-93386133D03*
%TO.N,/DAC1_LDAC*%
X172810000Y-93386133D03*
%TD*%
%TO.N,GND*%
%TO.C,J22*%
X134710000Y-87142800D03*
%TO.N,/SQ_1*%
X137250000Y-87142800D03*
%TO.N,/SQ_2*%
X139790000Y-87142800D03*
%TO.N,unconnected-(J22-PadA4)*%
X142330000Y-87142800D03*
%TO.N,/A18*%
X144870000Y-87142800D03*
%TO.N,/F_VREF_1*%
X147410000Y-87142800D03*
%TO.N,/V_ref*%
X149950000Y-87142800D03*
%TO.N,/chn1_r*%
X152490000Y-87142800D03*
%TO.N,/chn2_r*%
X155030000Y-87142800D03*
%TO.N,/chn3_r*%
X157570000Y-87142800D03*
%TO.N,/chn4_r*%
X160110000Y-87142800D03*
%TO.N,/chn5_r*%
X162650000Y-87142800D03*
%TO.N,/chn6_r*%
X165190000Y-87142800D03*
%TO.N,/chn7_r*%
X167730000Y-87142800D03*
%TO.N,GND*%
X170270000Y-87142800D03*
X172810000Y-87142800D03*
%TO.N,/L19*%
X134710000Y-84602800D03*
%TO.N,/H21*%
X137250000Y-84602800D03*
%TO.N,/K21*%
X139790000Y-84602800D03*
%TO.N,/H22*%
X142330000Y-84602800D03*
%TO.N,/K22*%
X144870000Y-84602800D03*
%TO.N,/F21*%
X147410000Y-84602800D03*
%TO.N,/G20*%
X149950000Y-84602800D03*
%TO.N,/F22*%
X152490000Y-84602800D03*
%TO.N,/G22*%
X155030000Y-84602800D03*
%TO.N,/D21*%
X157570000Y-84602800D03*
%TO.N,/E20*%
X160110000Y-84602800D03*
%TO.N,/D22*%
X162650000Y-84602800D03*
%TO.N,/E22*%
X165190000Y-84602800D03*
%TO.N,/B21*%
X167730000Y-84602800D03*
%TO.N,/C20*%
X170270000Y-84602800D03*
%TO.N,/B22*%
X172810000Y-84602800D03*
%TD*%
D10*
%TO.N,/WE7*%
%TO.C,J11*%
X123000000Y-120600000D03*
D11*
%TO.N,GND*%
X126150000Y-117450000D03*
X119850000Y-117450000D03*
X119850000Y-123750000D03*
X126150000Y-123750000D03*
%TD*%
D10*
%TO.N,/WE6*%
%TO.C,J5*%
X107010000Y-120680000D03*
D11*
%TO.N,GND*%
X110160000Y-123830000D03*
X110160000Y-117530000D03*
X103860000Y-123830000D03*
X103860000Y-117530000D03*
%TD*%
D15*
%TO.N,/SIN_2*%
%TO.C,J15*%
X55407500Y-91955000D03*
%TO.N,/SIN_1*%
X55407500Y-94495000D03*
%TO.N,/SQ_2*%
X55407500Y-97035000D03*
%TO.N,/SQ_1*%
X55407500Y-99575000D03*
%TO.N,GND*%
X55407500Y-102115000D03*
%TO.N,/N22*%
X55407500Y-104655000D03*
%TO.N,/L20*%
X55407500Y-107195000D03*
%TO.N,/FQ_UD*%
X55407500Y-109735000D03*
%TO.N,/K20*%
X55407500Y-112275000D03*
%TO.N,+3.3V*%
X55407500Y-114815000D03*
%TD*%
D10*
%TO.N,/WE5*%
%TO.C,J10*%
X123000000Y-104820000D03*
D11*
%TO.N,GND*%
X119850000Y-107970000D03*
X126150000Y-107970000D03*
X126150000Y-101670000D03*
X119850000Y-101670000D03*
%TD*%
D10*
%TO.N,/CE*%
%TO.C,J1*%
X123000000Y-57100000D03*
D11*
%TO.N,GND*%
X119850000Y-53950000D03*
X119850000Y-60250000D03*
X126150000Y-53950000D03*
X126150000Y-60250000D03*
%TD*%
D10*
%TO.N,/WE1*%
%TO.C,J8*%
X123000000Y-73300000D03*
D11*
%TO.N,GND*%
X126150000Y-70150000D03*
X119850000Y-70150000D03*
X126150000Y-76450000D03*
X119850000Y-76450000D03*
%TD*%
D10*
%TO.N,/WE4*%
%TO.C,J4*%
X107010000Y-104840000D03*
D11*
%TO.N,GND*%
X103860000Y-107990000D03*
X110160000Y-107990000D03*
X103860000Y-101690000D03*
X110160000Y-101690000D03*
%TD*%
D10*
%TO.N,/WE2*%
%TO.C,J3*%
X106990000Y-88970000D03*
D11*
%TO.N,GND*%
X110140000Y-85820000D03*
X103840000Y-92120000D03*
X110140000Y-92120000D03*
X103840000Y-85820000D03*
%TD*%
D13*
%TO.N,/JTAG_TCK*%
%TO.C,J12*%
X134710000Y-104709466D03*
%TO.N,/JTAG_TMS*%
X137250000Y-104709466D03*
%TO.N,/JTAG_TDO*%
X139790000Y-104709466D03*
%TO.N,/JTAG_TDI*%
X142330000Y-104709466D03*
%TO.N,unconnected-(J12-PadA5)*%
X144870000Y-104709466D03*
%TO.N,/SYS_CLK4*%
X147410000Y-104709466D03*
%TO.N,/SYS_CLK5*%
X149950000Y-104709466D03*
%TO.N,/USB_SCL*%
X152490000Y-104709466D03*
%TO.N,/USB_SDA*%
X155030000Y-104709466D03*
%TO.N,/+VCCO1*%
X157570000Y-104709466D03*
%TO.N,/+VCCO0*%
X160110000Y-104709466D03*
%TO.N,/+1.8V*%
X162650000Y-104709466D03*
X165190000Y-104709466D03*
%TO.N,/+1.2V*%
X167730000Y-104709466D03*
X170270000Y-104709466D03*
%TO.N,+5V*%
X172810000Y-104709466D03*
%TO.N,/DAC1_NCS*%
X134710000Y-102169466D03*
%TO.N,/DAC1_SCK*%
X137250000Y-102169466D03*
%TO.N,/DAC1_SDI*%
X139790000Y-102169466D03*
%TO.N,/N22*%
X142330000Y-102169466D03*
%TO.N,/L20*%
X144870000Y-102169466D03*
%TO.N,/F_RST_I*%
X147410000Y-102169466D03*
%TO.N,/F_RST_O*%
X149950000Y-102169466D03*
%TO.N,+5V*%
X152490000Y-102169466D03*
X155030000Y-102169466D03*
%TO.N,-3V*%
X157570000Y-102169466D03*
X160110000Y-102169466D03*
%TO.N,-0v5*%
X162650000Y-102169466D03*
%TO.N,nVDD_2*%
X165190000Y-102169466D03*
%TO.N,GND*%
X167730000Y-102169466D03*
%TO.N,+3.3V*%
X170270000Y-102169466D03*
X172810000Y-102169466D03*
%TD*%
D14*
%TO.N,unconnected-(J14-Pad1)*%
%TO.C,J14*%
X34910000Y-51255000D03*
%TO.N,unconnected-(J14-Pad2)*%
X34910000Y-53795000D03*
%TO.N,GND*%
X34910000Y-56335000D03*
%TO.N,/FT_SCK*%
X34910000Y-58875000D03*
%TO.N,/FT_SDO*%
X34910000Y-61415000D03*
%TO.N,/FT_SDI*%
X34910000Y-63955000D03*
%TO.N,/FT_NCS*%
X34910000Y-66495000D03*
%TO.N,unconnected-(J14-Pad8)*%
X34910000Y-69035000D03*
%TO.N,unconnected-(J14-Pad9)*%
X34910000Y-71575000D03*
%TO.N,unconnected-(J14-Pad10)*%
X34910000Y-74115000D03*
%TO.N,unconnected-(J14-Pad11)*%
X34910000Y-76655000D03*
%TD*%
D16*
%TO.N,/CV_S1*%
%TO.C,S1*%
X159950000Y-121750000D03*
D17*
%TO.N,/CV_ref*%
X164950000Y-121750000D03*
%TO.N,/CV_S2*%
X167450000Y-121750000D03*
%TO.N,unconnected-(S1-Pad4)*%
X169950000Y-121750000D03*
D18*
%TO.N,Net-(S1-PadS1)*%
X155850000Y-124550000D03*
X172050000Y-118950000D03*
%TD*%
D15*
%TO.N,GND*%
%TO.C,J13*%
X35420000Y-91955000D03*
%TO.N,/D_7*%
X35420000Y-94495000D03*
%TO.N,/D_6*%
X35420000Y-97035000D03*
%TO.N,/D_5*%
X35420000Y-99575000D03*
%TO.N,/D_4*%
X35420000Y-102115000D03*
%TO.N,/D_3*%
X35420000Y-104655000D03*
%TO.N,/D_2*%
X35420000Y-107195000D03*
%TO.N,/D_1*%
X35420000Y-109735000D03*
%TO.N,/D_0*%
X35420000Y-112275000D03*
%TO.N,+3.3V*%
X35420000Y-114815000D03*
%TD*%
D10*
%TO.N,/WE3*%
%TO.C,J9*%
X123000000Y-88970000D03*
D11*
%TO.N,GND*%
X126150000Y-85820000D03*
X126150000Y-92120000D03*
X119850000Y-92120000D03*
X119850000Y-85820000D03*
%TD*%
D16*
%TO.N,/EIS_S3*%
%TO.C,S2*%
X138950000Y-121750000D03*
D17*
%TO.N,/V_dds*%
X143950000Y-121750000D03*
%TO.N,/SIN_1*%
X146450000Y-121750000D03*
%TO.N,/SIN_2*%
X148950000Y-121750000D03*
D18*
%TO.N,Net-(S2-PadS1)*%
X134850000Y-124550000D03*
X151050000Y-118950000D03*
%TD*%
D19*
%TO.N,/CE*%
X114090000Y-64580000D03*
%TO.N,/F_RST_O*%
X144226071Y-70973929D03*
X137403278Y-69302962D03*
%TO.N,/C22*%
X136354500Y-69383710D03*
%TO.N,/DAC1_SDI*%
X141305287Y-58385287D03*
%TO.N,/+VCCO1*%
X136570000Y-59130500D03*
%TO.N,/K20*%
X134850000Y-53310000D03*
D20*
%TO.N,*%
X194270000Y-130955000D03*
X30270000Y-26955000D03*
X194270000Y-26955000D03*
X30270000Y-130955000D03*
D19*
%TO.N,GND*%
X109270000Y-120680000D03*
X67340000Y-112580000D03*
X63130000Y-98245000D03*
X67270000Y-89405000D03*
X81670000Y-47255000D03*
X84130000Y-43295000D03*
X88370000Y-35005000D03*
X135650000Y-35839500D03*
X75360000Y-73795000D03*
X129645000Y-83035000D03*
X129550000Y-35089500D03*
X40819500Y-43205000D03*
X98820000Y-41655000D03*
X96870000Y-36205000D03*
X100340000Y-118010000D03*
X98990000Y-54585000D03*
X70620000Y-119905000D03*
X74632701Y-45592299D03*
X63830000Y-63835000D03*
X61610000Y-81331999D03*
X46870000Y-51255000D03*
X55800000Y-27255000D03*
X76757701Y-36242701D03*
X63480000Y-60935000D03*
X108170000Y-32255000D03*
X67260000Y-82665000D03*
X83520000Y-116005000D03*
X83750000Y-72615000D03*
X72645500Y-89355000D03*
X66830000Y-73575000D03*
X78210000Y-89785000D03*
X75820000Y-69755000D03*
X136628929Y-43136671D03*
X171727652Y-125272652D03*
X128900000Y-61800000D03*
X186480000Y-123635000D03*
X79080000Y-32625000D03*
X68040000Y-36785000D03*
X43470000Y-41605000D03*
X64390000Y-50415000D03*
X98560000Y-72275000D03*
X83620000Y-64525000D03*
X153710000Y-126865000D03*
X46920000Y-48629500D03*
X75520000Y-119575000D03*
X136130000Y-83035000D03*
X67350000Y-63875000D03*
X70775000Y-97280000D03*
X47820000Y-32555000D03*
X136047935Y-40211565D03*
X43470000Y-31655000D03*
X72870000Y-33305000D03*
X67400000Y-47668000D03*
X52970000Y-41955000D03*
X78230000Y-85775000D03*
%TO.N,+5V*%
X162040000Y-27975000D03*
X71070000Y-48405000D03*
X187220000Y-101955000D03*
X144170000Y-33255000D03*
X59070000Y-51055000D03*
X97620000Y-69455000D03*
X151170000Y-107705000D03*
X97570000Y-93405000D03*
X35720000Y-47905000D03*
X117110000Y-30239500D03*
X97620000Y-81455000D03*
X97544500Y-117655000D03*
X97620000Y-32555000D03*
X172820000Y-107675000D03*
X163920000Y-40805000D03*
X97620000Y-46405000D03*
X97620000Y-57555000D03*
X164770000Y-34555000D03*
X109900000Y-31065000D03*
X97620000Y-105405000D03*
X184982701Y-35117701D03*
%TO.N,/chn2*%
X83444500Y-57205000D03*
X81820000Y-79205000D03*
X119230000Y-127070500D03*
X81820000Y-110305000D03*
X81820000Y-121205000D03*
X98970000Y-120255000D03*
X81820000Y-99505000D03*
X97970000Y-124255000D03*
X81820000Y-88755000D03*
X84070000Y-35105000D03*
X83570000Y-46505000D03*
%TO.N,-3V*%
X70820000Y-63815000D03*
X72314560Y-118635038D03*
X78020000Y-52155000D03*
X72870000Y-96555000D03*
X60120000Y-45905000D03*
X72570000Y-74455000D03*
X71070000Y-67155000D03*
X71270000Y-111655000D03*
X70420000Y-88955000D03*
X76570000Y-34755000D03*
%TO.N,/chn3*%
X84520000Y-47755000D03*
X84420000Y-111605000D03*
X112040000Y-120805000D03*
X84420000Y-90105000D03*
X175270000Y-119255000D03*
X136790000Y-121055000D03*
X84570000Y-58505000D03*
X84670000Y-36305000D03*
X84420000Y-100855000D03*
X84570000Y-69255000D03*
X84420000Y-122555000D03*
%TO.N,+3.3V*%
X135850000Y-37470100D03*
X93400000Y-118755000D03*
X47970000Y-43155000D03*
X76320000Y-85755000D03*
X171570000Y-33355000D03*
X59970000Y-110025000D03*
X76280000Y-112845000D03*
X112120000Y-36105000D03*
X67370000Y-96555000D03*
X93390000Y-94515000D03*
X45370000Y-35255000D03*
X93460000Y-106515000D03*
X111150000Y-28235000D03*
X93420000Y-46505000D03*
X72920000Y-52255000D03*
X75820000Y-68405000D03*
X76520000Y-89755000D03*
X76270000Y-107925000D03*
X140735500Y-37385600D03*
X93420000Y-58505000D03*
X93410000Y-82485000D03*
X154470000Y-50855000D03*
X70710000Y-118835000D03*
X93420000Y-33755000D03*
X63250000Y-27685000D03*
X61770000Y-91855000D03*
X38370000Y-38855000D03*
X75170000Y-49205000D03*
X63720000Y-35655000D03*
X192410000Y-75810000D03*
X42620000Y-43155000D03*
X93420000Y-70505000D03*
X70570000Y-74455500D03*
X74831250Y-63603750D03*
%TO.N,/chn1*%
X82720000Y-98305000D03*
X82720000Y-119955000D03*
X82720000Y-109005000D03*
X80970000Y-40605000D03*
X175175497Y-128210497D03*
X80570000Y-36355000D03*
X118520000Y-121418500D03*
X82720000Y-87555000D03*
X82720000Y-66105000D03*
X82720000Y-76855000D03*
X80570000Y-39055000D03*
X83250000Y-45075000D03*
X99120000Y-118105000D03*
%TO.N,-0v5*%
X33670000Y-38455000D03*
%TO.N,nVDD_2*%
X76110000Y-43255000D03*
X51770000Y-37855000D03*
X74120000Y-122515000D03*
X67570000Y-100155000D03*
X48270000Y-37445000D03*
X74370000Y-100355000D03*
X88470000Y-36255000D03*
X65020000Y-80655000D03*
X166420000Y-109655000D03*
X107930000Y-37155000D03*
X136420000Y-112205000D03*
X74170000Y-78305000D03*
X58120000Y-57955000D03*
X151540000Y-32125000D03*
X65170000Y-125979500D03*
X63620000Y-40935000D03*
X108370000Y-115626500D03*
%TO.N,/Vref_o*%
X87570000Y-86305000D03*
X57370000Y-118205000D03*
X69920000Y-39805000D03*
X87820000Y-107855000D03*
X138370000Y-133179500D03*
X87720000Y-64855000D03*
X87770000Y-97055000D03*
X87920000Y-54105000D03*
X87770000Y-118705000D03*
X87920000Y-75555000D03*
X87970000Y-32505000D03*
%TO.N,/WE2*%
X70420000Y-72705000D03*
X66220000Y-68555000D03*
X120600985Y-90249015D03*
X62595500Y-81565000D03*
%TO.N,/chn4*%
X87870000Y-49055000D03*
X87770000Y-102105000D03*
X129600000Y-118870000D03*
X90570000Y-115730500D03*
X88745500Y-123805000D03*
X99220000Y-112555000D03*
X87770000Y-112905000D03*
X87870000Y-59755000D03*
X87920000Y-70505000D03*
X88770000Y-37605000D03*
X87770000Y-81255000D03*
%TO.N,/chn5*%
X87720000Y-82505000D03*
X87770000Y-114155000D03*
X87920000Y-71755000D03*
X84170000Y-124679500D03*
X87920000Y-38855000D03*
X87920000Y-61055000D03*
X87920000Y-50305000D03*
X171970000Y-116329500D03*
X87770000Y-93205000D03*
%TO.N,/chn6*%
X87870000Y-83805000D03*
X87920000Y-40105000D03*
X87920000Y-124655000D03*
X87870000Y-62355000D03*
X87870000Y-105255000D03*
X130120000Y-88655000D03*
X122370000Y-95855000D03*
X175870000Y-90605000D03*
X87870000Y-94555000D03*
X87920000Y-73055000D03*
X162720000Y-89255000D03*
X87870000Y-51605000D03*
%TO.N,/chn7*%
X175470000Y-108555000D03*
X105020000Y-114356500D03*
X123645500Y-116405000D03*
%TO.N,/A_NCS*%
X146570000Y-27879500D03*
X89570000Y-76930000D03*
X89030000Y-124965000D03*
X141420000Y-43950000D03*
X89570000Y-64880000D03*
X89620000Y-52880000D03*
X89470000Y-88930000D03*
X132130000Y-97925000D03*
X89520000Y-112880000D03*
X89670000Y-40155000D03*
X89470000Y-100880000D03*
%TO.N,/A_SDO1*%
X94350000Y-37555000D03*
X131270000Y-42525600D03*
X112599015Y-66269015D03*
X109590000Y-40465000D03*
%TO.N,/A_SCK*%
X94510000Y-61055000D03*
X94070000Y-73005000D03*
X94177701Y-36377299D03*
X114345500Y-123802119D03*
X94020000Y-49055000D03*
X134610000Y-43914500D03*
X93870000Y-97005000D03*
X93740000Y-121245000D03*
X93820000Y-109105000D03*
X126450000Y-104115000D03*
X92650000Y-124780500D03*
X93920000Y-85055000D03*
%TO.N,/WE1*%
X130120000Y-80805000D03*
X72870000Y-37405000D03*
X112620000Y-48705000D03*
X83400000Y-31429500D03*
X80942701Y-28207701D03*
%TO.N,/V_ref*%
X185220000Y-109775000D03*
X114070000Y-29055000D03*
%TO.N,/CV_ref*%
X105900000Y-75700000D03*
X108400000Y-51700000D03*
X123710000Y-109650000D03*
X124250000Y-126570500D03*
%TO.N,/CE*%
X47620000Y-41705000D03*
X189070000Y-76355000D03*
X77520000Y-44155000D03*
X91120000Y-43455000D03*
%TO.N,/A_SDO2*%
X147070000Y-98005000D03*
X130924500Y-57434850D03*
X146920000Y-77740500D03*
X146770000Y-82829500D03*
X137544500Y-44979856D03*
%TO.N,/WE4*%
X107020000Y-95155000D03*
X62090000Y-88255000D03*
X57957701Y-88267299D03*
X66884549Y-91704951D03*
X153950000Y-82785000D03*
X75620000Y-94909500D03*
%TO.N,Net-(R39-Pad2)*%
X77334549Y-38235049D03*
X69170000Y-33755000D03*
%TO.N,/WE6*%
X173260000Y-132355000D03*
X57610000Y-124785000D03*
X67120000Y-118355000D03*
X66590000Y-113605000D03*
%TO.N,/A_SDO4*%
X121500000Y-79205000D03*
X129363030Y-40830600D03*
X134117299Y-109852299D03*
X126470000Y-41895000D03*
X137520000Y-46330000D03*
X123390000Y-66680000D03*
X119370000Y-112305000D03*
%TO.N,/A_SDO6*%
X150370000Y-73405000D03*
X150780000Y-78465000D03*
X153320000Y-89500500D03*
X117156968Y-90136968D03*
%TO.N,/A_SDO8*%
X142770000Y-118005000D03*
X164420000Y-68505000D03*
X156470000Y-56355000D03*
X177120000Y-128685000D03*
X153520000Y-123255000D03*
X191720000Y-114405000D03*
X104360000Y-121665000D03*
X167920000Y-109175000D03*
X183170000Y-79205000D03*
X94526452Y-121901677D03*
X138570000Y-117779500D03*
X164820000Y-99305000D03*
%TO.N,Net-(R11-Pad2)*%
X37970000Y-33955000D03*
X38670000Y-36879500D03*
%TO.N,/SIN_2*%
X175270000Y-120455000D03*
X51870000Y-91955000D03*
%TO.N,/SIN_1*%
X50970000Y-94455000D03*
X175270000Y-117555000D03*
X146470000Y-114755000D03*
%TO.N,/SQ_2*%
X143470000Y-98055000D03*
X49370000Y-97055000D03*
X137670000Y-128955000D03*
%TO.N,/SQ_1*%
X48370000Y-99555000D03*
X137670000Y-126355000D03*
%TO.N,Net-(C37-Pad1)*%
X126780000Y-29795000D03*
X165870000Y-29155000D03*
%TO.N,/D_3*%
X117220000Y-59735000D03*
X136735500Y-50330000D03*
X101240000Y-72725000D03*
X130770000Y-129255000D03*
%TO.N,/D_2*%
X130600000Y-49885600D03*
X131986350Y-76546359D03*
X125070000Y-128530500D03*
X129564500Y-53229600D03*
X133970000Y-89379500D03*
%TO.N,/D_1*%
X128214500Y-57840000D03*
X148428296Y-60582589D03*
X106010000Y-85575000D03*
X133270000Y-129055000D03*
%TO.N,Net-(R28-Pad2)*%
X79080000Y-101005000D03*
X79070000Y-97165000D03*
%TO.N,/D_0*%
X135039015Y-51080985D03*
X145950000Y-92045000D03*
X135470000Y-128855000D03*
X148570000Y-91080500D03*
X152750000Y-77805000D03*
X127250000Y-64185600D03*
%TO.N,/FT_SCK*%
X126410000Y-49705000D03*
X172557299Y-77867701D03*
X43170000Y-58955000D03*
X131155985Y-54361585D03*
X155570000Y-98255000D03*
%TO.N,/FT_SDO*%
X190920000Y-82805000D03*
X178320000Y-32855000D03*
X178570000Y-96330500D03*
X43070000Y-61305000D03*
X123770000Y-54455000D03*
X159370000Y-99255000D03*
X129670000Y-37780500D03*
%TO.N,Net-(SW2-Pad2)*%
X47570000Y-39605000D03*
X106020000Y-39655000D03*
%TO.N,/F_RST_I*%
X136870000Y-77455000D03*
X134990000Y-59130000D03*
%TO.N,/F_RST_O*%
X148830000Y-107645000D03*
X158470000Y-66845000D03*
X182630000Y-65265000D03*
X154570000Y-115215000D03*
X174180000Y-98880500D03*
%TO.N,/FT_SDI*%
X43060000Y-64025000D03*
X121320000Y-110005000D03*
X122320000Y-112455000D03*
X144770079Y-54383792D03*
X111390000Y-89830000D03*
%TO.N,/JTAG_TCK*%
X192470000Y-107655000D03*
X137120048Y-119479500D03*
X142170000Y-39370000D03*
%TO.N,/JTAG_TMS*%
X153570000Y-117955000D03*
X177470000Y-127205000D03*
X142160000Y-40740000D03*
X184870000Y-28905000D03*
X153520000Y-121105000D03*
%TO.N,/JTAG_TDO*%
X148670000Y-99605000D03*
X148520000Y-77079500D03*
X134830000Y-40755600D03*
X144220000Y-91105000D03*
%TO.N,/JTAG_TDI*%
X154720000Y-118055000D03*
X119761515Y-41281515D03*
X137240000Y-40191100D03*
X118100000Y-56200000D03*
X149070000Y-118299500D03*
X141420000Y-121605000D03*
%TO.N,/F_VREF_1*%
X137267701Y-75159500D03*
X130720000Y-53425600D03*
X128934500Y-63885500D03*
%TO.N,/SYS_CLK4*%
X163020000Y-99605000D03*
X139870000Y-35155000D03*
X169757700Y-90792700D03*
%TO.N,/A5*%
X182670000Y-47955000D03*
%TO.N,/D_7*%
X148410000Y-50054500D03*
X158320353Y-56354647D03*
X163449951Y-74679549D03*
%TO.N,/D_6*%
X134826316Y-48741916D03*
X177270000Y-100955000D03*
%TO.N,/D_5*%
X175760000Y-129985000D03*
X170770000Y-129455000D03*
X177457371Y-79605500D03*
X140953099Y-50406901D03*
X191740000Y-112275000D03*
%TO.N,/D_4*%
X66870000Y-125979500D03*
X130649015Y-48724615D03*
X54970000Y-126955000D03*
X132044500Y-80455000D03*
X118624500Y-94430000D03*
X130961131Y-63180000D03*
X102470000Y-114420000D03*
X44382299Y-130042701D03*
X168770000Y-130055000D03*
%TO.N,/B21*%
X155020000Y-66355000D03*
X167270000Y-78055000D03*
X148947609Y-66116397D03*
X161870000Y-51605000D03*
%TO.N,/B22*%
X159990000Y-53375000D03*
X155295047Y-61429952D03*
X147409339Y-67074839D03*
X170270000Y-77879500D03*
%TO.N,/A20*%
X143275337Y-71103357D03*
X152870000Y-41505000D03*
X161544503Y-73410497D03*
X154070000Y-48355000D03*
%TO.N,/A21*%
X149220000Y-68905000D03*
X184970000Y-64105000D03*
X155170000Y-41504500D03*
%TO.N,/FT_NCS*%
X176070000Y-85505000D03*
X144750000Y-53424500D03*
X43000000Y-66465000D03*
%TO.N,/FQ_UD*%
X148596000Y-57820524D03*
X108660000Y-99245000D03*
X108250000Y-91315000D03*
%TO.N,/D8*%
X177570000Y-53055000D03*
%TO.N,/D10*%
X170670000Y-51555000D03*
%TO.N,/C10*%
X177770000Y-47955000D03*
%TO.N,/D14*%
X192780000Y-68710000D03*
X182670000Y-49455000D03*
%TO.N,/C14*%
X180820000Y-49555000D03*
X180120000Y-72605000D03*
%TO.N,/J22*%
X147070000Y-69655000D03*
X148220000Y-45940000D03*
%TO.N,/J20*%
X184470000Y-61605000D03*
X145920000Y-71355000D03*
X165100000Y-64695000D03*
X146660000Y-45939500D03*
%TO.N,/C22*%
X142600000Y-67759500D03*
X142570000Y-73955000D03*
X120395000Y-32855000D03*
X138020000Y-34405000D03*
X124420000Y-32855000D03*
X132050000Y-75385600D03*
%TO.N,/C20*%
X136354500Y-68280000D03*
X165833107Y-71351893D03*
X168770000Y-77955000D03*
X148770000Y-73055000D03*
X162870000Y-51005000D03*
%TO.N,/E22*%
X163590000Y-72255000D03*
X160620000Y-51805000D03*
X174520000Y-85705000D03*
X151120000Y-64205000D03*
X136630000Y-67300000D03*
%TO.N,/E20*%
X157819500Y-77805000D03*
X137130000Y-66430000D03*
X160779951Y-72009549D03*
%TO.N,/G22*%
X156770000Y-48055000D03*
X150495500Y-57096024D03*
X144120000Y-74705000D03*
X135655395Y-65335027D03*
%TO.N,/F22*%
X156524500Y-47005000D03*
X179169500Y-104375000D03*
X154270000Y-55355000D03*
X162948381Y-91691322D03*
X187000000Y-88945000D03*
X152190000Y-91075000D03*
X182820000Y-73315000D03*
%TO.N,/G20*%
X155470000Y-42954000D03*
X136668783Y-65588619D03*
X143870000Y-82829500D03*
X146870000Y-73505000D03*
X155220000Y-63855000D03*
%TO.N,/F21*%
X154930000Y-58575000D03*
X137780000Y-77015000D03*
X141354503Y-83150497D03*
X155160000Y-52705000D03*
X147970000Y-73825000D03*
X156085500Y-57825000D03*
X151152299Y-61837299D03*
X148767701Y-61522701D03*
%TO.N,/K22*%
X154270000Y-43505000D03*
X136076010Y-63182020D03*
X141970000Y-77740500D03*
X150112753Y-51987799D03*
%TO.N,/H22*%
X150620000Y-45255000D03*
X142440000Y-62360000D03*
X133135500Y-70830000D03*
%TO.N,/K21*%
X134420000Y-80179500D03*
X153270000Y-47405000D03*
X142310000Y-65045750D03*
X137320000Y-80179500D03*
X150495500Y-58855000D03*
X137210348Y-62670348D03*
%TO.N,/H21*%
X151732701Y-45392299D03*
X137833999Y-61359848D03*
X147070451Y-61255451D03*
X141895500Y-60455000D03*
%TO.N,/L19*%
X149470000Y-44005000D03*
X136140000Y-61319500D03*
X145050000Y-43090000D03*
%TO.N,/C5*%
X182870000Y-37055000D03*
X164420000Y-46505000D03*
X175257701Y-44842701D03*
X149020000Y-36855000D03*
%TO.N,/+VCCO1*%
X129032299Y-91467299D03*
X136735500Y-51960000D03*
X138520000Y-100505000D03*
X141070000Y-107605000D03*
X122420000Y-69620000D03*
%TO.N,/A_SDI*%
X93915000Y-87600000D03*
X93865000Y-99550000D03*
X126094500Y-96655000D03*
X94065000Y-63600000D03*
X94065000Y-75550000D03*
X98580000Y-96200000D03*
X141396886Y-44909224D03*
X94015000Y-51600000D03*
X93815000Y-111650000D03*
X93710000Y-123915000D03*
X94015000Y-38850000D03*
%TO.N,/L20*%
X115700000Y-102855000D03*
X122800000Y-82489500D03*
X146732747Y-58403247D03*
%TO.N,/N22*%
X131754015Y-58295985D03*
X155450000Y-89379500D03*
X152770000Y-98855000D03*
X156370000Y-78355000D03*
X116890000Y-119610000D03*
X49470000Y-104655000D03*
X156370000Y-73955000D03*
%TO.N,/A_SDO3*%
X130474500Y-45017546D03*
X129455265Y-59442235D03*
%TO.N,/A_SDO5*%
X93940000Y-86345000D03*
X129639015Y-46364615D03*
X147370000Y-90229500D03*
X122070000Y-91875000D03*
X132824500Y-86579500D03*
%TO.N,/A_SDO7*%
X106570000Y-111015500D03*
X155470000Y-81929500D03*
X131300000Y-47105600D03*
X123150000Y-92675000D03*
X130961131Y-60985115D03*
X93820000Y-110355000D03*
%TO.N,/R20*%
X134980000Y-56094500D03*
X123300000Y-37820500D03*
X70430000Y-25170500D03*
X82522299Y-43430500D03*
X44170000Y-123615000D03*
X48590000Y-87499501D03*
X80940000Y-70405000D03*
X53150000Y-81605000D03*
X66160000Y-70815000D03*
X66360000Y-93275000D03*
X80770000Y-35105000D03*
X72760000Y-28049500D03*
X50620000Y-118895000D03*
X62170000Y-89675000D03*
X62595500Y-117175000D03*
X79160000Y-116325000D03*
X80530000Y-93275000D03*
%TO.N,/P21*%
X142435500Y-56240000D03*
X77340000Y-93999500D03*
X63030000Y-71595000D03*
X47572701Y-86082299D03*
X71550000Y-28375000D03*
X77010000Y-71565000D03*
X62280000Y-115745000D03*
X70650000Y-44985000D03*
X50780000Y-117645000D03*
X76250000Y-115865000D03*
X53200000Y-80565000D03*
X67630000Y-45455000D03*
X60470000Y-49585000D03*
X44330000Y-122545000D03*
X79310000Y-33630500D03*
X63320000Y-93615000D03*
%TO.N,/K20*%
X129230000Y-106330000D03*
X113210000Y-112875000D03*
X137744500Y-54120000D03*
X108476701Y-107310000D03*
X121911344Y-86340893D03*
%TO.N,/chn1_r*%
X104370000Y-66705000D03*
X69420000Y-38035000D03*
X109320000Y-72455000D03*
X83875992Y-32308384D03*
X87200000Y-27229500D03*
X108520000Y-30305000D03*
X91040000Y-29530500D03*
X110320000Y-35905000D03*
X103857299Y-38917701D03*
%TO.N,/chn2_r*%
X126790000Y-35089500D03*
X158370000Y-28355000D03*
X59870000Y-71555000D03*
X127007299Y-74267701D03*
X142370000Y-27955000D03*
X51170000Y-70655000D03*
%TO.N,/chn4_r*%
X64860000Y-90025000D03*
X124734500Y-51980000D03*
X140670000Y-90555000D03*
X57780000Y-87065000D03*
X131180000Y-91095000D03*
%TO.N,/chn6_r*%
X62400000Y-111775000D03*
X60830500Y-117105000D03*
X154310000Y-31945000D03*
X136962701Y-106737701D03*
X53580000Y-123065000D03*
X31380000Y-83475000D03*
%TO.N,/+1.2V*%
X170870000Y-39155000D03*
X179270000Y-107155000D03*
X193132299Y-98567299D03*
X179282701Y-77692299D03*
X186370000Y-104855000D03*
%TO.N,/+1.8V*%
X178670000Y-113705000D03*
X186320000Y-112055000D03*
X183020000Y-35555000D03*
X165870000Y-112955000D03*
%TO.N,/SYS_CLK5*%
X169970000Y-41355000D03*
X181020000Y-81779500D03*
X168870000Y-97455000D03*
%TO.N,/USB_SCL*%
X180385500Y-79179500D03*
X191670000Y-110555000D03*
X171370000Y-35955000D03*
%TO.N,/USB_SDA*%
X156220000Y-117954500D03*
X171570000Y-41505000D03*
X191720000Y-117205000D03*
X178520000Y-73180500D03*
X162520000Y-120179500D03*
%TO.N,/W20*%
X192770000Y-38955000D03*
X152820000Y-42555000D03*
X179770000Y-33805000D03*
%TO.N,/T19*%
X170870000Y-42355000D03*
X163870000Y-47755000D03*
X148744500Y-40555000D03*
%TO.N,/W22*%
X175620000Y-42355000D03*
X164070000Y-42955000D03*
%TO.N,/T20*%
X153151620Y-38329500D03*
X170870000Y-43855000D03*
X193170000Y-40955000D03*
X162520000Y-45605000D03*
%TO.N,/U19*%
X185170000Y-42655000D03*
X192370000Y-42855000D03*
X165920000Y-47455000D03*
X153386261Y-39588739D03*
%TO.N,/P17*%
X185270000Y-46055000D03*
X169970000Y-44655000D03*
X161420000Y-46755000D03*
X148770000Y-39055000D03*
X176794500Y-49955000D03*
%TO.N,/V20*%
X154420000Y-36555000D03*
%TO.N,/N16*%
X171070000Y-46855000D03*
X176870000Y-48755000D03*
X154420000Y-38355000D03*
%TO.N,/M17*%
X175170000Y-47155000D03*
%TO.N,/M18*%
X169120000Y-47905000D03*
X193235500Y-72510000D03*
X170344500Y-56655000D03*
X176120000Y-73180500D03*
%TO.N,/P18*%
X192710000Y-65270000D03*
X181045500Y-73805500D03*
X171082299Y-48767299D03*
%TO.N,/R19*%
X165770000Y-49555000D03*
%TO.N,/E16*%
X185070000Y-48955000D03*
X185170000Y-54755000D03*
%TO.N,/D9*%
X168470000Y-50355000D03*
%TO.N,/D17*%
X174970000Y-52955000D03*
%TO.N,/C8*%
X175139027Y-50585973D03*
%TO.N,/+VCCO0*%
X171670000Y-51755000D03*
X178870000Y-110855000D03*
X171620000Y-59955000D03*
X166245500Y-61755000D03*
X161420000Y-112179500D03*
X180920000Y-83755000D03*
%TO.N,/L17*%
X184270000Y-52755000D03*
%TO.N,/D11*%
X183470000Y-54355000D03*
X174970000Y-54355000D03*
%TO.N,/K18*%
X176670000Y-55155000D03*
%TO.N,/A18*%
X159220000Y-89305000D03*
X187320000Y-84055000D03*
X168082351Y-90561736D03*
X184382701Y-66117701D03*
%TO.N,/CV_DAC*%
X67920000Y-53405000D03*
X59170000Y-35655000D03*
X79000000Y-61370500D03*
X99070000Y-65515000D03*
%TO.N,/CV_S2*%
X65970000Y-31429500D03*
X81280000Y-49965000D03*
X56790000Y-39835000D03*
X63290000Y-38635000D03*
X140170000Y-129055000D03*
X56470000Y-120355000D03*
%TO.N,/EIS_S3*%
X120319015Y-120580985D03*
X80170000Y-120255000D03*
X122678267Y-118966336D03*
X72970000Y-54155000D03*
X70420000Y-56855000D03*
%TO.N,Net-(C39-Pad1)*%
X70420000Y-53305000D03*
X81620000Y-59155000D03*
%TO.N,Net-(C39-Pad2)*%
X81770000Y-56205000D03*
X72720000Y-50355000D03*
%TO.N,Net-(C40-Pad1)*%
X67220000Y-57105000D03*
X60170000Y-57105000D03*
X76370000Y-52855000D03*
%TO.N,Net-(C41-Pad1)*%
X74920000Y-55965000D03*
X75930000Y-50705500D03*
%TO.N,/D21*%
X184950000Y-97545000D03*
X158970497Y-53794503D03*
X157790000Y-42815000D03*
X185457701Y-84467299D03*
X146555415Y-64844183D03*
X173330000Y-71535000D03*
%TO.N,/D22*%
X165000000Y-82169500D03*
X159010000Y-43345000D03*
X164345500Y-77885408D03*
X157470000Y-67365000D03*
X147657701Y-65342701D03*
%TO.N,/DAC1_NCS*%
X128100000Y-105100000D03*
X63370000Y-52155000D03*
X124842300Y-78432700D03*
X146794168Y-56494168D03*
%TO.N,/DAC1_SCK*%
X105770000Y-79355000D03*
X58970000Y-118955000D03*
X120970000Y-103855000D03*
X58970000Y-53555000D03*
X134450000Y-57611485D03*
X129430000Y-100190000D03*
%TO.N,/DAC1_SDI*%
X114815500Y-72553763D03*
X121919500Y-66610000D03*
X128570000Y-43580500D03*
X141480000Y-55100000D03*
X113570000Y-87990000D03*
X122200000Y-108620000D03*
X80670000Y-83955000D03*
X108206265Y-87238235D03*
%TO.N,/DAC1_LDAC*%
X160770000Y-77955000D03*
X178070000Y-84555000D03*
X136868280Y-57449578D03*
X64470000Y-54755000D03*
X122770000Y-46455000D03*
%TO.N,Net-(R53-Pad1)*%
X78170000Y-54255000D03*
X60370000Y-47855000D03*
%TO.N,Net-(R53-Pad2)*%
X81360000Y-54135000D03*
X62900000Y-44915000D03*
%TO.N,Net-(R55-Pad2)*%
X81430000Y-51275000D03*
X64370000Y-43740500D03*
%TO.N,/F_EIS_DDS*%
X72030000Y-45235000D03*
X128220000Y-30545000D03*
X107750000Y-47045000D03*
%TO.N,/CV_S1*%
X122510301Y-126028076D03*
X119880000Y-109730000D03*
X118784500Y-67100000D03*
X123020000Y-99305000D03*
%TO.N,/V_dds*%
X39820000Y-33705000D03*
%TO.N,/Rin_scl*%
X126683030Y-47160600D03*
X49130000Y-29695000D03*
X170520000Y-126355000D03*
X174820000Y-105705000D03*
X49520000Y-34255000D03*
X132620000Y-36155000D03*
X134730000Y-46350000D03*
%TO.N,/Rin_sda*%
X167770000Y-89105000D03*
X43510000Y-25330500D03*
X49501487Y-27229500D03*
X177082302Y-94888790D03*
X150135500Y-55370900D03*
X134805932Y-54268490D03*
X154194500Y-56505000D03*
X51020000Y-34130500D03*
%TO.N,/Vref_r*%
X160320000Y-31655000D03*
X64070000Y-33205000D03*
X60720000Y-35605000D03*
X112310000Y-29779500D03*
%TO.N,/P22*%
X174420500Y-95155000D03*
X147760000Y-58495000D03*
X178520000Y-93185000D03*
X177550000Y-83225000D03*
X155080000Y-59765000D03*
%TO.N,/D20*%
X166270000Y-91155000D03*
X165820500Y-77879500D03*
X134870000Y-47505600D03*
X151577701Y-50054500D03*
%TO.N,/Ref_generator/W_in*%
X43870000Y-36005000D03*
X35870000Y-41755000D03*
X52120000Y-31405000D03*
X39070000Y-40755000D03*
%TO.N,/Ref_generator/B_in*%
X53070000Y-32155000D03*
X99080000Y-30475000D03*
X39370000Y-41905000D03*
%TO.N,/WE3*%
X80060000Y-68645000D03*
X80420000Y-77955000D03*
X64077299Y-82622299D03*
X177570000Y-81055000D03*
X90720000Y-79655000D03*
X75450000Y-75705000D03*
%TO.N,/WE5*%
X76370000Y-97855000D03*
X79170000Y-103805000D03*
X122910000Y-115260000D03*
X168384101Y-99914946D03*
X58090000Y-91275000D03*
%TO.N,/WE7*%
X55330000Y-125090500D03*
X72260000Y-121055000D03*
X181750000Y-130745000D03*
X80650000Y-113615000D03*
%TO.N,/chn3_r*%
X71845500Y-76385000D03*
X53060000Y-82845000D03*
X107910000Y-49425000D03*
X62592367Y-84977387D03*
X80040000Y-60535000D03*
X124320000Y-35755000D03*
X80460000Y-76325000D03*
%TO.N,/chn5_r*%
X83580000Y-59755000D03*
X79020000Y-93999500D03*
X106160000Y-45585000D03*
X132580000Y-32395000D03*
X83600000Y-94165000D03*
X58240000Y-85235000D03*
X61500000Y-71535000D03*
X64550000Y-84275000D03*
X135220000Y-89379500D03*
X94710000Y-55775000D03*
X71820000Y-98445000D03*
X90660000Y-55755000D03*
X83570000Y-86315000D03*
X117154500Y-38900000D03*
%TO.N,/chn7_r*%
X149190000Y-32405000D03*
X50342500Y-107747500D03*
X116750000Y-25895000D03*
X64044500Y-120305000D03*
X120850000Y-27955000D03*
X41760000Y-120540000D03*
X138920000Y-91065000D03*
X161300000Y-90225000D03*
X83670000Y-118405000D03*
X30200000Y-84725000D03*
X101850000Y-120155000D03*
%TD*%
D21*
%TO.N,/JTAG_TDO*%
X135710000Y-45640000D02*
X139425590Y-49355590D01*
X134830000Y-42585935D02*
X135710000Y-43465935D01*
X135710000Y-43465935D02*
X135710000Y-45640000D01*
X134830000Y-40755600D02*
X134830000Y-42585935D01*
X140869818Y-49355590D02*
X143480000Y-51965772D01*
X139425590Y-49355590D02*
X140869818Y-49355590D01*
X143480000Y-51965772D02*
X143480000Y-61315172D01*
X143480000Y-61315172D02*
X142516091Y-61315172D01*
X142516091Y-61315172D02*
X141755000Y-62076263D01*
X141755000Y-62076263D02*
X141755000Y-62643737D01*
X141755000Y-62643737D02*
X143710000Y-64598737D01*
X143710000Y-64598737D02*
X143710000Y-69489828D01*
X143710000Y-69489828D02*
X145235000Y-71014828D01*
X145235000Y-71014828D02*
X145235000Y-73794500D01*
X145235000Y-73794500D02*
X148520000Y-77079500D01*
%TO.N,/J20*%
X144120000Y-67370000D02*
X144120000Y-69320000D01*
X144120000Y-69320000D02*
X145920000Y-71120000D01*
X145920000Y-71120000D02*
X145920000Y-71355000D01*
%TO.N,GND*%
X128900000Y-61800000D02*
X127350000Y-60250000D01*
X127350000Y-60250000D02*
X126150000Y-60250000D01*
%TO.N,/R20*%
X134980000Y-56094500D02*
X135389837Y-56094500D01*
X125165000Y-39755000D02*
X123300000Y-37890000D01*
X136045000Y-53465000D02*
X134420600Y-51840600D01*
X134356263Y-51840600D02*
X134085663Y-51570000D01*
X126086396Y-39755000D02*
X125165000Y-39755000D01*
X136045000Y-55439337D02*
X136045000Y-53465000D01*
X135389837Y-56094500D02*
X136045000Y-55439337D01*
X134420600Y-51840600D02*
X134356263Y-51840600D01*
X134085663Y-51570000D02*
X128764400Y-51570000D01*
X128764400Y-51570000D02*
X127650000Y-50455600D01*
X127650000Y-50455600D02*
X127650000Y-46085600D01*
X129255000Y-42923604D02*
X126086396Y-39755000D01*
X127650000Y-46085600D02*
X129255000Y-44480600D01*
X129255000Y-44480600D02*
X129255000Y-42923604D01*
X123300000Y-37890000D02*
X123300000Y-37820500D01*
%TO.N,/CE*%
X114090000Y-64580000D02*
X114090000Y-66210000D01*
X114090000Y-66210000D02*
X112730000Y-67570000D01*
X112730000Y-67570000D02*
X108430000Y-67570000D01*
X108430000Y-67570000D02*
X107000000Y-66140000D01*
X107000000Y-66140000D02*
X107000000Y-57200000D01*
%TO.N,/C22*%
X142600000Y-67759500D02*
X140320000Y-70039500D01*
X140320000Y-70039500D02*
X140320000Y-71705000D01*
X140320000Y-71705000D02*
X142570000Y-73955000D01*
%TO.N,/B22*%
X147409339Y-66615661D02*
X148878107Y-65146893D01*
X147409339Y-67074839D02*
X147409339Y-66615661D01*
X148878107Y-65146893D02*
X149152802Y-65146893D01*
X149152802Y-65146893D02*
X150819695Y-63480000D01*
X153985048Y-61429952D02*
X155295047Y-61429952D01*
X150819695Y-63480000D02*
X151935000Y-63480000D01*
X151935000Y-63480000D02*
X153985048Y-61429952D01*
%TO.N,/D22*%
X157470000Y-67365000D02*
X157065000Y-67770000D01*
X157065000Y-67770000D02*
X147095000Y-67770000D01*
X147095000Y-67770000D02*
X146690000Y-67365000D01*
X146690000Y-67365000D02*
X146690000Y-65855000D01*
X146690000Y-65855000D02*
X147202299Y-65342701D01*
X147202299Y-65342701D02*
X147657701Y-65342701D01*
%TO.N,/K21*%
X142310000Y-65045750D02*
X141148963Y-63884713D01*
X141148963Y-63884713D02*
X138424713Y-63884713D01*
X138424713Y-63884713D02*
X137210348Y-62670348D01*
%TO.N,/G22*%
X141970000Y-74705000D02*
X144120000Y-74705000D01*
X135953638Y-65335027D02*
X136385046Y-64903619D01*
X139660000Y-67210000D02*
X139660000Y-72395000D01*
X139660000Y-72395000D02*
X141970000Y-74705000D01*
X135655395Y-65335027D02*
X135953638Y-65335027D01*
X136385046Y-64903619D02*
X137353619Y-64903619D01*
X137353619Y-64903619D02*
X139660000Y-67210000D01*
%TO.N,/E20*%
X136206137Y-66430000D02*
X135260000Y-67376137D01*
X135260000Y-67376137D02*
X135260000Y-70394104D01*
X137130000Y-66430000D02*
X136206137Y-66430000D01*
X146709195Y-78555000D02*
X148933604Y-78555000D01*
X145169695Y-77015500D02*
X146709195Y-78555000D01*
X141881396Y-77015500D02*
X145169695Y-77015500D01*
X135260000Y-70394104D02*
X141881396Y-77015500D01*
X148933604Y-78555000D02*
X154783604Y-72705000D01*
X154783604Y-72705000D02*
X156781701Y-72705000D01*
X156781701Y-72705000D02*
X157620000Y-73543299D01*
X157620000Y-73543299D02*
X157620000Y-77605500D01*
X157620000Y-77605500D02*
X157819500Y-77805000D01*
%TO.N,/H21*%
X137833999Y-61359848D02*
X140985152Y-61359848D01*
X140985152Y-61359848D02*
X141890000Y-60455000D01*
X141890000Y-60455000D02*
X141895500Y-60455000D01*
%TO.N,/K22*%
X136076010Y-63182020D02*
X135178669Y-63182020D01*
X135178669Y-63182020D02*
X134759713Y-63600976D01*
X134759713Y-63600976D02*
X134759713Y-70530213D01*
X134759713Y-70530213D02*
X141970000Y-77740500D01*
%TO.N,/E22*%
X142080500Y-76565500D02*
X146770305Y-76565500D01*
X135670000Y-67995763D02*
X135670000Y-70155000D01*
X146770305Y-76565500D02*
X148309805Y-78105000D01*
X148309805Y-78105000D02*
X148747208Y-78105000D01*
X148747208Y-78105000D02*
X155657208Y-71195000D01*
X155657208Y-71195000D02*
X162530000Y-71195000D01*
X136630000Y-67300000D02*
X136365763Y-67300000D01*
X136365763Y-67300000D02*
X135670000Y-67995763D01*
X135670000Y-70155000D02*
X142080500Y-76565500D01*
X162530000Y-71195000D02*
X163590000Y-72255000D01*
%TO.N,/J20*%
X146660000Y-45939500D02*
X146055000Y-46544500D01*
X146055000Y-46544500D02*
X146055000Y-55410000D01*
X146055000Y-55410000D02*
X144720000Y-56745000D01*
X144720000Y-56745000D02*
X144720000Y-58455000D01*
X144720000Y-58455000D02*
X146070000Y-59805000D01*
X144120000Y-63125000D02*
X144120000Y-67784998D01*
X146070000Y-61175000D02*
X144120000Y-63125000D01*
X146070000Y-59805000D02*
X146070000Y-61175000D01*
X144120000Y-67784998D02*
X144515002Y-68180000D01*
X144515002Y-68180000D02*
X149520305Y-68180000D01*
X149885305Y-68545000D02*
X160230000Y-68545000D01*
X149520305Y-68180000D02*
X149885305Y-68545000D01*
X160230000Y-68545000D02*
X164080000Y-64695000D01*
X164080000Y-64695000D02*
X165100000Y-64695000D01*
%TO.N,/FT_SCK*%
X131155985Y-54361585D02*
X131158415Y-54361585D01*
X131158415Y-54361585D02*
X131940000Y-53580000D01*
X131940000Y-53580000D02*
X131940000Y-52900000D01*
X131940000Y-52900000D02*
X131290000Y-52250000D01*
X131290000Y-52250000D02*
X128770000Y-52250000D01*
X128770000Y-52250000D02*
X126410000Y-49890000D01*
X126410000Y-49890000D02*
X126410000Y-49705000D01*
%TO.N,/H22*%
X145775000Y-45255000D02*
X150620000Y-45255000D01*
X142440000Y-62360000D02*
X143015000Y-62360000D01*
X143015000Y-62360000D02*
X144030000Y-61345000D01*
X144030000Y-61345000D02*
X144030000Y-47000000D01*
X144030000Y-47000000D02*
X145775000Y-45255000D01*
%TO.N,/P21*%
X142230000Y-56034500D02*
X142230000Y-52770000D01*
X142435500Y-56240000D02*
X142230000Y-56034500D01*
X142230000Y-52770000D02*
X135270000Y-45810000D01*
X135270000Y-45810000D02*
X135270000Y-44223237D01*
X135270000Y-44223237D02*
X135295000Y-44198237D01*
X135295000Y-44198237D02*
X135295000Y-43630763D01*
X135295000Y-43630763D02*
X133219237Y-41555000D01*
X133219237Y-41555000D02*
X129119400Y-41555000D01*
X129119400Y-41555000D02*
X128220000Y-40655600D01*
X128220000Y-40655600D02*
X128220000Y-35830000D01*
X128220000Y-35830000D02*
X125746263Y-35830000D01*
X125746263Y-35830000D02*
X121740000Y-31823737D01*
X121740000Y-31823737D02*
X121740000Y-28680000D01*
X121740000Y-28680000D02*
X115595000Y-28680000D01*
X115595000Y-28680000D02*
X115320000Y-28405000D01*
%TO.N,/H21*%
X147505000Y-54214695D02*
X147505000Y-54815305D01*
X151732701Y-47155903D02*
X149559104Y-49329500D01*
X151732701Y-45392299D02*
X151732701Y-47155903D01*
X147530500Y-49329500D02*
X146505000Y-50355000D01*
X146520000Y-59618604D02*
X146520000Y-60705000D01*
X146505000Y-50355000D02*
X146505000Y-53214695D01*
X149559104Y-49329500D02*
X147530500Y-49329500D01*
X146505000Y-53214695D02*
X147505000Y-54214695D01*
X145230000Y-58328604D02*
X146520000Y-59618604D01*
X147505000Y-54815305D02*
X145230000Y-57090305D01*
X145230000Y-57090305D02*
X145230000Y-58328604D01*
X146520000Y-60705000D02*
X147070451Y-61255451D01*
%TO.N,/F_RST_I*%
X134990000Y-59130000D02*
X134270000Y-59850000D01*
X134270000Y-59850000D02*
X134270000Y-77580305D01*
X134270000Y-77580305D02*
X134869695Y-78180000D01*
X134869695Y-78180000D02*
X136145000Y-78180000D01*
X136145000Y-78180000D02*
X136870000Y-77455000D01*
%TO.N,/D_3*%
X133376263Y-51160000D02*
X129094400Y-51160000D01*
X129665000Y-44650428D02*
X129665000Y-42753776D01*
X129665000Y-42753776D02*
X127810000Y-40898776D01*
X134190663Y-50345600D02*
X133376263Y-51160000D01*
X129094400Y-51160000D02*
X128560000Y-50625600D01*
X136719900Y-50345600D02*
X134190663Y-50345600D01*
X128560000Y-50625600D02*
X128560000Y-45755428D01*
X136735500Y-50330000D02*
X136719900Y-50345600D01*
X128560000Y-45755428D02*
X129665000Y-44650428D01*
X127810000Y-40898776D02*
X127810000Y-36540000D01*
X127810000Y-36540000D02*
X127710000Y-36440000D01*
X127710000Y-36440000D02*
X124015000Y-36440000D01*
X124015000Y-36440000D02*
X123970000Y-36395000D01*
X123970000Y-36395000D02*
X123563686Y-36395000D01*
X123563686Y-36395000D02*
X117220000Y-42738686D01*
X117220000Y-42738686D02*
X117220000Y-59735000D01*
%TO.N,/D_2*%
X129564500Y-53229600D02*
X129080600Y-53713500D01*
X131331802Y-75313714D02*
X131331802Y-75867402D01*
X128250000Y-63485600D02*
X128250000Y-67010172D01*
X129080600Y-53713500D02*
X129080600Y-55355000D01*
X129080600Y-55355000D02*
X126950000Y-57485600D01*
X129719015Y-61385878D02*
X129719015Y-62016585D01*
X131331802Y-75867402D02*
X131986350Y-76521950D01*
X128250000Y-67010172D02*
X130070000Y-68830172D01*
X126950000Y-57485600D02*
X126950000Y-58616863D01*
X130070000Y-68830172D02*
X130070000Y-74051912D01*
X126950000Y-58616863D02*
X129719015Y-61385878D01*
X129719015Y-62016585D02*
X128250000Y-63485600D01*
X130070000Y-74051912D02*
X131331802Y-75313714D01*
X131986350Y-76521950D02*
X131986350Y-76546359D01*
%TO.N,/FT_SCK*%
X131155985Y-54361585D02*
X129330000Y-56187570D01*
X129330000Y-56187570D02*
X129330000Y-58348233D01*
X129330000Y-58348233D02*
X130160000Y-59178233D01*
X130160000Y-59178233D02*
X130160000Y-63628737D01*
X130160000Y-63628737D02*
X133820000Y-67288737D01*
X133820000Y-67288737D02*
X133820000Y-77766701D01*
X133820000Y-77766701D02*
X135058299Y-79005000D01*
X135058299Y-79005000D02*
X150294695Y-79005000D01*
X150294695Y-79005000D02*
X150055000Y-78765305D01*
X150055000Y-78765305D02*
X150055000Y-78164695D01*
X150055000Y-78164695D02*
X154989695Y-73230000D01*
X154989695Y-73230000D02*
X156670305Y-73230000D01*
X156670305Y-73230000D02*
X157095000Y-73654695D01*
X157095000Y-73654695D02*
X157095000Y-78655305D01*
X157095000Y-78655305D02*
X157444695Y-79005000D01*
X157444695Y-79005000D02*
X159295305Y-79005000D01*
X159295305Y-79005000D02*
X160045000Y-78255305D01*
X160045000Y-78255305D02*
X160045000Y-77654695D01*
X160045000Y-77654695D02*
X160994695Y-76705000D01*
X160994695Y-76705000D02*
X171394598Y-76705000D01*
X171394598Y-76705000D02*
X172557299Y-77867701D01*
%TO.N,/C5*%
X149020000Y-36855000D02*
X147983604Y-36855000D01*
X159245000Y-40780000D02*
X164420000Y-45955000D01*
X147983604Y-36855000D02*
X146100000Y-38738604D01*
X146100000Y-38738604D02*
X146100000Y-41635000D01*
X146100000Y-41635000D02*
X146670000Y-42205000D01*
X146670000Y-42205000D02*
X150770000Y-42205000D01*
X152195000Y-40780000D02*
X159245000Y-40780000D01*
X150770000Y-42205000D02*
X152195000Y-40780000D01*
X164420000Y-45955000D02*
X164420000Y-46505000D01*
%TO.N,/L19*%
X148555000Y-43090000D02*
X149470000Y-44005000D01*
X145050000Y-43090000D02*
X148555000Y-43090000D01*
%TO.N,/JTAG_TCK*%
X142170000Y-39370000D02*
X143240000Y-39370000D01*
X147855000Y-34755000D02*
X156194695Y-34755000D01*
X143240000Y-39370000D02*
X147855000Y-34755000D01*
X156194695Y-34755000D02*
X162244695Y-28705000D01*
X162244695Y-28705000D02*
X164020000Y-28705000D01*
X164020000Y-28705000D02*
X165970000Y-26755000D01*
X165970000Y-26755000D02*
X186420000Y-26755000D01*
X186420000Y-26755000D02*
X195920000Y-36255000D01*
X195920000Y-36255000D02*
X195920000Y-104205000D01*
X195920000Y-104205000D02*
X192470000Y-107655000D01*
%TO.N,/JTAG_TMS*%
X142160000Y-40740000D02*
X143110000Y-40740000D01*
X159370000Y-37605000D02*
X168070000Y-28905000D01*
X149303737Y-36170000D02*
X150738737Y-37605000D01*
X150738737Y-37605000D02*
X159370000Y-37605000D01*
X143110000Y-40740000D02*
X147680000Y-36170000D01*
X147680000Y-36170000D02*
X149303737Y-36170000D01*
X168070000Y-28905000D02*
X184870000Y-28905000D01*
%TO.N,/A_NCS*%
X141420000Y-43950000D02*
X141420000Y-33555000D01*
X141420000Y-33555000D02*
X143170000Y-31805000D01*
X143170000Y-31805000D02*
X145170000Y-31805000D01*
X145170000Y-31805000D02*
X146870000Y-33505000D01*
X146870000Y-33505000D02*
X150620000Y-33505000D01*
X150620000Y-33505000D02*
X150620000Y-31929500D01*
X150620000Y-31929500D02*
X146570000Y-27879500D01*
%TO.N,/A_SDO4*%
X137520000Y-46330000D02*
X136859500Y-45669500D01*
X136859500Y-45669500D02*
X136859500Y-44696119D01*
X136859500Y-44696119D02*
X137925000Y-43630619D01*
X137925000Y-43630619D02*
X137925000Y-39907363D01*
X137925000Y-39907363D02*
X137523737Y-39506100D01*
X137523737Y-39506100D02*
X136770500Y-39506100D01*
X136770500Y-39506100D02*
X134050000Y-36785600D01*
X134050000Y-36785600D02*
X133738660Y-36785600D01*
X133738660Y-36785600D02*
X129693660Y-40830600D01*
X129693660Y-40830600D02*
X129363030Y-40830600D01*
%TO.N,GND*%
X126150000Y-53950000D02*
X126150000Y-50935600D01*
X126150000Y-50935600D02*
X124960000Y-49745600D01*
X124960000Y-49745600D02*
X124960000Y-45640000D01*
X124960000Y-45640000D02*
X126250000Y-44350000D01*
D22*
X135650000Y-35839500D02*
X134910500Y-35100000D01*
X134910500Y-35100000D02*
X129560500Y-35100000D01*
X129560500Y-35100000D02*
X129550000Y-35089500D01*
D21*
%TO.N,/C22*%
X132750000Y-76085600D02*
X132750000Y-77685600D01*
X118321314Y-67810000D02*
X116470000Y-65958686D01*
X130921802Y-76546951D02*
X130921802Y-75483542D01*
X132060451Y-77685600D02*
X130921802Y-76546951D01*
X132750000Y-77685600D02*
X132060451Y-77685600D01*
X132050000Y-75385600D02*
X132750000Y-76085600D01*
X129660000Y-69000000D02*
X128470000Y-67810000D01*
X129660000Y-74221740D02*
X129660000Y-69000000D01*
X130921802Y-75483542D02*
X129660000Y-74221740D01*
X128470000Y-67810000D02*
X118321314Y-67810000D01*
X116470000Y-65958686D02*
X116470000Y-36830000D01*
X116470000Y-36830000D02*
X120395000Y-32905000D01*
X120395000Y-32905000D02*
X120395000Y-32855000D01*
%TO.N,/P21*%
X117970000Y-68240000D02*
X128190000Y-68240000D01*
X115420000Y-28505000D02*
X115420000Y-65690000D01*
X115420000Y-65690000D02*
X117970000Y-68240000D01*
X115320000Y-28405000D02*
X115420000Y-28505000D01*
X130511802Y-75653370D02*
X130511802Y-76716779D01*
X129250000Y-74391568D02*
X130511802Y-75653370D01*
X128190000Y-68240000D02*
X129250000Y-69300000D01*
X129250000Y-69300000D02*
X129250000Y-74391568D01*
X130511802Y-76716779D02*
X133250023Y-79455000D01*
X133250023Y-79455000D02*
X162770000Y-79455000D01*
X162770000Y-79455000D02*
X163790000Y-80475000D01*
X163790000Y-80475000D02*
X163790000Y-91986133D01*
X163790000Y-91986133D02*
X165190000Y-93386133D01*
%TO.N,GND*%
X110140000Y-76360000D02*
X110150000Y-76350000D01*
X119750000Y-76350000D02*
X119850000Y-76450000D01*
X126150000Y-60250000D02*
X126150000Y-53950000D01*
X100160000Y-66360000D02*
X103850000Y-70050000D01*
X96870000Y-36205000D02*
X104220000Y-36205000D01*
X124570000Y-110740000D02*
X126150000Y-109160000D01*
X88370000Y-35005000D02*
X89120000Y-34255000D01*
X66420000Y-63875000D02*
X67350000Y-63875000D01*
X78230000Y-89765000D02*
X78210000Y-89785000D01*
X44095000Y-40980000D02*
X51995000Y-40980000D01*
X100160000Y-55755000D02*
X100160000Y-66360000D01*
X98990000Y-54585000D02*
X100160000Y-55755000D01*
X110140000Y-92120000D02*
X110140000Y-101670000D01*
X119850000Y-107970000D02*
X119850000Y-101670000D01*
X43470000Y-41605000D02*
X44095000Y-40980000D01*
X126200000Y-92120000D02*
X126200000Y-85820000D01*
X42070000Y-41705000D02*
X40819500Y-42955500D01*
X84135305Y-33355000D02*
X80698299Y-33355000D01*
X67260000Y-82665000D02*
X66870000Y-82275000D01*
X98560000Y-73660000D02*
X101250000Y-76350000D01*
X110160000Y-107990000D02*
X115960000Y-107990000D01*
X119850000Y-70150000D02*
X120210000Y-70510000D01*
X77295000Y-34410000D02*
X77295000Y-35705402D01*
X42170000Y-41605000D02*
X42070000Y-41705000D01*
X63480000Y-60935000D02*
X66420000Y-63875000D01*
X89120000Y-34255000D02*
X89120000Y-31605000D01*
X71520000Y-33305000D02*
X72870000Y-33305000D01*
X115960000Y-107990000D02*
X118710000Y-110740000D01*
X85885305Y-31605000D02*
X84135305Y-33355000D01*
X120210000Y-70510000D02*
X125790000Y-70510000D01*
X103860000Y-107990000D02*
X104959999Y-109089999D01*
X89120000Y-31605000D02*
X85885305Y-31605000D01*
X98560000Y-72275000D02*
X98560000Y-73660000D01*
X51995000Y-40980000D02*
X52970000Y-41955000D01*
X79080000Y-32625000D02*
X78400000Y-33305000D01*
X66870000Y-73615000D02*
X66830000Y-73575000D01*
X126150000Y-109160000D02*
X126150000Y-107970000D01*
X78230000Y-85775000D02*
X78230000Y-89765000D01*
X119900000Y-92120000D02*
X119900000Y-85820000D01*
X44370000Y-32555000D02*
X47820000Y-32555000D01*
X80698299Y-33355000D02*
X77810598Y-36242701D01*
X110160000Y-107990000D02*
X110160000Y-101690000D01*
X77295000Y-35705402D02*
X76757701Y-36242701D01*
X129645000Y-83035000D02*
X136130000Y-83035000D01*
X68040000Y-36785000D02*
X71520000Y-33305000D01*
X110140000Y-85820000D02*
X110140000Y-76360000D01*
X75820000Y-69755000D02*
X75734695Y-69755000D01*
X77810598Y-36242701D02*
X76757701Y-36242701D01*
X104959999Y-109089999D02*
X109060001Y-109089999D01*
X66914695Y-60935000D02*
X63480000Y-60935000D01*
X79080000Y-32625000D02*
X77295000Y-34410000D01*
X43470000Y-41605000D02*
X42170000Y-41605000D01*
X43470000Y-31655000D02*
X44370000Y-32555000D01*
X40819500Y-42955500D02*
X40819500Y-43205000D01*
X78400000Y-33305000D02*
X72870000Y-33305000D01*
X118710000Y-110740000D02*
X124570000Y-110740000D01*
X110140000Y-101670000D02*
X110160000Y-101690000D01*
X104220000Y-36205000D02*
X108170000Y-32255000D01*
X101250000Y-76350000D02*
X103850000Y-76350000D01*
X66870000Y-82275000D02*
X66870000Y-73615000D01*
X75734695Y-69755000D02*
X66914695Y-60935000D01*
X109060001Y-109089999D02*
X110160000Y-107990000D01*
X110150000Y-76350000D02*
X119750000Y-76350000D01*
X125790000Y-70510000D02*
X126150000Y-70150000D01*
%TO.N,+5V*%
X152490000Y-102169466D02*
X151170000Y-103489466D01*
X151170000Y-103489466D02*
X151170000Y-107705000D01*
X184460000Y-34595000D02*
X164810000Y-34595000D01*
X155710000Y-34305000D02*
X145220000Y-34305000D01*
X145220000Y-34305000D02*
X144170000Y-33255000D01*
X164810000Y-34595000D02*
X164770000Y-34555000D01*
X97620000Y-32555000D02*
X98620000Y-33555000D01*
X55920000Y-47905000D02*
X59070000Y-51055000D01*
X184982701Y-35117701D02*
X184460000Y-34595000D01*
X98620000Y-33555000D02*
X102120000Y-33555000D01*
X162040000Y-27975000D02*
X155710000Y-34305000D01*
X35720000Y-47905000D02*
X55920000Y-47905000D01*
X102120000Y-33555000D02*
X104540000Y-31135000D01*
X104540000Y-31135000D02*
X104610000Y-31065000D01*
X104610000Y-31065000D02*
X109900000Y-31065000D01*
%TO.N,-3V*%
X70420000Y-88955000D02*
X70670000Y-88955000D01*
X75870000Y-47555000D02*
X73870000Y-47555000D01*
X73870000Y-47555000D02*
X73020000Y-46705000D01*
X73020000Y-46705000D02*
X60920000Y-46705000D01*
X72314560Y-118635038D02*
X72770000Y-118179598D01*
X78020000Y-52155000D02*
X78020000Y-49705000D01*
X72770000Y-113055000D02*
X71370000Y-111655000D01*
X72870000Y-110055000D02*
X71270000Y-111655000D01*
X70420000Y-88955000D02*
X72870000Y-91405000D01*
X72870000Y-96555000D02*
X72870000Y-110055000D01*
X72570000Y-68555000D02*
X72570000Y-74455000D01*
X71170000Y-67155000D02*
X72570000Y-68555000D01*
X72870000Y-91405000D02*
X72870000Y-96555000D01*
X70670000Y-88955000D02*
X72570000Y-87055000D01*
X72570000Y-87055000D02*
X72570000Y-74455000D01*
X60920000Y-46705000D02*
X60120000Y-45905000D01*
X72770000Y-118179598D02*
X72770000Y-113055000D01*
X76570000Y-34755000D02*
X71270000Y-34755000D01*
X71270000Y-34755000D02*
X60120000Y-45905000D01*
X78020000Y-49705000D02*
X75870000Y-47555000D01*
%TO.N,/chn3*%
X84570000Y-47805000D02*
X84570000Y-58505000D01*
X85020000Y-36655000D02*
X85020000Y-47255000D01*
X84420000Y-111605000D02*
X84420000Y-122555000D01*
X84570000Y-69255000D02*
X84570000Y-89955000D01*
X84420000Y-90105000D02*
X84420000Y-100855000D01*
X84520000Y-47755000D02*
X84570000Y-47805000D01*
X113378000Y-122143000D02*
X135702000Y-122143000D01*
X112040000Y-120805000D02*
X113378000Y-122143000D01*
X84670000Y-36305000D02*
X85020000Y-36655000D01*
X135702000Y-122143000D02*
X136790000Y-121055000D01*
X84570000Y-89955000D02*
X84420000Y-90105000D01*
X85020000Y-47255000D02*
X84520000Y-47755000D01*
X84420000Y-100855000D02*
X84420000Y-111605000D01*
X84570000Y-58505000D02*
X84570000Y-69255000D01*
%TO.N,+3.3V*%
X71770000Y-51405000D02*
X71770000Y-49355000D01*
X76280000Y-107935000D02*
X76270000Y-107925000D01*
X113290000Y-31784805D02*
X113290000Y-34935000D01*
X39570000Y-36055000D02*
X40370000Y-35255000D01*
X42620000Y-43155000D02*
X47970000Y-43155000D01*
X69860000Y-52255000D02*
X69170000Y-52945000D01*
X75820000Y-68405000D02*
X75820000Y-64592500D01*
X76280000Y-112845000D02*
X76280000Y-107935000D01*
X72920000Y-52255000D02*
X69860000Y-52255000D01*
X69170000Y-52945000D02*
X69170000Y-57942500D01*
X74520000Y-48555000D02*
X75170000Y-49205000D01*
X38370000Y-38855000D02*
X39570000Y-37655000D01*
X113290000Y-34935000D02*
X112120000Y-36105000D01*
X70570000Y-83055000D02*
X61770000Y-91855000D01*
X111150000Y-29644805D02*
X113290000Y-31784805D01*
X75820000Y-64592500D02*
X74831250Y-63603750D01*
X72620000Y-52255000D02*
X71770000Y-51405000D01*
X71770000Y-49355000D02*
X72570000Y-48555000D01*
X111150000Y-28235000D02*
X111150000Y-29644805D01*
X72570000Y-48555000D02*
X74520000Y-48555000D01*
X70570000Y-74455500D02*
X70570000Y-83055000D01*
X40370000Y-35255000D02*
X45370000Y-35255000D01*
X69170000Y-57942500D02*
X74831250Y-63603750D01*
X72920000Y-52255000D02*
X72620000Y-52255000D01*
X39570000Y-37655000D02*
X39570000Y-36055000D01*
%TO.N,/chn1*%
X82720000Y-98305000D02*
X82720000Y-109005000D01*
X82720000Y-87555000D02*
X82720000Y-98305000D01*
X82720000Y-109005000D02*
X82720000Y-119955000D01*
X83250000Y-45075000D02*
X82720000Y-45605000D01*
X82720000Y-45605000D02*
X82720000Y-66105000D01*
X83250000Y-45075000D02*
X83141494Y-45075000D01*
X83141494Y-45075000D02*
X80970000Y-42903506D01*
X82720000Y-66105000D02*
X82720000Y-76855000D01*
X80970000Y-42903506D02*
X80970000Y-40605000D01*
X82720000Y-76855000D02*
X82720000Y-87555000D01*
X80570000Y-39055000D02*
X80570000Y-36355000D01*
%TO.N,nVDD_2*%
X113320000Y-117390000D02*
X113320000Y-119890000D01*
X96640000Y-37105000D02*
X107880000Y-37105000D01*
X117950000Y-116160000D02*
X119510000Y-114600000D01*
X65020000Y-80655000D02*
X60470000Y-85205000D01*
X122669828Y-114600000D02*
X124214828Y-113055000D01*
X48570000Y-37745000D02*
X48270000Y-37445000D01*
X63620000Y-40935000D02*
X63000000Y-40935000D01*
X74120000Y-122515000D02*
X73580000Y-123055000D01*
X107880000Y-37105000D02*
X107930000Y-37155000D01*
X89145000Y-35580000D02*
X95115000Y-35580000D01*
X111556500Y-115626500D02*
X113320000Y-117390000D01*
X67570000Y-100155000D02*
X63320000Y-104405000D01*
X60470000Y-93055000D02*
X67570000Y-100155000D01*
X119510000Y-114600000D02*
X122669828Y-114600000D01*
X135570000Y-113055000D02*
X136420000Y-112205000D01*
X124214828Y-113055000D02*
X135570000Y-113055000D01*
X117090000Y-121360000D02*
X117950000Y-120500000D01*
X68094500Y-123055000D02*
X65170000Y-125979500D01*
X64834500Y-126315000D02*
X65170000Y-125979500D01*
X48570000Y-37755000D02*
X48670000Y-37855000D01*
X63000000Y-40935000D02*
X59920000Y-37855000D01*
X88470000Y-36255000D02*
X89145000Y-35580000D01*
X113320000Y-119890000D02*
X114790000Y-121360000D01*
X48670000Y-37855000D02*
X51770000Y-37855000D01*
X117950000Y-120500000D02*
X117950000Y-116160000D01*
X60470000Y-85205000D02*
X60470000Y-93055000D01*
X59920000Y-37855000D02*
X51770000Y-37855000D01*
X63320000Y-126315000D02*
X64834500Y-126315000D01*
X63320000Y-104405000D02*
X63320000Y-126315000D01*
X114790000Y-121360000D02*
X117090000Y-121360000D01*
X48570000Y-37755000D02*
X48570000Y-37745000D01*
X95115000Y-35580000D02*
X96640000Y-37105000D01*
X73580000Y-123055000D02*
X68094500Y-123055000D01*
X108370000Y-115626500D02*
X111556500Y-115626500D01*
%TO.N,/Vref_o*%
X85470000Y-116405000D02*
X87770000Y-118705000D01*
X185370000Y-124755000D02*
X184360000Y-123745000D01*
X87970000Y-32505000D02*
X86170000Y-32505000D01*
X86170000Y-32505000D02*
X85520000Y-33155000D01*
X85470000Y-64805000D02*
X87670000Y-64805000D01*
X138370000Y-133179500D02*
X142044500Y-129505000D01*
X87770000Y-97055000D02*
X85470000Y-97055000D01*
X87920000Y-75555000D02*
X85520000Y-75555000D01*
X74220000Y-39805000D02*
X77070000Y-36955000D01*
X85470000Y-86255000D02*
X87520000Y-86255000D01*
X85470000Y-44005000D02*
X85470000Y-54105000D01*
X85470000Y-86255000D02*
X85470000Y-97055000D01*
X85470000Y-64805000D02*
X85470000Y-75505000D01*
X85470000Y-97055000D02*
X85470000Y-107805000D01*
X86120000Y-34355000D02*
X87970000Y-32505000D01*
X77770000Y-36955000D02*
X80370000Y-34355000D01*
X69920000Y-39805000D02*
X74220000Y-39805000D01*
X85470000Y-33205000D02*
X85470000Y-44005000D01*
X87670000Y-64805000D02*
X87720000Y-64855000D01*
X85470000Y-54105000D02*
X85470000Y-64805000D01*
X87520000Y-86255000D02*
X87570000Y-86305000D01*
X87820000Y-107855000D02*
X87770000Y-107805000D01*
X85470000Y-107805000D02*
X85470000Y-116405000D01*
X175520000Y-131205000D02*
X175785000Y-131470000D01*
X80370000Y-34355000D02*
X86120000Y-34355000D01*
X142044500Y-129505000D02*
X167170000Y-129505000D01*
X87920000Y-54105000D02*
X85470000Y-54105000D01*
X85470000Y-75505000D02*
X85470000Y-86255000D01*
X167170000Y-129505000D02*
X168870000Y-131205000D01*
X182055000Y-131470000D02*
X185370000Y-128155000D01*
X87770000Y-107805000D02*
X85470000Y-107805000D01*
X168870000Y-131205000D02*
X175520000Y-131205000D01*
X85520000Y-75555000D02*
X85470000Y-75505000D01*
X185370000Y-128155000D02*
X185370000Y-124755000D01*
X77070000Y-36955000D02*
X77770000Y-36955000D01*
X85520000Y-33155000D02*
X85470000Y-33205000D01*
X175785000Y-131470000D02*
X182055000Y-131470000D01*
X184360000Y-123745000D02*
X183112800Y-123745000D01*
%TO.N,/WE2*%
X66220000Y-68555000D02*
X66270000Y-68555000D01*
X66270000Y-68555000D02*
X70420000Y-72705000D01*
%TO.N,/chn4*%
X88150000Y-86750305D02*
X88150000Y-92559695D01*
X88595000Y-82270000D02*
X88595000Y-86305305D01*
X88745000Y-37630000D02*
X88745000Y-49030000D01*
X88745000Y-59730000D02*
X88745000Y-62505305D01*
X88540000Y-51960305D02*
X88540000Y-53699695D01*
X88210000Y-76290305D02*
X88210000Y-80695000D01*
X88645000Y-71450000D02*
X88645000Y-75855305D01*
X87895000Y-59730000D02*
X88745000Y-59730000D01*
X88745000Y-123804500D02*
X88745500Y-123805000D01*
X88500000Y-70235000D02*
X88745000Y-70480000D01*
X87870000Y-59755000D02*
X87895000Y-59730000D01*
X88745000Y-93154695D02*
X88745000Y-102130000D01*
X88645000Y-75855305D02*
X88210000Y-76290305D01*
X87895000Y-49030000D02*
X88745000Y-49030000D01*
X87795000Y-81230000D02*
X88745000Y-81230000D01*
X88210000Y-80695000D02*
X88745000Y-81230000D01*
X88720000Y-102105000D02*
X88745000Y-102130000D01*
X88150000Y-92559695D02*
X88745000Y-93154695D01*
X88745000Y-53904695D02*
X88745000Y-59730000D01*
X87870000Y-49055000D02*
X87895000Y-49030000D01*
X87920000Y-70505000D02*
X87945000Y-70480000D01*
X87945000Y-70480000D02*
X88745000Y-70480000D01*
X88745000Y-102130000D02*
X88745000Y-112880000D01*
X87795000Y-112880000D02*
X88745000Y-112880000D01*
X88500000Y-62750305D02*
X88500000Y-70235000D01*
X88540000Y-53699695D02*
X88745000Y-53904695D01*
X88745000Y-51755305D02*
X88540000Y-51960305D01*
X88745000Y-81230000D02*
X88150000Y-81825000D01*
X87770000Y-102105000D02*
X88720000Y-102105000D01*
X88745000Y-49030000D02*
X88745000Y-51755305D01*
X88745000Y-112880000D02*
X88745000Y-123804500D01*
X88210000Y-71015000D02*
X88645000Y-71450000D01*
X87770000Y-81255000D02*
X87795000Y-81230000D01*
X88595000Y-86305305D02*
X88150000Y-86750305D01*
X88150000Y-81825000D02*
X88595000Y-82270000D01*
X88770000Y-37605000D02*
X88745000Y-37630000D01*
X88745000Y-70480000D02*
X88210000Y-71015000D01*
X88745000Y-62505305D02*
X88500000Y-62750305D01*
X87770000Y-112905000D02*
X87795000Y-112880000D01*
%TO.N,/chn6*%
X187970000Y-92055000D02*
X188470000Y-92555000D01*
X130120000Y-88655000D02*
X155620000Y-88655000D01*
X175870000Y-90605000D02*
X176370000Y-90605000D01*
X161320000Y-86605000D02*
X161320000Y-89005000D01*
X156270000Y-86455000D02*
X156820000Y-85905000D01*
X188470000Y-92555000D02*
X188470000Y-105505000D01*
X161570000Y-89255000D02*
X162720000Y-89255000D01*
X155620000Y-88655000D02*
X156270000Y-88005000D01*
X156270000Y-88005000D02*
X156270000Y-86455000D01*
X188470000Y-105505000D02*
X185470000Y-108505000D01*
X156820000Y-85905000D02*
X160620000Y-85905000D01*
X160620000Y-85905000D02*
X161320000Y-86605000D01*
X177820000Y-92055000D02*
X187970000Y-92055000D01*
X185470000Y-108505000D02*
X183112800Y-108505000D01*
X161320000Y-89005000D02*
X161570000Y-89255000D01*
X176370000Y-90605000D02*
X177820000Y-92055000D01*
%TO.N,/chn7*%
X125923500Y-114127000D02*
X131142000Y-114127000D01*
X133620000Y-116605000D02*
X164520000Y-116605000D01*
X123645500Y-116405000D02*
X125923500Y-114127000D01*
X175470000Y-113855000D02*
X175470000Y-108555000D01*
X164520000Y-116605000D02*
X165520000Y-115605000D01*
X165520000Y-115605000D02*
X173720000Y-115605000D01*
X131142000Y-114127000D02*
X133620000Y-116605000D01*
X173720000Y-115605000D02*
X175470000Y-113855000D01*
%TO.N,/A_NCS*%
X89670000Y-52830000D02*
X89620000Y-52880000D01*
X89570000Y-88830000D02*
X89470000Y-88930000D01*
X89520000Y-100930000D02*
X89470000Y-100880000D01*
X89620000Y-64830000D02*
X89570000Y-64880000D01*
X89520000Y-112880000D02*
X89520000Y-100930000D01*
X89570000Y-64880000D02*
X89570000Y-76930000D01*
X89670000Y-40155000D02*
X89670000Y-52830000D01*
X89470000Y-100880000D02*
X89470000Y-88930000D01*
X89620000Y-52880000D02*
X89620000Y-64830000D01*
X89470000Y-112930000D02*
X89520000Y-112880000D01*
X89570000Y-76930000D02*
X89570000Y-88830000D01*
X89470000Y-124525000D02*
X89470000Y-112930000D01*
X89030000Y-124965000D02*
X89470000Y-124525000D01*
%TO.N,/A_SDO1*%
X112600000Y-66268030D02*
X112600000Y-54541314D01*
X112599015Y-66269015D02*
X112600000Y-66268030D01*
X109590000Y-51531314D02*
X109590000Y-40465000D01*
X94350000Y-37555000D02*
X106720000Y-37555000D01*
X109590000Y-40425000D02*
X109590000Y-40465000D01*
X106720000Y-37555000D02*
X109590000Y-40425000D01*
X112600000Y-54541314D02*
X109590000Y-51531314D01*
%TO.N,/A_SCK*%
X92620000Y-109105000D02*
X92570000Y-109055000D01*
X93820000Y-109105000D02*
X92620000Y-109105000D01*
X92570000Y-61055000D02*
X92570000Y-73105000D01*
X92570000Y-49055000D02*
X94020000Y-49055000D01*
X92620000Y-85055000D02*
X92570000Y-85005000D01*
X92570000Y-49055000D02*
X92570000Y-61055000D01*
X94070000Y-73005000D02*
X92670000Y-73005000D01*
X92670000Y-73005000D02*
X92570000Y-73105000D01*
X93719695Y-36830000D02*
X92570000Y-37979695D01*
X94177701Y-36377299D02*
X93725000Y-36830000D01*
X92570000Y-73105000D02*
X92570000Y-85005000D01*
X93870000Y-97005000D02*
X92620000Y-97005000D01*
X92570000Y-97055000D02*
X92570000Y-109055000D01*
X94510000Y-61055000D02*
X92570000Y-61055000D01*
X92620000Y-97005000D02*
X92570000Y-97055000D01*
X92570000Y-120075000D02*
X92570000Y-109055000D01*
X92570000Y-37979695D02*
X92570000Y-49055000D01*
X129061133Y-104115000D02*
X126450000Y-104115000D01*
X137250000Y-95926133D02*
X129061133Y-104115000D01*
X92570000Y-85005000D02*
X92570000Y-97055000D01*
X93740000Y-121245000D02*
X92570000Y-120075000D01*
X93920000Y-85055000D02*
X92620000Y-85055000D01*
X93725000Y-36830000D02*
X93719695Y-36830000D01*
%TO.N,/V_ref*%
X114070000Y-29055000D02*
X114970000Y-29955000D01*
X107255000Y-71620000D02*
X107000000Y-71875000D01*
X148610000Y-83395000D02*
X148610000Y-85802800D01*
X111550000Y-71620000D02*
X107255000Y-71620000D01*
X107000000Y-71875000D02*
X107000000Y-73250000D01*
X148610000Y-85802800D02*
X149950000Y-87142800D01*
X114970000Y-68200000D02*
X111550000Y-71620000D01*
X107000000Y-73250000D02*
X120628337Y-73250000D01*
X147070000Y-81855000D02*
X148610000Y-83395000D01*
X129233337Y-81855000D02*
X147070000Y-81855000D01*
X114970000Y-29955000D02*
X114970000Y-68200000D01*
X120628337Y-73250000D02*
X129233337Y-81855000D01*
%TO.N,/CV_ref*%
X124939500Y-127260000D02*
X135155000Y-127260000D01*
X123890000Y-96575000D02*
X123890000Y-93675000D01*
X124590000Y-101394656D02*
X124590000Y-97275000D01*
X150350000Y-125325000D02*
X153410000Y-128385000D01*
X159390000Y-128385000D02*
X164950000Y-122825000D01*
X124410000Y-79025000D02*
X119500000Y-74115000D01*
X123710000Y-109650000D02*
X123710000Y-109598686D01*
X124370000Y-101614656D02*
X124590000Y-101394656D01*
X153410000Y-128385000D02*
X159390000Y-128385000D01*
X164950000Y-122825000D02*
X164950000Y-121750000D01*
X124410000Y-93155000D02*
X124410000Y-79025000D01*
X135155000Y-127260000D02*
X137090000Y-125325000D01*
X107160000Y-75700000D02*
X105900000Y-75700000D01*
X123890000Y-93675000D02*
X124410000Y-93155000D01*
X124370000Y-108938686D02*
X124370000Y-101614656D01*
X124590000Y-97275000D02*
X123890000Y-96575000D01*
X123710000Y-109598686D02*
X124370000Y-108938686D01*
X119500000Y-74115000D02*
X108745000Y-74115000D01*
X137090000Y-125325000D02*
X150350000Y-125325000D01*
X124250000Y-126570500D02*
X124939500Y-127260000D01*
X108745000Y-74115000D02*
X107160000Y-75700000D01*
%TO.N,/WE6*%
X189310000Y-92725000D02*
X189310000Y-124855000D01*
X66590000Y-117825000D02*
X66590000Y-113605000D01*
X187310000Y-90725000D02*
X189310000Y-92725000D01*
X189310000Y-124855000D02*
X181810000Y-132355000D01*
X181810000Y-132355000D02*
X173260000Y-132355000D01*
X67120000Y-118355000D02*
X66590000Y-117825000D01*
X183112800Y-90725000D02*
X187310000Y-90725000D01*
%TO.N,/A_SDO4*%
X123400000Y-59810000D02*
X124520000Y-58690000D01*
X123400000Y-66670000D02*
X123400000Y-59810000D01*
X124520000Y-58690000D02*
X124520000Y-54236263D01*
X123390000Y-66680000D02*
X123400000Y-66670000D01*
X124050000Y-44315000D02*
X126470000Y-41895000D01*
X124050000Y-53766263D02*
X124050000Y-44315000D01*
X124520000Y-54236263D02*
X124050000Y-53766263D01*
%TO.N,/A_SDO8*%
X118997462Y-111560000D02*
X123603299Y-111560000D01*
X135640000Y-106605000D02*
X135990000Y-106255000D01*
X166370000Y-100955000D02*
X164770000Y-99355000D01*
X116221604Y-111823000D02*
X118734462Y-111823000D01*
X104360000Y-121665000D02*
X104360000Y-119526701D01*
X123603299Y-111560000D02*
X123768299Y-111725000D01*
X110207000Y-111818000D02*
X112874462Y-111818000D01*
X107095000Y-116791701D02*
X107095000Y-114930000D01*
X164770000Y-99355000D02*
X164820000Y-99305000D01*
X107095000Y-114930000D02*
X110207000Y-111818000D01*
X136970000Y-99355000D02*
X147394695Y-99355000D01*
X112874462Y-111818000D02*
X113237462Y-111455000D01*
X123768299Y-111725000D02*
X129540000Y-111725000D01*
X135990000Y-100335000D02*
X136970000Y-99355000D01*
X167920000Y-109175000D02*
X166370000Y-107625000D01*
X115853604Y-111455000D02*
X116221604Y-111823000D01*
X118734462Y-111823000D02*
X118997462Y-111560000D01*
X160670000Y-98980305D02*
X160670000Y-96486133D01*
X129540000Y-111725000D02*
X134660000Y-106605000D01*
X113237462Y-111455000D02*
X115853604Y-111455000D01*
X166370000Y-107625000D02*
X166370000Y-100955000D01*
X135990000Y-106255000D02*
X135990000Y-100335000D01*
X148369695Y-100330000D02*
X159320305Y-100330000D01*
X104360000Y-119526701D02*
X107095000Y-116791701D01*
X134660000Y-106605000D02*
X135640000Y-106605000D01*
X147394695Y-99355000D02*
X148369695Y-100330000D01*
X160670000Y-96486133D02*
X160110000Y-95926133D01*
X159320305Y-100330000D02*
X160670000Y-98980305D01*
%TO.N,Net-(R11-Pad2)*%
X37970000Y-36179500D02*
X37970000Y-33955000D01*
X38670000Y-36879500D02*
X37970000Y-36179500D01*
%TO.N,/SIN_1*%
X99670000Y-124955000D02*
X101455000Y-126740000D01*
X50970000Y-94455000D02*
X51930000Y-95415000D01*
X101455000Y-126740000D02*
X118591763Y-126740000D01*
X118946263Y-126385500D02*
X119513737Y-126385500D01*
X122781263Y-126740000D02*
X123886263Y-125635000D01*
X51930000Y-120215000D02*
X58970000Y-127255000D01*
X99670000Y-126255000D02*
X99670000Y-124955000D01*
X118591763Y-126740000D02*
X118946263Y-126385500D01*
X136920172Y-124915000D02*
X143285000Y-124915000D01*
X143285000Y-124915000D02*
X146450000Y-121750000D01*
X58970000Y-127255000D02*
X98670000Y-127255000D01*
X119868237Y-126740000D02*
X122781263Y-126740000D01*
X123886263Y-125635000D02*
X124453737Y-125635000D01*
X119513737Y-126385500D02*
X119868237Y-126740000D01*
X125668737Y-126850000D02*
X134985172Y-126850000D01*
X124453737Y-125635000D02*
X125668737Y-126850000D01*
X98670000Y-127255000D02*
X99670000Y-126255000D01*
X51930000Y-95415000D02*
X51930000Y-120215000D01*
X134985172Y-126850000D02*
X136920172Y-124915000D01*
%TO.N,/SQ_2*%
X28070000Y-124855000D02*
X29970000Y-126755000D01*
X28070000Y-92255000D02*
X28070000Y-124855000D01*
X44270000Y-84655000D02*
X32370000Y-84655000D01*
X133770000Y-132855000D02*
X137670000Y-128955000D01*
X28070000Y-88955000D02*
X28070000Y-92255000D01*
X36070000Y-132855000D02*
X133770000Y-132855000D01*
X32370000Y-84655000D02*
X28070000Y-88955000D01*
X29970000Y-126755000D02*
X36070000Y-132855000D01*
X49370000Y-89755000D02*
X47770000Y-88155000D01*
X47770000Y-88155000D02*
X44270000Y-84655000D01*
X49370000Y-97055000D02*
X49370000Y-89755000D01*
%TO.N,/SQ_1*%
X133744695Y-131855000D02*
X136570000Y-129029695D01*
X36570000Y-131855000D02*
X133744695Y-131855000D01*
X32470000Y-85955000D02*
X28870000Y-89555000D01*
X47870000Y-98755000D02*
X47870000Y-89555000D01*
X136570000Y-127355000D02*
X137570000Y-126355000D01*
X137570000Y-126355000D02*
X137670000Y-126355000D01*
X47870000Y-89555000D02*
X44270000Y-85955000D01*
X47870000Y-99055000D02*
X47870000Y-98755000D01*
X44270000Y-85955000D02*
X32470000Y-85955000D01*
X48370000Y-99555000D02*
X47870000Y-99055000D01*
X28870000Y-124155000D02*
X36570000Y-131855000D01*
X136570000Y-129029695D02*
X136570000Y-127355000D01*
X28870000Y-89555000D02*
X28870000Y-124155000D01*
%TO.N,/D_1*%
X35420000Y-109735000D02*
X33190000Y-109735000D01*
X32370000Y-116655000D02*
X44970000Y-129255000D01*
X33190000Y-109735000D02*
X32370000Y-110555000D01*
X44970000Y-129255000D02*
X45695000Y-129980000D01*
X132345000Y-129980000D02*
X133270000Y-129055000D01*
X45695000Y-129980000D02*
X132345000Y-129980000D01*
X32370000Y-110555000D02*
X32370000Y-116655000D01*
%TO.N,Net-(R28-Pad2)*%
X79070000Y-100995000D02*
X79080000Y-101005000D01*
X79070000Y-97165000D02*
X79070000Y-100995000D01*
%TO.N,/D_0*%
X46966433Y-127755000D02*
X134370000Y-127755000D01*
X35420000Y-112275000D02*
X33950000Y-112275000D01*
X143671133Y-92045000D02*
X142330000Y-93386133D01*
X145950000Y-92045000D02*
X143671133Y-92045000D01*
X33370000Y-112855000D02*
X33370000Y-114158567D01*
X33950000Y-112275000D02*
X33370000Y-112855000D01*
X134370000Y-127755000D02*
X135470000Y-128855000D01*
X33370000Y-114158567D02*
X46966433Y-127755000D01*
%TO.N,/F_RST_O*%
X148720000Y-103399466D02*
X148720000Y-107535000D01*
X167267208Y-60225000D02*
X164290000Y-60225000D01*
X148720000Y-107535000D02*
X148830000Y-107645000D01*
X172307208Y-65265000D02*
X167267208Y-60225000D01*
X182630000Y-65265000D02*
X172307208Y-65265000D01*
X158260000Y-66635000D02*
X158470000Y-66845000D01*
X158260000Y-66255000D02*
X158260000Y-66635000D01*
X149950000Y-102169466D02*
X148720000Y-103399466D01*
X164290000Y-60225000D02*
X158260000Y-66255000D01*
%TO.N,/FT_SDI*%
X121655000Y-104138737D02*
X121253737Y-104540000D01*
X124180000Y-101224828D02*
X121655000Y-103749828D01*
X121260000Y-109945000D02*
X121320000Y-110005000D01*
X121655000Y-103749828D02*
X121655000Y-104138737D01*
X121260000Y-104546263D02*
X121260000Y-109945000D01*
X115206701Y-89830000D02*
X124180000Y-98803299D01*
X124180000Y-98803299D02*
X124180000Y-101224828D01*
X121253737Y-104540000D02*
X121260000Y-104546263D01*
X111390000Y-89830000D02*
X115206701Y-89830000D01*
%TO.N,/JTAG_TMS*%
X153520000Y-121105000D02*
X153570000Y-121055000D01*
X153570000Y-121055000D02*
X153570000Y-118355000D01*
X153570000Y-118355000D02*
X153570000Y-117955000D01*
%TO.N,/JTAG_TDO*%
X144220000Y-91105000D02*
X146576315Y-91105000D01*
X146576315Y-91105000D02*
X148670000Y-93198685D01*
X148670000Y-93198685D02*
X148670000Y-99605000D01*
%TO.N,/JTAG_TDI*%
X152110456Y-121955000D02*
X152270000Y-121955000D01*
X152270000Y-121955000D02*
X154570000Y-121955000D01*
X149070000Y-118914544D02*
X152110456Y-121955000D01*
X154570000Y-121955000D02*
X154720000Y-121805000D01*
X149070000Y-118299500D02*
X149070000Y-118914544D01*
X154720000Y-121805000D02*
X154720000Y-118055000D01*
%TO.N,/D_7*%
X149683604Y-60305000D02*
X152056201Y-60305000D01*
X148410000Y-52344903D02*
X150860000Y-54794903D01*
X150860000Y-54794903D02*
X150860000Y-55905000D01*
X152056201Y-60305000D02*
X155705896Y-56655305D01*
X156169695Y-57080000D02*
X157595000Y-57080000D01*
X155705896Y-56655305D02*
X155745000Y-56655305D01*
X149320500Y-59941896D02*
X149683604Y-60305000D01*
X155745000Y-56655305D02*
X156169695Y-57080000D01*
X149320500Y-56380805D02*
X149320500Y-59941896D01*
X157595000Y-57080000D02*
X158320353Y-56354647D01*
X149319695Y-56380000D02*
X149320500Y-56380805D01*
X148410000Y-50054500D02*
X148410000Y-52344903D01*
X150860000Y-55905000D02*
X150385000Y-56380000D01*
X150385000Y-56380000D02*
X149319695Y-56380000D01*
%TO.N,/D_6*%
X167730000Y-97915000D02*
X167730000Y-95926133D01*
X176370000Y-100055000D02*
X169870000Y-100055000D01*
X169870000Y-100055000D02*
X167730000Y-97915000D01*
X177270000Y-100955000D02*
X176370000Y-100055000D01*
%TO.N,/D_5*%
X172640000Y-99605000D02*
X170270000Y-97235000D01*
X176840000Y-102410305D02*
X177995000Y-101255305D01*
X177995000Y-101255305D02*
X177995000Y-100180000D01*
X177995000Y-100180000D02*
X177420000Y-99605000D01*
X177420000Y-99605000D02*
X172640000Y-99605000D01*
X176840000Y-105261396D02*
X176840000Y-102410305D01*
X170770000Y-129455000D02*
X177770000Y-122455000D01*
X175760000Y-129985000D02*
X171300000Y-129985000D01*
X177770000Y-106191396D02*
X176840000Y-105261396D01*
X170270000Y-97235000D02*
X170270000Y-95926133D01*
X177770000Y-122455000D02*
X177770000Y-106191396D01*
X171300000Y-129985000D02*
X170770000Y-129455000D01*
%TO.N,/D_4*%
X101610000Y-115280000D02*
X101610000Y-119015000D01*
X94645500Y-125979500D02*
X66870000Y-125979500D01*
X101610000Y-119015000D02*
X94645500Y-125979500D01*
X102470000Y-114420000D02*
X101610000Y-115280000D01*
%TO.N,/B21*%
X161870000Y-51605000D02*
X161870000Y-59505000D01*
X167730000Y-78515000D02*
X167270000Y-78055000D01*
X161870000Y-59505000D02*
X155020000Y-66355000D01*
X167730000Y-84602800D02*
X167730000Y-78515000D01*
X148947609Y-66116397D02*
X149186212Y-66355000D01*
X149186212Y-66355000D02*
X155020000Y-66355000D01*
%TO.N,/B22*%
X159970000Y-53395000D02*
X159970000Y-56754999D01*
X159990000Y-53375000D02*
X159970000Y-53395000D01*
X172810000Y-80419500D02*
X170270000Y-77879500D01*
X159970000Y-56754999D02*
X155295047Y-61429952D01*
X172810000Y-84602800D02*
X172810000Y-80419500D01*
%TO.N,/A21*%
X147495305Y-70255000D02*
X147370305Y-70380000D01*
X178795305Y-70255000D02*
X147495305Y-70255000D01*
X165320000Y-51680305D02*
X165320000Y-57641396D01*
X165320000Y-57641396D02*
X171783604Y-64105000D01*
X160695000Y-47055305D02*
X165320000Y-51680305D01*
X180871805Y-72331500D02*
X178795305Y-70255000D01*
X147370305Y-70380000D02*
X146769695Y-70380000D01*
X188516300Y-72331500D02*
X180871805Y-72331500D01*
X159058604Y-41230000D02*
X160695000Y-42866396D01*
X160695000Y-42866396D02*
X160695000Y-47055305D01*
X190032800Y-70815000D02*
X188516300Y-72331500D01*
X146794695Y-68905000D02*
X149220000Y-68905000D01*
X155444500Y-41230000D02*
X159058604Y-41230000D01*
X146320000Y-69379695D02*
X146794695Y-68905000D01*
X171783604Y-64105000D02*
X184970000Y-64105000D01*
X146769695Y-70380000D02*
X146320000Y-69930305D01*
X155170000Y-41504500D02*
X155444500Y-41230000D01*
X146320000Y-69930305D02*
X146320000Y-69379695D01*
%TO.N,/FT_NCS*%
X161070000Y-92105000D02*
X151231133Y-92105000D01*
X151231133Y-92105000D02*
X149950000Y-93386133D01*
X167858581Y-94705000D02*
X162120000Y-94705000D01*
X161470000Y-92505000D02*
X161070000Y-92105000D01*
X161470000Y-94055000D02*
X161470000Y-92505000D01*
X176070000Y-85505000D02*
X168753500Y-92821500D01*
X168753500Y-92821500D02*
X168753500Y-93810081D01*
X168753500Y-93810081D02*
X167858581Y-94705000D01*
X162120000Y-94705000D02*
X161470000Y-94055000D01*
%TO.N,/FQ_UD*%
X108660000Y-94990000D02*
X108660000Y-99245000D01*
X108250000Y-91315000D02*
X108250000Y-94580000D01*
X108250000Y-94580000D02*
X108660000Y-94990000D01*
%TO.N,/D8*%
X177570000Y-53055000D02*
X180670000Y-53055000D01*
X184345000Y-49380000D02*
X184345000Y-48562800D01*
X180670000Y-53055000D02*
X184345000Y-49380000D01*
X184345000Y-48562800D02*
X187492800Y-45415000D01*
%TO.N,/C10*%
X187492800Y-42875000D02*
X186794300Y-43573500D01*
X186794300Y-43573500D02*
X182151500Y-43573500D01*
X182151500Y-43573500D02*
X177770000Y-47955000D01*
%TO.N,/J22*%
X190032800Y-63195000D02*
X188516300Y-64711500D01*
X188516300Y-64711500D02*
X186813500Y-64711500D01*
X186813500Y-64711500D02*
X186570000Y-64955000D01*
X181870000Y-69655000D02*
X147070000Y-69655000D01*
X186570000Y-64955000D02*
X181870000Y-69655000D01*
%TO.N,/C22*%
X125970000Y-34405000D02*
X124420000Y-32855000D01*
X138020000Y-34405000D02*
X125970000Y-34405000D01*
%TO.N,/C20*%
X165186214Y-70705000D02*
X151120000Y-70705000D01*
X151120000Y-70705000D02*
X148770000Y-73055000D01*
X165833107Y-71351893D02*
X165186214Y-70705000D01*
X170270000Y-79455000D02*
X168770000Y-77955000D01*
X170270000Y-84602800D02*
X170270000Y-79455000D01*
%TO.N,/E22*%
X161420000Y-59305000D02*
X161420000Y-52605000D01*
X155870000Y-64855000D02*
X161420000Y-59305000D01*
X174470000Y-85655000D02*
X174520000Y-85705000D01*
X178320000Y-85355000D02*
X177470000Y-85355000D01*
X175670000Y-80180305D02*
X179070000Y-83580305D01*
X175870000Y-84155000D02*
X175270000Y-84155000D01*
X161420000Y-52605000D02*
X160620000Y-51805000D01*
X177470000Y-85355000D02*
X177070000Y-85355000D01*
X175270000Y-84155000D02*
X174470000Y-84955000D01*
X179070000Y-84605000D02*
X178870000Y-84805000D01*
X151120000Y-64205000D02*
X151770000Y-64855000D01*
X174470000Y-84955000D02*
X174470000Y-85655000D01*
X151770000Y-64855000D02*
X155870000Y-64855000D01*
X178870000Y-84805000D02*
X178320000Y-85355000D01*
X163590000Y-72255000D02*
X169320000Y-72255000D01*
X175670000Y-78605000D02*
X175670000Y-80180305D01*
X179070000Y-83580305D02*
X179070000Y-84605000D01*
X169320000Y-72255000D02*
X175670000Y-78605000D01*
X177070000Y-85355000D02*
X175870000Y-84155000D01*
%TO.N,/G22*%
X149770500Y-57821024D02*
X149770500Y-59755500D01*
X156770000Y-54954805D02*
X156770000Y-48055000D01*
X150495500Y-57096024D02*
X149770500Y-57821024D01*
X149770500Y-59755500D02*
X149870000Y-59855000D01*
X151869805Y-59855000D02*
X156770000Y-54954805D01*
X149870000Y-59855000D02*
X151869805Y-59855000D01*
%TO.N,/F22*%
X156045000Y-47484500D02*
X156524500Y-47005000D01*
X162332059Y-91075000D02*
X162948381Y-91691322D01*
X154270000Y-55355000D02*
X156045000Y-53580000D01*
X156045000Y-53580000D02*
X156045000Y-47484500D01*
X152190000Y-91075000D02*
X162332059Y-91075000D01*
%TO.N,/G20*%
X160245000Y-43052792D02*
X158872208Y-41680000D01*
X158872208Y-41680000D02*
X156744000Y-41680000D01*
X156744000Y-41680000D02*
X155470000Y-42954000D01*
X159744695Y-47742006D02*
X160245000Y-47241701D01*
X155220000Y-63855000D02*
X160970000Y-58105000D01*
X160245000Y-47241701D02*
X160245000Y-43052792D01*
X160970000Y-58105000D02*
X160970000Y-53180305D01*
X159744695Y-51955000D02*
X159744695Y-47742006D01*
X160970000Y-53180305D02*
X159744695Y-51955000D01*
%TO.N,/F21*%
X151474896Y-61522701D02*
X154422597Y-58575000D01*
X154422597Y-58575000D02*
X154930000Y-58575000D01*
X151152299Y-61837299D02*
X149082299Y-61837299D01*
X148767701Y-61522701D02*
X151474896Y-61522701D01*
X149082299Y-61837299D02*
X148767701Y-61522701D01*
%TO.N,/K22*%
X150112753Y-51987799D02*
X150112753Y-49412247D01*
X150112753Y-49412247D02*
X152820000Y-46705000D01*
X154270000Y-45379695D02*
X154270000Y-43505000D01*
X152944695Y-46705000D02*
X154270000Y-45379695D01*
X152820000Y-46705000D02*
X152944695Y-46705000D01*
%TO.N,/K21*%
X150495500Y-58855000D02*
X153270000Y-56080500D01*
X153270000Y-56080500D02*
X153270000Y-47405000D01*
%TO.N,/C5*%
X182870000Y-37055000D02*
X182870000Y-37230402D01*
X182870000Y-37230402D02*
X175257701Y-44842701D01*
%TO.N,/+VCCO1*%
X157570000Y-104709466D02*
X153344466Y-108935000D01*
X153344466Y-108935000D02*
X142400000Y-108935000D01*
X142400000Y-108935000D02*
X141070000Y-107605000D01*
%TO.N,/A_SDI*%
X93710000Y-123915000D02*
X96820000Y-120805000D01*
X96765000Y-38850000D02*
X96820000Y-38905000D01*
X96815000Y-87600000D02*
X96820000Y-87605000D01*
X96820000Y-63605000D02*
X96820000Y-75555000D01*
X93815000Y-111650000D02*
X93820000Y-111655000D01*
X94065000Y-63600000D02*
X96815000Y-63600000D01*
X94020000Y-51605000D02*
X96820000Y-51605000D01*
X98580000Y-96200000D02*
X98575000Y-96205000D01*
X139790000Y-95926133D02*
X138766500Y-94902633D01*
X94015000Y-38850000D02*
X96765000Y-38850000D01*
X129328433Y-94902633D02*
X127576066Y-96655000D01*
X127576066Y-96655000D02*
X126094500Y-96655000D01*
X94070000Y-75555000D02*
X96820000Y-75555000D01*
X138766500Y-94902633D02*
X129328433Y-94902633D01*
X96820000Y-75555000D02*
X96820000Y-87605000D01*
X96820000Y-38905000D02*
X96820000Y-51605000D01*
X94015000Y-51600000D02*
X94020000Y-51605000D01*
X96820000Y-51605000D02*
X96820000Y-63605000D01*
X94065000Y-75550000D02*
X94070000Y-75555000D01*
X93865000Y-99550000D02*
X93870000Y-99555000D01*
X98575000Y-96205000D02*
X96820000Y-96205000D01*
X96820000Y-120805000D02*
X96820000Y-111655000D01*
X93820000Y-111655000D02*
X96820000Y-111655000D01*
X96820000Y-87605000D02*
X96820000Y-96205000D01*
X96815000Y-63600000D02*
X96820000Y-63605000D01*
X96820000Y-99555000D02*
X96820000Y-111655000D01*
X96820000Y-96205000D02*
X96820000Y-99555000D01*
X93870000Y-99555000D02*
X96820000Y-99555000D01*
X93915000Y-87600000D02*
X96815000Y-87600000D01*
%TO.N,/N22*%
X141070000Y-103429466D02*
X142330000Y-102169466D01*
X129770000Y-112355000D02*
X134370000Y-107755000D01*
X134370000Y-107755000D02*
X138770000Y-107755000D01*
X116810000Y-117860000D02*
X116810000Y-114190000D01*
X156370000Y-73955000D02*
X156370000Y-78355000D01*
X116810000Y-114190000D02*
X122500000Y-114190000D01*
X124335000Y-112355000D02*
X129770000Y-112355000D01*
X116890000Y-119610000D02*
X116890000Y-117940000D01*
X122500000Y-114190000D02*
X124335000Y-112355000D01*
X141070000Y-105455000D02*
X141070000Y-103429466D01*
X116890000Y-117940000D02*
X116810000Y-117860000D01*
X138770000Y-107755000D02*
X141070000Y-105455000D01*
%TO.N,/A_SDO5*%
X128920000Y-88955000D02*
X128920000Y-87405000D01*
X128920000Y-87405000D02*
X129770000Y-86555000D01*
X129770000Y-86555000D02*
X132800000Y-86555000D01*
X130070000Y-90105000D02*
X128920000Y-88955000D01*
X132800000Y-86555000D02*
X132824500Y-86579500D01*
X147370000Y-90229500D02*
X142020805Y-90229500D01*
X139170000Y-90105000D02*
X130070000Y-90105000D01*
X140370000Y-91305000D02*
X139170000Y-90105000D01*
X142020805Y-90229500D02*
X140945305Y-91305000D01*
X140945305Y-91305000D02*
X140370000Y-91305000D01*
%TO.N,/R20*%
X44170000Y-123615000D02*
X45900000Y-123615000D01*
X81550000Y-112495000D02*
X81550000Y-115005000D01*
X80530000Y-93275000D02*
X80530000Y-111475000D01*
X61045000Y-92155305D02*
X61774695Y-92885000D01*
X82522299Y-36857299D02*
X82522299Y-43430500D01*
X45900000Y-123615000D02*
X50620000Y-118895000D01*
X80230000Y-116325000D02*
X79160000Y-116325000D01*
X61045000Y-90800000D02*
X61045000Y-92155305D01*
X66160000Y-70815000D02*
X65870000Y-71105000D01*
X65870000Y-71105000D02*
X65870000Y-85975000D01*
X65970000Y-92885000D02*
X66360000Y-93275000D01*
X65870000Y-85975000D02*
X61045000Y-90800000D01*
X80530000Y-111475000D02*
X81550000Y-112495000D01*
X61774695Y-92885000D02*
X65970000Y-92885000D01*
X81550000Y-115005000D02*
X80230000Y-116325000D01*
X80770000Y-35105000D02*
X82522299Y-36857299D01*
%TO.N,/P21*%
X82710000Y-28605000D02*
X95720000Y-28605000D01*
X58990000Y-67555000D02*
X63030000Y-71595000D01*
X79310000Y-33630500D02*
X79310000Y-33350000D01*
X68100000Y-44985000D02*
X67630000Y-45455000D01*
X114370000Y-27455000D02*
X115320000Y-28405000D01*
X95720000Y-28605000D02*
X99770000Y-32655000D01*
X60470000Y-49585000D02*
X60470000Y-55075000D01*
X49230000Y-117645000D02*
X50780000Y-117645000D01*
X99770000Y-32655000D02*
X101570000Y-32655000D01*
X79380305Y-33350000D02*
X79805000Y-32925305D01*
X79805000Y-32925305D02*
X79805000Y-31510000D01*
X79805000Y-31510000D02*
X82710000Y-28605000D01*
X79310000Y-33350000D02*
X79380305Y-33350000D01*
X106770000Y-27455000D02*
X114370000Y-27455000D01*
X101570000Y-32655000D02*
X106770000Y-27455000D01*
X44330000Y-122545000D02*
X49230000Y-117645000D01*
X60470000Y-55075000D02*
X58990000Y-56555000D01*
X70650000Y-44985000D02*
X68100000Y-44985000D01*
X58990000Y-56555000D02*
X58990000Y-67555000D01*
%TO.N,/K20*%
X129230000Y-106330000D02*
X129230000Y-105195000D01*
X129230000Y-105195000D02*
X135520000Y-98905000D01*
X146070000Y-94726133D02*
X147410000Y-93386133D01*
X146070000Y-98055000D02*
X146070000Y-94726133D01*
X145220000Y-98905000D02*
X146070000Y-98055000D01*
X135520000Y-98905000D02*
X145220000Y-98905000D01*
%TO.N,/chn1_r*%
X113550632Y-71630000D02*
X112725632Y-72455000D01*
X103857299Y-38917701D02*
X105400000Y-40460402D01*
X86660000Y-29525000D02*
X96003604Y-29525000D01*
X110320000Y-33405000D02*
X110900000Y-32825000D01*
X127475861Y-75705000D02*
X123400861Y-71630000D01*
X110200000Y-30305000D02*
X108520000Y-30305000D01*
X123400861Y-71630000D02*
X113550632Y-71630000D01*
X105400000Y-40460402D02*
X105400000Y-65675000D01*
X110900000Y-32825000D02*
X110900000Y-31005000D01*
X151320000Y-83655000D02*
X149020000Y-81355000D01*
X152490000Y-87142800D02*
X151320000Y-85972800D01*
X108070000Y-29855000D02*
X108520000Y-30305000D01*
X151320000Y-85972800D02*
X151320000Y-83655000D01*
X110900000Y-31005000D02*
X110200000Y-30305000D01*
X129620000Y-79279695D02*
X129620000Y-77205000D01*
X96003604Y-29525000D02*
X99583604Y-33105000D01*
X129620000Y-77205000D02*
X128120000Y-75705000D01*
X131695305Y-81355000D02*
X129620000Y-79279695D01*
X128120000Y-75705000D02*
X127475861Y-75705000D01*
X110320000Y-35905000D02*
X110320000Y-33405000D01*
X101870000Y-33105000D02*
X105120000Y-29855000D01*
X105400000Y-65675000D02*
X104370000Y-66705000D01*
X83876616Y-32308384D02*
X86660000Y-29525000D01*
X112725632Y-72455000D02*
X109320000Y-72455000D01*
X149020000Y-81355000D02*
X131695305Y-81355000D01*
X83875992Y-32308384D02*
X83876616Y-32308384D01*
X99583604Y-33105000D02*
X101870000Y-33105000D01*
X105120000Y-29855000D02*
X108070000Y-29855000D01*
%TO.N,/chn2_r*%
X154675000Y-82460000D02*
X153119500Y-80904500D01*
X153513500Y-85626300D02*
X153513500Y-84246805D01*
X130101802Y-76886607D02*
X130101802Y-75823198D01*
X134119695Y-80904500D02*
X130101802Y-76886607D01*
X153119500Y-80904500D02*
X134119695Y-80904500D01*
X128546305Y-74267701D02*
X127007299Y-74267701D01*
X130101802Y-75823198D02*
X128546305Y-74267701D01*
X155030000Y-87142800D02*
X153513500Y-85626300D01*
X154675000Y-83085305D02*
X154675000Y-82460000D01*
X153513500Y-84246805D02*
X154675000Y-83085305D01*
%TO.N,/chn4_r*%
X153019695Y-90225500D02*
X157027300Y-90225500D01*
X141720000Y-89505000D02*
X152595000Y-89505000D01*
X157027300Y-90225500D02*
X160110000Y-87142800D01*
X152595000Y-89505000D02*
X152595000Y-89800805D01*
X152595000Y-89800805D02*
X153019695Y-90225500D01*
X140670000Y-90555000D02*
X141720000Y-89505000D01*
%TO.N,/chn6_r*%
X154310000Y-31279500D02*
X149535500Y-26505000D01*
X117050305Y-26620000D02*
X116449695Y-26620000D01*
X116334695Y-26505000D02*
X36840000Y-26505000D01*
X154310000Y-31945000D02*
X154310000Y-31279500D01*
X28950000Y-34395000D02*
X28950000Y-81045000D01*
X117165305Y-26505000D02*
X117050305Y-26620000D01*
X36840000Y-26505000D02*
X28950000Y-34395000D01*
X28950000Y-81045000D02*
X31380000Y-83475000D01*
X116449695Y-26620000D02*
X116334695Y-26505000D01*
X149535500Y-26505000D02*
X117165305Y-26505000D01*
%TO.N,/+1.8V*%
X179170000Y-113205000D02*
X178670000Y-113705000D01*
X186320000Y-112055000D02*
X186306500Y-112068500D01*
X186306500Y-112068500D02*
X180306500Y-112068500D01*
X165190000Y-112275000D02*
X165190000Y-104709466D01*
X165870000Y-112955000D02*
X165190000Y-112275000D01*
X180306500Y-112068500D02*
X179170000Y-113205000D01*
%TO.N,/SYS_CLK5*%
X169815367Y-94409633D02*
X168870000Y-95355000D01*
X171315367Y-92996029D02*
X171315367Y-94409633D01*
X179520000Y-83005000D02*
X179520000Y-84791396D01*
X171315367Y-94409633D02*
X169815367Y-94409633D01*
X180745500Y-81779500D02*
X179520000Y-83005000D01*
X179520000Y-84791396D02*
X171315367Y-92996029D01*
X168870000Y-95355000D02*
X168870000Y-97455000D01*
X181020000Y-81779500D02*
X180745500Y-81779500D01*
%TO.N,/USB_SDA*%
X174920000Y-73305000D02*
X178582299Y-76967299D01*
X190945000Y-84030000D02*
X190945000Y-116430000D01*
X162520000Y-120179500D02*
X160295000Y-117954500D01*
X177795000Y-72455500D02*
X176020000Y-72455500D01*
X176020000Y-72455500D02*
X175769500Y-72455500D01*
X178520000Y-73180500D02*
X177795000Y-72455500D01*
X178582299Y-76967299D02*
X183882299Y-76967299D01*
X190945000Y-116430000D02*
X191720000Y-117205000D01*
X160295000Y-117954500D02*
X156220000Y-117954500D01*
X183882299Y-76967299D02*
X185070000Y-78155000D01*
X175769500Y-72455500D02*
X174920000Y-73305000D01*
X185070000Y-78155000D02*
X190945000Y-84030000D01*
%TO.N,/T19*%
X190032800Y-58115000D02*
X190032800Y-58692200D01*
X174270000Y-59355000D02*
X166770000Y-51855000D01*
X166770000Y-46455000D02*
X170870000Y-42355000D01*
X164520000Y-48405000D02*
X166670000Y-48405000D01*
X166770000Y-47605000D02*
X166770000Y-46455000D01*
X190032800Y-58692200D02*
X189370000Y-59355000D01*
X166770000Y-48305000D02*
X166770000Y-47605000D01*
X189370000Y-59355000D02*
X174270000Y-59355000D01*
X166770000Y-51855000D02*
X166770000Y-47605000D01*
X163870000Y-47755000D02*
X164520000Y-48405000D01*
X166670000Y-48405000D02*
X166770000Y-48305000D01*
%TO.N,/W22*%
X175070000Y-42355000D02*
X173270000Y-40555000D01*
X189009300Y-56598500D02*
X190032800Y-55575000D01*
X182426500Y-56598500D02*
X189009300Y-56598500D01*
X175620000Y-42355000D02*
X173720000Y-42355000D01*
X175620000Y-42355000D02*
X175070000Y-42355000D01*
X173720000Y-42355000D02*
X169845000Y-46230000D01*
X169845000Y-46230000D02*
X169845000Y-48205305D01*
X169370000Y-48630000D02*
X169370000Y-52255000D01*
X181770000Y-57255000D02*
X182426500Y-56598500D01*
X173270000Y-40555000D02*
X166470000Y-40555000D01*
X169845000Y-48205305D02*
X169420305Y-48630000D01*
X169420305Y-48630000D02*
X169370000Y-48630000D01*
X169370000Y-52255000D02*
X174370000Y-57255000D01*
X174370000Y-57255000D02*
X181770000Y-57255000D01*
X166470000Y-40555000D02*
X164070000Y-42955000D01*
%TO.N,/U19*%
X154127522Y-40330000D02*
X159431396Y-40330000D01*
X153386261Y-39588739D02*
X154127522Y-40330000D01*
X159431396Y-40330000D02*
X165920000Y-46818604D01*
X165920000Y-47305000D02*
X165920000Y-47455000D01*
X165920000Y-46818604D02*
X165920000Y-47305000D01*
%TO.N,/P17*%
X177894500Y-48855000D02*
X180270000Y-48855000D01*
X183070000Y-46055000D02*
X185270000Y-46055000D01*
X180270000Y-48855000D02*
X183070000Y-46055000D01*
X176794500Y-49955000D02*
X177894500Y-48855000D01*
%TO.N,/V20*%
X195470000Y-36441396D02*
X195470000Y-43255000D01*
X186233604Y-27205000D02*
X195470000Y-36441396D01*
X166156396Y-27205000D02*
X186233604Y-27205000D01*
X164206396Y-29155000D02*
X166156396Y-27205000D01*
X193310000Y-45415000D02*
X190032800Y-45415000D01*
X162431091Y-29155000D02*
X164206396Y-29155000D01*
X154070000Y-36555000D02*
X152920000Y-35405000D01*
X157983604Y-35355000D02*
X162451802Y-30886802D01*
X162451802Y-30886802D02*
X162100545Y-30535545D01*
X152970000Y-35355000D02*
X157983604Y-35355000D01*
X152920000Y-35405000D02*
X152970000Y-35355000D01*
X195470000Y-43255000D02*
X193310000Y-45415000D01*
X154420000Y-36555000D02*
X154070000Y-36555000D01*
X162100545Y-29485546D02*
X162431091Y-29155000D01*
X162100545Y-30535545D02*
X162100545Y-29485546D01*
%TO.N,/N16*%
X188516300Y-41358500D02*
X190032800Y-42875000D01*
X174470000Y-39805000D02*
X177020000Y-42355000D01*
X154420000Y-38355000D02*
X155945000Y-39880000D01*
X174976899Y-44098198D02*
X172220097Y-46855000D01*
X172220097Y-46855000D02*
X172020000Y-46855000D01*
X177020000Y-42444006D02*
X176639503Y-42824503D01*
X155945000Y-39880000D02*
X174395000Y-39880000D01*
X176639503Y-42824503D02*
X176636893Y-42824503D01*
X175363198Y-44098198D02*
X174976899Y-44098198D01*
X176870000Y-48755000D02*
X176870000Y-46655000D01*
X182166500Y-41358500D02*
X188516300Y-41358500D01*
X176870000Y-46655000D02*
X182166500Y-41358500D01*
X176636893Y-42824503D02*
X175363198Y-44098198D01*
X174395000Y-39880000D02*
X174470000Y-39805000D01*
X177020000Y-42355000D02*
X177020000Y-42444006D01*
X172020000Y-46855000D02*
X171070000Y-46855000D01*
%TO.N,/M17*%
X190270000Y-32955000D02*
X188170000Y-32955000D01*
X188170000Y-32955000D02*
X175170000Y-45955000D01*
X190032800Y-37795000D02*
X191570000Y-36257800D01*
X191570000Y-36257800D02*
X191570000Y-34255000D01*
X191570000Y-34255000D02*
X190270000Y-32955000D01*
X175170000Y-45955000D02*
X175170000Y-47155000D01*
%TO.N,/M18*%
X176120000Y-73180500D02*
X177469500Y-74530000D01*
X186317800Y-74530000D02*
X187492800Y-73355000D01*
X177469500Y-74530000D02*
X186317800Y-74530000D01*
%TO.N,/R19*%
X165770000Y-57455000D02*
X165770000Y-49555000D01*
X171570000Y-63255000D02*
X165770000Y-57455000D01*
X171630000Y-63195000D02*
X171570000Y-63255000D01*
X187492800Y-63195000D02*
X171630000Y-63195000D01*
%TO.N,/D9*%
X187492800Y-58115000D02*
X174130000Y-58115000D01*
X174130000Y-58115000D02*
X168470000Y-52455000D01*
X168470000Y-52455000D02*
X168470000Y-50355000D01*
%TO.N,/+VCCO0*%
X161420000Y-112179500D02*
X161420000Y-106019466D01*
X177290000Y-102596701D02*
X177290000Y-105047792D01*
X182670248Y-83755000D02*
X184136300Y-85221052D01*
X184136300Y-86188700D02*
X183170000Y-87155000D01*
X178445000Y-101441701D02*
X177290000Y-102596701D01*
X178420000Y-106177792D02*
X178420000Y-110405000D01*
X184136300Y-85221052D02*
X184136300Y-86188700D01*
X178420000Y-110405000D02*
X178870000Y-110855000D01*
X175145000Y-90230000D02*
X175145000Y-96680000D01*
X161420000Y-106019466D02*
X160110000Y-104709466D01*
X177290000Y-105047792D02*
X178420000Y-106177792D01*
X183170000Y-87155000D02*
X178220000Y-87155000D01*
X178445000Y-99980000D02*
X178445000Y-101441701D01*
X178220000Y-87155000D02*
X175145000Y-90230000D01*
X175145000Y-96680000D02*
X178445000Y-99980000D01*
X180920000Y-83755000D02*
X182670248Y-83755000D01*
%TO.N,/D11*%
X183470000Y-54355000D02*
X181770000Y-56055000D01*
X176270000Y-56055000D02*
X174970000Y-54755000D01*
X181770000Y-56055000D02*
X176270000Y-56055000D01*
X174970000Y-54755000D02*
X174970000Y-54355000D01*
%TO.N,/K18*%
X176070000Y-54555000D02*
X176670000Y-55155000D01*
X187492800Y-35255000D02*
X176070000Y-46677800D01*
X176070000Y-46677800D02*
X176070000Y-54555000D01*
%TO.N,/CV_S2*%
X30270000Y-80555000D02*
X32570000Y-82855000D01*
X30270000Y-33755000D02*
X30270000Y-80555000D01*
X53170000Y-117055000D02*
X56470000Y-120355000D01*
X65970000Y-29855000D02*
X64760000Y-28645000D01*
X160145000Y-129055000D02*
X167450000Y-121750000D01*
X32570000Y-82855000D02*
X45370000Y-82855000D01*
X65970000Y-31429500D02*
X65970000Y-29855000D01*
X64760000Y-28645000D02*
X35380000Y-28645000D01*
X35380000Y-28645000D02*
X30270000Y-33755000D01*
X53170000Y-90655000D02*
X53170000Y-117055000D01*
X45370000Y-82855000D02*
X53170000Y-90655000D01*
X140170000Y-129055000D02*
X160145000Y-129055000D01*
%TO.N,/EIS_S3*%
X74370000Y-118155000D02*
X72970000Y-119555000D01*
X73670000Y-121655000D02*
X78770000Y-121655000D01*
X72470000Y-119555000D02*
X71170000Y-120855000D01*
X77870000Y-64355000D02*
X77870000Y-69679695D01*
X73370000Y-93755000D02*
X75370000Y-95755000D01*
X122678267Y-118966336D02*
X122681931Y-118970000D01*
X71170000Y-120855000D02*
X71170000Y-121555000D01*
X72670000Y-119555000D02*
X72470000Y-119555000D01*
X128710763Y-120164500D02*
X137364500Y-120164500D01*
X70420000Y-56905000D02*
X77870000Y-64355000D01*
X73370000Y-74179695D02*
X73370000Y-93755000D01*
X137364500Y-120164500D02*
X138950000Y-121750000D01*
X71170000Y-121555000D02*
X71770000Y-122155000D01*
X78770000Y-121655000D02*
X80170000Y-120255000D01*
X122681931Y-118970000D02*
X127516263Y-118970000D01*
X71970000Y-122355000D02*
X72470000Y-122355000D01*
X71770000Y-122155000D02*
X71970000Y-122355000D01*
X70420000Y-56855000D02*
X70420000Y-56905000D01*
X72970000Y-119555000D02*
X72670000Y-119555000D01*
X72470000Y-122355000D02*
X72970000Y-122355000D01*
X75370000Y-95755000D02*
X75370000Y-117155000D01*
X75370000Y-117155000D02*
X74370000Y-118155000D01*
X72970000Y-122355000D02*
X73670000Y-121655000D01*
X127516263Y-118970000D02*
X128710763Y-120164500D01*
X77870000Y-69679695D02*
X73370000Y-74179695D01*
%TO.N,Net-(C39-Pad1)*%
X70420000Y-53979695D02*
X70420000Y-53305000D01*
X75595305Y-59155000D02*
X70420000Y-53979695D01*
X81620000Y-59155000D02*
X75595305Y-59155000D01*
%TO.N,Net-(C39-Pad2)*%
X78570000Y-56205000D02*
X72720000Y-50355000D01*
X81770000Y-56205000D02*
X78570000Y-56205000D01*
%TO.N,Net-(C40-Pad1)*%
X60170000Y-57105000D02*
X67220000Y-57105000D01*
%TO.N,/D21*%
X148369598Y-63030000D02*
X146555415Y-64844183D01*
X155840000Y-60248603D02*
X155383651Y-60704952D01*
X180980000Y-79989598D02*
X180170293Y-79989598D01*
X151748604Y-63030000D02*
X148369598Y-63030000D01*
X185457701Y-84467299D02*
X180980000Y-79989598D01*
X159450000Y-56605000D02*
X155840000Y-60215000D01*
X154994742Y-60704952D02*
X154719742Y-60979952D01*
X158430994Y-53255000D02*
X157790000Y-53255000D01*
X173330000Y-73149305D02*
X173330000Y-71535000D01*
X158970497Y-53794503D02*
X158430994Y-53255000D01*
X153798652Y-60979952D02*
X151748604Y-63030000D01*
X154719742Y-60979952D02*
X153798652Y-60979952D01*
X155383651Y-60704952D02*
X154994742Y-60704952D01*
X157790000Y-53255000D02*
X157790000Y-54799695D01*
X155840000Y-60215000D02*
X155840000Y-60248603D01*
X157790000Y-54799695D02*
X159450000Y-56459695D01*
X159450000Y-56459695D02*
X159450000Y-56605000D01*
X157790000Y-42815000D02*
X157790000Y-53255000D01*
X180170293Y-79989598D02*
X173330000Y-73149305D01*
%TO.N,/D22*%
X165095500Y-82169500D02*
X165000000Y-82169500D01*
X164345500Y-77885408D02*
X165470000Y-79009908D01*
X165470000Y-79009908D02*
X165470000Y-81795000D01*
X165470000Y-81795000D02*
X165095500Y-82169500D01*
%TO.N,/DAC1_NCS*%
X125729466Y-111150000D02*
X134710000Y-102169466D01*
X117445000Y-110895000D02*
X117720000Y-111170000D01*
X126480000Y-84141314D02*
X128180000Y-85841314D01*
X125765000Y-104635000D02*
X126230000Y-105100000D01*
X126480000Y-80070400D02*
X126480000Y-84141314D01*
X63370000Y-52155000D02*
X62070000Y-52155000D01*
X61555000Y-125186396D02*
X63173604Y-126805000D01*
X125765000Y-103395000D02*
X125765000Y-104635000D01*
X59570000Y-95710305D02*
X61555000Y-97695305D01*
X103286314Y-118915000D02*
X102475000Y-118103686D01*
X59570000Y-80655000D02*
X59570000Y-95710305D01*
X63770000Y-76455000D02*
X59570000Y-80655000D01*
X128170000Y-100218604D02*
X128170000Y-102110000D01*
X60920000Y-55261396D02*
X59440000Y-56741396D01*
X63770000Y-71309695D02*
X63770000Y-76455000D01*
X127110000Y-103170000D02*
X125990000Y-103170000D01*
X126230000Y-105100000D02*
X128100000Y-105100000D01*
X124842300Y-78432700D02*
X126480000Y-80070400D01*
X102475000Y-118103686D02*
X102475000Y-116956314D01*
X128180000Y-85841314D02*
X128180000Y-92641396D01*
X102475000Y-116956314D02*
X103286314Y-116145000D01*
X109683686Y-110895000D02*
X117445000Y-110895000D01*
X104433686Y-116145000D02*
X109683686Y-110895000D01*
X128170000Y-102110000D02*
X127110000Y-103170000D01*
X62070000Y-52155000D02*
X60920000Y-53305000D01*
X124386396Y-96435000D02*
X128170000Y-100218604D01*
X59440000Y-66979695D02*
X63770000Y-71309695D01*
X104335305Y-118915000D02*
X103286314Y-118915000D01*
X59440000Y-56741396D02*
X59440000Y-66979695D01*
X63173604Y-126805000D02*
X96445305Y-126805000D01*
X96445305Y-126805000D02*
X104335305Y-118915000D01*
X117720000Y-111170000D02*
X117740000Y-111150000D01*
X61555000Y-97695305D02*
X61555000Y-125186396D01*
X60920000Y-53305000D02*
X60920000Y-55261396D01*
X103286314Y-116145000D02*
X104433686Y-116145000D01*
X128180000Y-92641396D02*
X124386396Y-96435000D01*
X125990000Y-103170000D02*
X125765000Y-103395000D01*
X117740000Y-111150000D02*
X125729466Y-111150000D01*
%TO.N,/DAC1_SCK*%
X123770000Y-101055000D02*
X120970000Y-103855000D01*
X118580000Y-98580000D02*
X123320305Y-98580000D01*
X58970000Y-53555000D02*
X57170000Y-55355000D01*
X123770000Y-99029695D02*
X123770000Y-101055000D01*
X57170000Y-55355000D02*
X57170000Y-61055000D01*
X107470000Y-87470000D02*
X118580000Y-98580000D01*
X107470000Y-85205000D02*
X107470000Y-87470000D01*
X58970000Y-75855000D02*
X58970000Y-118955000D01*
X57170000Y-61055000D02*
X57170000Y-74055000D01*
X57170000Y-74055000D02*
X58970000Y-75855000D01*
X105770000Y-79355000D02*
X105770000Y-83505000D01*
X123320305Y-98580000D02*
X123770000Y-99029695D01*
X105770000Y-83505000D02*
X107470000Y-85205000D01*
%TO.N,/DAC1_SDI*%
X125510000Y-40560000D02*
X126255000Y-40560000D01*
X126255000Y-40560000D02*
X128570000Y-42875000D01*
X124940000Y-41130000D02*
X125510000Y-40560000D01*
X121919500Y-66610000D02*
X121500000Y-66190500D01*
X121500000Y-55710000D02*
X122940000Y-54270000D01*
X123455000Y-46738737D02*
X123455000Y-43875000D01*
X121500000Y-66190500D02*
X121500000Y-55710000D01*
X124940000Y-42390000D02*
X124940000Y-41130000D01*
X128570000Y-42875000D02*
X128570000Y-43580500D01*
X123455000Y-43875000D02*
X124940000Y-42390000D01*
X122940000Y-54270000D02*
X122940000Y-47253737D01*
X122940000Y-47253737D02*
X123455000Y-46738737D01*
%TO.N,/DAC1_LDAC*%
X177420000Y-84555000D02*
X178070000Y-84555000D01*
X162410000Y-77155000D02*
X170570805Y-77155000D01*
X173260000Y-80395000D02*
X177420000Y-84555000D01*
X160770000Y-77955000D02*
X161610000Y-77955000D01*
X170570805Y-77155000D02*
X173260000Y-79844195D01*
X161610000Y-77955000D02*
X162410000Y-77155000D01*
X173260000Y-79844195D02*
X173260000Y-80395000D01*
%TO.N,Net-(R55-Pad2)*%
X73820000Y-43755000D02*
X81340000Y-51275000D01*
X64384500Y-43755000D02*
X73820000Y-43755000D01*
X64370000Y-43740500D02*
X64384500Y-43755000D01*
X81340000Y-51275000D02*
X81430000Y-51275000D01*
%TO.N,/CV_S1*%
X119880000Y-109730000D02*
X119090000Y-109730000D01*
X121900000Y-54390000D02*
X121900000Y-42400000D01*
X121900000Y-42400000D02*
X123020000Y-41280000D01*
X119315000Y-99305000D02*
X123020000Y-99305000D01*
X118100000Y-66415500D02*
X118100000Y-58190000D01*
X117490000Y-108130000D02*
X117490000Y-101130000D01*
X118100000Y-58190000D02*
X121900000Y-54390000D01*
X117490000Y-101130000D02*
X119315000Y-99305000D01*
X119090000Y-109730000D02*
X117490000Y-108130000D01*
X118784500Y-67100000D02*
X118100000Y-66415500D01*
%TO.N,/Vref_r*%
X60720000Y-35605000D02*
X63120000Y-33205000D01*
X63120000Y-33205000D02*
X64070000Y-33205000D01*
%TO.N,/P22*%
X147592701Y-58662299D02*
X147592701Y-60738695D01*
X151579909Y-62562299D02*
X154377208Y-59765000D01*
X147795451Y-60941445D02*
X147795451Y-61580451D01*
X147760000Y-58495000D02*
X147592701Y-58662299D01*
X147795451Y-61580451D02*
X148777299Y-62562299D01*
X148777299Y-62562299D02*
X151579909Y-62562299D01*
X154377208Y-59765000D02*
X155080000Y-59765000D01*
X147592701Y-60738695D02*
X147795451Y-60941445D01*
%TO.N,/D20*%
X165820500Y-77879500D02*
X166213500Y-78272500D01*
X166213500Y-91098500D02*
X166270000Y-91155000D01*
X166213500Y-78272500D02*
X166213500Y-91098500D01*
%TO.N,/Ref_generator/W_in*%
X39070000Y-40755000D02*
X38070000Y-41755000D01*
X45670000Y-36005000D02*
X50270000Y-31405000D01*
X38070000Y-41755000D02*
X35870000Y-41755000D01*
X43820000Y-36005000D02*
X43870000Y-36005000D01*
X39070000Y-40755000D02*
X43820000Y-36005000D01*
X50270000Y-31405000D02*
X52120000Y-31405000D01*
X43870000Y-36005000D02*
X45670000Y-36005000D01*
%TO.N,/Ref_generator/B_in*%
X39370000Y-41905000D02*
X40406396Y-41905000D01*
X99080000Y-30475000D02*
X96560000Y-27955000D01*
X82220000Y-27955000D02*
X78020000Y-32155000D01*
X50156396Y-32155000D02*
X53070000Y-32155000D01*
X78020000Y-32155000D02*
X53070000Y-32155000D01*
X96560000Y-27955000D02*
X82220000Y-27955000D01*
X40406396Y-41905000D02*
X48313198Y-33998198D01*
X48313198Y-33998198D02*
X50156396Y-32155000D01*
%TO.N,/WE3*%
X80060000Y-71095000D02*
X75450000Y-75705000D01*
X80060000Y-68645000D02*
X80060000Y-71095000D01*
%TO.N,/WE5*%
X175720000Y-107605000D02*
X176390000Y-106935000D01*
X122910000Y-115260000D02*
X123039695Y-115260000D01*
X123039695Y-115260000D02*
X124622695Y-113677000D01*
X76370000Y-101005000D02*
X76370000Y-97855000D01*
X175570000Y-100505000D02*
X168974155Y-100505000D01*
X168974155Y-100505000D02*
X168384101Y-99914946D01*
X174970000Y-109705000D02*
X173920000Y-108655000D01*
X174970000Y-107605000D02*
X175720000Y-107605000D01*
X124622695Y-113677000D02*
X131592000Y-113677000D01*
X174970000Y-113718604D02*
X174970000Y-109705000D01*
X79170000Y-103805000D02*
X76370000Y-101005000D01*
X173533604Y-115155000D02*
X174970000Y-113718604D01*
X176390000Y-101325000D02*
X175570000Y-100505000D01*
X165170000Y-115155000D02*
X173533604Y-115155000D01*
X131592000Y-113677000D02*
X134070000Y-116155000D01*
X173920000Y-108655000D02*
X174970000Y-107605000D01*
X176390000Y-106935000D02*
X176390000Y-101325000D01*
X134070000Y-116155000D02*
X164170000Y-116155000D01*
X164170000Y-116155000D02*
X165170000Y-115155000D01*
%TO.N,/WE7*%
X129460000Y-116920000D02*
X128200000Y-115660000D01*
X133298604Y-116920000D02*
X129460000Y-116920000D01*
X168479000Y-128189305D02*
X168479000Y-121323774D01*
X164210226Y-117055000D02*
X133433604Y-117055000D01*
X171034695Y-130745000D02*
X168479000Y-128189305D01*
X80650000Y-113615000D02*
X79700000Y-113615000D01*
X128200000Y-115660000D02*
X125430000Y-115660000D01*
X123840000Y-117250000D02*
X122449695Y-117250000D01*
X121780000Y-119435000D02*
X123020000Y-120675000D01*
X181750000Y-130745000D02*
X171034695Y-130745000D01*
X79700000Y-113615000D02*
X72260000Y-121055000D01*
X122449695Y-117250000D02*
X121780000Y-117919695D01*
X125430000Y-115660000D02*
X123840000Y-117250000D01*
X168479000Y-121323774D02*
X164210226Y-117055000D01*
X121780000Y-117919695D02*
X121780000Y-119435000D01*
X133433604Y-117055000D02*
X133298604Y-116920000D01*
%TO.N,/chn3_r*%
X81665000Y-62160000D02*
X81665000Y-75120000D01*
X81665000Y-75120000D02*
X80460000Y-76325000D01*
X80040000Y-60535000D02*
X81665000Y-62160000D01*
%TO.N,/chn7_r*%
X41760000Y-116330000D02*
X50342500Y-107747500D01*
X116590000Y-26055000D02*
X36653604Y-26055000D01*
X149190000Y-32405000D02*
X143740000Y-26955000D01*
X116750000Y-25895000D02*
X116590000Y-26055000D01*
X143740000Y-26955000D02*
X121850000Y-26955000D01*
X28500000Y-83025000D02*
X30200000Y-84725000D01*
X28500000Y-34208604D02*
X28500000Y-83025000D01*
X41760000Y-120540000D02*
X41760000Y-116330000D01*
X121850000Y-26955000D02*
X120850000Y-27955000D01*
X36653604Y-26055000D02*
X28500000Y-34208604D01*
%TD*%
M02*
