%TF.GenerationSoftware,KiCad,Pcbnew,(6.0.8-1)-1*%
%TF.CreationDate,2022-11-17T19:15:35-05:00*%
%TF.ProjectId,HermEIS,4865726d-4549-4532-9e6b-696361645f70,rev?*%
%TF.SameCoordinates,Original*%
%TF.FileFunction,Drillmap*%
%TF.FilePolarity,Positive*%
%FSLAX45Y45*%
G04 Gerber Fmt 4.5, Leading zero omitted, Abs format (unit mm)*
G04 Created by KiCad (PCBNEW (6.0.8-1)-1) date 2022-11-17 19:15:35*
%MOMM*%
%LPD*%
G01*
G04 APERTURE LIST*
%ADD10C,0.200000*%
%ADD11C,0.040000*%
%ADD12C,0.080000*%
%ADD13C,0.088900*%
%ADD14C,0.090000*%
%ADD15C,0.101600*%
%ADD16C,0.106680*%
%ADD17C,0.120000*%
%ADD18C,0.140000*%
%ADD19C,0.160000*%
%ADD20C,0.360000*%
G04 APERTURE END LIST*
D10*
X2727000Y-2395500D02*
X19727000Y-2395500D01*
X19727000Y-2395500D02*
X19727000Y-13395500D01*
X19727000Y-13395500D02*
X2727000Y-13395500D01*
X2727000Y-13395500D02*
X2727000Y-2395500D01*
D11*
X3000000Y-8452500D02*
X3040000Y-8492500D01*
X3040000Y-8452500D02*
X3000000Y-8492500D01*
X3118000Y-8327500D02*
X3158000Y-8367500D01*
X3158000Y-8327500D02*
X3118000Y-8367500D01*
X3347000Y-3825500D02*
X3387000Y-3865500D01*
X3387000Y-3825500D02*
X3347000Y-3865500D01*
X3552000Y-4770500D02*
X3592000Y-4810500D01*
X3592000Y-4770500D02*
X3552000Y-4810500D01*
X3567000Y-4155500D02*
X3607000Y-4195500D01*
X3607000Y-4155500D02*
X3567000Y-4195500D01*
X3777000Y-3375500D02*
X3817000Y-3415500D01*
X3817000Y-3375500D02*
X3777000Y-3415500D01*
X3817000Y-3865500D02*
X3857000Y-3905500D01*
X3857000Y-3865500D02*
X3817000Y-3905500D01*
X3847000Y-3667950D02*
X3887000Y-3707950D01*
X3887000Y-3667950D02*
X3847000Y-3707950D01*
X3887000Y-4055500D02*
X3927000Y-4095500D01*
X3927000Y-4055500D02*
X3887000Y-4095500D01*
X3917000Y-4170500D02*
X3957000Y-4210500D01*
X3957000Y-4170500D02*
X3917000Y-4210500D01*
X3962000Y-3350500D02*
X4002000Y-3390500D01*
X4002000Y-3350500D02*
X3962000Y-3390500D01*
X4061950Y-4300500D02*
X4101950Y-4340500D01*
X4101950Y-4300500D02*
X4061950Y-4340500D01*
X4156000Y-12034000D02*
X4196000Y-12074000D01*
X4196000Y-12034000D02*
X4156000Y-12074000D01*
X4242000Y-4295500D02*
X4282000Y-4335500D01*
X4282000Y-4295500D02*
X4242000Y-4335500D01*
X4280000Y-6626500D02*
X4320000Y-6666500D01*
X4320000Y-6626500D02*
X4280000Y-6666500D01*
X4286000Y-6382500D02*
X4326000Y-6422500D01*
X4326000Y-6382500D02*
X4286000Y-6422500D01*
X4287000Y-6110500D02*
X4327000Y-6150500D01*
X4327000Y-6110500D02*
X4287000Y-6150500D01*
X4297000Y-5875500D02*
X4337000Y-5915500D01*
X4337000Y-5875500D02*
X4297000Y-5915500D01*
X4327000Y-3145500D02*
X4367000Y-3185500D01*
X4367000Y-3145500D02*
X4327000Y-3185500D01*
X4327000Y-4140500D02*
X4367000Y-4180500D01*
X4367000Y-4140500D02*
X4327000Y-4180500D01*
X4331000Y-2513050D02*
X4371000Y-2553050D01*
X4371000Y-2513050D02*
X4331000Y-2553050D01*
X4367000Y-3580500D02*
X4407000Y-3620500D01*
X4407000Y-3580500D02*
X4367000Y-3620500D01*
X4397000Y-12341500D02*
X4437000Y-12381500D01*
X4437000Y-12341500D02*
X4397000Y-12381500D01*
X4413000Y-12234500D02*
X4453000Y-12274500D01*
X4453000Y-12234500D02*
X4413000Y-12274500D01*
X4418230Y-12984270D02*
X4458230Y-13024270D01*
X4458230Y-12984270D02*
X4418230Y-13024270D01*
X4517000Y-3505500D02*
X4557000Y-3545500D01*
X4557000Y-3505500D02*
X4517000Y-3545500D01*
X4667000Y-5105500D02*
X4707000Y-5145500D01*
X4707000Y-5105500D02*
X4667000Y-5145500D01*
X4672000Y-4842950D02*
X4712000Y-4882950D01*
X4712000Y-4842950D02*
X4672000Y-4882950D01*
X4737000Y-3940500D02*
X4777000Y-3980500D01*
X4777000Y-3940500D02*
X4737000Y-3980500D01*
X4737270Y-8588230D02*
X4777270Y-8628230D01*
X4777270Y-8588230D02*
X4737270Y-8628230D01*
X4742000Y-4150500D02*
X4782000Y-4190500D01*
X4782000Y-4150500D02*
X4742000Y-4190500D01*
X4762000Y-3235500D02*
X4802000Y-3275500D01*
X4802000Y-3235500D02*
X4762000Y-3275500D01*
X4777000Y-4295500D02*
X4817000Y-4335500D01*
X4817000Y-4295500D02*
X4777000Y-4335500D01*
X4807000Y-3724500D02*
X4847000Y-3764500D01*
X4847000Y-3724500D02*
X4807000Y-3764500D01*
X4817000Y-9935500D02*
X4857000Y-9975500D01*
X4857000Y-9935500D02*
X4817000Y-9975500D01*
X4839000Y-8729950D02*
X4879000Y-8769950D01*
X4879000Y-8729950D02*
X4839000Y-8769950D01*
X4893000Y-2949500D02*
X4933000Y-2989500D01*
X4933000Y-2949500D02*
X4893000Y-2989500D01*
X4917000Y-9685500D02*
X4957000Y-9725500D01*
X4957000Y-9685500D02*
X4917000Y-9725500D01*
X4927000Y-10445500D02*
X4967000Y-10485500D01*
X4967000Y-10445500D02*
X4927000Y-10485500D01*
X4930149Y-2702950D02*
X4970149Y-2742950D01*
X4970149Y-2702950D02*
X4930149Y-2742950D01*
X4932000Y-3405500D02*
X4972000Y-3445500D01*
X4972000Y-3405500D02*
X4932000Y-3445500D01*
X5014250Y-10754750D02*
X5054250Y-10794750D01*
X5054250Y-10754750D02*
X5014250Y-10794750D01*
X5042000Y-11869500D02*
X5082000Y-11909500D01*
X5082000Y-11869500D02*
X5042000Y-11909500D01*
X5058000Y-11744500D02*
X5098000Y-11784500D01*
X5098000Y-11744500D02*
X5058000Y-11784500D01*
X5077000Y-9425500D02*
X5117000Y-9465500D01*
X5117000Y-9425500D02*
X5077000Y-9465500D01*
X5082000Y-3393050D02*
X5122000Y-3433050D01*
X5122000Y-3393050D02*
X5082000Y-3433050D01*
X5097000Y-7045500D02*
X5137000Y-7085500D01*
X5137000Y-7045500D02*
X5097000Y-7085500D01*
X5157000Y-3765500D02*
X5197000Y-3805500D01*
X5197000Y-3765500D02*
X5157000Y-3805500D01*
X5167000Y-9175500D02*
X5207000Y-9215500D01*
X5207000Y-9175500D02*
X5167000Y-9215500D01*
X5192000Y-3120500D02*
X5232000Y-3160500D01*
X5232000Y-3120500D02*
X5192000Y-3160500D01*
X5277000Y-4175500D02*
X5317000Y-4215500D01*
X5317000Y-4175500D02*
X5277000Y-4215500D01*
X5286000Y-8264500D02*
X5326000Y-8304500D01*
X5326000Y-8264500D02*
X5286000Y-8304500D01*
X5287000Y-3195500D02*
X5327000Y-3235500D01*
X5327000Y-3195500D02*
X5287000Y-3235500D01*
X5295000Y-8140500D02*
X5335000Y-8180500D01*
X5335000Y-8140500D02*
X5295000Y-8180500D01*
X5300000Y-8036500D02*
X5340000Y-8076500D01*
X5340000Y-8036500D02*
X5300000Y-8076500D01*
X5338000Y-12286500D02*
X5378000Y-12326500D01*
X5378000Y-12286500D02*
X5338000Y-12326500D01*
X5477000Y-12675500D02*
X5517000Y-12715500D01*
X5517000Y-12675500D02*
X5477000Y-12715500D01*
X5513000Y-12489050D02*
X5553000Y-12529050D01*
X5553000Y-12489050D02*
X5513000Y-12529050D01*
X5560000Y-2705500D02*
X5600000Y-2745500D01*
X5600000Y-2705500D02*
X5560000Y-2745500D01*
X5627000Y-12015500D02*
X5667000Y-12055500D01*
X5667000Y-12015500D02*
X5627000Y-12055500D01*
X5659000Y-3963500D02*
X5699000Y-4003500D01*
X5699000Y-3963500D02*
X5659000Y-4003500D01*
X5717000Y-11800500D02*
X5757000Y-11840500D01*
X5757000Y-11800500D02*
X5717000Y-11840500D01*
X5741000Y-12458500D02*
X5781000Y-12498500D01*
X5781000Y-12458500D02*
X5741000Y-12498500D01*
X5758000Y-8686500D02*
X5798000Y-8726500D01*
X5798000Y-8686500D02*
X5758000Y-8726500D01*
X5775770Y-8806730D02*
X5815770Y-8846730D01*
X5815770Y-8806730D02*
X5775770Y-8846730D01*
X5789000Y-9107500D02*
X5829000Y-9147500D01*
X5829000Y-9107500D02*
X5789000Y-9147500D01*
X5792000Y-5775500D02*
X5832000Y-5815500D01*
X5832000Y-5775500D02*
X5792000Y-5815500D01*
X5804000Y-8503500D02*
X5844000Y-8543500D01*
X5844000Y-8503500D02*
X5804000Y-8543500D01*
X5877000Y-5335500D02*
X5917000Y-5375500D01*
X5917000Y-5335500D02*
X5877000Y-5375500D01*
X5877000Y-11875500D02*
X5917000Y-11915500D01*
X5917000Y-11875500D02*
X5877000Y-11915500D01*
X5887000Y-5085500D02*
X5927000Y-5125500D01*
X5927000Y-5085500D02*
X5887000Y-5125500D01*
X5897000Y-3545500D02*
X5937000Y-3585500D01*
X5937000Y-3545500D02*
X5897000Y-3585500D01*
X5967000Y-7135500D02*
X6007000Y-7175500D01*
X6007000Y-7135500D02*
X5967000Y-7175500D01*
X5977000Y-10982500D02*
X6017000Y-11022500D01*
X6017000Y-10982500D02*
X5977000Y-11022500D01*
X5992000Y-4570500D02*
X6032000Y-4610500D01*
X6032000Y-4570500D02*
X5992000Y-4610500D01*
X5997000Y-5690500D02*
X6037000Y-5730500D01*
X6037000Y-5690500D02*
X5997000Y-5730500D01*
X6017000Y-4765500D02*
X6057000Y-4805500D01*
X6057000Y-4765500D02*
X6017000Y-4805500D01*
X6027000Y-4938500D02*
X6067000Y-4978500D01*
X6067000Y-4938500D02*
X6027000Y-4978500D01*
X6052000Y-3540500D02*
X6092000Y-3580500D01*
X6092000Y-3540500D02*
X6052000Y-3580500D01*
X6063050Y-11690500D02*
X6103050Y-11730500D01*
X6103050Y-11690500D02*
X6063050Y-11730500D01*
X6130000Y-7133500D02*
X6170000Y-7173500D01*
X6170000Y-7133500D02*
X6130000Y-7173500D01*
X6141000Y-8113200D02*
X6181000Y-8153200D01*
X6181000Y-8113200D02*
X6141000Y-8153200D01*
X6157000Y-9165500D02*
X6197000Y-9205500D01*
X6197000Y-9165500D02*
X6157000Y-9205500D01*
X6189000Y-8805500D02*
X6229000Y-8845500D01*
X6229000Y-8805500D02*
X6189000Y-8845500D01*
X6197000Y-8947500D02*
X6237000Y-8987500D01*
X6237000Y-8947500D02*
X6197000Y-8987500D01*
X6208000Y-11554500D02*
X6248000Y-11594500D01*
X6248000Y-11554500D02*
X6208000Y-11594500D01*
X6220000Y-11157500D02*
X6260000Y-11197500D01*
X6260000Y-11157500D02*
X6220000Y-11197500D01*
X6239237Y-8477739D02*
X6279237Y-8517739D01*
X6279237Y-8477739D02*
X6239237Y-8517739D01*
X6239550Y-8136500D02*
X6279550Y-8176500D01*
X6279550Y-8136500D02*
X6239550Y-8176500D01*
X6239550Y-11697500D02*
X6279550Y-11737500D01*
X6279550Y-11697500D02*
X6239550Y-11737500D01*
X6270000Y-4471500D02*
X6310000Y-4511500D01*
X6310000Y-4471500D02*
X6270000Y-4511500D01*
X6283000Y-7139500D02*
X6323000Y-7179500D01*
X6323000Y-7139500D02*
X6283000Y-7179500D01*
X6293000Y-9804500D02*
X6333000Y-9844500D01*
X6333000Y-9804500D02*
X6293000Y-9844500D01*
X6305000Y-2748500D02*
X6345000Y-2788500D01*
X6345000Y-2748500D02*
X6305000Y-2788500D01*
X6309000Y-3843500D02*
X6349000Y-3883500D01*
X6349000Y-3843500D02*
X6309000Y-3883500D01*
X6312000Y-9341500D02*
X6352000Y-9381500D01*
X6352000Y-9341500D02*
X6312000Y-9381500D01*
X6317000Y-5195500D02*
X6357000Y-5235500D01*
X6357000Y-5195500D02*
X6317000Y-5235500D01*
X6328000Y-6073500D02*
X6368000Y-6113500D01*
X6368000Y-6073500D02*
X6328000Y-6113500D01*
X6342000Y-4073500D02*
X6382000Y-4113500D01*
X6382000Y-4073500D02*
X6342000Y-4113500D01*
X6352000Y-3545500D02*
X6392000Y-3585500D01*
X6392000Y-3545500D02*
X6352000Y-3585500D01*
X6363000Y-6363500D02*
X6403000Y-6403500D01*
X6403000Y-6363500D02*
X6363000Y-6403500D01*
X6384450Y-12010500D02*
X6424450Y-12050500D01*
X6424450Y-12010500D02*
X6384450Y-12050500D01*
X6387000Y-3300500D02*
X6427000Y-3340500D01*
X6427000Y-3300500D02*
X6387000Y-3340500D01*
X6387730Y-8242230D02*
X6427730Y-8282230D01*
X6427730Y-8242230D02*
X6387730Y-8282230D01*
X6417000Y-4354050D02*
X6457000Y-4394050D01*
X6457000Y-4354050D02*
X6417000Y-4394050D01*
X6419000Y-5021500D02*
X6459000Y-5061500D01*
X6459000Y-5021500D02*
X6419000Y-5061500D01*
X6427000Y-5455500D02*
X6467000Y-5495500D01*
X6467000Y-5455500D02*
X6427000Y-5495500D01*
X6435000Y-8407500D02*
X6475000Y-8447500D01*
X6475000Y-8407500D02*
X6435000Y-8447500D01*
X6466000Y-8982500D02*
X6506000Y-9022500D01*
X6506000Y-8982500D02*
X6466000Y-9022500D01*
X6482000Y-8045500D02*
X6522000Y-8085500D01*
X6522000Y-8045500D02*
X6482000Y-8085500D01*
X6497000Y-12577950D02*
X6537000Y-12617950D01*
X6537000Y-12577950D02*
X6497000Y-12617950D01*
X6577000Y-3122950D02*
X6617000Y-3162950D01*
X6617000Y-3122950D02*
X6577000Y-3162950D01*
X6596000Y-7061500D02*
X6636000Y-7101500D01*
X6636000Y-7061500D02*
X6596000Y-7101500D01*
X6602000Y-6835500D02*
X6642000Y-6875500D01*
X6642000Y-6835500D02*
X6602000Y-6875500D01*
X6616000Y-9307500D02*
X6656000Y-9347500D01*
X6656000Y-9307500D02*
X6616000Y-9347500D01*
X6639000Y-11340500D02*
X6679000Y-11380500D01*
X6679000Y-11340500D02*
X6639000Y-11380500D01*
X6663000Y-7337500D02*
X6703000Y-7377500D01*
X6703000Y-7337500D02*
X6663000Y-7377500D01*
X6667000Y-12577950D02*
X6707000Y-12617950D01*
X6707000Y-12577950D02*
X6667000Y-12617950D01*
X6668455Y-9150495D02*
X6708455Y-9190495D01*
X6708455Y-9150495D02*
X6668455Y-9190495D01*
X6692000Y-11815500D02*
X6732000Y-11855500D01*
X6732000Y-11815500D02*
X6692000Y-11855500D01*
X6702000Y-5690500D02*
X6742000Y-5730500D01*
X6742000Y-5690500D02*
X6702000Y-5730500D01*
X6706000Y-8246500D02*
X6746000Y-8286500D01*
X6746000Y-8246500D02*
X6706000Y-8286500D01*
X6707000Y-8920500D02*
X6747000Y-8960500D01*
X6747000Y-8920500D02*
X6707000Y-8960500D01*
X6714000Y-11238000D02*
X6754000Y-11278000D01*
X6754000Y-11238000D02*
X6714000Y-11278000D01*
X6715000Y-6367500D02*
X6755000Y-6407500D01*
X6755000Y-6367500D02*
X6715000Y-6407500D01*
X6717000Y-9635500D02*
X6757000Y-9675500D01*
X6757000Y-9635500D02*
X6717000Y-9675500D01*
X6720000Y-4746800D02*
X6760000Y-4786800D01*
X6760000Y-4746800D02*
X6720000Y-4786800D01*
X6737000Y-9995500D02*
X6777000Y-10035500D01*
X6777000Y-9995500D02*
X6737000Y-10035500D01*
X6743000Y-4525500D02*
X6783000Y-4565500D01*
X6783000Y-4525500D02*
X6743000Y-4565500D01*
X6772000Y-5320500D02*
X6812000Y-5360500D01*
X6812000Y-5320500D02*
X6772000Y-5360500D01*
X6784000Y-3658500D02*
X6824000Y-3698500D01*
X6824000Y-3658500D02*
X6784000Y-3698500D01*
X6897000Y-3355500D02*
X6937000Y-3395500D01*
X6937000Y-3355500D02*
X6897000Y-3395500D01*
X6922000Y-3783500D02*
X6962000Y-3823500D01*
X6962000Y-3783500D02*
X6922000Y-3823500D01*
X6972000Y-3960500D02*
X7012000Y-4000500D01*
X7012000Y-3960500D02*
X6972000Y-4000500D01*
X7022000Y-5310500D02*
X7062000Y-5350500D01*
X7062000Y-5310500D02*
X7022000Y-5350500D01*
X7022000Y-5665500D02*
X7062000Y-5705500D01*
X7062000Y-5665500D02*
X7022000Y-5705500D01*
X7022000Y-7250500D02*
X7062000Y-7290500D01*
X7062000Y-7250500D02*
X7022000Y-7290500D01*
X7022000Y-8875500D02*
X7062000Y-8915500D01*
X7062000Y-8875500D02*
X7022000Y-8915500D01*
X7023000Y-2497050D02*
X7063000Y-2537050D01*
X7063000Y-2497050D02*
X7023000Y-2537050D01*
X7037000Y-7425550D02*
X7077000Y-7465550D01*
X7077000Y-7425550D02*
X7037000Y-7465550D01*
X7042000Y-11970500D02*
X7082000Y-12010500D01*
X7082000Y-11970500D02*
X7042000Y-12010500D01*
X7045000Y-4478500D02*
X7085000Y-4518500D01*
X7085000Y-4478500D02*
X7045000Y-4518500D01*
X7051000Y-11863500D02*
X7091000Y-11903500D01*
X7091000Y-11863500D02*
X7051000Y-11903500D01*
X7057500Y-9708000D02*
X7097500Y-9748000D01*
X7097500Y-9708000D02*
X7057500Y-9748000D01*
X7062000Y-6361500D02*
X7102000Y-6401500D01*
X7102000Y-6361500D02*
X7062000Y-6401500D01*
X7087000Y-4820500D02*
X7127000Y-4860500D01*
X7127000Y-4820500D02*
X7087000Y-4860500D01*
X7087000Y-6695500D02*
X7127000Y-6735500D01*
X7127000Y-6695500D02*
X7087000Y-6735500D01*
X7107000Y-11145500D02*
X7147000Y-11185500D01*
X7147000Y-11145500D02*
X7107000Y-11185500D01*
X7135000Y-2817500D02*
X7175000Y-2857500D01*
X7175000Y-2817500D02*
X7135000Y-2857500D01*
X7162000Y-9824500D02*
X7202000Y-9864500D01*
X7202000Y-9824500D02*
X7162000Y-9864500D01*
X7164550Y-7618500D02*
X7204550Y-7658500D01*
X7204550Y-7618500D02*
X7164550Y-7658500D01*
X7183000Y-4503500D02*
X7223000Y-4543500D01*
X7223000Y-4503500D02*
X7183000Y-4543500D01*
X7206000Y-12085500D02*
X7246000Y-12125500D01*
X7246000Y-12085500D02*
X7206000Y-12125500D01*
X7211456Y-11843504D02*
X7251456Y-11883504D01*
X7251456Y-11843504D02*
X7211456Y-11883504D01*
X7237000Y-7425500D02*
X7277000Y-7465500D01*
X7277000Y-7425500D02*
X7237000Y-7465500D01*
X7244550Y-8915500D02*
X7284550Y-8955500D01*
X7284550Y-8915500D02*
X7244550Y-8955500D01*
X7252000Y-5015500D02*
X7292000Y-5055500D01*
X7292000Y-5015500D02*
X7252000Y-5055500D01*
X7256000Y-2784950D02*
X7296000Y-2824950D01*
X7296000Y-2784950D02*
X7256000Y-2824950D01*
X7267000Y-3310500D02*
X7307000Y-3350500D01*
X7307000Y-3310500D02*
X7267000Y-3350500D01*
X7267000Y-3720500D02*
X7307000Y-3760500D01*
X7307000Y-3720500D02*
X7267000Y-3760500D01*
X7267000Y-9635500D02*
X7307000Y-9675500D01*
X7307000Y-9635500D02*
X7267000Y-9675500D01*
X7272000Y-5205500D02*
X7312000Y-5245500D01*
X7312000Y-5205500D02*
X7272000Y-5245500D01*
X7277000Y-5395500D02*
X7317000Y-5435500D01*
X7317000Y-5395500D02*
X7277000Y-5435500D01*
X7392000Y-12231500D02*
X7432000Y-12271500D01*
X7432000Y-12231500D02*
X7392000Y-12271500D01*
X7397000Y-7810500D02*
X7437000Y-7850500D01*
X7437000Y-7810500D02*
X7397000Y-7850500D01*
X7417000Y-10015500D02*
X7457000Y-10055500D01*
X7457000Y-10015500D02*
X7417000Y-10055500D01*
X7443270Y-4539230D02*
X7483270Y-4579230D01*
X7483270Y-4539230D02*
X7443270Y-4579230D01*
X7463125Y-6340375D02*
X7503125Y-6380375D01*
X7503125Y-6340375D02*
X7463125Y-6380375D01*
X7472000Y-5576500D02*
X7512000Y-5616500D01*
X7512000Y-5576500D02*
X7472000Y-5616500D01*
X7497000Y-4900500D02*
X7537000Y-4940500D01*
X7537000Y-4900500D02*
X7497000Y-4940500D01*
X7516000Y-7359500D02*
X7556000Y-7399500D01*
X7556000Y-7359500D02*
X7516000Y-7399500D01*
X7525000Y-7550500D02*
X7565000Y-7590500D01*
X7565000Y-7550500D02*
X7525000Y-7590500D01*
X7532000Y-11937500D02*
X7572000Y-11977500D01*
X7572000Y-11937500D02*
X7532000Y-11977500D01*
X7542000Y-9470950D02*
X7582000Y-9510950D01*
X7582000Y-9470950D02*
X7542000Y-9510950D01*
X7562000Y-6820500D02*
X7602000Y-6860500D01*
X7602000Y-6820500D02*
X7562000Y-6860500D01*
X7562000Y-6955500D02*
X7602000Y-6995500D01*
X7602000Y-6955500D02*
X7562000Y-6995500D01*
X7573000Y-5050550D02*
X7613000Y-5090550D01*
X7613000Y-5050550D02*
X7573000Y-5090550D01*
X7591000Y-4305500D02*
X7631000Y-4345500D01*
X7631000Y-4305500D02*
X7591000Y-4345500D01*
X7605000Y-11566500D02*
X7645000Y-11606500D01*
X7645000Y-11566500D02*
X7605000Y-11606500D01*
X7607000Y-10772500D02*
X7647000Y-10812500D01*
X7647000Y-10772500D02*
X7607000Y-10812500D01*
X7608000Y-11264500D02*
X7648000Y-11304500D01*
X7648000Y-11264500D02*
X7608000Y-11304500D01*
X7612000Y-8555500D02*
X7652000Y-8595500D01*
X7652000Y-8555500D02*
X7612000Y-8595500D01*
X7617000Y-5265500D02*
X7657000Y-5305500D01*
X7657000Y-5265500D02*
X7617000Y-5305500D01*
X7617000Y-9765500D02*
X7657000Y-9805500D01*
X7657000Y-9765500D02*
X7617000Y-9805500D01*
X7632000Y-8955500D02*
X7672000Y-8995500D01*
X7672000Y-8955500D02*
X7632000Y-8995500D01*
X7637000Y-3455500D02*
X7677000Y-3495500D01*
X7677000Y-3455500D02*
X7637000Y-3495500D01*
X7655770Y-3604270D02*
X7695770Y-3644270D01*
X7695770Y-3604270D02*
X7655770Y-3644270D01*
X7681000Y-7136500D02*
X7721000Y-7176500D01*
X7721000Y-7136500D02*
X7681000Y-7176500D01*
X7713455Y-3803505D02*
X7753455Y-3843505D01*
X7753455Y-3803505D02*
X7713455Y-3843505D01*
X7714000Y-9379950D02*
X7754000Y-9419950D01*
X7754000Y-9379950D02*
X7714000Y-9419950D01*
X7732000Y-4395500D02*
X7772000Y-4435500D01*
X7772000Y-4395500D02*
X7732000Y-4435500D01*
X7782000Y-5195500D02*
X7822000Y-5235500D01*
X7822000Y-5195500D02*
X7782000Y-5235500D01*
X7797000Y-5405500D02*
X7837000Y-5445500D01*
X7837000Y-5405500D02*
X7797000Y-5445500D01*
X7801000Y-8958500D02*
X7841000Y-8998500D01*
X7841000Y-8958500D02*
X7801000Y-8998500D01*
X7803000Y-8557500D02*
X7843000Y-8597500D01*
X7843000Y-8557500D02*
X7803000Y-8597500D01*
X7880000Y-6117050D02*
X7920000Y-6157050D01*
X7920000Y-6117050D02*
X7880000Y-6157050D01*
X7882000Y-9379950D02*
X7922000Y-9419950D01*
X7922000Y-9379950D02*
X7882000Y-9419950D01*
X7887000Y-9696500D02*
X7927000Y-9736500D01*
X7927000Y-9696500D02*
X7887000Y-9736500D01*
X7888000Y-3242500D02*
X7928000Y-3282500D01*
X7928000Y-3242500D02*
X7888000Y-3282500D01*
X7888000Y-10080500D02*
X7928000Y-10120500D01*
X7928000Y-10080500D02*
X7888000Y-10120500D01*
X7896000Y-11612500D02*
X7936000Y-11652500D01*
X7936000Y-11612500D02*
X7896000Y-11652500D01*
X7897000Y-10360500D02*
X7937000Y-10400500D01*
X7937000Y-10360500D02*
X7897000Y-10400500D01*
X7911000Y-3343050D02*
X7951000Y-3383050D01*
X7951000Y-3343050D02*
X7911000Y-3383050D01*
X7984000Y-6033500D02*
X8024000Y-6073500D01*
X8024000Y-6033500D02*
X7984000Y-6073500D01*
X7986000Y-6844500D02*
X8026000Y-6884500D01*
X8026000Y-6844500D02*
X7986000Y-6884500D01*
X7997000Y-12005500D02*
X8037000Y-12045500D01*
X8037000Y-12005500D02*
X7997000Y-12045500D01*
X8022000Y-7775500D02*
X8062000Y-7815500D01*
X8062000Y-7775500D02*
X8022000Y-7815500D01*
X8026000Y-7612500D02*
X8066000Y-7652500D01*
X8066000Y-7612500D02*
X8026000Y-7652500D01*
X8033000Y-9307500D02*
X8073000Y-9347500D01*
X8073000Y-9307500D02*
X8033000Y-9347500D01*
X8037000Y-3615500D02*
X8077000Y-3655500D01*
X8077000Y-3615500D02*
X8037000Y-3655500D01*
X8037000Y-3885500D02*
X8077000Y-3925500D01*
X8077000Y-3885500D02*
X8037000Y-3925500D01*
X8045000Y-11341500D02*
X8085000Y-11381500D01*
X8085000Y-11341500D02*
X8045000Y-11381500D01*
X8047000Y-8375500D02*
X8087000Y-8415500D01*
X8087000Y-8375500D02*
X8047000Y-8415500D01*
X8057000Y-3490500D02*
X8097000Y-3530500D01*
X8097000Y-3490500D02*
X8057000Y-3530500D01*
X8074000Y-7020500D02*
X8114000Y-7060500D01*
X8114000Y-7020500D02*
X8074000Y-7060500D01*
X8074270Y-2800770D02*
X8114270Y-2840770D01*
X8114270Y-2800770D02*
X8074270Y-2840770D01*
X8077000Y-4040500D02*
X8117000Y-4080500D01*
X8117000Y-4040500D02*
X8077000Y-4080500D01*
X8108000Y-4976500D02*
X8148000Y-5016500D01*
X8148000Y-4976500D02*
X8108000Y-5016500D01*
X8116000Y-5393500D02*
X8156000Y-5433500D01*
X8156000Y-5393500D02*
X8116000Y-5433500D01*
X8123000Y-5107500D02*
X8163000Y-5147500D01*
X8163000Y-5107500D02*
X8123000Y-5147500D01*
X8142000Y-5895500D02*
X8182000Y-5935500D01*
X8182000Y-5895500D02*
X8142000Y-5935500D01*
X8147000Y-4705500D02*
X8187000Y-4745500D01*
X8187000Y-4705500D02*
X8147000Y-4745500D01*
X8157000Y-5600500D02*
X8197000Y-5640500D01*
X8197000Y-5600500D02*
X8157000Y-5640500D01*
X8162000Y-7900500D02*
X8202000Y-7940500D01*
X8202000Y-7900500D02*
X8162000Y-7940500D01*
X8162000Y-8855500D02*
X8202000Y-8895500D01*
X8202000Y-8855500D02*
X8162000Y-8895500D01*
X8162000Y-9930500D02*
X8202000Y-9970500D01*
X8202000Y-9930500D02*
X8162000Y-9970500D01*
X8162000Y-11010500D02*
X8202000Y-11050500D01*
X8202000Y-11010500D02*
X8162000Y-11050500D01*
X8162000Y-12100500D02*
X8202000Y-12140500D01*
X8202000Y-12100500D02*
X8162000Y-12140500D01*
X8232230Y-4323050D02*
X8272230Y-4363050D01*
X8272230Y-4323050D02*
X8232230Y-4363050D01*
X8252000Y-6590500D02*
X8292000Y-6630500D01*
X8292000Y-6590500D02*
X8252000Y-6630500D01*
X8252000Y-7665500D02*
X8292000Y-7705500D01*
X8292000Y-7665500D02*
X8252000Y-7705500D01*
X8252000Y-8735500D02*
X8292000Y-8775500D01*
X8292000Y-8735500D02*
X8252000Y-8775500D01*
X8252000Y-9810500D02*
X8292000Y-9850500D01*
X8292000Y-9810500D02*
X8252000Y-9850500D01*
X8252000Y-10880500D02*
X8292000Y-10920500D01*
X8292000Y-10880500D02*
X8252000Y-10920500D01*
X8252000Y-11975500D02*
X8292000Y-12015500D01*
X8292000Y-11975500D02*
X8252000Y-12015500D01*
X8305000Y-4487500D02*
X8345000Y-4527500D01*
X8345000Y-4487500D02*
X8305000Y-4527500D01*
X8320000Y-3122950D02*
X8360000Y-3162950D01*
X8360000Y-3122950D02*
X8320000Y-3162950D01*
X8324450Y-5700500D02*
X8364450Y-5740500D01*
X8364450Y-5700500D02*
X8324450Y-5740500D01*
X8332000Y-11580500D02*
X8372000Y-11620500D01*
X8372000Y-11580500D02*
X8332000Y-11620500D01*
X8337000Y-4630500D02*
X8377000Y-4670500D01*
X8377000Y-4630500D02*
X8337000Y-4670500D01*
X8337000Y-8611500D02*
X8377000Y-8651500D01*
X8377000Y-8611500D02*
X8337000Y-8651500D01*
X8338000Y-5955500D02*
X8378000Y-5995500D01*
X8378000Y-5955500D02*
X8338000Y-5995500D01*
X8340000Y-9396500D02*
X8380000Y-9436500D01*
X8380000Y-9396500D02*
X8340000Y-9436500D01*
X8342000Y-6432500D02*
X8382000Y-6472500D01*
X8382000Y-6432500D02*
X8342000Y-6472500D01*
X8347000Y-11820500D02*
X8387000Y-11860500D01*
X8387000Y-11820500D02*
X8347000Y-11860500D01*
X8355000Y-7241500D02*
X8395000Y-7281500D01*
X8395000Y-7241500D02*
X8355000Y-7281500D01*
X8367599Y-3210838D02*
X8407599Y-3250838D01*
X8407599Y-3210838D02*
X8367599Y-3250838D01*
X8387000Y-3490500D02*
X8427000Y-3530500D01*
X8427000Y-3490500D02*
X8387000Y-3530500D01*
X8393000Y-4309500D02*
X8433000Y-4349500D01*
X8433000Y-4309500D02*
X8393000Y-4349500D01*
X8397000Y-12447950D02*
X8437000Y-12487950D01*
X8437000Y-12447950D02*
X8397000Y-12487950D01*
X8422000Y-8990500D02*
X8462000Y-9030500D01*
X8462000Y-8990500D02*
X8422000Y-9030500D01*
X8422000Y-10065500D02*
X8462000Y-10105500D01*
X8462000Y-10065500D02*
X8422000Y-10105500D01*
X8422000Y-11140500D02*
X8462000Y-11180500D01*
X8462000Y-11140500D02*
X8422000Y-11180500D01*
X8422000Y-12235500D02*
X8462000Y-12275500D01*
X8462000Y-12235500D02*
X8422000Y-12275500D01*
X8432000Y-4755500D02*
X8472000Y-4795500D01*
X8472000Y-4755500D02*
X8432000Y-4795500D01*
X8437000Y-5830500D02*
X8477000Y-5870500D01*
X8477000Y-5830500D02*
X8437000Y-5870500D01*
X8437000Y-6905500D02*
X8477000Y-6945500D01*
X8477000Y-6905500D02*
X8437000Y-6945500D01*
X8447000Y-3610500D02*
X8487000Y-3650500D01*
X8487000Y-3610500D02*
X8447000Y-3650500D01*
X8700000Y-2702950D02*
X8740000Y-2742950D01*
X8740000Y-2702950D02*
X8700000Y-2742950D01*
X8737000Y-8610500D02*
X8777000Y-8650500D01*
X8777000Y-8610500D02*
X8737000Y-8650500D01*
X8752000Y-6465500D02*
X8792000Y-6505500D01*
X8792000Y-6465500D02*
X8752000Y-6505500D01*
X8752000Y-8230500D02*
X8792000Y-8270500D01*
X8792000Y-8230500D02*
X8752000Y-8270500D01*
X8757000Y-8105500D02*
X8797000Y-8145500D01*
X8797000Y-8105500D02*
X8757000Y-8145500D01*
X8757000Y-9300500D02*
X8797000Y-9340500D01*
X8797000Y-9300500D02*
X8757000Y-9340500D01*
X8757000Y-9685500D02*
X8797000Y-9725500D01*
X8797000Y-9685500D02*
X8757000Y-9725500D01*
X8757000Y-10190500D02*
X8797000Y-10230500D01*
X8797000Y-10190500D02*
X8757000Y-10230500D01*
X8757000Y-11270500D02*
X8797000Y-11310500D01*
X8797000Y-11270500D02*
X8757000Y-11310500D01*
X8757000Y-11395500D02*
X8797000Y-11435500D01*
X8797000Y-11395500D02*
X8757000Y-11435500D01*
X8757000Y-11850500D02*
X8797000Y-11890500D01*
X8797000Y-11850500D02*
X8757000Y-11890500D01*
X8762000Y-10765500D02*
X8802000Y-10805500D01*
X8802000Y-10765500D02*
X8762000Y-10805500D01*
X8767000Y-4885500D02*
X8807000Y-4925500D01*
X8807000Y-4885500D02*
X8767000Y-4925500D01*
X8767000Y-5140500D02*
X8807000Y-5180500D01*
X8807000Y-5140500D02*
X8767000Y-5180500D01*
X8767000Y-5955500D02*
X8807000Y-5995500D01*
X8807000Y-5955500D02*
X8767000Y-5995500D01*
X8767000Y-6215500D02*
X8807000Y-6255500D01*
X8807000Y-6215500D02*
X8767000Y-6255500D01*
X8767000Y-8360500D02*
X8807000Y-8400500D01*
X8807000Y-8360500D02*
X8767000Y-8400500D01*
X8767000Y-9435500D02*
X8807000Y-9475500D01*
X8807000Y-9435500D02*
X8767000Y-9475500D01*
X8767000Y-10505500D02*
X8807000Y-10545500D01*
X8807000Y-10505500D02*
X8767000Y-10545500D01*
X8772000Y-3865500D02*
X8812000Y-3905500D01*
X8812000Y-3865500D02*
X8772000Y-3905500D01*
X8772000Y-3990500D02*
X8812000Y-4030500D01*
X8812000Y-3990500D02*
X8772000Y-4030500D01*
X8772000Y-5010500D02*
X8812000Y-5050500D01*
X8812000Y-5010500D02*
X8772000Y-5050500D01*
X8772000Y-5390500D02*
X8812000Y-5430500D01*
X8812000Y-5390500D02*
X8772000Y-5430500D01*
X8772000Y-6085500D02*
X8812000Y-6125500D01*
X8812000Y-6085500D02*
X8772000Y-6125500D01*
X8772000Y-7030500D02*
X8812000Y-7070500D01*
X8812000Y-7030500D02*
X8772000Y-7070500D01*
X8772000Y-7155500D02*
X8812000Y-7195500D01*
X8812000Y-7155500D02*
X8772000Y-7195500D01*
X8772000Y-7285500D02*
X8812000Y-7325500D01*
X8812000Y-7285500D02*
X8772000Y-7325500D01*
X8772000Y-7535500D02*
X8812000Y-7575500D01*
X8812000Y-7535500D02*
X8772000Y-7575500D01*
X8772000Y-12445500D02*
X8812000Y-12485500D01*
X8812000Y-12445500D02*
X8772000Y-12485500D01*
X8777000Y-3230500D02*
X8817000Y-3270500D01*
X8817000Y-3230500D02*
X8777000Y-3270500D01*
X8817000Y-3480500D02*
X8857000Y-3520500D01*
X8857000Y-3480500D02*
X8817000Y-3520500D01*
X8827000Y-3605500D02*
X8867000Y-3645500D01*
X8867000Y-3605500D02*
X8827000Y-3645500D01*
X8854550Y-12360500D02*
X8894550Y-12400500D01*
X8894550Y-12360500D02*
X8854550Y-12400500D01*
X8857000Y-3740500D02*
X8897000Y-3780500D01*
X8897000Y-3740500D02*
X8857000Y-3780500D01*
X8883000Y-12476500D02*
X8923000Y-12516500D01*
X8923000Y-12476500D02*
X8883000Y-12516500D01*
X8927000Y-8873000D02*
X8967000Y-8913000D01*
X8967000Y-8873000D02*
X8927000Y-8913000D01*
X8927000Y-10068000D02*
X8967000Y-10108000D01*
X8967000Y-10068000D02*
X8927000Y-10108000D01*
X8932000Y-11268000D02*
X8972000Y-11308000D01*
X8972000Y-11268000D02*
X8932000Y-11308000D01*
X8937000Y-6468000D02*
X8977000Y-6508000D01*
X8977000Y-6468000D02*
X8937000Y-6508000D01*
X8937000Y-7673000D02*
X8977000Y-7713000D01*
X8977000Y-7673000D02*
X8937000Y-7713000D01*
X8942000Y-5268000D02*
X8982000Y-5308000D01*
X8982000Y-5268000D02*
X8942000Y-5308000D01*
X8947000Y-3995500D02*
X8987000Y-4035500D01*
X8987000Y-3995500D02*
X8947000Y-4035500D01*
X9037000Y-11553050D02*
X9077000Y-11593050D01*
X9077000Y-11553050D02*
X9037000Y-11593050D01*
X9046000Y-5555500D02*
X9086000Y-5595500D01*
X9086000Y-5555500D02*
X9046000Y-5595500D01*
X9052000Y-7945500D02*
X9092000Y-7985500D01*
X9092000Y-7945500D02*
X9052000Y-7985500D01*
X9084000Y-2933050D02*
X9124000Y-2973050D01*
X9124000Y-2933050D02*
X9084000Y-2973050D01*
X9092000Y-4325500D02*
X9132000Y-4365500D01*
X9132000Y-4325500D02*
X9092000Y-4365500D01*
X9245000Y-12458050D02*
X9285000Y-12498050D01*
X9285000Y-12458050D02*
X9245000Y-12498050D01*
X9319000Y-9431500D02*
X9359000Y-9471500D01*
X9359000Y-9431500D02*
X9319000Y-9471500D01*
X9320000Y-11855500D02*
X9360000Y-11895500D01*
X9360000Y-11855500D02*
X9320000Y-11895500D01*
X9321000Y-8228500D02*
X9361000Y-8268500D01*
X9361000Y-8228500D02*
X9321000Y-8268500D01*
X9322000Y-3355500D02*
X9362000Y-3395500D01*
X9362000Y-3355500D02*
X9322000Y-3395500D01*
X9322000Y-4630500D02*
X9362000Y-4670500D01*
X9362000Y-4630500D02*
X9322000Y-4670500D01*
X9322000Y-5830500D02*
X9362000Y-5870500D01*
X9362000Y-5830500D02*
X9322000Y-5870500D01*
X9322000Y-7030500D02*
X9362000Y-7070500D01*
X9362000Y-7030500D02*
X9322000Y-7070500D01*
X9326000Y-10631500D02*
X9366000Y-10671500D01*
X9366000Y-10631500D02*
X9326000Y-10671500D01*
X9351000Y-12371500D02*
X9391000Y-12411500D01*
X9391000Y-12371500D02*
X9351000Y-12411500D01*
X9354000Y-12104500D02*
X9394000Y-12144500D01*
X9394000Y-12104500D02*
X9354000Y-12144500D01*
X9361500Y-11145000D02*
X9401500Y-11185000D01*
X9401500Y-11145000D02*
X9361500Y-11185000D01*
X9362000Y-10890500D02*
X9402000Y-10930500D01*
X9402000Y-10890500D02*
X9362000Y-10930500D01*
X9362000Y-11015500D02*
X9402000Y-11055500D01*
X9402000Y-11015500D02*
X9362000Y-11055500D01*
X9366500Y-9935000D02*
X9406500Y-9975000D01*
X9406500Y-9935000D02*
X9366500Y-9975000D01*
X9367000Y-9680500D02*
X9407000Y-9720500D01*
X9407000Y-9680500D02*
X9367000Y-9720500D01*
X9371500Y-8740000D02*
X9411500Y-8780000D01*
X9411500Y-8740000D02*
X9371500Y-8780000D01*
X9372000Y-8485500D02*
X9412000Y-8525500D01*
X9412000Y-8485500D02*
X9372000Y-8525500D01*
X9374000Y-8614500D02*
X9414000Y-8654500D01*
X9414000Y-8614500D02*
X9374000Y-8654500D01*
X9381500Y-3865000D02*
X9421500Y-3905000D01*
X9421500Y-3865000D02*
X9381500Y-3905000D01*
X9381500Y-5140000D02*
X9421500Y-5180000D01*
X9421500Y-5140000D02*
X9381500Y-5180000D01*
X9382000Y-4885500D02*
X9422000Y-4925500D01*
X9422000Y-4885500D02*
X9382000Y-4925500D01*
X9386500Y-6340000D02*
X9426500Y-6380000D01*
X9426500Y-6340000D02*
X9386500Y-6380000D01*
X9386500Y-7535000D02*
X9426500Y-7575000D01*
X9426500Y-7535000D02*
X9386500Y-7575000D01*
X9387000Y-7280500D02*
X9427000Y-7320500D01*
X9427000Y-7280500D02*
X9387000Y-7320500D01*
X9397770Y-3617730D02*
X9437770Y-3657730D01*
X9437770Y-3617730D02*
X9397770Y-3657730D01*
X9415000Y-3735500D02*
X9455000Y-3775500D01*
X9455000Y-3735500D02*
X9415000Y-3775500D01*
X9431000Y-6085500D02*
X9471000Y-6125500D01*
X9471000Y-6085500D02*
X9431000Y-6125500D01*
X9432645Y-12170168D02*
X9472645Y-12210168D01*
X9472645Y-12170168D02*
X9432645Y-12210168D01*
X9451000Y-5557500D02*
X9491000Y-5597500D01*
X9491000Y-5557500D02*
X9451000Y-5597500D01*
X9667000Y-3600500D02*
X9707000Y-3640500D01*
X9707000Y-3600500D02*
X9667000Y-3640500D01*
X9734450Y-11745500D02*
X9774450Y-11785500D01*
X9774450Y-11745500D02*
X9734450Y-11785500D01*
X9737000Y-9320500D02*
X9777000Y-9360500D01*
X9777000Y-9320500D02*
X9737000Y-9360500D01*
X9742000Y-3235500D02*
X9782000Y-3275500D01*
X9782000Y-3235500D02*
X9742000Y-3275500D01*
X9742000Y-4620500D02*
X9782000Y-4660500D01*
X9782000Y-4620500D02*
X9742000Y-4660500D01*
X9742000Y-5735500D02*
X9782000Y-5775500D01*
X9782000Y-5735500D02*
X9742000Y-5775500D01*
X9742000Y-6925500D02*
X9782000Y-6965500D01*
X9782000Y-6925500D02*
X9742000Y-6965500D01*
X9742000Y-8125500D02*
X9782000Y-8165500D01*
X9782000Y-8125500D02*
X9742000Y-8165500D01*
X9742000Y-10520500D02*
X9782000Y-10560500D01*
X9782000Y-10520500D02*
X9742000Y-10560500D01*
X9777000Y-12405500D02*
X9817000Y-12445500D01*
X9817000Y-12405500D02*
X9777000Y-12445500D01*
X9836000Y-7207500D02*
X9876000Y-7247500D01*
X9876000Y-7207500D02*
X9836000Y-7247500D01*
X9838000Y-9600000D02*
X9878000Y-9640000D01*
X9878000Y-9600000D02*
X9838000Y-9640000D01*
X9862000Y-4145500D02*
X9902000Y-4185500D01*
X9902000Y-4145500D02*
X9862000Y-4185500D01*
X9877000Y-12005500D02*
X9917000Y-12045500D01*
X9917000Y-12005500D02*
X9877000Y-12045500D01*
X9879000Y-5438500D02*
X9919000Y-5478500D01*
X9919000Y-5438500D02*
X9879000Y-5478500D01*
X9887000Y-6531500D02*
X9927000Y-6571500D01*
X9927000Y-6531500D02*
X9887000Y-6571500D01*
X9888000Y-3027500D02*
X9928000Y-3067500D01*
X9928000Y-3027500D02*
X9888000Y-3067500D01*
X9892000Y-11790500D02*
X9932000Y-11830500D01*
X9932000Y-11790500D02*
X9892000Y-11830500D01*
X9902000Y-11235500D02*
X9942000Y-11275500D01*
X9942000Y-11235500D02*
X9902000Y-11275500D01*
X10014000Y-11781000D02*
X10054000Y-11821000D01*
X10054000Y-11781000D02*
X10014000Y-11821000D01*
X10104000Y-7252500D02*
X10144000Y-7292500D01*
X10144000Y-7252500D02*
X10104000Y-7292500D01*
X10165000Y-11995500D02*
X10205000Y-12035500D01*
X10205000Y-11995500D02*
X10165000Y-12035500D01*
X10227000Y-11422000D02*
X10267000Y-11462000D01*
X10267000Y-11422000D02*
X10227000Y-11462000D01*
X10365730Y-3871770D02*
X10405730Y-3911770D01*
X10405730Y-3871770D02*
X10365730Y-3911770D01*
X10416000Y-12146500D02*
X10456000Y-12186500D01*
X10456000Y-12146500D02*
X10416000Y-12186500D01*
X10417000Y-6650500D02*
X10457000Y-6690500D01*
X10457000Y-6650500D02*
X10417000Y-6690500D01*
X10482000Y-11415650D02*
X10522000Y-11455650D01*
X10522000Y-11415650D02*
X10482000Y-11455650D01*
X10557000Y-7915500D02*
X10597000Y-7955500D01*
X10597000Y-7915500D02*
X10557000Y-7955500D01*
X10570000Y-7550000D02*
X10610000Y-7590000D01*
X10610000Y-7550000D02*
X10570000Y-7590000D01*
X10581000Y-8537500D02*
X10621000Y-8577500D01*
X10621000Y-8537500D02*
X10581000Y-8577500D01*
X10582000Y-3945500D02*
X10622000Y-3985500D01*
X10622000Y-3945500D02*
X10582000Y-3985500D01*
X10596000Y-4538500D02*
X10636000Y-4578500D01*
X10636000Y-4538500D02*
X10596000Y-4578500D01*
X10637000Y-11081550D02*
X10677000Y-11121550D01*
X10677000Y-11081550D02*
X10637000Y-11121550D01*
X10682000Y-9495500D02*
X10722000Y-9535500D01*
X10722000Y-9495500D02*
X10682000Y-9535500D01*
X10755000Y-4684500D02*
X10795000Y-4724500D01*
X10795000Y-4684500D02*
X10755000Y-4724500D01*
X10771000Y-4922500D02*
X10811000Y-4962500D01*
X10811000Y-4922500D02*
X10771000Y-4962500D01*
X10773000Y-3695500D02*
X10813000Y-3735500D01*
X10813000Y-3695500D02*
X10773000Y-3735500D01*
X10797000Y-3205500D02*
X10837000Y-3245500D01*
X10837000Y-3205500D02*
X10797000Y-3245500D01*
X10800627Y-8703824D02*
X10840627Y-8743824D01*
X10840627Y-8703824D02*
X10800627Y-8743824D01*
X10805000Y-9111500D02*
X10845000Y-9151500D01*
X10845000Y-9111500D02*
X10805000Y-9151500D01*
X10817000Y-11542650D02*
X10857000Y-11582650D01*
X10857000Y-11542650D02*
X10817000Y-11582650D01*
X10820000Y-5150000D02*
X10860000Y-5190000D01*
X10860000Y-5150000D02*
X10820000Y-5190000D01*
X10827670Y-10711000D02*
X10867670Y-10751000D01*
X10867670Y-10711000D02*
X10827670Y-10751000D01*
X10832000Y-3010500D02*
X10872000Y-3050500D01*
X10872000Y-3010500D02*
X10832000Y-3050500D01*
X10846000Y-9904500D02*
X10886000Y-9944500D01*
X10886000Y-9904500D02*
X10846000Y-9944500D01*
X10907000Y-12048000D02*
X10947000Y-12088000D01*
X10947000Y-12048000D02*
X10907000Y-12088000D01*
X10912000Y-7225500D02*
X10952000Y-7265500D01*
X10952000Y-7225500D02*
X10912000Y-7265500D01*
X10939000Y-4026500D02*
X10979000Y-4066500D01*
X10979000Y-4026500D02*
X10939000Y-4066500D01*
X10970000Y-3086500D02*
X11010000Y-3126500D01*
X11010000Y-3086500D02*
X10970000Y-3126500D01*
X11012000Y-3570500D02*
X11052000Y-3610500D01*
X11052000Y-3570500D02*
X11012000Y-3610500D01*
X11095000Y-2803500D02*
X11135000Y-2843500D01*
X11135000Y-2803500D02*
X11095000Y-2843500D01*
X11119000Y-8963000D02*
X11159000Y-9003000D01*
X11159000Y-8963000D02*
X11119000Y-9003000D01*
X11184000Y-12060500D02*
X11224000Y-12100500D01*
X11224000Y-12060500D02*
X11184000Y-12100500D01*
X11192000Y-3590500D02*
X11232000Y-3630500D01*
X11232000Y-3590500D02*
X11192000Y-3630500D01*
X11211000Y-2957950D02*
X11251000Y-2997950D01*
X11251000Y-2957950D02*
X11211000Y-2997950D01*
X11239901Y-6606901D02*
X11279901Y-6646901D01*
X11279901Y-6606901D02*
X11239901Y-6646901D01*
X11242000Y-4850500D02*
X11282000Y-4890500D01*
X11282000Y-4850500D02*
X11242000Y-4890500D01*
X11301000Y-11267500D02*
X11341000Y-11307500D01*
X11341000Y-11267500D02*
X11301000Y-11307500D01*
X11337000Y-8779000D02*
X11377000Y-8819000D01*
X11377000Y-8779000D02*
X11337000Y-8819000D01*
X11387000Y-2885500D02*
X11427000Y-2925500D01*
X11427000Y-2885500D02*
X11387000Y-2925500D01*
X11389000Y-6438000D02*
X11429000Y-6478000D01*
X11429000Y-6438000D02*
X11389000Y-6478000D01*
X11414550Y-12360212D02*
X11454550Y-12400212D01*
X11454550Y-12360212D02*
X11414550Y-12400212D01*
X11461550Y-7235376D02*
X11501550Y-7275376D01*
X11501550Y-7235376D02*
X11461550Y-7275376D01*
X11550000Y-10265500D02*
X11590000Y-10305500D01*
X11590000Y-10265500D02*
X11550000Y-10305500D01*
X11655000Y-2569500D02*
X11695000Y-2609500D01*
X11695000Y-2569500D02*
X11655000Y-2609500D01*
X11669000Y-11941000D02*
X11709000Y-11981000D01*
X11709000Y-11941000D02*
X11669000Y-11981000D01*
X11691000Y-3003950D02*
X11731000Y-3043950D01*
X11731000Y-3003950D02*
X11691000Y-3043950D01*
X11695450Y-3870000D02*
X11735450Y-3910000D01*
X11735450Y-3870000D02*
X11695450Y-3910000D01*
X11695697Y-8993697D02*
X11735697Y-9033697D01*
X11735697Y-8993697D02*
X11695697Y-9033697D01*
X11702000Y-5953500D02*
X11742000Y-5993500D01*
X11742000Y-5953500D02*
X11702000Y-5993500D01*
X11790000Y-5600000D02*
X11830000Y-5640000D01*
X11830000Y-5600000D02*
X11790000Y-5640000D01*
X11832000Y-12121850D02*
X11872000Y-12161850D01*
X11872000Y-12121850D02*
X11832000Y-12161850D01*
X11842450Y-9423000D02*
X11882450Y-9463000D01*
X11882450Y-9423000D02*
X11842450Y-9463000D01*
X11858450Y-6690000D02*
X11898450Y-6730000D01*
X11898450Y-6690000D02*
X11858450Y-6730000D01*
X11903000Y-12687050D02*
X11943000Y-12727050D01*
X11943000Y-12687050D02*
X11903000Y-12727050D01*
X11917000Y-11210500D02*
X11957000Y-11250500D01*
X11957000Y-11210500D02*
X11917000Y-11250500D01*
X11956151Y-4108151D02*
X11996151Y-4148151D01*
X11996151Y-4108151D02*
X11956151Y-4148151D01*
X11968000Y-10953000D02*
X12008000Y-10993000D01*
X12008000Y-10953000D02*
X11968000Y-10993000D01*
X12011901Y-12038098D02*
X12051901Y-12078098D01*
X12051901Y-12038098D02*
X12011901Y-12078098D01*
X12019500Y-3265500D02*
X12059500Y-3305500D01*
X12059500Y-3265500D02*
X12019500Y-3305500D01*
X12040098Y-9004902D02*
X12080098Y-9044902D01*
X12080098Y-9004902D02*
X12040098Y-9044902D01*
X12065000Y-2775500D02*
X12105000Y-2815500D01*
X12105000Y-2775500D02*
X12065000Y-2815500D01*
X12077000Y-10365500D02*
X12117000Y-10405500D01*
X12117000Y-10365500D02*
X12077000Y-10405500D01*
X12112000Y-10980500D02*
X12152000Y-11020500D01*
X12152000Y-10980500D02*
X12112000Y-11020500D01*
X12130000Y-7900500D02*
X12170000Y-7940500D01*
X12170000Y-7900500D02*
X12130000Y-7940500D01*
X12171134Y-8614089D02*
X12211134Y-8654089D01*
X12211134Y-8614089D02*
X12171134Y-8654089D01*
X12171950Y-6641000D02*
X12211950Y-6681000D01*
X12211950Y-6641000D02*
X12171950Y-6681000D01*
X12187000Y-9167500D02*
X12227000Y-9207500D01*
X12227000Y-9167500D02*
X12187000Y-9207500D01*
X12200000Y-10842000D02*
X12240000Y-10882000D01*
X12240000Y-10842000D02*
X12200000Y-10882000D01*
X12212000Y-11225500D02*
X12252000Y-11265500D01*
X12252000Y-11225500D02*
X12212000Y-11265500D01*
X12217000Y-9565500D02*
X12257000Y-9605500D01*
X12257000Y-9565500D02*
X12217000Y-9605500D01*
X12222000Y-6942000D02*
X12262000Y-6982000D01*
X12262000Y-6942000D02*
X12222000Y-6982000D01*
X12231030Y-12582808D02*
X12271030Y-12622808D01*
X12271030Y-12582808D02*
X12231030Y-12622808D01*
X12247827Y-11876634D02*
X12287827Y-11916634D01*
X12287827Y-11876634D02*
X12247827Y-11916634D01*
X12257000Y-4625500D02*
X12297000Y-4665500D01*
X12297000Y-4625500D02*
X12257000Y-4665500D01*
X12260000Y-8228950D02*
X12300000Y-8268950D01*
X12300000Y-8228950D02*
X12260000Y-8268950D01*
X12271000Y-11506000D02*
X12311000Y-11546000D01*
X12311000Y-11506000D02*
X12271000Y-11546000D01*
X12282000Y-9910500D02*
X12322000Y-9950500D01*
X12322000Y-9910500D02*
X12282000Y-9950500D01*
X12295000Y-9247500D02*
X12335000Y-9287500D01*
X12335000Y-9247500D02*
X12295000Y-9287500D01*
X12310000Y-3762050D02*
X12350000Y-3802050D01*
X12350000Y-3762050D02*
X12310000Y-3802050D01*
X12319000Y-6648000D02*
X12359000Y-6688000D01*
X12359000Y-6648000D02*
X12319000Y-6688000D01*
X12344550Y-11620500D02*
X12384550Y-11660500D01*
X12384550Y-11620500D02*
X12344550Y-11660500D01*
X12351000Y-10945000D02*
X12391000Y-10985000D01*
X12391000Y-10945000D02*
X12351000Y-10985000D01*
X12357000Y-5425500D02*
X12397000Y-5465500D01*
X12397000Y-5425500D02*
X12357000Y-5465500D01*
X12405000Y-12637050D02*
X12445000Y-12677050D01*
X12445000Y-12637050D02*
X12405000Y-12677050D01*
X12412000Y-3555500D02*
X12452000Y-3595500D01*
X12452000Y-3555500D02*
X12412000Y-3595500D01*
X12422000Y-3265500D02*
X12462000Y-3305500D01*
X12462000Y-3265500D02*
X12422000Y-3305500D01*
X12453450Y-5178000D02*
X12493450Y-5218000D01*
X12493450Y-5178000D02*
X12453450Y-5218000D01*
X12464230Y-7823270D02*
X12504230Y-7863270D01*
X12504230Y-7823270D02*
X12464230Y-7863270D01*
X12487000Y-12833050D02*
X12527000Y-12873050D01*
X12527000Y-12833050D02*
X12487000Y-12873050D01*
X12589450Y-9645500D02*
X12629450Y-9685500D01*
X12629450Y-9645500D02*
X12589450Y-9685500D01*
X12621000Y-4950500D02*
X12661000Y-4990500D01*
X12661000Y-4950500D02*
X12621000Y-4990500D01*
X12625000Y-10391500D02*
X12665000Y-10431500D01*
X12665000Y-10391500D02*
X12625000Y-10431500D01*
X12627000Y-4169500D02*
X12667000Y-4209500D01*
X12667000Y-4169500D02*
X12627000Y-4209500D01*
X12648303Y-4696060D02*
X12688303Y-4736060D01*
X12688303Y-4696060D02*
X12648303Y-4736060D01*
X12658000Y-2959500D02*
X12698000Y-2999500D01*
X12698000Y-2959500D02*
X12658000Y-2999500D01*
X12659000Y-3488950D02*
X12699000Y-3528950D01*
X12699000Y-3488950D02*
X12659000Y-3528950D01*
X12680730Y-7406770D02*
X12720730Y-7446770D01*
X12720730Y-7406770D02*
X12680730Y-7446770D01*
X12705000Y-6398560D02*
X12745000Y-6438560D01*
X12745000Y-6398560D02*
X12705000Y-6438560D01*
X12790000Y-10490000D02*
X12830000Y-10530000D01*
X12830000Y-10490000D02*
X12790000Y-10530000D01*
X12801450Y-5764000D02*
X12841450Y-5804000D01*
X12841450Y-5764000D02*
X12801450Y-5804000D01*
X12802000Y-3034500D02*
X12842000Y-3074500D01*
X12842000Y-3034500D02*
X12802000Y-3074500D01*
X12837000Y-4338050D02*
X12877000Y-4378050D01*
X12877000Y-4338050D02*
X12837000Y-4378050D01*
X12870000Y-6160000D02*
X12910000Y-6200000D01*
X12910000Y-6160000D02*
X12870000Y-6200000D01*
X12873450Y-6368550D02*
X12913450Y-6408550D01*
X12913450Y-6368550D02*
X12873450Y-6408550D01*
X12883230Y-9126730D02*
X12923230Y-9166730D01*
X12923230Y-9126730D02*
X12883230Y-9166730D01*
X12903000Y-10613000D02*
X12943000Y-10653000D01*
X12943000Y-10613000D02*
X12903000Y-10653000D01*
X12916303Y-4063060D02*
X12956303Y-4103060D01*
X12956303Y-4063060D02*
X12916303Y-4103060D01*
X12923000Y-9999000D02*
X12963000Y-10039000D01*
X12963000Y-9999000D02*
X12923000Y-10039000D01*
X12925526Y-5924223D02*
X12965526Y-5964223D01*
X12965526Y-5924223D02*
X12925526Y-5964223D01*
X12935000Y-3488950D02*
X12975000Y-3528950D01*
X12975000Y-3488950D02*
X12935000Y-3528950D01*
X12936450Y-5302960D02*
X12976450Y-5342960D01*
X12976450Y-5302960D02*
X12936450Y-5342960D01*
X12940000Y-11867000D02*
X12980000Y-11907000D01*
X12980000Y-11867000D02*
X12940000Y-11907000D01*
X12943901Y-4616462D02*
X12983901Y-4656462D01*
X12983901Y-4616462D02*
X12943901Y-4656462D01*
X12944500Y-8283500D02*
X12984500Y-8323500D01*
X12984500Y-8283500D02*
X12944500Y-8323500D01*
X12947000Y-3758050D02*
X12987000Y-3798050D01*
X12987000Y-3758050D02*
X12947000Y-3798050D01*
X12992000Y-8060500D02*
X13032000Y-8100500D01*
X13032000Y-8060500D02*
X12992000Y-8100500D01*
X12992000Y-8845500D02*
X13032000Y-8885500D01*
X13032000Y-8845500D02*
X12992000Y-8885500D01*
X13027450Y-4481755D02*
X13067450Y-4521755D01*
X13067450Y-4481755D02*
X13027450Y-4521755D01*
X13040000Y-4968560D02*
X13080000Y-5008560D01*
X13080000Y-4968560D02*
X13040000Y-5008560D01*
X13044901Y-4852462D02*
X13084901Y-4892462D01*
X13084901Y-4852462D02*
X13044901Y-4892462D01*
X13052000Y-5322560D02*
X13092000Y-5362560D01*
X13092000Y-5322560D02*
X13052000Y-5362560D01*
X13057000Y-12905500D02*
X13097000Y-12945500D01*
X13097000Y-12905500D02*
X13057000Y-12945500D01*
X13072450Y-5723485D02*
X13112450Y-5763485D01*
X13112450Y-5723485D02*
X13072450Y-5763485D01*
X13076113Y-6078511D02*
X13116113Y-6118511D01*
X13116113Y-6078511D02*
X13076113Y-6118511D01*
X13076113Y-6298000D02*
X13116113Y-6338000D01*
X13116113Y-6298000D02*
X13076113Y-6338000D01*
X13095598Y-5416159D02*
X13135598Y-5456159D01*
X13135598Y-5416159D02*
X13095598Y-5456159D01*
X13098000Y-9089500D02*
X13138000Y-9129500D01*
X13138000Y-9089500D02*
X13098000Y-9129500D01*
X13107000Y-4232560D02*
X13147000Y-4272560D01*
X13147000Y-4232560D02*
X13107000Y-4272560D01*
X13110000Y-4690560D02*
X13150000Y-4730560D01*
X13150000Y-4690560D02*
X13110000Y-4730560D01*
X13155401Y-5809598D02*
X13195401Y-5849598D01*
X13195401Y-5809598D02*
X13155401Y-5849598D01*
X13178635Y-7634636D02*
X13218635Y-7674636D01*
X13218635Y-7634636D02*
X13178635Y-7674636D01*
X13184450Y-8025500D02*
X13224450Y-8065500D01*
X13224450Y-8025500D02*
X13184450Y-8065500D01*
X13185000Y-7518560D02*
X13225000Y-7558560D01*
X13225000Y-7518560D02*
X13185000Y-7558560D01*
X13193000Y-9772500D02*
X13233000Y-9812500D01*
X13233000Y-9772500D02*
X13193000Y-9812500D01*
X13238000Y-3219500D02*
X13278000Y-3259500D01*
X13278000Y-3219500D02*
X13238000Y-3259500D01*
X13242000Y-3595500D02*
X13282000Y-3635500D01*
X13282000Y-3595500D02*
X13242000Y-3635500D01*
X13262450Y-8637950D02*
X13302450Y-8677950D01*
X13302450Y-8637950D02*
X13262450Y-8677950D01*
X13293550Y-7063000D02*
X13333550Y-7103000D01*
X13333550Y-7063000D02*
X13293550Y-7103000D01*
X13307000Y-12885500D02*
X13347000Y-12925500D01*
X13347000Y-12885500D02*
X13307000Y-12925500D01*
X13377000Y-8917950D02*
X13417000Y-8957950D01*
X13417000Y-8917950D02*
X13377000Y-8957950D01*
X13391730Y-10965230D02*
X13431730Y-11005230D01*
X13431730Y-10965230D02*
X13391730Y-11005230D01*
X13422000Y-7997950D02*
X13462000Y-8037950D01*
X13462000Y-7997950D02*
X13422000Y-8037950D01*
X13425000Y-5741148D02*
X13465000Y-5781148D01*
X13465000Y-5741148D02*
X13425000Y-5781148D01*
X13441000Y-4371450D02*
X13481000Y-4411450D01*
X13481000Y-4371450D02*
X13441000Y-4411450D01*
X13453000Y-4615000D02*
X13493000Y-4655000D01*
X13493000Y-4615000D02*
X13453000Y-4655000D01*
X13460593Y-5406849D02*
X13500593Y-5446849D01*
X13500593Y-5406849D02*
X13460593Y-5446849D01*
X13462632Y-4854192D02*
X13502632Y-4894192D01*
X13502632Y-4854192D02*
X13462632Y-4894192D01*
X13463000Y-4055560D02*
X13503000Y-4095560D01*
X13503000Y-4055560D02*
X13463000Y-4095560D01*
X13465000Y-5311000D02*
X13505000Y-5351000D01*
X13505000Y-5311000D02*
X13465000Y-5351000D01*
X13467000Y-4730560D02*
X13507000Y-4770560D01*
X13507000Y-4730560D02*
X13467000Y-4770560D01*
X13478000Y-5589450D02*
X13518000Y-5629450D01*
X13518000Y-5589450D02*
X13478000Y-5629450D01*
X13479000Y-5893000D02*
X13519000Y-5933000D01*
X13519000Y-5893000D02*
X13479000Y-5933000D01*
X13483901Y-5088099D02*
X13523901Y-5128099D01*
X13523901Y-5088099D02*
X13483901Y-5128099D01*
X13502000Y-8917950D02*
X13542000Y-8957950D01*
X13542000Y-8917950D02*
X13502000Y-8957950D01*
X13527000Y-12865500D02*
X13567000Y-12905500D01*
X13567000Y-12865500D02*
X13527000Y-12905500D01*
X13545000Y-3563950D02*
X13585000Y-3603950D01*
X13585000Y-3563950D02*
X13545000Y-3603950D01*
X13545539Y-6513503D02*
X13585539Y-6553503D01*
X13585539Y-6513503D02*
X13545539Y-6553503D01*
X13565000Y-3727010D02*
X13605000Y-3767010D01*
X13605000Y-3727010D02*
X13565000Y-3767010D01*
X13584793Y-4001156D02*
X13624793Y-4041156D01*
X13624793Y-4001156D02*
X13584793Y-4041156D01*
X13587601Y-6298202D02*
X13627601Y-6338202D01*
X13627601Y-6298202D02*
X13587601Y-6338202D01*
X13593000Y-8283500D02*
X13633000Y-8323500D01*
X13633000Y-8283500D02*
X13593000Y-8323500D01*
X13594000Y-6111950D02*
X13634000Y-6151950D01*
X13634000Y-6111950D02*
X13594000Y-6151950D01*
X13615450Y-6808000D02*
X13655450Y-6848000D01*
X13655450Y-6808000D02*
X13615450Y-6848000D01*
X13615450Y-6918371D02*
X13655450Y-6958371D01*
X13655450Y-6918371D02*
X13615450Y-6958371D01*
X13622000Y-11200500D02*
X13662000Y-11240500D01*
X13662000Y-11200500D02*
X13622000Y-11240500D01*
X13637000Y-5893050D02*
X13677000Y-5933050D01*
X13677000Y-5893050D02*
X13637000Y-5933050D01*
X13642893Y-4293667D02*
X13682893Y-4333667D01*
X13682893Y-4293667D02*
X13642893Y-4333667D01*
X13643000Y-6710000D02*
X13683000Y-6750000D01*
X13683000Y-6710000D02*
X13643000Y-6750000D01*
X13646878Y-6538862D02*
X13686878Y-6578862D01*
X13686878Y-6538862D02*
X13646878Y-6578862D01*
X13653550Y-5013000D02*
X13693550Y-5053000D01*
X13693550Y-5013000D02*
X13653550Y-5053000D01*
X13653550Y-5176000D02*
X13693550Y-5216000D01*
X13693550Y-5176000D02*
X13653550Y-5216000D01*
X13659000Y-12085500D02*
X13699000Y-12125500D01*
X13699000Y-12085500D02*
X13659000Y-12125500D01*
X13666828Y-5724958D02*
X13706828Y-5764958D01*
X13706828Y-5724958D02*
X13666828Y-5764958D01*
X13667000Y-7725500D02*
X13707000Y-7765500D01*
X13707000Y-7725500D02*
X13667000Y-7765500D01*
X13676270Y-10653770D02*
X13716270Y-10693770D01*
X13716270Y-10653770D02*
X13676270Y-10693770D01*
X13692005Y-11927950D02*
X13732005Y-11967950D01*
X13732005Y-11927950D02*
X13692005Y-11967950D01*
X13693000Y-6623000D02*
X13733000Y-6663000D01*
X13733000Y-6623000D02*
X13693000Y-6663000D01*
X13701035Y-6247035D02*
X13741035Y-6287035D01*
X13741035Y-6247035D02*
X13701035Y-6287035D01*
X13704000Y-3999110D02*
X13744000Y-4039110D01*
X13744000Y-3999110D02*
X13704000Y-4039110D01*
X13706770Y-7495950D02*
X13746770Y-7535950D01*
X13746770Y-7495950D02*
X13706770Y-7535950D01*
X13712000Y-7997950D02*
X13752000Y-8037950D01*
X13752000Y-7997950D02*
X13712000Y-8037950D01*
X13720328Y-6910296D02*
X13760328Y-6950296D01*
X13760328Y-6910296D02*
X13720328Y-6950296D01*
X13732000Y-4613000D02*
X13772000Y-4653000D01*
X13772000Y-4613000D02*
X13732000Y-4653000D01*
X13734450Y-4477986D02*
X13774450Y-4517986D01*
X13774450Y-4477986D02*
X13734450Y-4517986D01*
X13747000Y-12615500D02*
X13787000Y-12655500D01*
X13787000Y-12615500D02*
X13747000Y-12655500D01*
X13747000Y-12875500D02*
X13787000Y-12915500D01*
X13787000Y-12875500D02*
X13747000Y-12915500D01*
X13754450Y-5392000D02*
X13794450Y-5432000D01*
X13794450Y-5392000D02*
X13754450Y-5432000D01*
X13758000Y-7681500D02*
X13798000Y-7721500D01*
X13798000Y-7681500D02*
X13758000Y-7721500D01*
X13763400Y-6115985D02*
X13803400Y-6155985D01*
X13803400Y-6115985D02*
X13763400Y-6155985D01*
X13782000Y-3420500D02*
X13822000Y-3460500D01*
X13822000Y-3420500D02*
X13782000Y-3460500D01*
X13817000Y-13297950D02*
X13857000Y-13337950D01*
X13857000Y-13297950D02*
X13817000Y-13337950D01*
X13832000Y-10030500D02*
X13872000Y-10070500D01*
X13872000Y-10030500D02*
X13832000Y-10070500D01*
X13837000Y-11757950D02*
X13877000Y-11797950D01*
X13877000Y-11757950D02*
X13837000Y-11797950D01*
X13872000Y-9086500D02*
X13912000Y-9126500D01*
X13912000Y-9086500D02*
X13872000Y-9126500D01*
X13967000Y-3495500D02*
X14007000Y-3535500D01*
X14007000Y-3495500D02*
X13967000Y-3535500D01*
X13997000Y-12885500D02*
X14037000Y-12925500D01*
X14037000Y-12885500D02*
X13997000Y-12925500D01*
X14047000Y-9035500D02*
X14087000Y-9075500D01*
X14087000Y-9035500D02*
X14047000Y-9075500D01*
X14053550Y-3718560D02*
X14093550Y-3758560D01*
X14093550Y-3718560D02*
X14053550Y-3758560D01*
X14075310Y-5020690D02*
X14115310Y-5060690D01*
X14115310Y-5020690D02*
X14075310Y-5060690D01*
X14087000Y-10740500D02*
X14127000Y-10780500D01*
X14127000Y-10740500D02*
X14087000Y-10780500D01*
X14110529Y-5818529D02*
X14150529Y-5858529D01*
X14150529Y-5818529D02*
X14110529Y-5858529D01*
X14115450Y-8295050D02*
X14155450Y-8335050D01*
X14155450Y-8295050D02*
X14115450Y-8335050D01*
X14119689Y-4470922D02*
X14159689Y-4510922D01*
X14159689Y-4470922D02*
X14119689Y-4510922D01*
X14122000Y-4375000D02*
X14162000Y-4415000D01*
X14162000Y-4375000D02*
X14122000Y-4415000D01*
X14122000Y-12140500D02*
X14162000Y-12180500D01*
X14162000Y-12140500D02*
X14122000Y-12180500D01*
X14128000Y-5490000D02*
X14168000Y-5530000D01*
X14168000Y-5490000D02*
X14128000Y-5530000D01*
X14169550Y-6025500D02*
X14209550Y-6065500D01*
X14209550Y-6025500D02*
X14169550Y-6065500D01*
X14177000Y-7754050D02*
X14217000Y-7794050D01*
X14217000Y-7754050D02*
X14177000Y-7794050D01*
X14196000Y-4054000D02*
X14236000Y-4094000D01*
X14236000Y-4054000D02*
X14196000Y-4094000D01*
X14197000Y-3917000D02*
X14237000Y-3957000D01*
X14237000Y-3917000D02*
X14197000Y-3957000D01*
X14211000Y-6484575D02*
X14251000Y-6524575D01*
X14251000Y-6484575D02*
X14211000Y-6524575D01*
X14217000Y-2775500D02*
X14257000Y-2815500D01*
X14257000Y-2775500D02*
X14217000Y-2815500D01*
X14223550Y-5604000D02*
X14263550Y-5644000D01*
X14263550Y-5604000D02*
X14223550Y-5644000D01*
X14224000Y-6216000D02*
X14264000Y-6256000D01*
X14264000Y-6216000D02*
X14224000Y-6256000D01*
X14237000Y-7375500D02*
X14277000Y-7415500D01*
X14277000Y-7375500D02*
X14237000Y-7415500D01*
X14240000Y-6755950D02*
X14280000Y-6795950D01*
X14280000Y-6755950D02*
X14240000Y-6795950D01*
X14257000Y-11780500D02*
X14297000Y-11820500D01*
X14297000Y-11780500D02*
X14257000Y-11820500D01*
X14307534Y-7090336D02*
X14347534Y-7130336D01*
X14347534Y-7090336D02*
X14307534Y-7130336D01*
X14327000Y-9785500D02*
X14367000Y-9825500D01*
X14367000Y-9785500D02*
X14327000Y-9825500D01*
X14367000Y-8262950D02*
X14407000Y-8302950D01*
X14407000Y-8262950D02*
X14367000Y-8302950D01*
X14392000Y-7450500D02*
X14432000Y-7490500D01*
X14432000Y-7450500D02*
X14392000Y-7490500D01*
X14397000Y-3305500D02*
X14437000Y-3345500D01*
X14437000Y-3305500D02*
X14397000Y-3345500D01*
X14402000Y-9090500D02*
X14442000Y-9130500D01*
X14442000Y-9090500D02*
X14402000Y-9130500D01*
X14402607Y-7077393D02*
X14442607Y-7117393D01*
X14442607Y-7077393D02*
X14402607Y-7117393D01*
X14455000Y-5322450D02*
X14495000Y-5362450D01*
X14495000Y-5322450D02*
X14455000Y-5362450D01*
X14457008Y-5418379D02*
X14497008Y-5458379D01*
X14497008Y-5418379D02*
X14457008Y-5458379D01*
X14485000Y-4289000D02*
X14525000Y-4329000D01*
X14525000Y-4289000D02*
X14485000Y-4329000D01*
X14572000Y-7115500D02*
X14612000Y-7155500D01*
X14612000Y-7115500D02*
X14572000Y-7155500D01*
X14575000Y-9184500D02*
X14615000Y-9224500D01*
X14615000Y-9184500D02*
X14575000Y-9224500D01*
X14627000Y-11455500D02*
X14667000Y-11495500D01*
X14667000Y-11455500D02*
X14627000Y-11495500D01*
X14635541Y-6464418D02*
X14675541Y-6504418D01*
X14675541Y-6464418D02*
X14635541Y-6504418D01*
X14637000Y-2767950D02*
X14677000Y-2807950D01*
X14677000Y-2767950D02*
X14637000Y-2807950D01*
X14646000Y-4573950D02*
X14686000Y-4613950D01*
X14686000Y-4573950D02*
X14646000Y-4613950D01*
X14653275Y-5820325D02*
X14693275Y-5860325D01*
X14693275Y-5820325D02*
X14653275Y-5860325D01*
X14657000Y-8262950D02*
X14697000Y-8302950D01*
X14697000Y-8262950D02*
X14657000Y-8302950D01*
X14659417Y-5629417D02*
X14699417Y-5669417D01*
X14699417Y-5629417D02*
X14659417Y-5669417D01*
X14667000Y-7330500D02*
X14707000Y-7370500D01*
X14707000Y-7330500D02*
X14667000Y-7370500D01*
X14672000Y-7754050D02*
X14712000Y-7794050D01*
X14712000Y-7754050D02*
X14672000Y-7794050D01*
X14687000Y-6945500D02*
X14727000Y-6985500D01*
X14727000Y-6945500D02*
X14687000Y-6985500D01*
X14687000Y-9780500D02*
X14727000Y-9820500D01*
X14727000Y-9780500D02*
X14687000Y-9820500D01*
X14687045Y-6105545D02*
X14727045Y-6145545D01*
X14727045Y-6105545D02*
X14687045Y-6145545D01*
X14717000Y-9002950D02*
X14757000Y-9042950D01*
X14757000Y-9002950D02*
X14717000Y-9042950D01*
X14720934Y-6687484D02*
X14760934Y-6727484D01*
X14760934Y-6687484D02*
X14720934Y-6727484D01*
X14745770Y-6514270D02*
X14785770Y-6554270D01*
X14785770Y-6514270D02*
X14745770Y-6554270D01*
X14756000Y-5829500D02*
X14796000Y-5869500D01*
X14796000Y-5829500D02*
X14756000Y-5869500D01*
X14777000Y-7362500D02*
X14817000Y-7402500D01*
X14817000Y-7362500D02*
X14777000Y-7402500D01*
X14802000Y-4574000D02*
X14842000Y-4614000D01*
X14842000Y-4574000D02*
X14802000Y-4614000D01*
X14821000Y-4985450D02*
X14861000Y-5025450D01*
X14861000Y-4985450D02*
X14821000Y-5025450D01*
X14822830Y-6038259D02*
X14862830Y-6078259D01*
X14862830Y-6038259D02*
X14822830Y-6078259D01*
X14832000Y-7687950D02*
X14872000Y-7727950D01*
X14872000Y-7687950D02*
X14832000Y-7727950D01*
X14837000Y-9088050D02*
X14877000Y-9128050D01*
X14877000Y-9088050D02*
X14837000Y-9128050D01*
X14839600Y-5762052D02*
X14879600Y-5802052D01*
X14879600Y-5762052D02*
X14839600Y-5802052D01*
X14847000Y-9940500D02*
X14887000Y-9980500D01*
X14887000Y-9940500D02*
X14847000Y-9980500D01*
X14854450Y-4035500D02*
X14894450Y-4075500D01*
X14894450Y-4035500D02*
X14854450Y-4075500D01*
X14856770Y-6132270D02*
X14896770Y-6172270D01*
X14896770Y-6132270D02*
X14856770Y-6172270D01*
X14857000Y-3885500D02*
X14897000Y-3925500D01*
X14897000Y-3885500D02*
X14857000Y-3925500D01*
X14857000Y-7285500D02*
X14897000Y-7325500D01*
X14897000Y-7285500D02*
X14857000Y-7325500D01*
X14863000Y-10744500D02*
X14903000Y-10784500D01*
X14903000Y-10744500D02*
X14863000Y-10784500D01*
X14874761Y-6591640D02*
X14914761Y-6631640D01*
X14914761Y-6591640D02*
X14874761Y-6631640D01*
X14882000Y-3665500D02*
X14922000Y-3705500D01*
X14922000Y-3665500D02*
X14882000Y-3705500D01*
X14887000Y-11809950D02*
X14927000Y-11849950D01*
X14927000Y-11809950D02*
X14887000Y-11849950D01*
X14899000Y-3220500D02*
X14939000Y-3260500D01*
X14939000Y-3220500D02*
X14899000Y-3260500D01*
X14902000Y-6870500D02*
X14942000Y-6910500D01*
X14942000Y-6870500D02*
X14902000Y-6910500D01*
X14927000Y-4380500D02*
X14967000Y-4420500D01*
X14967000Y-4380500D02*
X14927000Y-4420500D01*
X14991275Y-5178780D02*
X15031275Y-5218780D01*
X15031275Y-5178780D02*
X14991275Y-5218780D01*
X14993550Y-5517090D02*
X15033550Y-5557090D01*
X15033550Y-5517090D02*
X14993550Y-5557090D01*
X15017000Y-7320500D02*
X15057000Y-7360500D01*
X15057000Y-7320500D02*
X15017000Y-7360500D01*
X15029550Y-5689602D02*
X15069550Y-5729602D01*
X15069550Y-5689602D02*
X15029550Y-5729602D01*
X15029550Y-5865500D02*
X15069550Y-5905500D01*
X15069550Y-5865500D02*
X15029550Y-5905500D01*
X15042000Y-4505500D02*
X15082000Y-4545500D01*
X15082000Y-4505500D02*
X15042000Y-4545500D01*
X15058000Y-7826500D02*
X15098000Y-7866500D01*
X15098000Y-7826500D02*
X15058000Y-7866500D01*
X15092000Y-6400500D02*
X15132000Y-6440500D01*
X15132000Y-6400500D02*
X15092000Y-6440500D01*
X15095230Y-6163730D02*
X15135230Y-6203730D01*
X15135230Y-6163730D02*
X15095230Y-6203730D01*
X15097000Y-10750500D02*
X15137000Y-10790500D01*
X15137000Y-10750500D02*
X15097000Y-10790500D01*
X15134000Y-3192500D02*
X15174000Y-3232500D01*
X15174000Y-3192500D02*
X15134000Y-3232500D01*
X15137770Y-4985450D02*
X15177770Y-5025450D01*
X15177770Y-4985450D02*
X15137770Y-5025450D01*
X15153270Y-4519230D02*
X15193270Y-4559230D01*
X15193270Y-4519230D02*
X15153270Y-4559230D01*
X15199000Y-9087500D02*
X15239000Y-9127500D01*
X15239000Y-9087500D02*
X15199000Y-9127500D01*
X15255000Y-7760500D02*
X15295000Y-7800500D01*
X15295000Y-7760500D02*
X15255000Y-7800500D01*
X15257000Y-9865500D02*
X15297000Y-9905500D01*
X15297000Y-9865500D02*
X15257000Y-9905500D01*
X15262000Y-4235500D02*
X15302000Y-4275500D01*
X15302000Y-4235500D02*
X15262000Y-4275500D01*
X15267000Y-4130500D02*
X15307000Y-4170500D01*
X15307000Y-4130500D02*
X15267000Y-4170500D01*
X15295162Y-3812950D02*
X15335162Y-3852950D01*
X15335162Y-3812950D02*
X15295162Y-3852950D01*
X15307000Y-4720500D02*
X15347000Y-4760500D01*
X15347000Y-4720500D02*
X15307000Y-4760500D01*
X15312000Y-8930050D02*
X15352000Y-8970050D01*
X15352000Y-8930050D02*
X15312000Y-8970050D01*
X15318626Y-3938874D02*
X15358626Y-3978874D01*
X15358626Y-3938874D02*
X15318626Y-3978874D01*
X15332000Y-12090500D02*
X15372000Y-12130500D01*
X15372000Y-12090500D02*
X15332000Y-12130500D01*
X15332000Y-12305500D02*
X15372000Y-12345500D01*
X15372000Y-12305500D02*
X15332000Y-12345500D01*
X15337000Y-11775500D02*
X15377000Y-11815500D01*
X15377000Y-11775500D02*
X15337000Y-11815500D01*
X15351000Y-12666500D02*
X15391000Y-12706500D01*
X15391000Y-12666500D02*
X15351000Y-12706500D01*
X15375000Y-8258500D02*
X15415000Y-8298500D01*
X15415000Y-8258500D02*
X15375000Y-8298500D01*
X15387000Y-4815500D02*
X15427000Y-4855500D01*
X15427000Y-4815500D02*
X15387000Y-4855500D01*
X15399450Y-5630500D02*
X15439450Y-5670500D01*
X15439450Y-5630500D02*
X15399450Y-5670500D01*
X15407000Y-4330500D02*
X15447000Y-4370500D01*
X15447000Y-4330500D02*
X15407000Y-4370500D01*
X15407000Y-5515500D02*
X15447000Y-5555500D01*
X15447000Y-5515500D02*
X15407000Y-5555500D01*
X15411000Y-3174500D02*
X15451000Y-3214500D01*
X15451000Y-3174500D02*
X15411000Y-3214500D01*
X15422000Y-3635500D02*
X15462000Y-3675500D01*
X15462000Y-3635500D02*
X15422000Y-3675500D01*
X15422000Y-3815500D02*
X15462000Y-3855500D01*
X15462000Y-3815500D02*
X15422000Y-3855500D01*
X15427000Y-5065500D02*
X15467000Y-5105500D01*
X15467000Y-5065500D02*
X15427000Y-5105500D01*
X15437000Y-11501500D02*
X15477000Y-11541500D01*
X15477000Y-11501500D02*
X15437000Y-11541500D01*
X15452000Y-11785500D02*
X15492000Y-11825500D01*
X15492000Y-11785500D02*
X15452000Y-11825500D01*
X15473000Y-5837500D02*
X15513000Y-5877500D01*
X15513000Y-5837500D02*
X15473000Y-5877500D01*
X15482000Y-6615500D02*
X15522000Y-6655500D01*
X15522000Y-6615500D02*
X15482000Y-6655500D01*
X15488000Y-5956500D02*
X15528000Y-5996500D01*
X15528000Y-5956500D02*
X15488000Y-5996500D01*
X15496000Y-5250500D02*
X15536000Y-5290500D01*
X15536000Y-5250500D02*
X15496000Y-5290500D01*
X15497000Y-4130450D02*
X15537000Y-4170450D01*
X15537000Y-4130450D02*
X15497000Y-4170450D01*
X15502000Y-6365500D02*
X15542000Y-6405500D01*
X15542000Y-6365500D02*
X15502000Y-6405500D01*
X15509505Y-6122995D02*
X15549505Y-6162995D01*
X15549505Y-6122995D02*
X15509505Y-6162995D01*
X15525000Y-8917950D02*
X15565000Y-8957950D01*
X15565000Y-8917950D02*
X15525000Y-8957950D01*
X15527000Y-4275400D02*
X15567000Y-4315400D01*
X15567000Y-4275400D02*
X15527000Y-4315400D01*
X15527000Y-8172950D02*
X15567000Y-8212950D01*
X15567000Y-8172950D02*
X15527000Y-8212950D01*
X15537000Y-9805500D02*
X15577000Y-9845500D01*
X15577000Y-9805500D02*
X15537000Y-9845500D01*
X15588550Y-5762500D02*
X15628550Y-5802500D01*
X15628550Y-5762500D02*
X15588550Y-5802500D01*
X15602000Y-11775450D02*
X15642000Y-11815450D01*
X15642000Y-11775450D02*
X15602000Y-11815450D01*
X15617000Y-7375500D02*
X15657000Y-7415500D01*
X15657000Y-7375500D02*
X15617000Y-7415500D01*
X15617000Y-7815500D02*
X15657000Y-7855500D01*
X15657000Y-7815500D02*
X15617000Y-7855500D01*
X15627000Y-5615500D02*
X15667000Y-5655500D01*
X15667000Y-5615500D02*
X15627000Y-5655500D01*
X15632450Y-4680500D02*
X15672450Y-4720500D01*
X15672450Y-4680500D02*
X15632450Y-4720500D01*
X15657000Y-4785500D02*
X15697000Y-4825500D01*
X15697000Y-4785500D02*
X15657000Y-4825500D01*
X15727000Y-6716500D02*
X15767000Y-6756500D01*
X15767000Y-6716500D02*
X15727000Y-6756500D01*
X15759000Y-4261500D02*
X15799000Y-4301500D01*
X15799000Y-4261500D02*
X15759000Y-4301500D01*
X15761950Y-7760500D02*
X15801950Y-7800500D01*
X15801950Y-7760500D02*
X15761950Y-7800500D01*
X15812035Y-5615465D02*
X15852035Y-5655465D01*
X15852035Y-5615465D02*
X15812035Y-5655465D01*
X15817000Y-2815500D02*
X15857000Y-2855500D01*
X15857000Y-2815500D02*
X15817000Y-2855500D01*
X15827000Y-6664500D02*
X15867000Y-6704500D01*
X15867000Y-6664500D02*
X15827000Y-6704500D01*
X15877050Y-5359450D02*
X15917050Y-5399450D01*
X15917050Y-5359450D02*
X15877050Y-5399450D01*
X15881000Y-4314500D02*
X15921000Y-4354500D01*
X15921000Y-4314500D02*
X15881000Y-4354500D01*
X15902000Y-8910500D02*
X15942000Y-8950500D01*
X15942000Y-8910500D02*
X15902000Y-8950500D01*
X15917000Y-9905500D02*
X15957000Y-9945500D01*
X15957000Y-9905500D02*
X15917000Y-9945500D01*
X15979000Y-5317500D02*
X16019000Y-5357500D01*
X16019000Y-5317500D02*
X15979000Y-5357500D01*
X16012000Y-3145500D02*
X16052000Y-3185500D01*
X16052000Y-3145500D02*
X16012000Y-3185500D01*
X16042000Y-5160500D02*
X16082000Y-5200500D01*
X16082000Y-5160500D02*
X16042000Y-5200500D01*
X16057000Y-7775500D02*
X16097000Y-7815500D01*
X16097000Y-7775500D02*
X16057000Y-7815500D01*
X16057995Y-7180955D02*
X16097995Y-7220955D01*
X16097995Y-7180955D02*
X16057995Y-7220955D01*
X16110000Y-9002500D02*
X16150000Y-9042500D01*
X16150000Y-9002500D02*
X16110000Y-9042500D01*
X16122000Y-4655500D02*
X16162000Y-4695500D01*
X16162000Y-4655500D02*
X16122000Y-4695500D01*
X16122000Y-11197950D02*
X16162000Y-11237950D01*
X16162000Y-11197950D02*
X16122000Y-11237950D01*
X16134450Y-7321050D02*
X16174450Y-7361050D01*
X16174450Y-7321050D02*
X16134450Y-7361050D01*
X16167000Y-5140500D02*
X16207000Y-5180500D01*
X16207000Y-5140500D02*
X16167000Y-5180500D01*
X16184000Y-2777500D02*
X16224000Y-2817500D01*
X16224000Y-2777500D02*
X16184000Y-2817500D01*
X16232000Y-4540500D02*
X16272000Y-4580500D01*
X16272000Y-4540500D02*
X16232000Y-4580500D01*
X16232000Y-11997950D02*
X16272000Y-12037950D01*
X16272000Y-11997950D02*
X16232000Y-12037950D01*
X16252000Y-8905500D02*
X16292000Y-8945500D01*
X16292000Y-8905500D02*
X16252000Y-8945500D01*
X16267000Y-5080500D02*
X16307000Y-5120500D01*
X16307000Y-5080500D02*
X16267000Y-5120500D01*
X16274838Y-9149132D02*
X16314838Y-9189132D01*
X16314838Y-9149132D02*
X16274838Y-9189132D01*
X16282000Y-9940500D02*
X16322000Y-9980500D01*
X16322000Y-9940500D02*
X16282000Y-9980500D01*
X16324995Y-7447955D02*
X16364995Y-7487955D01*
X16364995Y-7447955D02*
X16324995Y-7487955D01*
X16339000Y-7205500D02*
X16379000Y-7245500D01*
X16379000Y-7205500D02*
X16339000Y-7245500D01*
X16367000Y-4755500D02*
X16407000Y-4795500D01*
X16407000Y-4755500D02*
X16367000Y-4795500D01*
X16372000Y-4060500D02*
X16412000Y-4100500D01*
X16412000Y-4060500D02*
X16372000Y-4100500D01*
X16387000Y-4275500D02*
X16427000Y-4315500D01*
X16427000Y-4275500D02*
X16387000Y-4315500D01*
X16414550Y-7768541D02*
X16454550Y-7808541D01*
X16454550Y-7768541D02*
X16414550Y-7808541D01*
X16422000Y-4630500D02*
X16462000Y-4670500D01*
X16462000Y-4630500D02*
X16422000Y-4670500D01*
X16422000Y-6830500D02*
X16462000Y-6870500D01*
X16462000Y-6830500D02*
X16422000Y-6870500D01*
X16457000Y-3435500D02*
X16497000Y-3475500D01*
X16497000Y-3435500D02*
X16457000Y-3475500D01*
X16462000Y-9910500D02*
X16502000Y-9950500D01*
X16502000Y-9910500D02*
X16462000Y-9950500D01*
X16480000Y-8196950D02*
X16520000Y-8236950D01*
X16520000Y-8196950D02*
X16480000Y-8236950D01*
X16490000Y-6449500D02*
X16530000Y-6489500D01*
X16530000Y-6449500D02*
X16490000Y-6489500D01*
X16557000Y-4935500D02*
X16597000Y-4975500D01*
X16597000Y-4935500D02*
X16557000Y-4975500D01*
X16562050Y-7767950D02*
X16602050Y-7807950D01*
X16602050Y-7767950D02*
X16562050Y-7807950D01*
X16563311Y-7115189D02*
X16603311Y-7155189D01*
X16603311Y-7115189D02*
X16563311Y-7155189D01*
X16567000Y-2895500D02*
X16607000Y-2935500D01*
X16607000Y-2895500D02*
X16567000Y-2935500D01*
X16567000Y-11275500D02*
X16607000Y-11315500D01*
X16607000Y-11275500D02*
X16567000Y-11315500D01*
X16572000Y-4725500D02*
X16612000Y-4765500D01*
X16612000Y-4725500D02*
X16572000Y-4765500D01*
X16604550Y-6155500D02*
X16644550Y-6195500D01*
X16644550Y-6155500D02*
X16604550Y-6195500D01*
X16607000Y-9095500D02*
X16647000Y-9135500D01*
X16647000Y-9095500D02*
X16607000Y-9135500D01*
X16622000Y-10945500D02*
X16662000Y-10985500D01*
X16662000Y-10945500D02*
X16622000Y-10985500D01*
X16707000Y-7785500D02*
X16747000Y-7825500D01*
X16747000Y-7785500D02*
X16707000Y-7825500D01*
X16757000Y-8890500D02*
X16797000Y-8930500D01*
X16797000Y-8890500D02*
X16757000Y-8930500D01*
X16772000Y-10897500D02*
X16812000Y-10937500D01*
X16812000Y-10897500D02*
X16772000Y-10937500D01*
X16788235Y-9036174D02*
X16828235Y-9076174D01*
X16828235Y-9036174D02*
X16788235Y-9076174D01*
X16818410Y-9971495D02*
X16858410Y-10011495D01*
X16858410Y-9971495D02*
X16818410Y-10011495D01*
X16827000Y-5015500D02*
X16867000Y-5055500D01*
X16867000Y-5015500D02*
X16827000Y-5055500D01*
X16857000Y-7775500D02*
X16897000Y-7815500D01*
X16897000Y-7775500D02*
X16857000Y-7815500D01*
X16857000Y-12985500D02*
X16897000Y-13025500D01*
X16897000Y-12985500D02*
X16857000Y-13025500D01*
X16867000Y-9725500D02*
X16907000Y-9765500D01*
X16907000Y-9725500D02*
X16867000Y-9765500D01*
X16892000Y-4770500D02*
X16932000Y-4810500D01*
X16932000Y-4770500D02*
X16892000Y-4810500D01*
X16955770Y-9059270D02*
X16995770Y-9099270D01*
X16995770Y-9059270D02*
X16955770Y-9099270D01*
X16977000Y-4115500D02*
X17017000Y-4155500D01*
X17017000Y-4115500D02*
X16977000Y-4155500D01*
X16977000Y-4445500D02*
X17017000Y-4485500D01*
X17017000Y-4445500D02*
X16977000Y-4485500D01*
X17007000Y-7767950D02*
X17047000Y-7807950D01*
X17047000Y-7767950D02*
X17007000Y-7807950D01*
X17014450Y-5645500D02*
X17054450Y-5685500D01*
X17054450Y-5645500D02*
X17014450Y-5685500D01*
X17032000Y-12615500D02*
X17072000Y-12655500D01*
X17072000Y-12615500D02*
X17032000Y-12655500D01*
X17047000Y-5135500D02*
X17087000Y-5175500D01*
X17087000Y-5135500D02*
X17047000Y-5175500D01*
X17057000Y-12925500D02*
X17097000Y-12965500D01*
X17097000Y-12925500D02*
X17057000Y-12965500D01*
X17067000Y-3895500D02*
X17107000Y-3935500D01*
X17107000Y-3895500D02*
X17067000Y-3935500D01*
X17067000Y-4215500D02*
X17107000Y-4255500D01*
X17107000Y-4215500D02*
X17067000Y-4255500D01*
X17067000Y-4365500D02*
X17107000Y-4405500D01*
X17107000Y-4365500D02*
X17067000Y-4405500D01*
X17087000Y-4665500D02*
X17127000Y-4705500D01*
X17127000Y-4665500D02*
X17087000Y-4705500D01*
X17088230Y-4856730D02*
X17128230Y-4896730D01*
X17128230Y-4856730D02*
X17088230Y-4896730D01*
X17117000Y-3575500D02*
X17157000Y-3615500D01*
X17157000Y-3575500D02*
X17117000Y-3615500D01*
X17137000Y-3315500D02*
X17177000Y-3355500D01*
X17177000Y-3315500D02*
X17137000Y-3355500D01*
X17137000Y-4130500D02*
X17177000Y-4170500D01*
X17177000Y-4130500D02*
X17137000Y-4170500D01*
X17142000Y-5975500D02*
X17182000Y-6015500D01*
X17182000Y-5975500D02*
X17142000Y-6015500D01*
X17147000Y-5155500D02*
X17187000Y-5195500D01*
X17187000Y-5155500D02*
X17147000Y-5195500D01*
X17152765Y-12507265D02*
X17192765Y-12547265D01*
X17192765Y-12507265D02*
X17152765Y-12547265D01*
X17177000Y-11612950D02*
X17217000Y-11652950D01*
X17217000Y-11612950D02*
X17177000Y-11652950D01*
X17235730Y-7766770D02*
X17275730Y-7806770D01*
X17275730Y-7766770D02*
X17235730Y-7806770D01*
X17262000Y-10747500D02*
X17302000Y-10787500D01*
X17302000Y-10747500D02*
X17262000Y-10787500D01*
X17306000Y-13215500D02*
X17346000Y-13255500D01*
X17346000Y-13215500D02*
X17306000Y-13255500D01*
X17313000Y-7133500D02*
X17353000Y-7173500D01*
X17353000Y-7133500D02*
X17313000Y-7173500D01*
X17398000Y-9868050D02*
X17438000Y-9908050D01*
X17438000Y-9868050D02*
X17398000Y-9908050D01*
X17422050Y-9495500D02*
X17462050Y-9535500D01*
X17462050Y-9495500D02*
X17422050Y-9535500D01*
X17432000Y-8550500D02*
X17472000Y-8590500D01*
X17472000Y-8550500D02*
X17432000Y-8590500D01*
X17462000Y-10550500D02*
X17502000Y-10590500D01*
X17502000Y-10550500D02*
X17462000Y-10590500D01*
X17477000Y-5275500D02*
X17517000Y-5315500D01*
X17517000Y-5275500D02*
X17477000Y-5315500D01*
X17477000Y-5415500D02*
X17517000Y-5455500D01*
X17517000Y-5415500D02*
X17477000Y-5455500D01*
X17493903Y-5038597D02*
X17533903Y-5078597D01*
X17533903Y-5038597D02*
X17493903Y-5078597D01*
X17497000Y-4695500D02*
X17537000Y-4735500D01*
X17537000Y-4695500D02*
X17497000Y-4735500D01*
X17497550Y-12801050D02*
X17537550Y-12841050D01*
X17537550Y-12801050D02*
X17497550Y-12841050D01*
X17505770Y-4464270D02*
X17545770Y-4504270D01*
X17545770Y-4464270D02*
X17505770Y-4504270D01*
X17507000Y-11735500D02*
X17547000Y-11775500D01*
X17547000Y-11735500D02*
X17507000Y-11775500D01*
X17507000Y-11905500D02*
X17547000Y-11945500D01*
X17547000Y-11905500D02*
X17507000Y-11945500D01*
X17507000Y-12025500D02*
X17547000Y-12065500D01*
X17547000Y-12025500D02*
X17507000Y-12065500D01*
X17527000Y-10835500D02*
X17567000Y-10875500D01*
X17567000Y-10835500D02*
X17527000Y-10875500D01*
X17542000Y-4215500D02*
X17582000Y-4255500D01*
X17582000Y-4215500D02*
X17542000Y-4255500D01*
X17556000Y-12978500D02*
X17596000Y-13018500D01*
X17596000Y-12978500D02*
X17556000Y-13018500D01*
X17567000Y-9040500D02*
X17607000Y-9080500D01*
X17607000Y-9040500D02*
X17567000Y-9080500D01*
X17587000Y-8530500D02*
X17627000Y-8570500D01*
X17627000Y-8530500D02*
X17587000Y-8570500D01*
X17592000Y-7298050D02*
X17632000Y-7338050D01*
X17632000Y-7298050D02*
X17592000Y-7338050D01*
X17647000Y-5495500D02*
X17687000Y-5535500D01*
X17687000Y-5495500D02*
X17647000Y-5535500D01*
X17659450Y-4975500D02*
X17699450Y-5015500D01*
X17699450Y-4975500D02*
X17659450Y-5015500D01*
X17667000Y-4855500D02*
X17707000Y-4895500D01*
X17707000Y-4855500D02*
X17667000Y-4895500D01*
X17688230Y-9468879D02*
X17728230Y-9508879D01*
X17728230Y-9468879D02*
X17688230Y-9508879D01*
X17692000Y-12848500D02*
X17732000Y-12888500D01*
X17732000Y-12848500D02*
X17692000Y-12888500D01*
X17707000Y-10075500D02*
X17747000Y-10115500D01*
X17747000Y-10075500D02*
X17707000Y-10115500D01*
X17725737Y-7940550D02*
X17765737Y-7980550D01*
X17765737Y-7940550D02*
X17725737Y-7980550D01*
X17727000Y-12700500D02*
X17767000Y-12740500D01*
X17767000Y-12700500D02*
X17727000Y-12740500D01*
X17735000Y-8302500D02*
X17775000Y-8342500D01*
X17775000Y-8302500D02*
X17735000Y-8342500D01*
X17737000Y-5285500D02*
X17777000Y-5325500D01*
X17777000Y-5285500D02*
X17737000Y-5325500D01*
X17737000Y-8085500D02*
X17777000Y-8125500D01*
X17777000Y-8085500D02*
X17737000Y-8125500D01*
X17757000Y-4775500D02*
X17797000Y-4815500D01*
X17797000Y-4775500D02*
X17757000Y-4815500D01*
X17787000Y-8435500D02*
X17827000Y-8475500D01*
X17827000Y-8435500D02*
X17787000Y-8475500D01*
X17812000Y-3265500D02*
X17852000Y-3305500D01*
X17852000Y-3265500D02*
X17812000Y-3305500D01*
X17832000Y-7298050D02*
X17872000Y-7338050D01*
X17872000Y-7298050D02*
X17832000Y-7338050D01*
X17832000Y-9298500D02*
X17872000Y-9338500D01*
X17872000Y-9298500D02*
X17832000Y-9338500D01*
X17837000Y-9613050D02*
X17877000Y-9653050D01*
X17877000Y-9613050D02*
X17837000Y-9653050D01*
X17847000Y-11350500D02*
X17887000Y-11390500D01*
X17887000Y-11350500D02*
X17847000Y-11390500D01*
X17867000Y-11065500D02*
X17907000Y-11105500D01*
X17907000Y-11065500D02*
X17867000Y-11105500D01*
X17896950Y-10417500D02*
X17936950Y-10457500D01*
X17936950Y-10417500D02*
X17896950Y-10457500D01*
X17907000Y-10695500D02*
X17947000Y-10735500D01*
X17947000Y-10695500D02*
X17907000Y-10735500D01*
X17908270Y-7749230D02*
X17948270Y-7789230D01*
X17948270Y-7749230D02*
X17908270Y-7789230D01*
X17957000Y-3360500D02*
X17997000Y-3400500D01*
X17997000Y-3360500D02*
X17957000Y-3400500D01*
X17992000Y-7240500D02*
X18032000Y-7280500D01*
X18032000Y-7240500D02*
X17992000Y-7280500D01*
X18018550Y-7897950D02*
X18058550Y-7937950D01*
X18058550Y-7897950D02*
X18018550Y-7937950D01*
X18062000Y-4935500D02*
X18102000Y-4975500D01*
X18102000Y-4935500D02*
X18062000Y-4975500D01*
X18072000Y-8355500D02*
X18112000Y-8395500D01*
X18112000Y-8355500D02*
X18072000Y-8395500D01*
X18082000Y-8157950D02*
X18122000Y-8197950D01*
X18122000Y-8157950D02*
X18082000Y-8197950D01*
X18084550Y-7360550D02*
X18124550Y-7400550D01*
X18124550Y-7360550D02*
X18084550Y-7400550D01*
X18155000Y-13054500D02*
X18195000Y-13094500D01*
X18195000Y-13054500D02*
X18155000Y-13094500D01*
X18243000Y-6506500D02*
X18283000Y-6546500D01*
X18283000Y-6506500D02*
X18243000Y-6546500D01*
X18247000Y-4775500D02*
X18287000Y-4815500D01*
X18287000Y-4775500D02*
X18247000Y-4815500D01*
X18247000Y-4925500D02*
X18287000Y-4965500D01*
X18287000Y-4925500D02*
X18247000Y-4965500D01*
X18262000Y-7311500D02*
X18302000Y-7351500D01*
X18302000Y-7311500D02*
X18262000Y-7351500D01*
X18267000Y-3685500D02*
X18307000Y-3725500D01*
X18307000Y-3685500D02*
X18267000Y-3725500D01*
X18282000Y-3535500D02*
X18322000Y-3575500D01*
X18322000Y-3535500D02*
X18282000Y-3575500D01*
X18297000Y-7900500D02*
X18337000Y-7940500D01*
X18337000Y-7900500D02*
X18297000Y-7940500D01*
X18327000Y-5415500D02*
X18367000Y-5455500D01*
X18367000Y-5415500D02*
X18327000Y-5455500D01*
X18407000Y-5255500D02*
X18447000Y-5295500D01*
X18447000Y-5255500D02*
X18407000Y-5295500D01*
X18418270Y-6591770D02*
X18458270Y-6631770D01*
X18458270Y-6591770D02*
X18418270Y-6631770D01*
X18427000Y-6140500D02*
X18467000Y-6180500D01*
X18467000Y-6140500D02*
X18427000Y-6180500D01*
X18467000Y-2870500D02*
X18507000Y-2910500D01*
X18507000Y-2870500D02*
X18467000Y-2910500D01*
X18475000Y-9734500D02*
X18515000Y-9774500D01*
X18515000Y-9734500D02*
X18475000Y-9774500D01*
X18477000Y-6390500D02*
X18517000Y-6430500D01*
X18517000Y-6390500D02*
X18477000Y-6430500D01*
X18478270Y-3491770D02*
X18518270Y-3531770D01*
X18518270Y-3491770D02*
X18478270Y-3531770D01*
X18487000Y-4875500D02*
X18527000Y-4915500D01*
X18527000Y-4875500D02*
X18487000Y-4915500D01*
X18497000Y-4245500D02*
X18537000Y-4285500D01*
X18537000Y-4245500D02*
X18497000Y-4285500D01*
X18497000Y-5455500D02*
X18537000Y-5495500D01*
X18537000Y-5455500D02*
X18497000Y-5495500D01*
X18502000Y-10957500D02*
X18542000Y-10997500D01*
X18542000Y-10957500D02*
X18502000Y-10997500D01*
X18507000Y-4585500D02*
X18547000Y-4625500D01*
X18547000Y-4585500D02*
X18507000Y-4625500D01*
X18525770Y-8426730D02*
X18565770Y-8466730D01*
X18565770Y-8426730D02*
X18525770Y-8466730D01*
X18612000Y-11185500D02*
X18652000Y-11225500D01*
X18652000Y-11185500D02*
X18612000Y-11225500D01*
X18617000Y-10465500D02*
X18657000Y-10505500D01*
X18657000Y-10465500D02*
X18617000Y-10505500D01*
X18628000Y-12343500D02*
X18668000Y-12383500D01*
X18668000Y-12343500D02*
X18628000Y-12383500D01*
X18680000Y-8874500D02*
X18720000Y-8914500D01*
X18720000Y-8874500D02*
X18680000Y-8914500D01*
X18702000Y-10175500D02*
X18742000Y-10215500D01*
X18742000Y-10175500D02*
X18702000Y-10215500D01*
X18712000Y-8385500D02*
X18752000Y-8425500D01*
X18752000Y-8385500D02*
X18712000Y-8425500D01*
X18887000Y-7615500D02*
X18927000Y-7655500D01*
X18927000Y-7615500D02*
X18887000Y-7655500D01*
X19072000Y-8260500D02*
X19112000Y-8300500D01*
X19112000Y-8260500D02*
X19072000Y-8300500D01*
X19147000Y-11035500D02*
X19187000Y-11075500D01*
X19187000Y-11035500D02*
X19147000Y-11075500D01*
X19152000Y-11420500D02*
X19192000Y-11460500D01*
X19192000Y-11420500D02*
X19152000Y-11460500D01*
X19152000Y-11700500D02*
X19192000Y-11740500D01*
X19192000Y-11700500D02*
X19152000Y-11740500D01*
X19154000Y-11207500D02*
X19194000Y-11247500D01*
X19194000Y-11207500D02*
X19154000Y-11247500D01*
X19217000Y-4265500D02*
X19257000Y-4305500D01*
X19257000Y-4265500D02*
X19217000Y-4305500D01*
X19221000Y-7561000D02*
X19261000Y-7601000D01*
X19261000Y-7561000D02*
X19221000Y-7601000D01*
X19227000Y-10745500D02*
X19267000Y-10785500D01*
X19267000Y-10745500D02*
X19227000Y-10785500D01*
X19251000Y-6507000D02*
X19291000Y-6547000D01*
X19291000Y-6507000D02*
X19251000Y-6547000D01*
X19257000Y-3875500D02*
X19297000Y-3915500D01*
X19297000Y-3875500D02*
X19257000Y-3915500D01*
X19258000Y-6851000D02*
X19298000Y-6891000D01*
X19298000Y-6851000D02*
X19258000Y-6891000D01*
X19293230Y-9836730D02*
X19333230Y-9876730D01*
X19333230Y-9836730D02*
X19293230Y-9876730D01*
X19297000Y-4075500D02*
X19337000Y-4115500D01*
X19337000Y-4075500D02*
X19297000Y-4115500D01*
X19303550Y-7231000D02*
X19343550Y-7271000D01*
X19343550Y-7231000D02*
X19303550Y-7271000D01*
D12*
X3531000Y-5125500D02*
G75*
G03*
X3531000Y-5125500I-40000J0D01*
G01*
X3531000Y-5379500D02*
G75*
G03*
X3531000Y-5379500I-40000J0D01*
G01*
X3531000Y-5633500D02*
G75*
G03*
X3531000Y-5633500I-40000J0D01*
G01*
X3531000Y-5887500D02*
G75*
G03*
X3531000Y-5887500I-40000J0D01*
G01*
X3531000Y-6141500D02*
G75*
G03*
X3531000Y-6141500I-40000J0D01*
G01*
X3531000Y-6395500D02*
G75*
G03*
X3531000Y-6395500I-40000J0D01*
G01*
X3531000Y-6649500D02*
G75*
G03*
X3531000Y-6649500I-40000J0D01*
G01*
X3531000Y-6903500D02*
G75*
G03*
X3531000Y-6903500I-40000J0D01*
G01*
X3531000Y-7157500D02*
G75*
G03*
X3531000Y-7157500I-40000J0D01*
G01*
X3531000Y-7411500D02*
G75*
G03*
X3531000Y-7411500I-40000J0D01*
G01*
X3531000Y-7665500D02*
G75*
G03*
X3531000Y-7665500I-40000J0D01*
G01*
X5551570Y-5125500D02*
G75*
G03*
X5551570Y-5125500I-40000J0D01*
G01*
X5551570Y-5379500D02*
G75*
G03*
X5551570Y-5379500I-40000J0D01*
G01*
X5551570Y-5633500D02*
G75*
G03*
X5551570Y-5633500I-40000J0D01*
G01*
X5551570Y-5887500D02*
G75*
G03*
X5551570Y-5887500I-40000J0D01*
G01*
X5551570Y-6141500D02*
G75*
G03*
X5551570Y-6141500I-40000J0D01*
G01*
X5551570Y-6395500D02*
G75*
G03*
X5551570Y-6395500I-40000J0D01*
G01*
X5551570Y-6649500D02*
G75*
G03*
X5551570Y-6649500I-40000J0D01*
G01*
X5551570Y-6903500D02*
G75*
G03*
X5551570Y-6903500I-40000J0D01*
G01*
X5551570Y-7157500D02*
G75*
G03*
X5551570Y-7157500I-40000J0D01*
G01*
X5551570Y-7411500D02*
G75*
G03*
X5551570Y-7411500I-40000J0D01*
G01*
X5551570Y-7665500D02*
G75*
G03*
X5551570Y-7665500I-40000J0D01*
G01*
D13*
X13471000Y-8415830D02*
X13471000Y-8504730D01*
X13426550Y-8460280D02*
X13515450Y-8460280D01*
X13471000Y-8669830D02*
X13471000Y-8758730D01*
X13426550Y-8714280D02*
X13515450Y-8714280D01*
X13471000Y-9294163D02*
X13471000Y-9383063D01*
X13426550Y-9338613D02*
X13515450Y-9338613D01*
X13471000Y-9548163D02*
X13471000Y-9637063D01*
X13426550Y-9592613D02*
X13515450Y-9592613D01*
X13471000Y-10172497D02*
X13471000Y-10261397D01*
X13426550Y-10216947D02*
X13515450Y-10216947D01*
X13471000Y-10426497D02*
X13471000Y-10515397D01*
X13426550Y-10470947D02*
X13515450Y-10470947D01*
X13725000Y-8415830D02*
X13725000Y-8504730D01*
X13680550Y-8460280D02*
X13769450Y-8460280D01*
X13725000Y-8669830D02*
X13725000Y-8758730D01*
X13680550Y-8714280D02*
X13769450Y-8714280D01*
X13725000Y-9294163D02*
X13725000Y-9383063D01*
X13680550Y-9338613D02*
X13769450Y-9338613D01*
X13725000Y-9548163D02*
X13725000Y-9637063D01*
X13680550Y-9592613D02*
X13769450Y-9592613D01*
X13725000Y-10172497D02*
X13725000Y-10261397D01*
X13680550Y-10216947D02*
X13769450Y-10216947D01*
X13725000Y-10426497D02*
X13725000Y-10515397D01*
X13680550Y-10470947D02*
X13769450Y-10470947D01*
X13979000Y-8415830D02*
X13979000Y-8504730D01*
X13934550Y-8460280D02*
X14023450Y-8460280D01*
X13979000Y-8669830D02*
X13979000Y-8758730D01*
X13934550Y-8714280D02*
X14023450Y-8714280D01*
X13979000Y-9294163D02*
X13979000Y-9383063D01*
X13934550Y-9338613D02*
X14023450Y-9338613D01*
X13979000Y-9548163D02*
X13979000Y-9637063D01*
X13934550Y-9592613D02*
X14023450Y-9592613D01*
X13979000Y-10172497D02*
X13979000Y-10261397D01*
X13934550Y-10216947D02*
X14023450Y-10216947D01*
X13979000Y-10426497D02*
X13979000Y-10515397D01*
X13934550Y-10470947D02*
X14023450Y-10470947D01*
X14233000Y-8415830D02*
X14233000Y-8504730D01*
X14188550Y-8460280D02*
X14277450Y-8460280D01*
X14233000Y-8669830D02*
X14233000Y-8758730D01*
X14188550Y-8714280D02*
X14277450Y-8714280D01*
X14233000Y-9294163D02*
X14233000Y-9383063D01*
X14188550Y-9338613D02*
X14277450Y-9338613D01*
X14233000Y-9548163D02*
X14233000Y-9637063D01*
X14188550Y-9592613D02*
X14277450Y-9592613D01*
X14233000Y-10172497D02*
X14233000Y-10261397D01*
X14188550Y-10216947D02*
X14277450Y-10216947D01*
X14233000Y-10426497D02*
X14233000Y-10515397D01*
X14188550Y-10470947D02*
X14277450Y-10470947D01*
X14487000Y-8415830D02*
X14487000Y-8504730D01*
X14442550Y-8460280D02*
X14531450Y-8460280D01*
X14487000Y-8669830D02*
X14487000Y-8758730D01*
X14442550Y-8714280D02*
X14531450Y-8714280D01*
X14487000Y-9294163D02*
X14487000Y-9383063D01*
X14442550Y-9338613D02*
X14531450Y-9338613D01*
X14487000Y-9548163D02*
X14487000Y-9637063D01*
X14442550Y-9592613D02*
X14531450Y-9592613D01*
X14487000Y-10172497D02*
X14487000Y-10261397D01*
X14442550Y-10216947D02*
X14531450Y-10216947D01*
X14487000Y-10426497D02*
X14487000Y-10515397D01*
X14442550Y-10470947D02*
X14531450Y-10470947D01*
X14741000Y-8415830D02*
X14741000Y-8504730D01*
X14696550Y-8460280D02*
X14785450Y-8460280D01*
X14741000Y-8669830D02*
X14741000Y-8758730D01*
X14696550Y-8714280D02*
X14785450Y-8714280D01*
X14741000Y-9294163D02*
X14741000Y-9383063D01*
X14696550Y-9338613D02*
X14785450Y-9338613D01*
X14741000Y-9548163D02*
X14741000Y-9637063D01*
X14696550Y-9592613D02*
X14785450Y-9592613D01*
X14741000Y-10172497D02*
X14741000Y-10261397D01*
X14696550Y-10216947D02*
X14785450Y-10216947D01*
X14741000Y-10426497D02*
X14741000Y-10515397D01*
X14696550Y-10470947D02*
X14785450Y-10470947D01*
X14995000Y-8415830D02*
X14995000Y-8504730D01*
X14950550Y-8460280D02*
X15039450Y-8460280D01*
X14995000Y-8669830D02*
X14995000Y-8758730D01*
X14950550Y-8714280D02*
X15039450Y-8714280D01*
X14995000Y-9294163D02*
X14995000Y-9383063D01*
X14950550Y-9338613D02*
X15039450Y-9338613D01*
X14995000Y-9548163D02*
X14995000Y-9637063D01*
X14950550Y-9592613D02*
X15039450Y-9592613D01*
X14995000Y-10172497D02*
X14995000Y-10261397D01*
X14950550Y-10216947D02*
X15039450Y-10216947D01*
X14995000Y-10426497D02*
X14995000Y-10515397D01*
X14950550Y-10470947D02*
X15039450Y-10470947D01*
X15249000Y-8415830D02*
X15249000Y-8504730D01*
X15204550Y-8460280D02*
X15293450Y-8460280D01*
X15249000Y-8669830D02*
X15249000Y-8758730D01*
X15204550Y-8714280D02*
X15293450Y-8714280D01*
X15249000Y-9294163D02*
X15249000Y-9383063D01*
X15204550Y-9338613D02*
X15293450Y-9338613D01*
X15249000Y-9548163D02*
X15249000Y-9637063D01*
X15204550Y-9592613D02*
X15293450Y-9592613D01*
X15249000Y-10172497D02*
X15249000Y-10261397D01*
X15204550Y-10216947D02*
X15293450Y-10216947D01*
X15249000Y-10426497D02*
X15249000Y-10515397D01*
X15204550Y-10470947D02*
X15293450Y-10470947D01*
X15503000Y-8415830D02*
X15503000Y-8504730D01*
X15458550Y-8460280D02*
X15547450Y-8460280D01*
X15503000Y-8669830D02*
X15503000Y-8758730D01*
X15458550Y-8714280D02*
X15547450Y-8714280D01*
X15503000Y-9294163D02*
X15503000Y-9383063D01*
X15458550Y-9338613D02*
X15547450Y-9338613D01*
X15503000Y-9548163D02*
X15503000Y-9637063D01*
X15458550Y-9592613D02*
X15547450Y-9592613D01*
X15503000Y-10172497D02*
X15503000Y-10261397D01*
X15458550Y-10216947D02*
X15547450Y-10216947D01*
X15503000Y-10426497D02*
X15503000Y-10515397D01*
X15458550Y-10470947D02*
X15547450Y-10470947D01*
X15757000Y-8415830D02*
X15757000Y-8504730D01*
X15712550Y-8460280D02*
X15801450Y-8460280D01*
X15757000Y-8669830D02*
X15757000Y-8758730D01*
X15712550Y-8714280D02*
X15801450Y-8714280D01*
X15757000Y-9294163D02*
X15757000Y-9383063D01*
X15712550Y-9338613D02*
X15801450Y-9338613D01*
X15757000Y-9548163D02*
X15757000Y-9637063D01*
X15712550Y-9592613D02*
X15801450Y-9592613D01*
X15757000Y-10172497D02*
X15757000Y-10261397D01*
X15712550Y-10216947D02*
X15801450Y-10216947D01*
X15757000Y-10426497D02*
X15757000Y-10515397D01*
X15712550Y-10470947D02*
X15801450Y-10470947D01*
X16011000Y-8415830D02*
X16011000Y-8504730D01*
X15966550Y-8460280D02*
X16055450Y-8460280D01*
X16011000Y-8669830D02*
X16011000Y-8758730D01*
X15966550Y-8714280D02*
X16055450Y-8714280D01*
X16011000Y-9294163D02*
X16011000Y-9383063D01*
X15966550Y-9338613D02*
X16055450Y-9338613D01*
X16011000Y-9548163D02*
X16011000Y-9637063D01*
X15966550Y-9592613D02*
X16055450Y-9592613D01*
X16011000Y-10172497D02*
X16011000Y-10261397D01*
X15966550Y-10216947D02*
X16055450Y-10216947D01*
X16011000Y-10426497D02*
X16011000Y-10515397D01*
X15966550Y-10470947D02*
X16055450Y-10470947D01*
X16265000Y-8415830D02*
X16265000Y-8504730D01*
X16220550Y-8460280D02*
X16309450Y-8460280D01*
X16265000Y-8669830D02*
X16265000Y-8758730D01*
X16220550Y-8714280D02*
X16309450Y-8714280D01*
X16265000Y-9294163D02*
X16265000Y-9383063D01*
X16220550Y-9338613D02*
X16309450Y-9338613D01*
X16265000Y-9548163D02*
X16265000Y-9637063D01*
X16220550Y-9592613D02*
X16309450Y-9592613D01*
X16265000Y-10172497D02*
X16265000Y-10261397D01*
X16220550Y-10216947D02*
X16309450Y-10216947D01*
X16265000Y-10426497D02*
X16265000Y-10515397D01*
X16220550Y-10470947D02*
X16309450Y-10470947D01*
X16519000Y-8415830D02*
X16519000Y-8504730D01*
X16474550Y-8460280D02*
X16563450Y-8460280D01*
X16519000Y-8669830D02*
X16519000Y-8758730D01*
X16474550Y-8714280D02*
X16563450Y-8714280D01*
X16519000Y-9294163D02*
X16519000Y-9383063D01*
X16474550Y-9338613D02*
X16563450Y-9338613D01*
X16519000Y-9548163D02*
X16519000Y-9637063D01*
X16474550Y-9592613D02*
X16563450Y-9592613D01*
X16519000Y-10172497D02*
X16519000Y-10261397D01*
X16474550Y-10216947D02*
X16563450Y-10216947D01*
X16519000Y-10426497D02*
X16519000Y-10515397D01*
X16474550Y-10470947D02*
X16563450Y-10470947D01*
X16773000Y-8415830D02*
X16773000Y-8504730D01*
X16728550Y-8460280D02*
X16817450Y-8460280D01*
X16773000Y-8669830D02*
X16773000Y-8758730D01*
X16728550Y-8714280D02*
X16817450Y-8714280D01*
X16773000Y-9294163D02*
X16773000Y-9383063D01*
X16728550Y-9338613D02*
X16817450Y-9338613D01*
X16773000Y-9548163D02*
X16773000Y-9637063D01*
X16728550Y-9592613D02*
X16817450Y-9592613D01*
X16773000Y-10172497D02*
X16773000Y-10261397D01*
X16728550Y-10216947D02*
X16817450Y-10216947D01*
X16773000Y-10426497D02*
X16773000Y-10515397D01*
X16728550Y-10470947D02*
X16817450Y-10470947D01*
X17027000Y-8415830D02*
X17027000Y-8504730D01*
X16982550Y-8460280D02*
X17071450Y-8460280D01*
X17027000Y-8669830D02*
X17027000Y-8758730D01*
X16982550Y-8714280D02*
X17071450Y-8714280D01*
X17027000Y-9294163D02*
X17027000Y-9383063D01*
X16982550Y-9338613D02*
X17071450Y-9338613D01*
X17027000Y-9548163D02*
X17027000Y-9637063D01*
X16982550Y-9592613D02*
X17071450Y-9592613D01*
X17027000Y-10172497D02*
X17027000Y-10261397D01*
X16982550Y-10216947D02*
X17071450Y-10216947D01*
X17027000Y-10426497D02*
X17027000Y-10515397D01*
X16982550Y-10470947D02*
X17071450Y-10470947D01*
X17281000Y-8415830D02*
X17281000Y-8504730D01*
X17236550Y-8460280D02*
X17325450Y-8460280D01*
X17281000Y-8669830D02*
X17281000Y-8758730D01*
X17236550Y-8714280D02*
X17325450Y-8714280D01*
X17281000Y-9294163D02*
X17281000Y-9383063D01*
X17236550Y-9338613D02*
X17325450Y-9338613D01*
X17281000Y-9548163D02*
X17281000Y-9637063D01*
X17236550Y-9592613D02*
X17325450Y-9592613D01*
X17281000Y-10172497D02*
X17281000Y-10261397D01*
X17236550Y-10216947D02*
X17325450Y-10216947D01*
X17281000Y-10426497D02*
X17281000Y-10515397D01*
X17236550Y-10470947D02*
X17325450Y-10470947D01*
X18057280Y-8520050D02*
X18057280Y-8608950D01*
X18012830Y-8564500D02*
X18101730Y-8564500D01*
X18057280Y-8774050D02*
X18057280Y-8862950D01*
X18012830Y-8818500D02*
X18101730Y-8818500D01*
X18057280Y-9028050D02*
X18057280Y-9116950D01*
X18012830Y-9072500D02*
X18101730Y-9072500D01*
X18057280Y-9282050D02*
X18057280Y-9370950D01*
X18012830Y-9326500D02*
X18101730Y-9326500D01*
X18057280Y-9536050D02*
X18057280Y-9624950D01*
X18012830Y-9580500D02*
X18101730Y-9580500D01*
X18057280Y-9790050D02*
X18057280Y-9878950D01*
X18012830Y-9834500D02*
X18101730Y-9834500D01*
X18057280Y-10044050D02*
X18057280Y-10132950D01*
X18012830Y-10088500D02*
X18101730Y-10088500D01*
X18057280Y-10298050D02*
X18057280Y-10386950D01*
X18012830Y-10342500D02*
X18101730Y-10342500D01*
X18057280Y-10552050D02*
X18057280Y-10640950D01*
X18012830Y-10596500D02*
X18101730Y-10596500D01*
X18057280Y-10806050D02*
X18057280Y-10894950D01*
X18012830Y-10850500D02*
X18101730Y-10850500D01*
X18057280Y-11060050D02*
X18057280Y-11148950D01*
X18012830Y-11104500D02*
X18101730Y-11104500D01*
X18057280Y-11314050D02*
X18057280Y-11402950D01*
X18012830Y-11358500D02*
X18101730Y-11358500D01*
X18057280Y-11568050D02*
X18057280Y-11656950D01*
X18012830Y-11612500D02*
X18101730Y-11612500D01*
X18057280Y-11822050D02*
X18057280Y-11910950D01*
X18012830Y-11866500D02*
X18101730Y-11866500D01*
X18057280Y-12076050D02*
X18057280Y-12164950D01*
X18012830Y-12120500D02*
X18101730Y-12120500D01*
X18057280Y-12330050D02*
X18057280Y-12418950D01*
X18012830Y-12374500D02*
X18101730Y-12374500D01*
X18311280Y-8520050D02*
X18311280Y-8608950D01*
X18266830Y-8564500D02*
X18355730Y-8564500D01*
X18311280Y-8774050D02*
X18311280Y-8862950D01*
X18266830Y-8818500D02*
X18355730Y-8818500D01*
X18311280Y-9028050D02*
X18311280Y-9116950D01*
X18266830Y-9072500D02*
X18355730Y-9072500D01*
X18311280Y-9282050D02*
X18311280Y-9370950D01*
X18266830Y-9326500D02*
X18355730Y-9326500D01*
X18311280Y-9536050D02*
X18311280Y-9624950D01*
X18266830Y-9580500D02*
X18355730Y-9580500D01*
X18311280Y-9790050D02*
X18311280Y-9878950D01*
X18266830Y-9834500D02*
X18355730Y-9834500D01*
X18311280Y-10044050D02*
X18311280Y-10132950D01*
X18266830Y-10088500D02*
X18355730Y-10088500D01*
X18311280Y-10298050D02*
X18311280Y-10386950D01*
X18266830Y-10342500D02*
X18355730Y-10342500D01*
X18311280Y-10552050D02*
X18311280Y-10640950D01*
X18266830Y-10596500D02*
X18355730Y-10596500D01*
X18311280Y-10806050D02*
X18311280Y-10894950D01*
X18266830Y-10850500D02*
X18355730Y-10850500D01*
X18311280Y-11060050D02*
X18311280Y-11148950D01*
X18266830Y-11104500D02*
X18355730Y-11104500D01*
X18311280Y-11314050D02*
X18311280Y-11402950D01*
X18266830Y-11358500D02*
X18355730Y-11358500D01*
X18311280Y-11568050D02*
X18311280Y-11656950D01*
X18266830Y-11612500D02*
X18355730Y-11612500D01*
X18311280Y-11822050D02*
X18311280Y-11910950D01*
X18266830Y-11866500D02*
X18355730Y-11866500D01*
X18311280Y-12076050D02*
X18311280Y-12164950D01*
X18266830Y-12120500D02*
X18355730Y-12120500D01*
X18311280Y-12330050D02*
X18311280Y-12418950D01*
X18266830Y-12374500D02*
X18355730Y-12374500D01*
X18749280Y-3481050D02*
X18749280Y-3569950D01*
X18704830Y-3525500D02*
X18793730Y-3525500D01*
X18749280Y-3735050D02*
X18749280Y-3823950D01*
X18704830Y-3779500D02*
X18793730Y-3779500D01*
X18749280Y-3989050D02*
X18749280Y-4077950D01*
X18704830Y-4033500D02*
X18793730Y-4033500D01*
X18749280Y-4243050D02*
X18749280Y-4331950D01*
X18704830Y-4287500D02*
X18793730Y-4287500D01*
X18749280Y-4497050D02*
X18749280Y-4585950D01*
X18704830Y-4541500D02*
X18793730Y-4541500D01*
X18749280Y-4751050D02*
X18749280Y-4839950D01*
X18704830Y-4795500D02*
X18793730Y-4795500D01*
X18749280Y-5005050D02*
X18749280Y-5093950D01*
X18704830Y-5049500D02*
X18793730Y-5049500D01*
X18749280Y-5259050D02*
X18749280Y-5347950D01*
X18704830Y-5303500D02*
X18793730Y-5303500D01*
X18749280Y-5513050D02*
X18749280Y-5601950D01*
X18704830Y-5557500D02*
X18793730Y-5557500D01*
X18749280Y-5767050D02*
X18749280Y-5855950D01*
X18704830Y-5811500D02*
X18793730Y-5811500D01*
X18749280Y-6021050D02*
X18749280Y-6109950D01*
X18704830Y-6065500D02*
X18793730Y-6065500D01*
X18749280Y-6275050D02*
X18749280Y-6363950D01*
X18704830Y-6319500D02*
X18793730Y-6319500D01*
X18749280Y-6529050D02*
X18749280Y-6617950D01*
X18704830Y-6573500D02*
X18793730Y-6573500D01*
X18749280Y-6783050D02*
X18749280Y-6871950D01*
X18704830Y-6827500D02*
X18793730Y-6827500D01*
X18749280Y-7037050D02*
X18749280Y-7125950D01*
X18704830Y-7081500D02*
X18793730Y-7081500D01*
X18749280Y-7291050D02*
X18749280Y-7379950D01*
X18704830Y-7335500D02*
X18793730Y-7335500D01*
X19003280Y-3481050D02*
X19003280Y-3569950D01*
X18958830Y-3525500D02*
X19047730Y-3525500D01*
X19003280Y-3735050D02*
X19003280Y-3823950D01*
X18958830Y-3779500D02*
X19047730Y-3779500D01*
X19003280Y-3989050D02*
X19003280Y-4077950D01*
X18958830Y-4033500D02*
X19047730Y-4033500D01*
X19003280Y-4243050D02*
X19003280Y-4331950D01*
X18958830Y-4287500D02*
X19047730Y-4287500D01*
X19003280Y-4497050D02*
X19003280Y-4585950D01*
X18958830Y-4541500D02*
X19047730Y-4541500D01*
X19003280Y-4751050D02*
X19003280Y-4839950D01*
X18958830Y-4795500D02*
X19047730Y-4795500D01*
X19003280Y-5005050D02*
X19003280Y-5093950D01*
X18958830Y-5049500D02*
X19047730Y-5049500D01*
X19003280Y-5259050D02*
X19003280Y-5347950D01*
X18958830Y-5303500D02*
X19047730Y-5303500D01*
X19003280Y-5513050D02*
X19003280Y-5601950D01*
X18958830Y-5557500D02*
X19047730Y-5557500D01*
X19003280Y-5767050D02*
X19003280Y-5855950D01*
X18958830Y-5811500D02*
X19047730Y-5811500D01*
X19003280Y-6021050D02*
X19003280Y-6109950D01*
X18958830Y-6065500D02*
X19047730Y-6065500D01*
X19003280Y-6275050D02*
X19003280Y-6363950D01*
X18958830Y-6319500D02*
X19047730Y-6319500D01*
X19003280Y-6529050D02*
X19003280Y-6617950D01*
X18958830Y-6573500D02*
X19047730Y-6573500D01*
X19003280Y-6783050D02*
X19003280Y-6871950D01*
X18958830Y-6827500D02*
X19047730Y-6827500D01*
X19003280Y-7037050D02*
X19003280Y-7125950D01*
X18958830Y-7081500D02*
X19047730Y-7081500D01*
X19003280Y-7291050D02*
X19003280Y-7379950D01*
X18958830Y-7335500D02*
X19047730Y-7335500D01*
D14*
X13926820Y-12206820D02*
X13926820Y-12143180D01*
X13863180Y-12143180D01*
X13863180Y-12206820D01*
X13926820Y-12206820D01*
X14426820Y-12206820D02*
X14426820Y-12143180D01*
X14363180Y-12143180D01*
X14363180Y-12206820D01*
X14426820Y-12206820D01*
X14676820Y-12206820D02*
X14676820Y-12143180D01*
X14613180Y-12143180D01*
X14613180Y-12206820D01*
X14676820Y-12206820D01*
X14926820Y-12206820D02*
X14926820Y-12143180D01*
X14863180Y-12143180D01*
X14863180Y-12206820D01*
X14926820Y-12206820D01*
X16026820Y-12206820D02*
X16026820Y-12143180D01*
X15963180Y-12143180D01*
X15963180Y-12206820D01*
X16026820Y-12206820D01*
X16526820Y-12206820D02*
X16526820Y-12143180D01*
X16463180Y-12143180D01*
X16463180Y-12206820D01*
X16526820Y-12206820D01*
X16776820Y-12206820D02*
X16776820Y-12143180D01*
X16713180Y-12143180D01*
X16713180Y-12206820D01*
X16776820Y-12206820D01*
X17026820Y-12206820D02*
X17026820Y-12143180D01*
X16963180Y-12143180D01*
X16963180Y-12206820D01*
X17026820Y-12206820D01*
D15*
X13828200Y-3721775D02*
X13879000Y-3670975D01*
X13828200Y-3620175D01*
X13777400Y-3670975D01*
X13828200Y-3721775D01*
X13828200Y-7169825D02*
X13879000Y-7119025D01*
X13828200Y-7068225D01*
X13777400Y-7119025D01*
X13828200Y-7169825D01*
X17828200Y-3721775D02*
X17879000Y-3670975D01*
X17828200Y-3620175D01*
X17777400Y-3670975D01*
X17828200Y-3721775D01*
X17828200Y-7169825D02*
X17879000Y-7119025D01*
X17828200Y-7068225D01*
X17777400Y-7119025D01*
X17828200Y-7169825D01*
D16*
X3488660Y-9142160D02*
X3595340Y-9248840D01*
X3595340Y-9142160D02*
X3488660Y-9248840D01*
X3595340Y-9195500D02*
G75*
G03*
X3595340Y-9195500I-53340J0D01*
G01*
X3488660Y-9396160D02*
X3595340Y-9502840D01*
X3595340Y-9396160D02*
X3488660Y-9502840D01*
X3595340Y-9449500D02*
G75*
G03*
X3595340Y-9449500I-53340J0D01*
G01*
X3488660Y-9650160D02*
X3595340Y-9756840D01*
X3595340Y-9650160D02*
X3488660Y-9756840D01*
X3595340Y-9703500D02*
G75*
G03*
X3595340Y-9703500I-53340J0D01*
G01*
X3488660Y-9904160D02*
X3595340Y-10010840D01*
X3595340Y-9904160D02*
X3488660Y-10010840D01*
X3595340Y-9957500D02*
G75*
G03*
X3595340Y-9957500I-53340J0D01*
G01*
X3488660Y-10158160D02*
X3595340Y-10264840D01*
X3595340Y-10158160D02*
X3488660Y-10264840D01*
X3595340Y-10211500D02*
G75*
G03*
X3595340Y-10211500I-53340J0D01*
G01*
X3488660Y-10412160D02*
X3595340Y-10518840D01*
X3595340Y-10412160D02*
X3488660Y-10518840D01*
X3595340Y-10465500D02*
G75*
G03*
X3595340Y-10465500I-53340J0D01*
G01*
X3488660Y-10666160D02*
X3595340Y-10772840D01*
X3595340Y-10666160D02*
X3488660Y-10772840D01*
X3595340Y-10719500D02*
G75*
G03*
X3595340Y-10719500I-53340J0D01*
G01*
X3488660Y-10920160D02*
X3595340Y-11026840D01*
X3595340Y-10920160D02*
X3488660Y-11026840D01*
X3595340Y-10973500D02*
G75*
G03*
X3595340Y-10973500I-53340J0D01*
G01*
X3488660Y-11174160D02*
X3595340Y-11280840D01*
X3595340Y-11174160D02*
X3488660Y-11280840D01*
X3595340Y-11227500D02*
G75*
G03*
X3595340Y-11227500I-53340J0D01*
G01*
X3488660Y-11428160D02*
X3595340Y-11534840D01*
X3595340Y-11428160D02*
X3488660Y-11534840D01*
X3595340Y-11481500D02*
G75*
G03*
X3595340Y-11481500I-53340J0D01*
G01*
X5487410Y-9142160D02*
X5594090Y-9248840D01*
X5594090Y-9142160D02*
X5487410Y-9248840D01*
X5594090Y-9195500D02*
G75*
G03*
X5594090Y-9195500I-53340J0D01*
G01*
X5487410Y-9396160D02*
X5594090Y-9502840D01*
X5594090Y-9396160D02*
X5487410Y-9502840D01*
X5594090Y-9449500D02*
G75*
G03*
X5594090Y-9449500I-53340J0D01*
G01*
X5487410Y-9650160D02*
X5594090Y-9756840D01*
X5594090Y-9650160D02*
X5487410Y-9756840D01*
X5594090Y-9703500D02*
G75*
G03*
X5594090Y-9703500I-53340J0D01*
G01*
X5487410Y-9904160D02*
X5594090Y-10010840D01*
X5594090Y-9904160D02*
X5487410Y-10010840D01*
X5594090Y-9957500D02*
G75*
G03*
X5594090Y-9957500I-53340J0D01*
G01*
X5487410Y-10158160D02*
X5594090Y-10264840D01*
X5594090Y-10158160D02*
X5487410Y-10264840D01*
X5594090Y-10211500D02*
G75*
G03*
X5594090Y-10211500I-53340J0D01*
G01*
X5487410Y-10412160D02*
X5594090Y-10518840D01*
X5594090Y-10412160D02*
X5487410Y-10518840D01*
X5594090Y-10465500D02*
G75*
G03*
X5594090Y-10465500I-53340J0D01*
G01*
X5487410Y-10666160D02*
X5594090Y-10772840D01*
X5594090Y-10666160D02*
X5487410Y-10772840D01*
X5594090Y-10719500D02*
G75*
G03*
X5594090Y-10719500I-53340J0D01*
G01*
X5487410Y-10920160D02*
X5594090Y-11026840D01*
X5594090Y-10920160D02*
X5487410Y-11026840D01*
X5594090Y-10973500D02*
G75*
G03*
X5594090Y-10973500I-53340J0D01*
G01*
X5487410Y-11174160D02*
X5594090Y-11280840D01*
X5594090Y-11174160D02*
X5487410Y-11280840D01*
X5594090Y-11227500D02*
G75*
G03*
X5594090Y-11227500I-53340J0D01*
G01*
X5487410Y-11428160D02*
X5594090Y-11534840D01*
X5594090Y-11428160D02*
X5487410Y-11534840D01*
X5594090Y-11481500D02*
G75*
G03*
X5594090Y-11481500I-53340J0D01*
G01*
D17*
X10639000Y-8837000D02*
X10759000Y-8957000D01*
X10759000Y-8837000D02*
X10639000Y-8957000D01*
X10699000Y-8837000D02*
X10699000Y-8957000D01*
X10639000Y-8897000D02*
X10759000Y-8897000D01*
X10640000Y-5660000D02*
X10760000Y-5780000D01*
X10760000Y-5660000D02*
X10640000Y-5780000D01*
X10700000Y-5660000D02*
X10700000Y-5780000D01*
X10640000Y-5720000D02*
X10760000Y-5720000D01*
X10640000Y-7260000D02*
X10760000Y-7380000D01*
X10760000Y-7260000D02*
X10640000Y-7380000D01*
X10700000Y-7260000D02*
X10700000Y-7380000D01*
X10640000Y-7320000D02*
X10760000Y-7320000D01*
X10641000Y-10424000D02*
X10761000Y-10544000D01*
X10761000Y-10424000D02*
X10641000Y-10544000D01*
X10701000Y-10424000D02*
X10701000Y-10544000D01*
X10641000Y-10484000D02*
X10761000Y-10484000D01*
X10641000Y-12008000D02*
X10761000Y-12128000D01*
X10761000Y-12008000D02*
X10641000Y-12128000D01*
X10701000Y-12008000D02*
X10701000Y-12128000D01*
X10641000Y-12068000D02*
X10761000Y-12068000D01*
X12240000Y-4060000D02*
X12360000Y-4180000D01*
X12360000Y-4060000D02*
X12240000Y-4180000D01*
X12300000Y-4060000D02*
X12300000Y-4180000D01*
X12240000Y-4120000D02*
X12360000Y-4120000D01*
X12240000Y-5650000D02*
X12360000Y-5770000D01*
X12360000Y-5650000D02*
X12240000Y-5770000D01*
X12300000Y-5650000D02*
X12300000Y-5770000D01*
X12240000Y-5710000D02*
X12360000Y-5710000D01*
X12240000Y-7270000D02*
X12360000Y-7390000D01*
X12360000Y-7270000D02*
X12240000Y-7390000D01*
X12300000Y-7270000D02*
X12300000Y-7390000D01*
X12240000Y-7330000D02*
X12360000Y-7330000D01*
X12240000Y-8837000D02*
X12360000Y-8957000D01*
X12360000Y-8837000D02*
X12240000Y-8957000D01*
X12300000Y-8837000D02*
X12300000Y-8957000D01*
X12240000Y-8897000D02*
X12360000Y-8897000D01*
X12240000Y-10422000D02*
X12360000Y-10542000D01*
X12360000Y-10422000D02*
X12240000Y-10542000D01*
X12300000Y-10422000D02*
X12300000Y-10542000D01*
X12240000Y-10482000D02*
X12360000Y-10482000D01*
X12240000Y-12000000D02*
X12360000Y-12120000D01*
X12360000Y-12000000D02*
X12240000Y-12120000D01*
X12300000Y-12000000D02*
X12300000Y-12120000D01*
X12240000Y-12060000D02*
X12360000Y-12060000D01*
D18*
X13415000Y-12385000D02*
X13555000Y-12525000D01*
X13555000Y-12385000D02*
X13415000Y-12525000D01*
X13534498Y-12504498D02*
X13534498Y-12405502D01*
X13435502Y-12405502D01*
X13435502Y-12504498D01*
X13534498Y-12504498D01*
X15035000Y-11825000D02*
X15175000Y-11965000D01*
X15175000Y-11825000D02*
X15035000Y-11965000D01*
X15154498Y-11944498D02*
X15154498Y-11845502D01*
X15055502Y-11845502D01*
X15055502Y-11944498D01*
X15154498Y-11944498D01*
X15515000Y-12385000D02*
X15655000Y-12525000D01*
X15655000Y-12385000D02*
X15515000Y-12525000D01*
X15634498Y-12504498D02*
X15634498Y-12405502D01*
X15535502Y-12405502D01*
X15535502Y-12504498D01*
X15634498Y-12504498D01*
X17135000Y-11825000D02*
X17275000Y-11965000D01*
X17275000Y-11825000D02*
X17135000Y-11965000D01*
X17254498Y-11944498D02*
X17254498Y-11845502D01*
X17155502Y-11845502D01*
X17155502Y-11944498D01*
X17254498Y-11944498D01*
D19*
X10304000Y-8502000D02*
X10464000Y-8662000D01*
X10464000Y-8502000D02*
X10304000Y-8662000D01*
X10384000Y-8662000D02*
X10464000Y-8582000D01*
X10384000Y-8502000D01*
X10304000Y-8582000D01*
X10384000Y-8662000D01*
X10304000Y-9132000D02*
X10464000Y-9292000D01*
X10464000Y-9132000D02*
X10304000Y-9292000D01*
X10384000Y-9292000D02*
X10464000Y-9212000D01*
X10384000Y-9132000D01*
X10304000Y-9212000D01*
X10384000Y-9292000D01*
X10305000Y-5325000D02*
X10465000Y-5485000D01*
X10465000Y-5325000D02*
X10305000Y-5485000D01*
X10385000Y-5485000D02*
X10465000Y-5405000D01*
X10385000Y-5325000D01*
X10305000Y-5405000D01*
X10385000Y-5485000D01*
X10305000Y-5955000D02*
X10465000Y-6115000D01*
X10465000Y-5955000D02*
X10305000Y-6115000D01*
X10385000Y-6115000D02*
X10465000Y-6035000D01*
X10385000Y-5955000D01*
X10305000Y-6035000D01*
X10385000Y-6115000D01*
X10305000Y-6925000D02*
X10465000Y-7085000D01*
X10465000Y-6925000D02*
X10305000Y-7085000D01*
X10385000Y-7085000D02*
X10465000Y-7005000D01*
X10385000Y-6925000D01*
X10305000Y-7005000D01*
X10385000Y-7085000D01*
X10305000Y-7555000D02*
X10465000Y-7715000D01*
X10465000Y-7555000D02*
X10305000Y-7715000D01*
X10385000Y-7715000D02*
X10465000Y-7635000D01*
X10385000Y-7555000D01*
X10305000Y-7635000D01*
X10385000Y-7715000D01*
X10306000Y-10089000D02*
X10466000Y-10249000D01*
X10466000Y-10089000D02*
X10306000Y-10249000D01*
X10386000Y-10249000D02*
X10466000Y-10169000D01*
X10386000Y-10089000D01*
X10306000Y-10169000D01*
X10386000Y-10249000D01*
X10306000Y-10719000D02*
X10466000Y-10879000D01*
X10466000Y-10719000D02*
X10306000Y-10879000D01*
X10386000Y-10879000D02*
X10466000Y-10799000D01*
X10386000Y-10719000D01*
X10306000Y-10799000D01*
X10386000Y-10879000D01*
X10306000Y-11673000D02*
X10466000Y-11833000D01*
X10466000Y-11673000D02*
X10306000Y-11833000D01*
X10386000Y-11833000D02*
X10466000Y-11753000D01*
X10386000Y-11673000D01*
X10306000Y-11753000D01*
X10386000Y-11833000D01*
X10306000Y-12303000D02*
X10466000Y-12463000D01*
X10466000Y-12303000D02*
X10306000Y-12463000D01*
X10386000Y-12463000D02*
X10466000Y-12383000D01*
X10386000Y-12303000D01*
X10306000Y-12383000D01*
X10386000Y-12463000D01*
X10934000Y-8502000D02*
X11094000Y-8662000D01*
X11094000Y-8502000D02*
X10934000Y-8662000D01*
X11014000Y-8662000D02*
X11094000Y-8582000D01*
X11014000Y-8502000D01*
X10934000Y-8582000D01*
X11014000Y-8662000D01*
X10934000Y-9132000D02*
X11094000Y-9292000D01*
X11094000Y-9132000D02*
X10934000Y-9292000D01*
X11014000Y-9292000D02*
X11094000Y-9212000D01*
X11014000Y-9132000D01*
X10934000Y-9212000D01*
X11014000Y-9292000D01*
X10935000Y-5325000D02*
X11095000Y-5485000D01*
X11095000Y-5325000D02*
X10935000Y-5485000D01*
X11015000Y-5485000D02*
X11095000Y-5405000D01*
X11015000Y-5325000D01*
X10935000Y-5405000D01*
X11015000Y-5485000D01*
X10935000Y-5955000D02*
X11095000Y-6115000D01*
X11095000Y-5955000D02*
X10935000Y-6115000D01*
X11015000Y-6115000D02*
X11095000Y-6035000D01*
X11015000Y-5955000D01*
X10935000Y-6035000D01*
X11015000Y-6115000D01*
X10935000Y-6925000D02*
X11095000Y-7085000D01*
X11095000Y-6925000D02*
X10935000Y-7085000D01*
X11015000Y-7085000D02*
X11095000Y-7005000D01*
X11015000Y-6925000D01*
X10935000Y-7005000D01*
X11015000Y-7085000D01*
X10935000Y-7555000D02*
X11095000Y-7715000D01*
X11095000Y-7555000D02*
X10935000Y-7715000D01*
X11015000Y-7715000D02*
X11095000Y-7635000D01*
X11015000Y-7555000D01*
X10935000Y-7635000D01*
X11015000Y-7715000D01*
X10936000Y-10089000D02*
X11096000Y-10249000D01*
X11096000Y-10089000D02*
X10936000Y-10249000D01*
X11016000Y-10249000D02*
X11096000Y-10169000D01*
X11016000Y-10089000D01*
X10936000Y-10169000D01*
X11016000Y-10249000D01*
X10936000Y-10719000D02*
X11096000Y-10879000D01*
X11096000Y-10719000D02*
X10936000Y-10879000D01*
X11016000Y-10879000D02*
X11096000Y-10799000D01*
X11016000Y-10719000D01*
X10936000Y-10799000D01*
X11016000Y-10879000D01*
X10936000Y-11673000D02*
X11096000Y-11833000D01*
X11096000Y-11673000D02*
X10936000Y-11833000D01*
X11016000Y-11833000D02*
X11096000Y-11753000D01*
X11016000Y-11673000D01*
X10936000Y-11753000D01*
X11016000Y-11833000D01*
X10936000Y-12303000D02*
X11096000Y-12463000D01*
X11096000Y-12303000D02*
X10936000Y-12463000D01*
X11016000Y-12463000D02*
X11096000Y-12383000D01*
X11016000Y-12303000D01*
X10936000Y-12383000D01*
X11016000Y-12463000D01*
X11905000Y-3725000D02*
X12065000Y-3885000D01*
X12065000Y-3725000D02*
X11905000Y-3885000D01*
X11985000Y-3885000D02*
X12065000Y-3805000D01*
X11985000Y-3725000D01*
X11905000Y-3805000D01*
X11985000Y-3885000D01*
X11905000Y-4355000D02*
X12065000Y-4515000D01*
X12065000Y-4355000D02*
X11905000Y-4515000D01*
X11985000Y-4515000D02*
X12065000Y-4435000D01*
X11985000Y-4355000D01*
X11905000Y-4435000D01*
X11985000Y-4515000D01*
X11905000Y-5315000D02*
X12065000Y-5475000D01*
X12065000Y-5315000D02*
X11905000Y-5475000D01*
X11985000Y-5475000D02*
X12065000Y-5395000D01*
X11985000Y-5315000D01*
X11905000Y-5395000D01*
X11985000Y-5475000D01*
X11905000Y-5945000D02*
X12065000Y-6105000D01*
X12065000Y-5945000D02*
X11905000Y-6105000D01*
X11985000Y-6105000D02*
X12065000Y-6025000D01*
X11985000Y-5945000D01*
X11905000Y-6025000D01*
X11985000Y-6105000D01*
X11905000Y-6935000D02*
X12065000Y-7095000D01*
X12065000Y-6935000D02*
X11905000Y-7095000D01*
X11985000Y-7095000D02*
X12065000Y-7015000D01*
X11985000Y-6935000D01*
X11905000Y-7015000D01*
X11985000Y-7095000D01*
X11905000Y-7565000D02*
X12065000Y-7725000D01*
X12065000Y-7565000D02*
X11905000Y-7725000D01*
X11985000Y-7725000D02*
X12065000Y-7645000D01*
X11985000Y-7565000D01*
X11905000Y-7645000D01*
X11985000Y-7725000D01*
X11905000Y-8502000D02*
X12065000Y-8662000D01*
X12065000Y-8502000D02*
X11905000Y-8662000D01*
X11985000Y-8662000D02*
X12065000Y-8582000D01*
X11985000Y-8502000D01*
X11905000Y-8582000D01*
X11985000Y-8662000D01*
X11905000Y-9132000D02*
X12065000Y-9292000D01*
X12065000Y-9132000D02*
X11905000Y-9292000D01*
X11985000Y-9292000D02*
X12065000Y-9212000D01*
X11985000Y-9132000D01*
X11905000Y-9212000D01*
X11985000Y-9292000D01*
X11905000Y-10087000D02*
X12065000Y-10247000D01*
X12065000Y-10087000D02*
X11905000Y-10247000D01*
X11985000Y-10247000D02*
X12065000Y-10167000D01*
X11985000Y-10087000D01*
X11905000Y-10167000D01*
X11985000Y-10247000D01*
X11905000Y-10717000D02*
X12065000Y-10877000D01*
X12065000Y-10717000D02*
X11905000Y-10877000D01*
X11985000Y-10877000D02*
X12065000Y-10797000D01*
X11985000Y-10717000D01*
X11905000Y-10797000D01*
X11985000Y-10877000D01*
X11905000Y-11665000D02*
X12065000Y-11825000D01*
X12065000Y-11665000D02*
X11905000Y-11825000D01*
X11985000Y-11825000D02*
X12065000Y-11745000D01*
X11985000Y-11665000D01*
X11905000Y-11745000D01*
X11985000Y-11825000D01*
X11905000Y-12295000D02*
X12065000Y-12455000D01*
X12065000Y-12295000D02*
X11905000Y-12455000D01*
X11985000Y-12455000D02*
X12065000Y-12375000D01*
X11985000Y-12295000D01*
X11905000Y-12375000D01*
X11985000Y-12455000D01*
X12535000Y-3725000D02*
X12695000Y-3885000D01*
X12695000Y-3725000D02*
X12535000Y-3885000D01*
X12615000Y-3885000D02*
X12695000Y-3805000D01*
X12615000Y-3725000D01*
X12535000Y-3805000D01*
X12615000Y-3885000D01*
X12535000Y-4355000D02*
X12695000Y-4515000D01*
X12695000Y-4355000D02*
X12535000Y-4515000D01*
X12615000Y-4515000D02*
X12695000Y-4435000D01*
X12615000Y-4355000D01*
X12535000Y-4435000D01*
X12615000Y-4515000D01*
X12535000Y-5315000D02*
X12695000Y-5475000D01*
X12695000Y-5315000D02*
X12535000Y-5475000D01*
X12615000Y-5475000D02*
X12695000Y-5395000D01*
X12615000Y-5315000D01*
X12535000Y-5395000D01*
X12615000Y-5475000D01*
X12535000Y-5945000D02*
X12695000Y-6105000D01*
X12695000Y-5945000D02*
X12535000Y-6105000D01*
X12615000Y-6105000D02*
X12695000Y-6025000D01*
X12615000Y-5945000D01*
X12535000Y-6025000D01*
X12615000Y-6105000D01*
X12535000Y-6935000D02*
X12695000Y-7095000D01*
X12695000Y-6935000D02*
X12535000Y-7095000D01*
X12615000Y-7095000D02*
X12695000Y-7015000D01*
X12615000Y-6935000D01*
X12535000Y-7015000D01*
X12615000Y-7095000D01*
X12535000Y-7565000D02*
X12695000Y-7725000D01*
X12695000Y-7565000D02*
X12535000Y-7725000D01*
X12615000Y-7725000D02*
X12695000Y-7645000D01*
X12615000Y-7565000D01*
X12535000Y-7645000D01*
X12615000Y-7725000D01*
X12535000Y-8502000D02*
X12695000Y-8662000D01*
X12695000Y-8502000D02*
X12535000Y-8662000D01*
X12615000Y-8662000D02*
X12695000Y-8582000D01*
X12615000Y-8502000D01*
X12535000Y-8582000D01*
X12615000Y-8662000D01*
X12535000Y-9132000D02*
X12695000Y-9292000D01*
X12695000Y-9132000D02*
X12535000Y-9292000D01*
X12615000Y-9292000D02*
X12695000Y-9212000D01*
X12615000Y-9132000D01*
X12535000Y-9212000D01*
X12615000Y-9292000D01*
X12535000Y-10087000D02*
X12695000Y-10247000D01*
X12695000Y-10087000D02*
X12535000Y-10247000D01*
X12615000Y-10247000D02*
X12695000Y-10167000D01*
X12615000Y-10087000D01*
X12535000Y-10167000D01*
X12615000Y-10247000D01*
X12535000Y-10717000D02*
X12695000Y-10877000D01*
X12695000Y-10717000D02*
X12535000Y-10877000D01*
X12615000Y-10877000D02*
X12695000Y-10797000D01*
X12615000Y-10717000D01*
X12535000Y-10797000D01*
X12615000Y-10877000D01*
X12535000Y-11665000D02*
X12695000Y-11825000D01*
X12695000Y-11665000D02*
X12535000Y-11825000D01*
X12615000Y-11825000D02*
X12695000Y-11745000D01*
X12615000Y-11665000D01*
X12535000Y-11745000D01*
X12615000Y-11825000D01*
X12535000Y-12295000D02*
X12695000Y-12455000D01*
X12695000Y-12295000D02*
X12535000Y-12455000D01*
X12615000Y-12455000D02*
X12695000Y-12375000D01*
X12615000Y-12295000D01*
X12535000Y-12375000D01*
X12615000Y-12455000D01*
D20*
X3027000Y-2515500D02*
X3027000Y-2875500D01*
X2847000Y-2695500D02*
X3207000Y-2695500D01*
X3207000Y-2695500D02*
G75*
G03*
X3207000Y-2695500I-180000J0D01*
G01*
X3027000Y-12915500D02*
X3027000Y-13275500D01*
X2847000Y-13095500D02*
X3207000Y-13095500D01*
X3207000Y-13095500D02*
G75*
G03*
X3207000Y-13095500I-180000J0D01*
G01*
X19427000Y-2515500D02*
X19427000Y-2875500D01*
X19247000Y-2695500D02*
X19607000Y-2695500D01*
X19607000Y-2695500D02*
G75*
G03*
X19607000Y-2695500I-180000J0D01*
G01*
X19427000Y-12915500D02*
X19427000Y-13275500D01*
X19247000Y-13095500D02*
X19607000Y-13095500D01*
X19607000Y-13095500D02*
G75*
G03*
X19607000Y-13095500I-180000J0D01*
G01*
D10*
X2974619Y-13715976D02*
X2974619Y-13515976D01*
X3022238Y-13515976D01*
X3050809Y-13525500D01*
X3069857Y-13544548D01*
X3079381Y-13563595D01*
X3088905Y-13601690D01*
X3088905Y-13630262D01*
X3079381Y-13668357D01*
X3069857Y-13687405D01*
X3050809Y-13706452D01*
X3022238Y-13715976D01*
X2974619Y-13715976D01*
X3174619Y-13715976D02*
X3174619Y-13582643D01*
X3174619Y-13620738D02*
X3184143Y-13601690D01*
X3193667Y-13592167D01*
X3212714Y-13582643D01*
X3231762Y-13582643D01*
X3298428Y-13715976D02*
X3298428Y-13582643D01*
X3298428Y-13515976D02*
X3288905Y-13525500D01*
X3298428Y-13535024D01*
X3307952Y-13525500D01*
X3298428Y-13515976D01*
X3298428Y-13535024D01*
X3422238Y-13715976D02*
X3403190Y-13706452D01*
X3393667Y-13687405D01*
X3393667Y-13515976D01*
X3527000Y-13715976D02*
X3507952Y-13706452D01*
X3498428Y-13687405D01*
X3498428Y-13515976D01*
X3755571Y-13715976D02*
X3755571Y-13515976D01*
X3822238Y-13658833D01*
X3888905Y-13515976D01*
X3888905Y-13715976D01*
X4069857Y-13715976D02*
X4069857Y-13611214D01*
X4060333Y-13592167D01*
X4041286Y-13582643D01*
X4003190Y-13582643D01*
X3984143Y-13592167D01*
X4069857Y-13706452D02*
X4050809Y-13715976D01*
X4003190Y-13715976D01*
X3984143Y-13706452D01*
X3974619Y-13687405D01*
X3974619Y-13668357D01*
X3984143Y-13649309D01*
X4003190Y-13639786D01*
X4050809Y-13639786D01*
X4069857Y-13630262D01*
X4165095Y-13582643D02*
X4165095Y-13782643D01*
X4165095Y-13592167D02*
X4184143Y-13582643D01*
X4222238Y-13582643D01*
X4241286Y-13592167D01*
X4250810Y-13601690D01*
X4260333Y-13620738D01*
X4260333Y-13677881D01*
X4250810Y-13696928D01*
X4241286Y-13706452D01*
X4222238Y-13715976D01*
X4184143Y-13715976D01*
X4165095Y-13706452D01*
X4346048Y-13696928D02*
X4355571Y-13706452D01*
X4346048Y-13715976D01*
X4336524Y-13706452D01*
X4346048Y-13696928D01*
X4346048Y-13715976D01*
X4346048Y-13592167D02*
X4355571Y-13601690D01*
X4346048Y-13611214D01*
X4336524Y-13601690D01*
X4346048Y-13592167D01*
X4346048Y-13611214D01*
D11*
X2677000Y-14025500D02*
X2717000Y-14065500D01*
X2717000Y-14025500D02*
X2677000Y-14065500D01*
D10*
X3012714Y-13935976D02*
X3031762Y-13935976D01*
X3050809Y-13945500D01*
X3060333Y-13955024D01*
X3069857Y-13974071D01*
X3079381Y-14012167D01*
X3079381Y-14059786D01*
X3069857Y-14097881D01*
X3060333Y-14116928D01*
X3050809Y-14126452D01*
X3031762Y-14135976D01*
X3012714Y-14135976D01*
X2993667Y-14126452D01*
X2984143Y-14116928D01*
X2974619Y-14097881D01*
X2965095Y-14059786D01*
X2965095Y-14012167D01*
X2974619Y-13974071D01*
X2984143Y-13955024D01*
X2993667Y-13945500D01*
X3012714Y-13935976D01*
X3165095Y-14116928D02*
X3174619Y-14126452D01*
X3165095Y-14135976D01*
X3155571Y-14126452D01*
X3165095Y-14116928D01*
X3165095Y-14135976D01*
X3346048Y-14002643D02*
X3346048Y-14135976D01*
X3298428Y-13926452D02*
X3250809Y-14069309D01*
X3374619Y-14069309D01*
X3488905Y-13935976D02*
X3507952Y-13935976D01*
X3527000Y-13945500D01*
X3536524Y-13955024D01*
X3546048Y-13974071D01*
X3555571Y-14012167D01*
X3555571Y-14059786D01*
X3546048Y-14097881D01*
X3536524Y-14116928D01*
X3527000Y-14126452D01*
X3507952Y-14135976D01*
X3488905Y-14135976D01*
X3469857Y-14126452D01*
X3460333Y-14116928D01*
X3450809Y-14097881D01*
X3441286Y-14059786D01*
X3441286Y-14012167D01*
X3450809Y-13974071D01*
X3460333Y-13955024D01*
X3469857Y-13945500D01*
X3488905Y-13935976D01*
X3679381Y-13935976D02*
X3698428Y-13935976D01*
X3717476Y-13945500D01*
X3727000Y-13955024D01*
X3736524Y-13974071D01*
X3746048Y-14012167D01*
X3746048Y-14059786D01*
X3736524Y-14097881D01*
X3727000Y-14116928D01*
X3717476Y-14126452D01*
X3698428Y-14135976D01*
X3679381Y-14135976D01*
X3660333Y-14126452D01*
X3650809Y-14116928D01*
X3641286Y-14097881D01*
X3631762Y-14059786D01*
X3631762Y-14012167D01*
X3641286Y-13974071D01*
X3650809Y-13955024D01*
X3660333Y-13945500D01*
X3679381Y-13935976D01*
X3831762Y-14135976D02*
X3831762Y-14002643D01*
X3831762Y-14021690D02*
X3841286Y-14012167D01*
X3860333Y-14002643D01*
X3888905Y-14002643D01*
X3907952Y-14012167D01*
X3917476Y-14031214D01*
X3917476Y-14135976D01*
X3917476Y-14031214D02*
X3927000Y-14012167D01*
X3946048Y-14002643D01*
X3974619Y-14002643D01*
X3993667Y-14012167D01*
X4003190Y-14031214D01*
X4003190Y-14135976D01*
X4098428Y-14135976D02*
X4098428Y-14002643D01*
X4098428Y-14021690D02*
X4107952Y-14012167D01*
X4127000Y-14002643D01*
X4155571Y-14002643D01*
X4174619Y-14012167D01*
X4184143Y-14031214D01*
X4184143Y-14135976D01*
X4184143Y-14031214D02*
X4193667Y-14012167D01*
X4212714Y-14002643D01*
X4241286Y-14002643D01*
X4260333Y-14012167D01*
X4269857Y-14031214D01*
X4269857Y-14135976D01*
X4660333Y-13926452D02*
X4488905Y-14183595D01*
X4917476Y-13935976D02*
X4936524Y-13935976D01*
X4955571Y-13945500D01*
X4965095Y-13955024D01*
X4974619Y-13974071D01*
X4984143Y-14012167D01*
X4984143Y-14059786D01*
X4974619Y-14097881D01*
X4965095Y-14116928D01*
X4955571Y-14126452D01*
X4936524Y-14135976D01*
X4917476Y-14135976D01*
X4898429Y-14126452D01*
X4888905Y-14116928D01*
X4879381Y-14097881D01*
X4869857Y-14059786D01*
X4869857Y-14012167D01*
X4879381Y-13974071D01*
X4888905Y-13955024D01*
X4898429Y-13945500D01*
X4917476Y-13935976D01*
X5069857Y-14116928D02*
X5079381Y-14126452D01*
X5069857Y-14135976D01*
X5060333Y-14126452D01*
X5069857Y-14116928D01*
X5069857Y-14135976D01*
X5203190Y-13935976D02*
X5222238Y-13935976D01*
X5241286Y-13945500D01*
X5250810Y-13955024D01*
X5260333Y-13974071D01*
X5269857Y-14012167D01*
X5269857Y-14059786D01*
X5260333Y-14097881D01*
X5250810Y-14116928D01*
X5241286Y-14126452D01*
X5222238Y-14135976D01*
X5203190Y-14135976D01*
X5184143Y-14126452D01*
X5174619Y-14116928D01*
X5165095Y-14097881D01*
X5155571Y-14059786D01*
X5155571Y-14012167D01*
X5165095Y-13974071D01*
X5174619Y-13955024D01*
X5184143Y-13945500D01*
X5203190Y-13935976D01*
X5460333Y-14135976D02*
X5346048Y-14135976D01*
X5403190Y-14135976D02*
X5403190Y-13935976D01*
X5384143Y-13964548D01*
X5365095Y-13983595D01*
X5346048Y-13993119D01*
X5641286Y-13935976D02*
X5546048Y-13935976D01*
X5536524Y-14031214D01*
X5546048Y-14021690D01*
X5565095Y-14012167D01*
X5612714Y-14012167D01*
X5631762Y-14021690D01*
X5641286Y-14031214D01*
X5650809Y-14050262D01*
X5650809Y-14097881D01*
X5641286Y-14116928D01*
X5631762Y-14126452D01*
X5612714Y-14135976D01*
X5565095Y-14135976D01*
X5546048Y-14126452D01*
X5536524Y-14116928D01*
X5717476Y-13935976D02*
X5850809Y-13935976D01*
X5765095Y-14135976D01*
X5917476Y-13935976D02*
X5917476Y-13974071D01*
X5993667Y-13935976D02*
X5993667Y-13974071D01*
X6288905Y-14212167D02*
X6279381Y-14202643D01*
X6260333Y-14174071D01*
X6250809Y-14155024D01*
X6241286Y-14126452D01*
X6231762Y-14078833D01*
X6231762Y-14040738D01*
X6241286Y-13993119D01*
X6250809Y-13964548D01*
X6260333Y-13945500D01*
X6279381Y-13916928D01*
X6288905Y-13907405D01*
X6393667Y-14021690D02*
X6374619Y-14012167D01*
X6365095Y-14002643D01*
X6355571Y-13983595D01*
X6355571Y-13974071D01*
X6365095Y-13955024D01*
X6374619Y-13945500D01*
X6393667Y-13935976D01*
X6431762Y-13935976D01*
X6450809Y-13945500D01*
X6460333Y-13955024D01*
X6469857Y-13974071D01*
X6469857Y-13983595D01*
X6460333Y-14002643D01*
X6450809Y-14012167D01*
X6431762Y-14021690D01*
X6393667Y-14021690D01*
X6374619Y-14031214D01*
X6365095Y-14040738D01*
X6355571Y-14059786D01*
X6355571Y-14097881D01*
X6365095Y-14116928D01*
X6374619Y-14126452D01*
X6393667Y-14135976D01*
X6431762Y-14135976D01*
X6450809Y-14126452D01*
X6460333Y-14116928D01*
X6469857Y-14097881D01*
X6469857Y-14059786D01*
X6460333Y-14040738D01*
X6450809Y-14031214D01*
X6431762Y-14021690D01*
X6641286Y-14002643D02*
X6641286Y-14135976D01*
X6593667Y-13926452D02*
X6546048Y-14069309D01*
X6669857Y-14069309D01*
X6774619Y-14021690D02*
X6755571Y-14012167D01*
X6746048Y-14002643D01*
X6736524Y-13983595D01*
X6736524Y-13974071D01*
X6746048Y-13955024D01*
X6755571Y-13945500D01*
X6774619Y-13935976D01*
X6812714Y-13935976D01*
X6831762Y-13945500D01*
X6841286Y-13955024D01*
X6850809Y-13974071D01*
X6850809Y-13983595D01*
X6841286Y-14002643D01*
X6831762Y-14012167D01*
X6812714Y-14021690D01*
X6774619Y-14021690D01*
X6755571Y-14031214D01*
X6746048Y-14040738D01*
X6736524Y-14059786D01*
X6736524Y-14097881D01*
X6746048Y-14116928D01*
X6755571Y-14126452D01*
X6774619Y-14135976D01*
X6812714Y-14135976D01*
X6831762Y-14126452D01*
X6841286Y-14116928D01*
X6850809Y-14097881D01*
X6850809Y-14059786D01*
X6841286Y-14040738D01*
X6831762Y-14031214D01*
X6812714Y-14021690D01*
X7088905Y-14135976D02*
X7088905Y-13935976D01*
X7174619Y-14135976D02*
X7174619Y-14031214D01*
X7165095Y-14012167D01*
X7146048Y-14002643D01*
X7117476Y-14002643D01*
X7098428Y-14012167D01*
X7088905Y-14021690D01*
X7298428Y-14135976D02*
X7279381Y-14126452D01*
X7269857Y-14116928D01*
X7260333Y-14097881D01*
X7260333Y-14040738D01*
X7269857Y-14021690D01*
X7279381Y-14012167D01*
X7298428Y-14002643D01*
X7327000Y-14002643D01*
X7346048Y-14012167D01*
X7355571Y-14021690D01*
X7365095Y-14040738D01*
X7365095Y-14097881D01*
X7355571Y-14116928D01*
X7346048Y-14126452D01*
X7327000Y-14135976D01*
X7298428Y-14135976D01*
X7479381Y-14135976D02*
X7460333Y-14126452D01*
X7450809Y-14107405D01*
X7450809Y-13935976D01*
X7631762Y-14126452D02*
X7612714Y-14135976D01*
X7574619Y-14135976D01*
X7555571Y-14126452D01*
X7546048Y-14107405D01*
X7546048Y-14031214D01*
X7555571Y-14012167D01*
X7574619Y-14002643D01*
X7612714Y-14002643D01*
X7631762Y-14012167D01*
X7641286Y-14031214D01*
X7641286Y-14050262D01*
X7546048Y-14069309D01*
X7717476Y-14126452D02*
X7736524Y-14135976D01*
X7774619Y-14135976D01*
X7793667Y-14126452D01*
X7803190Y-14107405D01*
X7803190Y-14097881D01*
X7793667Y-14078833D01*
X7774619Y-14069309D01*
X7746048Y-14069309D01*
X7727000Y-14059786D01*
X7717476Y-14040738D01*
X7717476Y-14031214D01*
X7727000Y-14012167D01*
X7746048Y-14002643D01*
X7774619Y-14002643D01*
X7793667Y-14012167D01*
X7869857Y-14212167D02*
X7879381Y-14202643D01*
X7898428Y-14174071D01*
X7907952Y-14155024D01*
X7917476Y-14126452D01*
X7927000Y-14078833D01*
X7927000Y-14040738D01*
X7917476Y-13993119D01*
X7907952Y-13964548D01*
X7898428Y-13945500D01*
X7879381Y-13916928D01*
X7869857Y-13907405D01*
D12*
X2717000Y-14309500D02*
G75*
G03*
X2717000Y-14309500I-40000J0D01*
G01*
D10*
X3012714Y-14199976D02*
X3031762Y-14199976D01*
X3050809Y-14209500D01*
X3060333Y-14219024D01*
X3069857Y-14238071D01*
X3079381Y-14276167D01*
X3079381Y-14323786D01*
X3069857Y-14361881D01*
X3060333Y-14380928D01*
X3050809Y-14390452D01*
X3031762Y-14399976D01*
X3012714Y-14399976D01*
X2993667Y-14390452D01*
X2984143Y-14380928D01*
X2974619Y-14361881D01*
X2965095Y-14323786D01*
X2965095Y-14276167D01*
X2974619Y-14238071D01*
X2984143Y-14219024D01*
X2993667Y-14209500D01*
X3012714Y-14199976D01*
X3165095Y-14380928D02*
X3174619Y-14390452D01*
X3165095Y-14399976D01*
X3155571Y-14390452D01*
X3165095Y-14380928D01*
X3165095Y-14399976D01*
X3288905Y-14285690D02*
X3269857Y-14276167D01*
X3260333Y-14266643D01*
X3250809Y-14247595D01*
X3250809Y-14238071D01*
X3260333Y-14219024D01*
X3269857Y-14209500D01*
X3288905Y-14199976D01*
X3327000Y-14199976D01*
X3346048Y-14209500D01*
X3355571Y-14219024D01*
X3365095Y-14238071D01*
X3365095Y-14247595D01*
X3355571Y-14266643D01*
X3346048Y-14276167D01*
X3327000Y-14285690D01*
X3288905Y-14285690D01*
X3269857Y-14295214D01*
X3260333Y-14304738D01*
X3250809Y-14323786D01*
X3250809Y-14361881D01*
X3260333Y-14380928D01*
X3269857Y-14390452D01*
X3288905Y-14399976D01*
X3327000Y-14399976D01*
X3346048Y-14390452D01*
X3355571Y-14380928D01*
X3365095Y-14361881D01*
X3365095Y-14323786D01*
X3355571Y-14304738D01*
X3346048Y-14295214D01*
X3327000Y-14285690D01*
X3488905Y-14199976D02*
X3507952Y-14199976D01*
X3527000Y-14209500D01*
X3536524Y-14219024D01*
X3546048Y-14238071D01*
X3555571Y-14276167D01*
X3555571Y-14323786D01*
X3546048Y-14361881D01*
X3536524Y-14380928D01*
X3527000Y-14390452D01*
X3507952Y-14399976D01*
X3488905Y-14399976D01*
X3469857Y-14390452D01*
X3460333Y-14380928D01*
X3450809Y-14361881D01*
X3441286Y-14323786D01*
X3441286Y-14276167D01*
X3450809Y-14238071D01*
X3460333Y-14219024D01*
X3469857Y-14209500D01*
X3488905Y-14199976D01*
X3679381Y-14199976D02*
X3698428Y-14199976D01*
X3717476Y-14209500D01*
X3727000Y-14219024D01*
X3736524Y-14238071D01*
X3746048Y-14276167D01*
X3746048Y-14323786D01*
X3736524Y-14361881D01*
X3727000Y-14380928D01*
X3717476Y-14390452D01*
X3698428Y-14399976D01*
X3679381Y-14399976D01*
X3660333Y-14390452D01*
X3650809Y-14380928D01*
X3641286Y-14361881D01*
X3631762Y-14323786D01*
X3631762Y-14276167D01*
X3641286Y-14238071D01*
X3650809Y-14219024D01*
X3660333Y-14209500D01*
X3679381Y-14199976D01*
X3831762Y-14399976D02*
X3831762Y-14266643D01*
X3831762Y-14285690D02*
X3841286Y-14276167D01*
X3860333Y-14266643D01*
X3888905Y-14266643D01*
X3907952Y-14276167D01*
X3917476Y-14295214D01*
X3917476Y-14399976D01*
X3917476Y-14295214D02*
X3927000Y-14276167D01*
X3946048Y-14266643D01*
X3974619Y-14266643D01*
X3993667Y-14276167D01*
X4003190Y-14295214D01*
X4003190Y-14399976D01*
X4098428Y-14399976D02*
X4098428Y-14266643D01*
X4098428Y-14285690D02*
X4107952Y-14276167D01*
X4127000Y-14266643D01*
X4155571Y-14266643D01*
X4174619Y-14276167D01*
X4184143Y-14295214D01*
X4184143Y-14399976D01*
X4184143Y-14295214D02*
X4193667Y-14276167D01*
X4212714Y-14266643D01*
X4241286Y-14266643D01*
X4260333Y-14276167D01*
X4269857Y-14295214D01*
X4269857Y-14399976D01*
X4660333Y-14190452D02*
X4488905Y-14447595D01*
X4917476Y-14199976D02*
X4936524Y-14199976D01*
X4955571Y-14209500D01*
X4965095Y-14219024D01*
X4974619Y-14238071D01*
X4984143Y-14276167D01*
X4984143Y-14323786D01*
X4974619Y-14361881D01*
X4965095Y-14380928D01*
X4955571Y-14390452D01*
X4936524Y-14399976D01*
X4917476Y-14399976D01*
X4898429Y-14390452D01*
X4888905Y-14380928D01*
X4879381Y-14361881D01*
X4869857Y-14323786D01*
X4869857Y-14276167D01*
X4879381Y-14238071D01*
X4888905Y-14219024D01*
X4898429Y-14209500D01*
X4917476Y-14199976D01*
X5069857Y-14380928D02*
X5079381Y-14390452D01*
X5069857Y-14399976D01*
X5060333Y-14390452D01*
X5069857Y-14380928D01*
X5069857Y-14399976D01*
X5203190Y-14199976D02*
X5222238Y-14199976D01*
X5241286Y-14209500D01*
X5250810Y-14219024D01*
X5260333Y-14238071D01*
X5269857Y-14276167D01*
X5269857Y-14323786D01*
X5260333Y-14361881D01*
X5250810Y-14380928D01*
X5241286Y-14390452D01*
X5222238Y-14399976D01*
X5203190Y-14399976D01*
X5184143Y-14390452D01*
X5174619Y-14380928D01*
X5165095Y-14361881D01*
X5155571Y-14323786D01*
X5155571Y-14276167D01*
X5165095Y-14238071D01*
X5174619Y-14219024D01*
X5184143Y-14209500D01*
X5203190Y-14199976D01*
X5336524Y-14199976D02*
X5460333Y-14199976D01*
X5393667Y-14276167D01*
X5422238Y-14276167D01*
X5441286Y-14285690D01*
X5450810Y-14295214D01*
X5460333Y-14314262D01*
X5460333Y-14361881D01*
X5450810Y-14380928D01*
X5441286Y-14390452D01*
X5422238Y-14399976D01*
X5365095Y-14399976D01*
X5346048Y-14390452D01*
X5336524Y-14380928D01*
X5650809Y-14399976D02*
X5536524Y-14399976D01*
X5593667Y-14399976D02*
X5593667Y-14199976D01*
X5574619Y-14228548D01*
X5555571Y-14247595D01*
X5536524Y-14257119D01*
X5831762Y-14199976D02*
X5736524Y-14199976D01*
X5727000Y-14295214D01*
X5736524Y-14285690D01*
X5755571Y-14276167D01*
X5803190Y-14276167D01*
X5822238Y-14285690D01*
X5831762Y-14295214D01*
X5841286Y-14314262D01*
X5841286Y-14361881D01*
X5831762Y-14380928D01*
X5822238Y-14390452D01*
X5803190Y-14399976D01*
X5755571Y-14399976D01*
X5736524Y-14390452D01*
X5727000Y-14380928D01*
X5917476Y-14199976D02*
X5917476Y-14238071D01*
X5993667Y-14199976D02*
X5993667Y-14238071D01*
X6288905Y-14476167D02*
X6279381Y-14466643D01*
X6260333Y-14438071D01*
X6250809Y-14419024D01*
X6241286Y-14390452D01*
X6231762Y-14342833D01*
X6231762Y-14304738D01*
X6241286Y-14257119D01*
X6250809Y-14228548D01*
X6260333Y-14209500D01*
X6279381Y-14180928D01*
X6288905Y-14171405D01*
X6355571Y-14219024D02*
X6365095Y-14209500D01*
X6384143Y-14199976D01*
X6431762Y-14199976D01*
X6450809Y-14209500D01*
X6460333Y-14219024D01*
X6469857Y-14238071D01*
X6469857Y-14257119D01*
X6460333Y-14285690D01*
X6346048Y-14399976D01*
X6469857Y-14399976D01*
X6546048Y-14219024D02*
X6555571Y-14209500D01*
X6574619Y-14199976D01*
X6622238Y-14199976D01*
X6641286Y-14209500D01*
X6650809Y-14219024D01*
X6660333Y-14238071D01*
X6660333Y-14257119D01*
X6650809Y-14285690D01*
X6536524Y-14399976D01*
X6660333Y-14399976D01*
X6898428Y-14399976D02*
X6898428Y-14199976D01*
X6984143Y-14399976D02*
X6984143Y-14295214D01*
X6974619Y-14276167D01*
X6955571Y-14266643D01*
X6927000Y-14266643D01*
X6907952Y-14276167D01*
X6898428Y-14285690D01*
X7107952Y-14399976D02*
X7088905Y-14390452D01*
X7079381Y-14380928D01*
X7069857Y-14361881D01*
X7069857Y-14304738D01*
X7079381Y-14285690D01*
X7088905Y-14276167D01*
X7107952Y-14266643D01*
X7136524Y-14266643D01*
X7155571Y-14276167D01*
X7165095Y-14285690D01*
X7174619Y-14304738D01*
X7174619Y-14361881D01*
X7165095Y-14380928D01*
X7155571Y-14390452D01*
X7136524Y-14399976D01*
X7107952Y-14399976D01*
X7288905Y-14399976D02*
X7269857Y-14390452D01*
X7260333Y-14371405D01*
X7260333Y-14199976D01*
X7441286Y-14390452D02*
X7422238Y-14399976D01*
X7384143Y-14399976D01*
X7365095Y-14390452D01*
X7355571Y-14371405D01*
X7355571Y-14295214D01*
X7365095Y-14276167D01*
X7384143Y-14266643D01*
X7422238Y-14266643D01*
X7441286Y-14276167D01*
X7450809Y-14295214D01*
X7450809Y-14314262D01*
X7355571Y-14333309D01*
X7527000Y-14390452D02*
X7546048Y-14399976D01*
X7584143Y-14399976D01*
X7603190Y-14390452D01*
X7612714Y-14371405D01*
X7612714Y-14361881D01*
X7603190Y-14342833D01*
X7584143Y-14333309D01*
X7555571Y-14333309D01*
X7536524Y-14323786D01*
X7527000Y-14304738D01*
X7527000Y-14295214D01*
X7536524Y-14276167D01*
X7555571Y-14266643D01*
X7584143Y-14266643D01*
X7603190Y-14276167D01*
X7679381Y-14476167D02*
X7688905Y-14466643D01*
X7707952Y-14438071D01*
X7717476Y-14419024D01*
X7727000Y-14390452D01*
X7736524Y-14342833D01*
X7736524Y-14304738D01*
X7727000Y-14257119D01*
X7717476Y-14228548D01*
X7707952Y-14209500D01*
X7688905Y-14180928D01*
X7679381Y-14171405D01*
D13*
X2672550Y-14529050D02*
X2672550Y-14617950D01*
X2628100Y-14573500D02*
X2717000Y-14573500D01*
D10*
X3012714Y-14463976D02*
X3031762Y-14463976D01*
X3050809Y-14473500D01*
X3060333Y-14483024D01*
X3069857Y-14502071D01*
X3079381Y-14540167D01*
X3079381Y-14587786D01*
X3069857Y-14625881D01*
X3060333Y-14644928D01*
X3050809Y-14654452D01*
X3031762Y-14663976D01*
X3012714Y-14663976D01*
X2993667Y-14654452D01*
X2984143Y-14644928D01*
X2974619Y-14625881D01*
X2965095Y-14587786D01*
X2965095Y-14540167D01*
X2974619Y-14502071D01*
X2984143Y-14483024D01*
X2993667Y-14473500D01*
X3012714Y-14463976D01*
X3165095Y-14644928D02*
X3174619Y-14654452D01*
X3165095Y-14663976D01*
X3155571Y-14654452D01*
X3165095Y-14644928D01*
X3165095Y-14663976D01*
X3288905Y-14549690D02*
X3269857Y-14540167D01*
X3260333Y-14530643D01*
X3250809Y-14511595D01*
X3250809Y-14502071D01*
X3260333Y-14483024D01*
X3269857Y-14473500D01*
X3288905Y-14463976D01*
X3327000Y-14463976D01*
X3346048Y-14473500D01*
X3355571Y-14483024D01*
X3365095Y-14502071D01*
X3365095Y-14511595D01*
X3355571Y-14530643D01*
X3346048Y-14540167D01*
X3327000Y-14549690D01*
X3288905Y-14549690D01*
X3269857Y-14559214D01*
X3260333Y-14568738D01*
X3250809Y-14587786D01*
X3250809Y-14625881D01*
X3260333Y-14644928D01*
X3269857Y-14654452D01*
X3288905Y-14663976D01*
X3327000Y-14663976D01*
X3346048Y-14654452D01*
X3355571Y-14644928D01*
X3365095Y-14625881D01*
X3365095Y-14587786D01*
X3355571Y-14568738D01*
X3346048Y-14559214D01*
X3327000Y-14549690D01*
X3479381Y-14549690D02*
X3460333Y-14540167D01*
X3450809Y-14530643D01*
X3441286Y-14511595D01*
X3441286Y-14502071D01*
X3450809Y-14483024D01*
X3460333Y-14473500D01*
X3479381Y-14463976D01*
X3517476Y-14463976D01*
X3536524Y-14473500D01*
X3546048Y-14483024D01*
X3555571Y-14502071D01*
X3555571Y-14511595D01*
X3546048Y-14530643D01*
X3536524Y-14540167D01*
X3517476Y-14549690D01*
X3479381Y-14549690D01*
X3460333Y-14559214D01*
X3450809Y-14568738D01*
X3441286Y-14587786D01*
X3441286Y-14625881D01*
X3450809Y-14644928D01*
X3460333Y-14654452D01*
X3479381Y-14663976D01*
X3517476Y-14663976D01*
X3536524Y-14654452D01*
X3546048Y-14644928D01*
X3555571Y-14625881D01*
X3555571Y-14587786D01*
X3546048Y-14568738D01*
X3536524Y-14559214D01*
X3517476Y-14549690D01*
X3650809Y-14663976D02*
X3688905Y-14663976D01*
X3707952Y-14654452D01*
X3717476Y-14644928D01*
X3736524Y-14616357D01*
X3746048Y-14578262D01*
X3746048Y-14502071D01*
X3736524Y-14483024D01*
X3727000Y-14473500D01*
X3707952Y-14463976D01*
X3669857Y-14463976D01*
X3650809Y-14473500D01*
X3641286Y-14483024D01*
X3631762Y-14502071D01*
X3631762Y-14549690D01*
X3641286Y-14568738D01*
X3650809Y-14578262D01*
X3669857Y-14587786D01*
X3707952Y-14587786D01*
X3727000Y-14578262D01*
X3736524Y-14568738D01*
X3746048Y-14549690D01*
X3831762Y-14663976D02*
X3831762Y-14530643D01*
X3831762Y-14549690D02*
X3841286Y-14540167D01*
X3860333Y-14530643D01*
X3888905Y-14530643D01*
X3907952Y-14540167D01*
X3917476Y-14559214D01*
X3917476Y-14663976D01*
X3917476Y-14559214D02*
X3927000Y-14540167D01*
X3946048Y-14530643D01*
X3974619Y-14530643D01*
X3993667Y-14540167D01*
X4003190Y-14559214D01*
X4003190Y-14663976D01*
X4098428Y-14663976D02*
X4098428Y-14530643D01*
X4098428Y-14549690D02*
X4107952Y-14540167D01*
X4127000Y-14530643D01*
X4155571Y-14530643D01*
X4174619Y-14540167D01*
X4184143Y-14559214D01*
X4184143Y-14663976D01*
X4184143Y-14559214D02*
X4193667Y-14540167D01*
X4212714Y-14530643D01*
X4241286Y-14530643D01*
X4260333Y-14540167D01*
X4269857Y-14559214D01*
X4269857Y-14663976D01*
X4660333Y-14454452D02*
X4488905Y-14711595D01*
X4917476Y-14463976D02*
X4936524Y-14463976D01*
X4955571Y-14473500D01*
X4965095Y-14483024D01*
X4974619Y-14502071D01*
X4984143Y-14540167D01*
X4984143Y-14587786D01*
X4974619Y-14625881D01*
X4965095Y-14644928D01*
X4955571Y-14654452D01*
X4936524Y-14663976D01*
X4917476Y-14663976D01*
X4898429Y-14654452D01*
X4888905Y-14644928D01*
X4879381Y-14625881D01*
X4869857Y-14587786D01*
X4869857Y-14540167D01*
X4879381Y-14502071D01*
X4888905Y-14483024D01*
X4898429Y-14473500D01*
X4917476Y-14463976D01*
X5069857Y-14644928D02*
X5079381Y-14654452D01*
X5069857Y-14663976D01*
X5060333Y-14654452D01*
X5069857Y-14644928D01*
X5069857Y-14663976D01*
X5203190Y-14463976D02*
X5222238Y-14463976D01*
X5241286Y-14473500D01*
X5250810Y-14483024D01*
X5260333Y-14502071D01*
X5269857Y-14540167D01*
X5269857Y-14587786D01*
X5260333Y-14625881D01*
X5250810Y-14644928D01*
X5241286Y-14654452D01*
X5222238Y-14663976D01*
X5203190Y-14663976D01*
X5184143Y-14654452D01*
X5174619Y-14644928D01*
X5165095Y-14625881D01*
X5155571Y-14587786D01*
X5155571Y-14540167D01*
X5165095Y-14502071D01*
X5174619Y-14483024D01*
X5184143Y-14473500D01*
X5203190Y-14463976D01*
X5336524Y-14463976D02*
X5460333Y-14463976D01*
X5393667Y-14540167D01*
X5422238Y-14540167D01*
X5441286Y-14549690D01*
X5450810Y-14559214D01*
X5460333Y-14578262D01*
X5460333Y-14625881D01*
X5450810Y-14644928D01*
X5441286Y-14654452D01*
X5422238Y-14663976D01*
X5365095Y-14663976D01*
X5346048Y-14654452D01*
X5336524Y-14644928D01*
X5641286Y-14463976D02*
X5546048Y-14463976D01*
X5536524Y-14559214D01*
X5546048Y-14549690D01*
X5565095Y-14540167D01*
X5612714Y-14540167D01*
X5631762Y-14549690D01*
X5641286Y-14559214D01*
X5650809Y-14578262D01*
X5650809Y-14625881D01*
X5641286Y-14644928D01*
X5631762Y-14654452D01*
X5612714Y-14663976D01*
X5565095Y-14663976D01*
X5546048Y-14654452D01*
X5536524Y-14644928D01*
X5774619Y-14463976D02*
X5793667Y-14463976D01*
X5812714Y-14473500D01*
X5822238Y-14483024D01*
X5831762Y-14502071D01*
X5841286Y-14540167D01*
X5841286Y-14587786D01*
X5831762Y-14625881D01*
X5822238Y-14644928D01*
X5812714Y-14654452D01*
X5793667Y-14663976D01*
X5774619Y-14663976D01*
X5755571Y-14654452D01*
X5746048Y-14644928D01*
X5736524Y-14625881D01*
X5727000Y-14587786D01*
X5727000Y-14540167D01*
X5736524Y-14502071D01*
X5746048Y-14483024D01*
X5755571Y-14473500D01*
X5774619Y-14463976D01*
X5917476Y-14463976D02*
X5917476Y-14502071D01*
X5993667Y-14463976D02*
X5993667Y-14502071D01*
X6288905Y-14740167D02*
X6279381Y-14730643D01*
X6260333Y-14702071D01*
X6250809Y-14683024D01*
X6241286Y-14654452D01*
X6231762Y-14606833D01*
X6231762Y-14568738D01*
X6241286Y-14521119D01*
X6250809Y-14492548D01*
X6260333Y-14473500D01*
X6279381Y-14444928D01*
X6288905Y-14435405D01*
X6469857Y-14663976D02*
X6355571Y-14663976D01*
X6412714Y-14663976D02*
X6412714Y-14463976D01*
X6393667Y-14492548D01*
X6374619Y-14511595D01*
X6355571Y-14521119D01*
X6641286Y-14463976D02*
X6603190Y-14463976D01*
X6584143Y-14473500D01*
X6574619Y-14483024D01*
X6555571Y-14511595D01*
X6546048Y-14549690D01*
X6546048Y-14625881D01*
X6555571Y-14644928D01*
X6565095Y-14654452D01*
X6584143Y-14663976D01*
X6622238Y-14663976D01*
X6641286Y-14654452D01*
X6650809Y-14644928D01*
X6660333Y-14625881D01*
X6660333Y-14578262D01*
X6650809Y-14559214D01*
X6641286Y-14549690D01*
X6622238Y-14540167D01*
X6584143Y-14540167D01*
X6565095Y-14549690D01*
X6555571Y-14559214D01*
X6546048Y-14578262D01*
X6784143Y-14463976D02*
X6803190Y-14463976D01*
X6822238Y-14473500D01*
X6831762Y-14483024D01*
X6841286Y-14502071D01*
X6850809Y-14540167D01*
X6850809Y-14587786D01*
X6841286Y-14625881D01*
X6831762Y-14644928D01*
X6822238Y-14654452D01*
X6803190Y-14663976D01*
X6784143Y-14663976D01*
X6765095Y-14654452D01*
X6755571Y-14644928D01*
X6746048Y-14625881D01*
X6736524Y-14587786D01*
X6736524Y-14540167D01*
X6746048Y-14502071D01*
X6755571Y-14483024D01*
X6765095Y-14473500D01*
X6784143Y-14463976D01*
X7088905Y-14663976D02*
X7088905Y-14463976D01*
X7174619Y-14663976D02*
X7174619Y-14559214D01*
X7165095Y-14540167D01*
X7146048Y-14530643D01*
X7117476Y-14530643D01*
X7098428Y-14540167D01*
X7088905Y-14549690D01*
X7298428Y-14663976D02*
X7279381Y-14654452D01*
X7269857Y-14644928D01*
X7260333Y-14625881D01*
X7260333Y-14568738D01*
X7269857Y-14549690D01*
X7279381Y-14540167D01*
X7298428Y-14530643D01*
X7327000Y-14530643D01*
X7346048Y-14540167D01*
X7355571Y-14549690D01*
X7365095Y-14568738D01*
X7365095Y-14625881D01*
X7355571Y-14644928D01*
X7346048Y-14654452D01*
X7327000Y-14663976D01*
X7298428Y-14663976D01*
X7479381Y-14663976D02*
X7460333Y-14654452D01*
X7450809Y-14635405D01*
X7450809Y-14463976D01*
X7631762Y-14654452D02*
X7612714Y-14663976D01*
X7574619Y-14663976D01*
X7555571Y-14654452D01*
X7546048Y-14635405D01*
X7546048Y-14559214D01*
X7555571Y-14540167D01*
X7574619Y-14530643D01*
X7612714Y-14530643D01*
X7631762Y-14540167D01*
X7641286Y-14559214D01*
X7641286Y-14578262D01*
X7546048Y-14597309D01*
X7717476Y-14654452D02*
X7736524Y-14663976D01*
X7774619Y-14663976D01*
X7793667Y-14654452D01*
X7803190Y-14635405D01*
X7803190Y-14625881D01*
X7793667Y-14606833D01*
X7774619Y-14597309D01*
X7746048Y-14597309D01*
X7727000Y-14587786D01*
X7717476Y-14568738D01*
X7717476Y-14559214D01*
X7727000Y-14540167D01*
X7746048Y-14530643D01*
X7774619Y-14530643D01*
X7793667Y-14540167D01*
X7869857Y-14740167D02*
X7879381Y-14730643D01*
X7898428Y-14702071D01*
X7907952Y-14683024D01*
X7917476Y-14654452D01*
X7927000Y-14606833D01*
X7927000Y-14568738D01*
X7917476Y-14521119D01*
X7907952Y-14492548D01*
X7898428Y-14473500D01*
X7879381Y-14444928D01*
X7869857Y-14435405D01*
D14*
X2703820Y-14869320D02*
X2703820Y-14805680D01*
X2640180Y-14805680D01*
X2640180Y-14869320D01*
X2703820Y-14869320D01*
D10*
X3012714Y-14727976D02*
X3031762Y-14727976D01*
X3050809Y-14737500D01*
X3060333Y-14747024D01*
X3069857Y-14766071D01*
X3079381Y-14804167D01*
X3079381Y-14851786D01*
X3069857Y-14889881D01*
X3060333Y-14908928D01*
X3050809Y-14918452D01*
X3031762Y-14927976D01*
X3012714Y-14927976D01*
X2993667Y-14918452D01*
X2984143Y-14908928D01*
X2974619Y-14889881D01*
X2965095Y-14851786D01*
X2965095Y-14804167D01*
X2974619Y-14766071D01*
X2984143Y-14747024D01*
X2993667Y-14737500D01*
X3012714Y-14727976D01*
X3165095Y-14908928D02*
X3174619Y-14918452D01*
X3165095Y-14927976D01*
X3155571Y-14918452D01*
X3165095Y-14908928D01*
X3165095Y-14927976D01*
X3269857Y-14927976D02*
X3307952Y-14927976D01*
X3327000Y-14918452D01*
X3336524Y-14908928D01*
X3355571Y-14880357D01*
X3365095Y-14842262D01*
X3365095Y-14766071D01*
X3355571Y-14747024D01*
X3346048Y-14737500D01*
X3327000Y-14727976D01*
X3288905Y-14727976D01*
X3269857Y-14737500D01*
X3260333Y-14747024D01*
X3250809Y-14766071D01*
X3250809Y-14813690D01*
X3260333Y-14832738D01*
X3269857Y-14842262D01*
X3288905Y-14851786D01*
X3327000Y-14851786D01*
X3346048Y-14842262D01*
X3355571Y-14832738D01*
X3365095Y-14813690D01*
X3488905Y-14727976D02*
X3507952Y-14727976D01*
X3527000Y-14737500D01*
X3536524Y-14747024D01*
X3546048Y-14766071D01*
X3555571Y-14804167D01*
X3555571Y-14851786D01*
X3546048Y-14889881D01*
X3536524Y-14908928D01*
X3527000Y-14918452D01*
X3507952Y-14927976D01*
X3488905Y-14927976D01*
X3469857Y-14918452D01*
X3460333Y-14908928D01*
X3450809Y-14889881D01*
X3441286Y-14851786D01*
X3441286Y-14804167D01*
X3450809Y-14766071D01*
X3460333Y-14747024D01*
X3469857Y-14737500D01*
X3488905Y-14727976D01*
X3679381Y-14727976D02*
X3698428Y-14727976D01*
X3717476Y-14737500D01*
X3727000Y-14747024D01*
X3736524Y-14766071D01*
X3746048Y-14804167D01*
X3746048Y-14851786D01*
X3736524Y-14889881D01*
X3727000Y-14908928D01*
X3717476Y-14918452D01*
X3698428Y-14927976D01*
X3679381Y-14927976D01*
X3660333Y-14918452D01*
X3650809Y-14908928D01*
X3641286Y-14889881D01*
X3631762Y-14851786D01*
X3631762Y-14804167D01*
X3641286Y-14766071D01*
X3650809Y-14747024D01*
X3660333Y-14737500D01*
X3679381Y-14727976D01*
X3831762Y-14927976D02*
X3831762Y-14794643D01*
X3831762Y-14813690D02*
X3841286Y-14804167D01*
X3860333Y-14794643D01*
X3888905Y-14794643D01*
X3907952Y-14804167D01*
X3917476Y-14823214D01*
X3917476Y-14927976D01*
X3917476Y-14823214D02*
X3927000Y-14804167D01*
X3946048Y-14794643D01*
X3974619Y-14794643D01*
X3993667Y-14804167D01*
X4003190Y-14823214D01*
X4003190Y-14927976D01*
X4098428Y-14927976D02*
X4098428Y-14794643D01*
X4098428Y-14813690D02*
X4107952Y-14804167D01*
X4127000Y-14794643D01*
X4155571Y-14794643D01*
X4174619Y-14804167D01*
X4184143Y-14823214D01*
X4184143Y-14927976D01*
X4184143Y-14823214D02*
X4193667Y-14804167D01*
X4212714Y-14794643D01*
X4241286Y-14794643D01*
X4260333Y-14804167D01*
X4269857Y-14823214D01*
X4269857Y-14927976D01*
X4660333Y-14718452D02*
X4488905Y-14975595D01*
X4917476Y-14727976D02*
X4936524Y-14727976D01*
X4955571Y-14737500D01*
X4965095Y-14747024D01*
X4974619Y-14766071D01*
X4984143Y-14804167D01*
X4984143Y-14851786D01*
X4974619Y-14889881D01*
X4965095Y-14908928D01*
X4955571Y-14918452D01*
X4936524Y-14927976D01*
X4917476Y-14927976D01*
X4898429Y-14918452D01*
X4888905Y-14908928D01*
X4879381Y-14889881D01*
X4869857Y-14851786D01*
X4869857Y-14804167D01*
X4879381Y-14766071D01*
X4888905Y-14747024D01*
X4898429Y-14737500D01*
X4917476Y-14727976D01*
X5069857Y-14908928D02*
X5079381Y-14918452D01*
X5069857Y-14927976D01*
X5060333Y-14918452D01*
X5069857Y-14908928D01*
X5069857Y-14927976D01*
X5203190Y-14727976D02*
X5222238Y-14727976D01*
X5241286Y-14737500D01*
X5250810Y-14747024D01*
X5260333Y-14766071D01*
X5269857Y-14804167D01*
X5269857Y-14851786D01*
X5260333Y-14889881D01*
X5250810Y-14908928D01*
X5241286Y-14918452D01*
X5222238Y-14927976D01*
X5203190Y-14927976D01*
X5184143Y-14918452D01*
X5174619Y-14908928D01*
X5165095Y-14889881D01*
X5155571Y-14851786D01*
X5155571Y-14804167D01*
X5165095Y-14766071D01*
X5174619Y-14747024D01*
X5184143Y-14737500D01*
X5203190Y-14727976D01*
X5336524Y-14727976D02*
X5460333Y-14727976D01*
X5393667Y-14804167D01*
X5422238Y-14804167D01*
X5441286Y-14813690D01*
X5450810Y-14823214D01*
X5460333Y-14842262D01*
X5460333Y-14889881D01*
X5450810Y-14908928D01*
X5441286Y-14918452D01*
X5422238Y-14927976D01*
X5365095Y-14927976D01*
X5346048Y-14918452D01*
X5336524Y-14908928D01*
X5641286Y-14727976D02*
X5546048Y-14727976D01*
X5536524Y-14823214D01*
X5546048Y-14813690D01*
X5565095Y-14804167D01*
X5612714Y-14804167D01*
X5631762Y-14813690D01*
X5641286Y-14823214D01*
X5650809Y-14842262D01*
X5650809Y-14889881D01*
X5641286Y-14908928D01*
X5631762Y-14918452D01*
X5612714Y-14927976D01*
X5565095Y-14927976D01*
X5546048Y-14918452D01*
X5536524Y-14908928D01*
X5822238Y-14794643D02*
X5822238Y-14927976D01*
X5774619Y-14718452D02*
X5727000Y-14861309D01*
X5850809Y-14861309D01*
X5917476Y-14727976D02*
X5917476Y-14766071D01*
X5993667Y-14727976D02*
X5993667Y-14766071D01*
X6288905Y-15004167D02*
X6279381Y-14994643D01*
X6260333Y-14966071D01*
X6250809Y-14947024D01*
X6241286Y-14918452D01*
X6231762Y-14870833D01*
X6231762Y-14832738D01*
X6241286Y-14785119D01*
X6250809Y-14756548D01*
X6260333Y-14737500D01*
X6279381Y-14708928D01*
X6288905Y-14699405D01*
X6393667Y-14813690D02*
X6374619Y-14804167D01*
X6365095Y-14794643D01*
X6355571Y-14775595D01*
X6355571Y-14766071D01*
X6365095Y-14747024D01*
X6374619Y-14737500D01*
X6393667Y-14727976D01*
X6431762Y-14727976D01*
X6450809Y-14737500D01*
X6460333Y-14747024D01*
X6469857Y-14766071D01*
X6469857Y-14775595D01*
X6460333Y-14794643D01*
X6450809Y-14804167D01*
X6431762Y-14813690D01*
X6393667Y-14813690D01*
X6374619Y-14823214D01*
X6365095Y-14832738D01*
X6355571Y-14851786D01*
X6355571Y-14889881D01*
X6365095Y-14908928D01*
X6374619Y-14918452D01*
X6393667Y-14927976D01*
X6431762Y-14927976D01*
X6450809Y-14918452D01*
X6460333Y-14908928D01*
X6469857Y-14889881D01*
X6469857Y-14851786D01*
X6460333Y-14832738D01*
X6450809Y-14823214D01*
X6431762Y-14813690D01*
X6707952Y-14927976D02*
X6707952Y-14727976D01*
X6793667Y-14927976D02*
X6793667Y-14823214D01*
X6784143Y-14804167D01*
X6765095Y-14794643D01*
X6736524Y-14794643D01*
X6717476Y-14804167D01*
X6707952Y-14813690D01*
X6917476Y-14927976D02*
X6898428Y-14918452D01*
X6888905Y-14908928D01*
X6879381Y-14889881D01*
X6879381Y-14832738D01*
X6888905Y-14813690D01*
X6898428Y-14804167D01*
X6917476Y-14794643D01*
X6946048Y-14794643D01*
X6965095Y-14804167D01*
X6974619Y-14813690D01*
X6984143Y-14832738D01*
X6984143Y-14889881D01*
X6974619Y-14908928D01*
X6965095Y-14918452D01*
X6946048Y-14927976D01*
X6917476Y-14927976D01*
X7098428Y-14927976D02*
X7079381Y-14918452D01*
X7069857Y-14899405D01*
X7069857Y-14727976D01*
X7250809Y-14918452D02*
X7231762Y-14927976D01*
X7193667Y-14927976D01*
X7174619Y-14918452D01*
X7165095Y-14899405D01*
X7165095Y-14823214D01*
X7174619Y-14804167D01*
X7193667Y-14794643D01*
X7231762Y-14794643D01*
X7250809Y-14804167D01*
X7260333Y-14823214D01*
X7260333Y-14842262D01*
X7165095Y-14861309D01*
X7336524Y-14918452D02*
X7355571Y-14927976D01*
X7393667Y-14927976D01*
X7412714Y-14918452D01*
X7422238Y-14899405D01*
X7422238Y-14889881D01*
X7412714Y-14870833D01*
X7393667Y-14861309D01*
X7365095Y-14861309D01*
X7346048Y-14851786D01*
X7336524Y-14832738D01*
X7336524Y-14823214D01*
X7346048Y-14804167D01*
X7365095Y-14794643D01*
X7393667Y-14794643D01*
X7412714Y-14804167D01*
X7488905Y-15004167D02*
X7498428Y-14994643D01*
X7517476Y-14966071D01*
X7527000Y-14947024D01*
X7536524Y-14918452D01*
X7546048Y-14870833D01*
X7546048Y-14832738D01*
X7536524Y-14785119D01*
X7527000Y-14756548D01*
X7517476Y-14737500D01*
X7498428Y-14708928D01*
X7488905Y-14699405D01*
D15*
X2666200Y-15152300D02*
X2717000Y-15101500D01*
X2666200Y-15050700D01*
X2615400Y-15101500D01*
X2666200Y-15152300D01*
D10*
X3079381Y-15191976D02*
X2965095Y-15191976D01*
X3022238Y-15191976D02*
X3022238Y-14991976D01*
X3003190Y-15020548D01*
X2984143Y-15039595D01*
X2965095Y-15049119D01*
X3165095Y-15172928D02*
X3174619Y-15182452D01*
X3165095Y-15191976D01*
X3155571Y-15182452D01*
X3165095Y-15172928D01*
X3165095Y-15191976D01*
X3298428Y-14991976D02*
X3317476Y-14991976D01*
X3336524Y-15001500D01*
X3346048Y-15011024D01*
X3355571Y-15030071D01*
X3365095Y-15068167D01*
X3365095Y-15115786D01*
X3355571Y-15153881D01*
X3346048Y-15172928D01*
X3336524Y-15182452D01*
X3317476Y-15191976D01*
X3298428Y-15191976D01*
X3279381Y-15182452D01*
X3269857Y-15172928D01*
X3260333Y-15153881D01*
X3250809Y-15115786D01*
X3250809Y-15068167D01*
X3260333Y-15030071D01*
X3269857Y-15011024D01*
X3279381Y-15001500D01*
X3298428Y-14991976D01*
X3555571Y-15191976D02*
X3441286Y-15191976D01*
X3498428Y-15191976D02*
X3498428Y-14991976D01*
X3479381Y-15020548D01*
X3460333Y-15039595D01*
X3441286Y-15049119D01*
X3727000Y-14991976D02*
X3688905Y-14991976D01*
X3669857Y-15001500D01*
X3660333Y-15011024D01*
X3641286Y-15039595D01*
X3631762Y-15077690D01*
X3631762Y-15153881D01*
X3641286Y-15172928D01*
X3650809Y-15182452D01*
X3669857Y-15191976D01*
X3707952Y-15191976D01*
X3727000Y-15182452D01*
X3736524Y-15172928D01*
X3746048Y-15153881D01*
X3746048Y-15106262D01*
X3736524Y-15087214D01*
X3727000Y-15077690D01*
X3707952Y-15068167D01*
X3669857Y-15068167D01*
X3650809Y-15077690D01*
X3641286Y-15087214D01*
X3631762Y-15106262D01*
X3831762Y-15191976D02*
X3831762Y-15058643D01*
X3831762Y-15077690D02*
X3841286Y-15068167D01*
X3860333Y-15058643D01*
X3888905Y-15058643D01*
X3907952Y-15068167D01*
X3917476Y-15087214D01*
X3917476Y-15191976D01*
X3917476Y-15087214D02*
X3927000Y-15068167D01*
X3946048Y-15058643D01*
X3974619Y-15058643D01*
X3993667Y-15068167D01*
X4003190Y-15087214D01*
X4003190Y-15191976D01*
X4098428Y-15191976D02*
X4098428Y-15058643D01*
X4098428Y-15077690D02*
X4107952Y-15068167D01*
X4127000Y-15058643D01*
X4155571Y-15058643D01*
X4174619Y-15068167D01*
X4184143Y-15087214D01*
X4184143Y-15191976D01*
X4184143Y-15087214D02*
X4193667Y-15068167D01*
X4212714Y-15058643D01*
X4241286Y-15058643D01*
X4260333Y-15068167D01*
X4269857Y-15087214D01*
X4269857Y-15191976D01*
X4660333Y-14982452D02*
X4488905Y-15239595D01*
X4917476Y-14991976D02*
X4936524Y-14991976D01*
X4955571Y-15001500D01*
X4965095Y-15011024D01*
X4974619Y-15030071D01*
X4984143Y-15068167D01*
X4984143Y-15115786D01*
X4974619Y-15153881D01*
X4965095Y-15172928D01*
X4955571Y-15182452D01*
X4936524Y-15191976D01*
X4917476Y-15191976D01*
X4898429Y-15182452D01*
X4888905Y-15172928D01*
X4879381Y-15153881D01*
X4869857Y-15115786D01*
X4869857Y-15068167D01*
X4879381Y-15030071D01*
X4888905Y-15011024D01*
X4898429Y-15001500D01*
X4917476Y-14991976D01*
X5069857Y-15172928D02*
X5079381Y-15182452D01*
X5069857Y-15191976D01*
X5060333Y-15182452D01*
X5069857Y-15172928D01*
X5069857Y-15191976D01*
X5203190Y-14991976D02*
X5222238Y-14991976D01*
X5241286Y-15001500D01*
X5250810Y-15011024D01*
X5260333Y-15030071D01*
X5269857Y-15068167D01*
X5269857Y-15115786D01*
X5260333Y-15153881D01*
X5250810Y-15172928D01*
X5241286Y-15182452D01*
X5222238Y-15191976D01*
X5203190Y-15191976D01*
X5184143Y-15182452D01*
X5174619Y-15172928D01*
X5165095Y-15153881D01*
X5155571Y-15115786D01*
X5155571Y-15068167D01*
X5165095Y-15030071D01*
X5174619Y-15011024D01*
X5184143Y-15001500D01*
X5203190Y-14991976D01*
X5441286Y-15058643D02*
X5441286Y-15191976D01*
X5393667Y-14982452D02*
X5346048Y-15125309D01*
X5469857Y-15125309D01*
X5584143Y-14991976D02*
X5603190Y-14991976D01*
X5622238Y-15001500D01*
X5631762Y-15011024D01*
X5641286Y-15030071D01*
X5650809Y-15068167D01*
X5650809Y-15115786D01*
X5641286Y-15153881D01*
X5631762Y-15172928D01*
X5622238Y-15182452D01*
X5603190Y-15191976D01*
X5584143Y-15191976D01*
X5565095Y-15182452D01*
X5555571Y-15172928D01*
X5546048Y-15153881D01*
X5536524Y-15115786D01*
X5536524Y-15068167D01*
X5546048Y-15030071D01*
X5555571Y-15011024D01*
X5565095Y-15001500D01*
X5584143Y-14991976D01*
X5774619Y-14991976D02*
X5793667Y-14991976D01*
X5812714Y-15001500D01*
X5822238Y-15011024D01*
X5831762Y-15030071D01*
X5841286Y-15068167D01*
X5841286Y-15115786D01*
X5831762Y-15153881D01*
X5822238Y-15172928D01*
X5812714Y-15182452D01*
X5793667Y-15191976D01*
X5774619Y-15191976D01*
X5755571Y-15182452D01*
X5746048Y-15172928D01*
X5736524Y-15153881D01*
X5727000Y-15115786D01*
X5727000Y-15068167D01*
X5736524Y-15030071D01*
X5746048Y-15011024D01*
X5755571Y-15001500D01*
X5774619Y-14991976D01*
X5917476Y-14991976D02*
X5917476Y-15030071D01*
X5993667Y-14991976D02*
X5993667Y-15030071D01*
X6288905Y-15268167D02*
X6279381Y-15258643D01*
X6260333Y-15230071D01*
X6250809Y-15211024D01*
X6241286Y-15182452D01*
X6231762Y-15134833D01*
X6231762Y-15096738D01*
X6241286Y-15049119D01*
X6250809Y-15020548D01*
X6260333Y-15001500D01*
X6279381Y-14972928D01*
X6288905Y-14963405D01*
X6450809Y-15058643D02*
X6450809Y-15191976D01*
X6403190Y-14982452D02*
X6355571Y-15125309D01*
X6479381Y-15125309D01*
X6707952Y-15191976D02*
X6707952Y-14991976D01*
X6793667Y-15191976D02*
X6793667Y-15087214D01*
X6784143Y-15068167D01*
X6765095Y-15058643D01*
X6736524Y-15058643D01*
X6717476Y-15068167D01*
X6707952Y-15077690D01*
X6917476Y-15191976D02*
X6898428Y-15182452D01*
X6888905Y-15172928D01*
X6879381Y-15153881D01*
X6879381Y-15096738D01*
X6888905Y-15077690D01*
X6898428Y-15068167D01*
X6917476Y-15058643D01*
X6946048Y-15058643D01*
X6965095Y-15068167D01*
X6974619Y-15077690D01*
X6984143Y-15096738D01*
X6984143Y-15153881D01*
X6974619Y-15172928D01*
X6965095Y-15182452D01*
X6946048Y-15191976D01*
X6917476Y-15191976D01*
X7098428Y-15191976D02*
X7079381Y-15182452D01*
X7069857Y-15163405D01*
X7069857Y-14991976D01*
X7250809Y-15182452D02*
X7231762Y-15191976D01*
X7193667Y-15191976D01*
X7174619Y-15182452D01*
X7165095Y-15163405D01*
X7165095Y-15087214D01*
X7174619Y-15068167D01*
X7193667Y-15058643D01*
X7231762Y-15058643D01*
X7250809Y-15068167D01*
X7260333Y-15087214D01*
X7260333Y-15106262D01*
X7165095Y-15125309D01*
X7336524Y-15182452D02*
X7355571Y-15191976D01*
X7393667Y-15191976D01*
X7412714Y-15182452D01*
X7422238Y-15163405D01*
X7422238Y-15153881D01*
X7412714Y-15134833D01*
X7393667Y-15125309D01*
X7365095Y-15125309D01*
X7346048Y-15115786D01*
X7336524Y-15096738D01*
X7336524Y-15087214D01*
X7346048Y-15068167D01*
X7365095Y-15058643D01*
X7393667Y-15058643D01*
X7412714Y-15068167D01*
X7488905Y-15268167D02*
X7498428Y-15258643D01*
X7517476Y-15230071D01*
X7527000Y-15211024D01*
X7536524Y-15182452D01*
X7546048Y-15134833D01*
X7546048Y-15096738D01*
X7536524Y-15049119D01*
X7527000Y-15020548D01*
X7517476Y-15001500D01*
X7498428Y-14972928D01*
X7488905Y-14963405D01*
D16*
X2610320Y-15312160D02*
X2717000Y-15418840D01*
X2717000Y-15312160D02*
X2610320Y-15418840D01*
X2717000Y-15365500D02*
G75*
G03*
X2717000Y-15365500I-53340J0D01*
G01*
D10*
X3079381Y-15455976D02*
X2965095Y-15455976D01*
X3022238Y-15455976D02*
X3022238Y-15255976D01*
X3003190Y-15284548D01*
X2984143Y-15303595D01*
X2965095Y-15313119D01*
X3165095Y-15436928D02*
X3174619Y-15446452D01*
X3165095Y-15455976D01*
X3155571Y-15446452D01*
X3165095Y-15436928D01*
X3165095Y-15455976D01*
X3298428Y-15255976D02*
X3317476Y-15255976D01*
X3336524Y-15265500D01*
X3346048Y-15275024D01*
X3355571Y-15294071D01*
X3365095Y-15332167D01*
X3365095Y-15379786D01*
X3355571Y-15417881D01*
X3346048Y-15436928D01*
X3336524Y-15446452D01*
X3317476Y-15455976D01*
X3298428Y-15455976D01*
X3279381Y-15446452D01*
X3269857Y-15436928D01*
X3260333Y-15417881D01*
X3250809Y-15379786D01*
X3250809Y-15332167D01*
X3260333Y-15294071D01*
X3269857Y-15275024D01*
X3279381Y-15265500D01*
X3298428Y-15255976D01*
X3536524Y-15255976D02*
X3498428Y-15255976D01*
X3479381Y-15265500D01*
X3469857Y-15275024D01*
X3450809Y-15303595D01*
X3441286Y-15341690D01*
X3441286Y-15417881D01*
X3450809Y-15436928D01*
X3460333Y-15446452D01*
X3479381Y-15455976D01*
X3517476Y-15455976D01*
X3536524Y-15446452D01*
X3546048Y-15436928D01*
X3555571Y-15417881D01*
X3555571Y-15370262D01*
X3546048Y-15351214D01*
X3536524Y-15341690D01*
X3517476Y-15332167D01*
X3479381Y-15332167D01*
X3460333Y-15341690D01*
X3450809Y-15351214D01*
X3441286Y-15370262D01*
X3622238Y-15255976D02*
X3755571Y-15255976D01*
X3669857Y-15455976D01*
X3831762Y-15455976D02*
X3831762Y-15322643D01*
X3831762Y-15341690D02*
X3841286Y-15332167D01*
X3860333Y-15322643D01*
X3888905Y-15322643D01*
X3907952Y-15332167D01*
X3917476Y-15351214D01*
X3917476Y-15455976D01*
X3917476Y-15351214D02*
X3927000Y-15332167D01*
X3946048Y-15322643D01*
X3974619Y-15322643D01*
X3993667Y-15332167D01*
X4003190Y-15351214D01*
X4003190Y-15455976D01*
X4098428Y-15455976D02*
X4098428Y-15322643D01*
X4098428Y-15341690D02*
X4107952Y-15332167D01*
X4127000Y-15322643D01*
X4155571Y-15322643D01*
X4174619Y-15332167D01*
X4184143Y-15351214D01*
X4184143Y-15455976D01*
X4184143Y-15351214D02*
X4193667Y-15332167D01*
X4212714Y-15322643D01*
X4241286Y-15322643D01*
X4260333Y-15332167D01*
X4269857Y-15351214D01*
X4269857Y-15455976D01*
X4660333Y-15246452D02*
X4488905Y-15503595D01*
X4917476Y-15255976D02*
X4936524Y-15255976D01*
X4955571Y-15265500D01*
X4965095Y-15275024D01*
X4974619Y-15294071D01*
X4984143Y-15332167D01*
X4984143Y-15379786D01*
X4974619Y-15417881D01*
X4965095Y-15436928D01*
X4955571Y-15446452D01*
X4936524Y-15455976D01*
X4917476Y-15455976D01*
X4898429Y-15446452D01*
X4888905Y-15436928D01*
X4879381Y-15417881D01*
X4869857Y-15379786D01*
X4869857Y-15332167D01*
X4879381Y-15294071D01*
X4888905Y-15275024D01*
X4898429Y-15265500D01*
X4917476Y-15255976D01*
X5069857Y-15436928D02*
X5079381Y-15446452D01*
X5069857Y-15455976D01*
X5060333Y-15446452D01*
X5069857Y-15436928D01*
X5069857Y-15455976D01*
X5203190Y-15255976D02*
X5222238Y-15255976D01*
X5241286Y-15265500D01*
X5250810Y-15275024D01*
X5260333Y-15294071D01*
X5269857Y-15332167D01*
X5269857Y-15379786D01*
X5260333Y-15417881D01*
X5250810Y-15436928D01*
X5241286Y-15446452D01*
X5222238Y-15455976D01*
X5203190Y-15455976D01*
X5184143Y-15446452D01*
X5174619Y-15436928D01*
X5165095Y-15417881D01*
X5155571Y-15379786D01*
X5155571Y-15332167D01*
X5165095Y-15294071D01*
X5174619Y-15275024D01*
X5184143Y-15265500D01*
X5203190Y-15255976D01*
X5441286Y-15322643D02*
X5441286Y-15455976D01*
X5393667Y-15246452D02*
X5346048Y-15389309D01*
X5469857Y-15389309D01*
X5536524Y-15275024D02*
X5546048Y-15265500D01*
X5565095Y-15255976D01*
X5612714Y-15255976D01*
X5631762Y-15265500D01*
X5641286Y-15275024D01*
X5650809Y-15294071D01*
X5650809Y-15313119D01*
X5641286Y-15341690D01*
X5527000Y-15455976D01*
X5650809Y-15455976D01*
X5774619Y-15255976D02*
X5793667Y-15255976D01*
X5812714Y-15265500D01*
X5822238Y-15275024D01*
X5831762Y-15294071D01*
X5841286Y-15332167D01*
X5841286Y-15379786D01*
X5831762Y-15417881D01*
X5822238Y-15436928D01*
X5812714Y-15446452D01*
X5793667Y-15455976D01*
X5774619Y-15455976D01*
X5755571Y-15446452D01*
X5746048Y-15436928D01*
X5736524Y-15417881D01*
X5727000Y-15379786D01*
X5727000Y-15332167D01*
X5736524Y-15294071D01*
X5746048Y-15275024D01*
X5755571Y-15265500D01*
X5774619Y-15255976D01*
X5917476Y-15255976D02*
X5917476Y-15294071D01*
X5993667Y-15255976D02*
X5993667Y-15294071D01*
X6288905Y-15532167D02*
X6279381Y-15522643D01*
X6260333Y-15494071D01*
X6250809Y-15475024D01*
X6241286Y-15446452D01*
X6231762Y-15398833D01*
X6231762Y-15360738D01*
X6241286Y-15313119D01*
X6250809Y-15284548D01*
X6260333Y-15265500D01*
X6279381Y-15236928D01*
X6288905Y-15227405D01*
X6355571Y-15275024D02*
X6365095Y-15265500D01*
X6384143Y-15255976D01*
X6431762Y-15255976D01*
X6450809Y-15265500D01*
X6460333Y-15275024D01*
X6469857Y-15294071D01*
X6469857Y-15313119D01*
X6460333Y-15341690D01*
X6346048Y-15455976D01*
X6469857Y-15455976D01*
X6593667Y-15255976D02*
X6612714Y-15255976D01*
X6631762Y-15265500D01*
X6641286Y-15275024D01*
X6650809Y-15294071D01*
X6660333Y-15332167D01*
X6660333Y-15379786D01*
X6650809Y-15417881D01*
X6641286Y-15436928D01*
X6631762Y-15446452D01*
X6612714Y-15455976D01*
X6593667Y-15455976D01*
X6574619Y-15446452D01*
X6565095Y-15436928D01*
X6555571Y-15417881D01*
X6546048Y-15379786D01*
X6546048Y-15332167D01*
X6555571Y-15294071D01*
X6565095Y-15275024D01*
X6574619Y-15265500D01*
X6593667Y-15255976D01*
X6898428Y-15455976D02*
X6898428Y-15255976D01*
X6984143Y-15455976D02*
X6984143Y-15351214D01*
X6974619Y-15332167D01*
X6955571Y-15322643D01*
X6927000Y-15322643D01*
X6907952Y-15332167D01*
X6898428Y-15341690D01*
X7107952Y-15455976D02*
X7088905Y-15446452D01*
X7079381Y-15436928D01*
X7069857Y-15417881D01*
X7069857Y-15360738D01*
X7079381Y-15341690D01*
X7088905Y-15332167D01*
X7107952Y-15322643D01*
X7136524Y-15322643D01*
X7155571Y-15332167D01*
X7165095Y-15341690D01*
X7174619Y-15360738D01*
X7174619Y-15417881D01*
X7165095Y-15436928D01*
X7155571Y-15446452D01*
X7136524Y-15455976D01*
X7107952Y-15455976D01*
X7288905Y-15455976D02*
X7269857Y-15446452D01*
X7260333Y-15427405D01*
X7260333Y-15255976D01*
X7441286Y-15446452D02*
X7422238Y-15455976D01*
X7384143Y-15455976D01*
X7365095Y-15446452D01*
X7355571Y-15427405D01*
X7355571Y-15351214D01*
X7365095Y-15332167D01*
X7384143Y-15322643D01*
X7422238Y-15322643D01*
X7441286Y-15332167D01*
X7450809Y-15351214D01*
X7450809Y-15370262D01*
X7355571Y-15389309D01*
X7527000Y-15446452D02*
X7546048Y-15455976D01*
X7584143Y-15455976D01*
X7603190Y-15446452D01*
X7612714Y-15427405D01*
X7612714Y-15417881D01*
X7603190Y-15398833D01*
X7584143Y-15389309D01*
X7555571Y-15389309D01*
X7536524Y-15379786D01*
X7527000Y-15360738D01*
X7527000Y-15351214D01*
X7536524Y-15332167D01*
X7555571Y-15322643D01*
X7584143Y-15322643D01*
X7603190Y-15332167D01*
X7679381Y-15532167D02*
X7688905Y-15522643D01*
X7707952Y-15494071D01*
X7717476Y-15475024D01*
X7727000Y-15446452D01*
X7736524Y-15398833D01*
X7736524Y-15360738D01*
X7727000Y-15313119D01*
X7717476Y-15284548D01*
X7707952Y-15265500D01*
X7688905Y-15236928D01*
X7679381Y-15227405D01*
D17*
X2597000Y-15569500D02*
X2717000Y-15689500D01*
X2717000Y-15569500D02*
X2597000Y-15689500D01*
X2657000Y-15569500D02*
X2657000Y-15689500D01*
X2597000Y-15629500D02*
X2717000Y-15629500D01*
D10*
X3079381Y-15719976D02*
X2965095Y-15719976D01*
X3022238Y-15719976D02*
X3022238Y-15519976D01*
X3003190Y-15548548D01*
X2984143Y-15567595D01*
X2965095Y-15577119D01*
X3165095Y-15700928D02*
X3174619Y-15710452D01*
X3165095Y-15719976D01*
X3155571Y-15710452D01*
X3165095Y-15700928D01*
X3165095Y-15719976D01*
X3250809Y-15539024D02*
X3260333Y-15529500D01*
X3279381Y-15519976D01*
X3327000Y-15519976D01*
X3346048Y-15529500D01*
X3355571Y-15539024D01*
X3365095Y-15558071D01*
X3365095Y-15577119D01*
X3355571Y-15605690D01*
X3241286Y-15719976D01*
X3365095Y-15719976D01*
X3488905Y-15519976D02*
X3507952Y-15519976D01*
X3527000Y-15529500D01*
X3536524Y-15539024D01*
X3546048Y-15558071D01*
X3555571Y-15596167D01*
X3555571Y-15643786D01*
X3546048Y-15681881D01*
X3536524Y-15700928D01*
X3527000Y-15710452D01*
X3507952Y-15719976D01*
X3488905Y-15719976D01*
X3469857Y-15710452D01*
X3460333Y-15700928D01*
X3450809Y-15681881D01*
X3441286Y-15643786D01*
X3441286Y-15596167D01*
X3450809Y-15558071D01*
X3460333Y-15539024D01*
X3469857Y-15529500D01*
X3488905Y-15519976D01*
X3679381Y-15519976D02*
X3698428Y-15519976D01*
X3717476Y-15529500D01*
X3727000Y-15539024D01*
X3736524Y-15558071D01*
X3746048Y-15596167D01*
X3746048Y-15643786D01*
X3736524Y-15681881D01*
X3727000Y-15700928D01*
X3717476Y-15710452D01*
X3698428Y-15719976D01*
X3679381Y-15719976D01*
X3660333Y-15710452D01*
X3650809Y-15700928D01*
X3641286Y-15681881D01*
X3631762Y-15643786D01*
X3631762Y-15596167D01*
X3641286Y-15558071D01*
X3650809Y-15539024D01*
X3660333Y-15529500D01*
X3679381Y-15519976D01*
X3831762Y-15719976D02*
X3831762Y-15586643D01*
X3831762Y-15605690D02*
X3841286Y-15596167D01*
X3860333Y-15586643D01*
X3888905Y-15586643D01*
X3907952Y-15596167D01*
X3917476Y-15615214D01*
X3917476Y-15719976D01*
X3917476Y-15615214D02*
X3927000Y-15596167D01*
X3946048Y-15586643D01*
X3974619Y-15586643D01*
X3993667Y-15596167D01*
X4003190Y-15615214D01*
X4003190Y-15719976D01*
X4098428Y-15719976D02*
X4098428Y-15586643D01*
X4098428Y-15605690D02*
X4107952Y-15596167D01*
X4127000Y-15586643D01*
X4155571Y-15586643D01*
X4174619Y-15596167D01*
X4184143Y-15615214D01*
X4184143Y-15719976D01*
X4184143Y-15615214D02*
X4193667Y-15596167D01*
X4212714Y-15586643D01*
X4241286Y-15586643D01*
X4260333Y-15596167D01*
X4269857Y-15615214D01*
X4269857Y-15719976D01*
X4660333Y-15510452D02*
X4488905Y-15767595D01*
X4917476Y-15519976D02*
X4936524Y-15519976D01*
X4955571Y-15529500D01*
X4965095Y-15539024D01*
X4974619Y-15558071D01*
X4984143Y-15596167D01*
X4984143Y-15643786D01*
X4974619Y-15681881D01*
X4965095Y-15700928D01*
X4955571Y-15710452D01*
X4936524Y-15719976D01*
X4917476Y-15719976D01*
X4898429Y-15710452D01*
X4888905Y-15700928D01*
X4879381Y-15681881D01*
X4869857Y-15643786D01*
X4869857Y-15596167D01*
X4879381Y-15558071D01*
X4888905Y-15539024D01*
X4898429Y-15529500D01*
X4917476Y-15519976D01*
X5069857Y-15700928D02*
X5079381Y-15710452D01*
X5069857Y-15719976D01*
X5060333Y-15710452D01*
X5069857Y-15700928D01*
X5069857Y-15719976D01*
X5203190Y-15519976D02*
X5222238Y-15519976D01*
X5241286Y-15529500D01*
X5250810Y-15539024D01*
X5260333Y-15558071D01*
X5269857Y-15596167D01*
X5269857Y-15643786D01*
X5260333Y-15681881D01*
X5250810Y-15700928D01*
X5241286Y-15710452D01*
X5222238Y-15719976D01*
X5203190Y-15719976D01*
X5184143Y-15710452D01*
X5174619Y-15700928D01*
X5165095Y-15681881D01*
X5155571Y-15643786D01*
X5155571Y-15596167D01*
X5165095Y-15558071D01*
X5174619Y-15539024D01*
X5184143Y-15529500D01*
X5203190Y-15519976D01*
X5441286Y-15586643D02*
X5441286Y-15719976D01*
X5393667Y-15510452D02*
X5346048Y-15653309D01*
X5469857Y-15653309D01*
X5527000Y-15519976D02*
X5660333Y-15519976D01*
X5574619Y-15719976D01*
X5727000Y-15539024D02*
X5736524Y-15529500D01*
X5755571Y-15519976D01*
X5803190Y-15519976D01*
X5822238Y-15529500D01*
X5831762Y-15539024D01*
X5841286Y-15558071D01*
X5841286Y-15577119D01*
X5831762Y-15605690D01*
X5717476Y-15719976D01*
X5841286Y-15719976D01*
X5917476Y-15519976D02*
X5917476Y-15558071D01*
X5993667Y-15519976D02*
X5993667Y-15558071D01*
X6288905Y-15796167D02*
X6279381Y-15786643D01*
X6260333Y-15758071D01*
X6250809Y-15739024D01*
X6241286Y-15710452D01*
X6231762Y-15662833D01*
X6231762Y-15624738D01*
X6241286Y-15577119D01*
X6250809Y-15548548D01*
X6260333Y-15529500D01*
X6279381Y-15500928D01*
X6288905Y-15491405D01*
X6469857Y-15719976D02*
X6355571Y-15719976D01*
X6412714Y-15719976D02*
X6412714Y-15519976D01*
X6393667Y-15548548D01*
X6374619Y-15567595D01*
X6355571Y-15577119D01*
X6660333Y-15719976D02*
X6546048Y-15719976D01*
X6603190Y-15719976D02*
X6603190Y-15519976D01*
X6584143Y-15548548D01*
X6565095Y-15567595D01*
X6546048Y-15577119D01*
X6898428Y-15719976D02*
X6898428Y-15519976D01*
X6984143Y-15719976D02*
X6984143Y-15615214D01*
X6974619Y-15596167D01*
X6955571Y-15586643D01*
X6927000Y-15586643D01*
X6907952Y-15596167D01*
X6898428Y-15605690D01*
X7107952Y-15719976D02*
X7088905Y-15710452D01*
X7079381Y-15700928D01*
X7069857Y-15681881D01*
X7069857Y-15624738D01*
X7079381Y-15605690D01*
X7088905Y-15596167D01*
X7107952Y-15586643D01*
X7136524Y-15586643D01*
X7155571Y-15596167D01*
X7165095Y-15605690D01*
X7174619Y-15624738D01*
X7174619Y-15681881D01*
X7165095Y-15700928D01*
X7155571Y-15710452D01*
X7136524Y-15719976D01*
X7107952Y-15719976D01*
X7288905Y-15719976D02*
X7269857Y-15710452D01*
X7260333Y-15691405D01*
X7260333Y-15519976D01*
X7441286Y-15710452D02*
X7422238Y-15719976D01*
X7384143Y-15719976D01*
X7365095Y-15710452D01*
X7355571Y-15691405D01*
X7355571Y-15615214D01*
X7365095Y-15596167D01*
X7384143Y-15586643D01*
X7422238Y-15586643D01*
X7441286Y-15596167D01*
X7450809Y-15615214D01*
X7450809Y-15634262D01*
X7355571Y-15653309D01*
X7527000Y-15710452D02*
X7546048Y-15719976D01*
X7584143Y-15719976D01*
X7603190Y-15710452D01*
X7612714Y-15691405D01*
X7612714Y-15681881D01*
X7603190Y-15662833D01*
X7584143Y-15653309D01*
X7555571Y-15653309D01*
X7536524Y-15643786D01*
X7527000Y-15624738D01*
X7527000Y-15615214D01*
X7536524Y-15596167D01*
X7555571Y-15586643D01*
X7584143Y-15586643D01*
X7603190Y-15596167D01*
X7679381Y-15796167D02*
X7688905Y-15786643D01*
X7707952Y-15758071D01*
X7717476Y-15739024D01*
X7727000Y-15710452D01*
X7736524Y-15662833D01*
X7736524Y-15624738D01*
X7727000Y-15577119D01*
X7717476Y-15548548D01*
X7707952Y-15529500D01*
X7688905Y-15500928D01*
X7679381Y-15491405D01*
D18*
X2577000Y-15823500D02*
X2717000Y-15963500D01*
X2717000Y-15823500D02*
X2577000Y-15963500D01*
X2696498Y-15942998D02*
X2696498Y-15844002D01*
X2597502Y-15844002D01*
X2597502Y-15942998D01*
X2696498Y-15942998D01*
D10*
X3079381Y-15983976D02*
X2965095Y-15983976D01*
X3022238Y-15983976D02*
X3022238Y-15783976D01*
X3003190Y-15812548D01*
X2984143Y-15831595D01*
X2965095Y-15841119D01*
X3165095Y-15964928D02*
X3174619Y-15974452D01*
X3165095Y-15983976D01*
X3155571Y-15974452D01*
X3165095Y-15964928D01*
X3165095Y-15983976D01*
X3346048Y-15850643D02*
X3346048Y-15983976D01*
X3298428Y-15774452D02*
X3250809Y-15917309D01*
X3374619Y-15917309D01*
X3488905Y-15783976D02*
X3507952Y-15783976D01*
X3527000Y-15793500D01*
X3536524Y-15803024D01*
X3546048Y-15822071D01*
X3555571Y-15860167D01*
X3555571Y-15907786D01*
X3546048Y-15945881D01*
X3536524Y-15964928D01*
X3527000Y-15974452D01*
X3507952Y-15983976D01*
X3488905Y-15983976D01*
X3469857Y-15974452D01*
X3460333Y-15964928D01*
X3450809Y-15945881D01*
X3441286Y-15907786D01*
X3441286Y-15860167D01*
X3450809Y-15822071D01*
X3460333Y-15803024D01*
X3469857Y-15793500D01*
X3488905Y-15783976D01*
X3679381Y-15783976D02*
X3698428Y-15783976D01*
X3717476Y-15793500D01*
X3727000Y-15803024D01*
X3736524Y-15822071D01*
X3746048Y-15860167D01*
X3746048Y-15907786D01*
X3736524Y-15945881D01*
X3727000Y-15964928D01*
X3717476Y-15974452D01*
X3698428Y-15983976D01*
X3679381Y-15983976D01*
X3660333Y-15974452D01*
X3650809Y-15964928D01*
X3641286Y-15945881D01*
X3631762Y-15907786D01*
X3631762Y-15860167D01*
X3641286Y-15822071D01*
X3650809Y-15803024D01*
X3660333Y-15793500D01*
X3679381Y-15783976D01*
X3831762Y-15983976D02*
X3831762Y-15850643D01*
X3831762Y-15869690D02*
X3841286Y-15860167D01*
X3860333Y-15850643D01*
X3888905Y-15850643D01*
X3907952Y-15860167D01*
X3917476Y-15879214D01*
X3917476Y-15983976D01*
X3917476Y-15879214D02*
X3927000Y-15860167D01*
X3946048Y-15850643D01*
X3974619Y-15850643D01*
X3993667Y-15860167D01*
X4003190Y-15879214D01*
X4003190Y-15983976D01*
X4098428Y-15983976D02*
X4098428Y-15850643D01*
X4098428Y-15869690D02*
X4107952Y-15860167D01*
X4127000Y-15850643D01*
X4155571Y-15850643D01*
X4174619Y-15860167D01*
X4184143Y-15879214D01*
X4184143Y-15983976D01*
X4184143Y-15879214D02*
X4193667Y-15860167D01*
X4212714Y-15850643D01*
X4241286Y-15850643D01*
X4260333Y-15860167D01*
X4269857Y-15879214D01*
X4269857Y-15983976D01*
X4660333Y-15774452D02*
X4488905Y-16031595D01*
X4917476Y-15783976D02*
X4936524Y-15783976D01*
X4955571Y-15793500D01*
X4965095Y-15803024D01*
X4974619Y-15822071D01*
X4984143Y-15860167D01*
X4984143Y-15907786D01*
X4974619Y-15945881D01*
X4965095Y-15964928D01*
X4955571Y-15974452D01*
X4936524Y-15983976D01*
X4917476Y-15983976D01*
X4898429Y-15974452D01*
X4888905Y-15964928D01*
X4879381Y-15945881D01*
X4869857Y-15907786D01*
X4869857Y-15860167D01*
X4879381Y-15822071D01*
X4888905Y-15803024D01*
X4898429Y-15793500D01*
X4917476Y-15783976D01*
X5069857Y-15964928D02*
X5079381Y-15974452D01*
X5069857Y-15983976D01*
X5060333Y-15974452D01*
X5069857Y-15964928D01*
X5069857Y-15983976D01*
X5203190Y-15783976D02*
X5222238Y-15783976D01*
X5241286Y-15793500D01*
X5250810Y-15803024D01*
X5260333Y-15822071D01*
X5269857Y-15860167D01*
X5269857Y-15907786D01*
X5260333Y-15945881D01*
X5250810Y-15964928D01*
X5241286Y-15974452D01*
X5222238Y-15983976D01*
X5203190Y-15983976D01*
X5184143Y-15974452D01*
X5174619Y-15964928D01*
X5165095Y-15945881D01*
X5155571Y-15907786D01*
X5155571Y-15860167D01*
X5165095Y-15822071D01*
X5174619Y-15803024D01*
X5184143Y-15793500D01*
X5203190Y-15783976D01*
X5450810Y-15783976D02*
X5355571Y-15783976D01*
X5346048Y-15879214D01*
X5355571Y-15869690D01*
X5374619Y-15860167D01*
X5422238Y-15860167D01*
X5441286Y-15869690D01*
X5450810Y-15879214D01*
X5460333Y-15898262D01*
X5460333Y-15945881D01*
X5450810Y-15964928D01*
X5441286Y-15974452D01*
X5422238Y-15983976D01*
X5374619Y-15983976D01*
X5355571Y-15974452D01*
X5346048Y-15964928D01*
X5641286Y-15783976D02*
X5546048Y-15783976D01*
X5536524Y-15879214D01*
X5546048Y-15869690D01*
X5565095Y-15860167D01*
X5612714Y-15860167D01*
X5631762Y-15869690D01*
X5641286Y-15879214D01*
X5650809Y-15898262D01*
X5650809Y-15945881D01*
X5641286Y-15964928D01*
X5631762Y-15974452D01*
X5612714Y-15983976D01*
X5565095Y-15983976D01*
X5546048Y-15974452D01*
X5536524Y-15964928D01*
X5841286Y-15983976D02*
X5727000Y-15983976D01*
X5784143Y-15983976D02*
X5784143Y-15783976D01*
X5765095Y-15812548D01*
X5746048Y-15831595D01*
X5727000Y-15841119D01*
X5917476Y-15783976D02*
X5917476Y-15822071D01*
X5993667Y-15783976D02*
X5993667Y-15822071D01*
X6288905Y-16060167D02*
X6279381Y-16050643D01*
X6260333Y-16022071D01*
X6250809Y-16003024D01*
X6241286Y-15974452D01*
X6231762Y-15926833D01*
X6231762Y-15888738D01*
X6241286Y-15841119D01*
X6250809Y-15812548D01*
X6260333Y-15793500D01*
X6279381Y-15764928D01*
X6288905Y-15755405D01*
X6450809Y-15850643D02*
X6450809Y-15983976D01*
X6403190Y-15774452D02*
X6355571Y-15917309D01*
X6479381Y-15917309D01*
X6707952Y-15983976D02*
X6707952Y-15783976D01*
X6793667Y-15983976D02*
X6793667Y-15879214D01*
X6784143Y-15860167D01*
X6765095Y-15850643D01*
X6736524Y-15850643D01*
X6717476Y-15860167D01*
X6707952Y-15869690D01*
X6917476Y-15983976D02*
X6898428Y-15974452D01*
X6888905Y-15964928D01*
X6879381Y-15945881D01*
X6879381Y-15888738D01*
X6888905Y-15869690D01*
X6898428Y-15860167D01*
X6917476Y-15850643D01*
X6946048Y-15850643D01*
X6965095Y-15860167D01*
X6974619Y-15869690D01*
X6984143Y-15888738D01*
X6984143Y-15945881D01*
X6974619Y-15964928D01*
X6965095Y-15974452D01*
X6946048Y-15983976D01*
X6917476Y-15983976D01*
X7098428Y-15983976D02*
X7079381Y-15974452D01*
X7069857Y-15955405D01*
X7069857Y-15783976D01*
X7250809Y-15974452D02*
X7231762Y-15983976D01*
X7193667Y-15983976D01*
X7174619Y-15974452D01*
X7165095Y-15955405D01*
X7165095Y-15879214D01*
X7174619Y-15860167D01*
X7193667Y-15850643D01*
X7231762Y-15850643D01*
X7250809Y-15860167D01*
X7260333Y-15879214D01*
X7260333Y-15898262D01*
X7165095Y-15917309D01*
X7336524Y-15974452D02*
X7355571Y-15983976D01*
X7393667Y-15983976D01*
X7412714Y-15974452D01*
X7422238Y-15955405D01*
X7422238Y-15945881D01*
X7412714Y-15926833D01*
X7393667Y-15917309D01*
X7365095Y-15917309D01*
X7346048Y-15907786D01*
X7336524Y-15888738D01*
X7336524Y-15879214D01*
X7346048Y-15860167D01*
X7365095Y-15850643D01*
X7393667Y-15850643D01*
X7412714Y-15860167D01*
X7488905Y-16060167D02*
X7498428Y-16050643D01*
X7517476Y-16022071D01*
X7527000Y-16003024D01*
X7536524Y-15974452D01*
X7546048Y-15926833D01*
X7546048Y-15888738D01*
X7536524Y-15841119D01*
X7527000Y-15812548D01*
X7517476Y-15793500D01*
X7498428Y-15764928D01*
X7488905Y-15755405D01*
D19*
X2557000Y-16077500D02*
X2717000Y-16237500D01*
X2717000Y-16077500D02*
X2557000Y-16237500D01*
X2637000Y-16237500D02*
X2717000Y-16157500D01*
X2637000Y-16077500D01*
X2557000Y-16157500D01*
X2637000Y-16237500D01*
D10*
X3079381Y-16247976D02*
X2965095Y-16247976D01*
X3022238Y-16247976D02*
X3022238Y-16047976D01*
X3003190Y-16076548D01*
X2984143Y-16095595D01*
X2965095Y-16105119D01*
X3165095Y-16228928D02*
X3174619Y-16238452D01*
X3165095Y-16247976D01*
X3155571Y-16238452D01*
X3165095Y-16228928D01*
X3165095Y-16247976D01*
X3346048Y-16047976D02*
X3307952Y-16047976D01*
X3288905Y-16057500D01*
X3279381Y-16067024D01*
X3260333Y-16095595D01*
X3250809Y-16133690D01*
X3250809Y-16209881D01*
X3260333Y-16228928D01*
X3269857Y-16238452D01*
X3288905Y-16247976D01*
X3327000Y-16247976D01*
X3346048Y-16238452D01*
X3355571Y-16228928D01*
X3365095Y-16209881D01*
X3365095Y-16162262D01*
X3355571Y-16143214D01*
X3346048Y-16133690D01*
X3327000Y-16124167D01*
X3288905Y-16124167D01*
X3269857Y-16133690D01*
X3260333Y-16143214D01*
X3250809Y-16162262D01*
X3488905Y-16047976D02*
X3507952Y-16047976D01*
X3527000Y-16057500D01*
X3536524Y-16067024D01*
X3546048Y-16086071D01*
X3555571Y-16124167D01*
X3555571Y-16171786D01*
X3546048Y-16209881D01*
X3536524Y-16228928D01*
X3527000Y-16238452D01*
X3507952Y-16247976D01*
X3488905Y-16247976D01*
X3469857Y-16238452D01*
X3460333Y-16228928D01*
X3450809Y-16209881D01*
X3441286Y-16171786D01*
X3441286Y-16124167D01*
X3450809Y-16086071D01*
X3460333Y-16067024D01*
X3469857Y-16057500D01*
X3488905Y-16047976D01*
X3679381Y-16047976D02*
X3698428Y-16047976D01*
X3717476Y-16057500D01*
X3727000Y-16067024D01*
X3736524Y-16086071D01*
X3746048Y-16124167D01*
X3746048Y-16171786D01*
X3736524Y-16209881D01*
X3727000Y-16228928D01*
X3717476Y-16238452D01*
X3698428Y-16247976D01*
X3679381Y-16247976D01*
X3660333Y-16238452D01*
X3650809Y-16228928D01*
X3641286Y-16209881D01*
X3631762Y-16171786D01*
X3631762Y-16124167D01*
X3641286Y-16086071D01*
X3650809Y-16067024D01*
X3660333Y-16057500D01*
X3679381Y-16047976D01*
X3831762Y-16247976D02*
X3831762Y-16114643D01*
X3831762Y-16133690D02*
X3841286Y-16124167D01*
X3860333Y-16114643D01*
X3888905Y-16114643D01*
X3907952Y-16124167D01*
X3917476Y-16143214D01*
X3917476Y-16247976D01*
X3917476Y-16143214D02*
X3927000Y-16124167D01*
X3946048Y-16114643D01*
X3974619Y-16114643D01*
X3993667Y-16124167D01*
X4003190Y-16143214D01*
X4003190Y-16247976D01*
X4098428Y-16247976D02*
X4098428Y-16114643D01*
X4098428Y-16133690D02*
X4107952Y-16124167D01*
X4127000Y-16114643D01*
X4155571Y-16114643D01*
X4174619Y-16124167D01*
X4184143Y-16143214D01*
X4184143Y-16247976D01*
X4184143Y-16143214D02*
X4193667Y-16124167D01*
X4212714Y-16114643D01*
X4241286Y-16114643D01*
X4260333Y-16124167D01*
X4269857Y-16143214D01*
X4269857Y-16247976D01*
X4660333Y-16038452D02*
X4488905Y-16295595D01*
X4917476Y-16047976D02*
X4936524Y-16047976D01*
X4955571Y-16057500D01*
X4965095Y-16067024D01*
X4974619Y-16086071D01*
X4984143Y-16124167D01*
X4984143Y-16171786D01*
X4974619Y-16209881D01*
X4965095Y-16228928D01*
X4955571Y-16238452D01*
X4936524Y-16247976D01*
X4917476Y-16247976D01*
X4898429Y-16238452D01*
X4888905Y-16228928D01*
X4879381Y-16209881D01*
X4869857Y-16171786D01*
X4869857Y-16124167D01*
X4879381Y-16086071D01*
X4888905Y-16067024D01*
X4898429Y-16057500D01*
X4917476Y-16047976D01*
X5069857Y-16228928D02*
X5079381Y-16238452D01*
X5069857Y-16247976D01*
X5060333Y-16238452D01*
X5069857Y-16228928D01*
X5069857Y-16247976D01*
X5203190Y-16047976D02*
X5222238Y-16047976D01*
X5241286Y-16057500D01*
X5250810Y-16067024D01*
X5260333Y-16086071D01*
X5269857Y-16124167D01*
X5269857Y-16171786D01*
X5260333Y-16209881D01*
X5250810Y-16228928D01*
X5241286Y-16238452D01*
X5222238Y-16247976D01*
X5203190Y-16247976D01*
X5184143Y-16238452D01*
X5174619Y-16228928D01*
X5165095Y-16209881D01*
X5155571Y-16171786D01*
X5155571Y-16124167D01*
X5165095Y-16086071D01*
X5174619Y-16067024D01*
X5184143Y-16057500D01*
X5203190Y-16047976D01*
X5441286Y-16047976D02*
X5403190Y-16047976D01*
X5384143Y-16057500D01*
X5374619Y-16067024D01*
X5355571Y-16095595D01*
X5346048Y-16133690D01*
X5346048Y-16209881D01*
X5355571Y-16228928D01*
X5365095Y-16238452D01*
X5384143Y-16247976D01*
X5422238Y-16247976D01*
X5441286Y-16238452D01*
X5450810Y-16228928D01*
X5460333Y-16209881D01*
X5460333Y-16162262D01*
X5450810Y-16143214D01*
X5441286Y-16133690D01*
X5422238Y-16124167D01*
X5384143Y-16124167D01*
X5365095Y-16133690D01*
X5355571Y-16143214D01*
X5346048Y-16162262D01*
X5527000Y-16047976D02*
X5650809Y-16047976D01*
X5584143Y-16124167D01*
X5612714Y-16124167D01*
X5631762Y-16133690D01*
X5641286Y-16143214D01*
X5650809Y-16162262D01*
X5650809Y-16209881D01*
X5641286Y-16228928D01*
X5631762Y-16238452D01*
X5612714Y-16247976D01*
X5555571Y-16247976D01*
X5536524Y-16238452D01*
X5527000Y-16228928D01*
X5774619Y-16047976D02*
X5793667Y-16047976D01*
X5812714Y-16057500D01*
X5822238Y-16067024D01*
X5831762Y-16086071D01*
X5841286Y-16124167D01*
X5841286Y-16171786D01*
X5831762Y-16209881D01*
X5822238Y-16228928D01*
X5812714Y-16238452D01*
X5793667Y-16247976D01*
X5774619Y-16247976D01*
X5755571Y-16238452D01*
X5746048Y-16228928D01*
X5736524Y-16209881D01*
X5727000Y-16171786D01*
X5727000Y-16124167D01*
X5736524Y-16086071D01*
X5746048Y-16067024D01*
X5755571Y-16057500D01*
X5774619Y-16047976D01*
X5917476Y-16047976D02*
X5917476Y-16086071D01*
X5993667Y-16047976D02*
X5993667Y-16086071D01*
X6288905Y-16324167D02*
X6279381Y-16314643D01*
X6260333Y-16286071D01*
X6250809Y-16267024D01*
X6241286Y-16238452D01*
X6231762Y-16190833D01*
X6231762Y-16152738D01*
X6241286Y-16105119D01*
X6250809Y-16076548D01*
X6260333Y-16057500D01*
X6279381Y-16028928D01*
X6288905Y-16019405D01*
X6450809Y-16114643D02*
X6450809Y-16247976D01*
X6403190Y-16038452D02*
X6355571Y-16181309D01*
X6479381Y-16181309D01*
X6641286Y-16114643D02*
X6641286Y-16247976D01*
X6593667Y-16038452D02*
X6546048Y-16181309D01*
X6669857Y-16181309D01*
X6898428Y-16247976D02*
X6898428Y-16047976D01*
X6984143Y-16247976D02*
X6984143Y-16143214D01*
X6974619Y-16124167D01*
X6955571Y-16114643D01*
X6927000Y-16114643D01*
X6907952Y-16124167D01*
X6898428Y-16133690D01*
X7107952Y-16247976D02*
X7088905Y-16238452D01*
X7079381Y-16228928D01*
X7069857Y-16209881D01*
X7069857Y-16152738D01*
X7079381Y-16133690D01*
X7088905Y-16124167D01*
X7107952Y-16114643D01*
X7136524Y-16114643D01*
X7155571Y-16124167D01*
X7165095Y-16133690D01*
X7174619Y-16152738D01*
X7174619Y-16209881D01*
X7165095Y-16228928D01*
X7155571Y-16238452D01*
X7136524Y-16247976D01*
X7107952Y-16247976D01*
X7288905Y-16247976D02*
X7269857Y-16238452D01*
X7260333Y-16219405D01*
X7260333Y-16047976D01*
X7441286Y-16238452D02*
X7422238Y-16247976D01*
X7384143Y-16247976D01*
X7365095Y-16238452D01*
X7355571Y-16219405D01*
X7355571Y-16143214D01*
X7365095Y-16124167D01*
X7384143Y-16114643D01*
X7422238Y-16114643D01*
X7441286Y-16124167D01*
X7450809Y-16143214D01*
X7450809Y-16162262D01*
X7355571Y-16181309D01*
X7527000Y-16238452D02*
X7546048Y-16247976D01*
X7584143Y-16247976D01*
X7603190Y-16238452D01*
X7612714Y-16219405D01*
X7612714Y-16209881D01*
X7603190Y-16190833D01*
X7584143Y-16181309D01*
X7555571Y-16181309D01*
X7536524Y-16171786D01*
X7527000Y-16152738D01*
X7527000Y-16143214D01*
X7536524Y-16124167D01*
X7555571Y-16114643D01*
X7584143Y-16114643D01*
X7603190Y-16124167D01*
X7679381Y-16324167D02*
X7688905Y-16314643D01*
X7707952Y-16286071D01*
X7717476Y-16267024D01*
X7727000Y-16238452D01*
X7736524Y-16190833D01*
X7736524Y-16152738D01*
X7727000Y-16105119D01*
X7717476Y-16076548D01*
X7707952Y-16057500D01*
X7688905Y-16028928D01*
X7679381Y-16019405D01*
X2617000Y-16337500D02*
X2617000Y-16537500D01*
X2517000Y-16437500D02*
X2717000Y-16437500D01*
X2717000Y-16437500D02*
G75*
G03*
X2717000Y-16437500I-100000J0D01*
G01*
X2955571Y-16327976D02*
X3079381Y-16327976D01*
X3012714Y-16404167D01*
X3041286Y-16404167D01*
X3060333Y-16413690D01*
X3069857Y-16423214D01*
X3079381Y-16442262D01*
X3079381Y-16489881D01*
X3069857Y-16508928D01*
X3060333Y-16518452D01*
X3041286Y-16527976D01*
X2984143Y-16527976D01*
X2965095Y-16518452D01*
X2955571Y-16508928D01*
X3165095Y-16508928D02*
X3174619Y-16518452D01*
X3165095Y-16527976D01*
X3155571Y-16518452D01*
X3165095Y-16508928D01*
X3165095Y-16527976D01*
X3346048Y-16327976D02*
X3307952Y-16327976D01*
X3288905Y-16337500D01*
X3279381Y-16347024D01*
X3260333Y-16375595D01*
X3250809Y-16413690D01*
X3250809Y-16489881D01*
X3260333Y-16508928D01*
X3269857Y-16518452D01*
X3288905Y-16527976D01*
X3327000Y-16527976D01*
X3346048Y-16518452D01*
X3355571Y-16508928D01*
X3365095Y-16489881D01*
X3365095Y-16442262D01*
X3355571Y-16423214D01*
X3346048Y-16413690D01*
X3327000Y-16404167D01*
X3288905Y-16404167D01*
X3269857Y-16413690D01*
X3260333Y-16423214D01*
X3250809Y-16442262D01*
X3488905Y-16327976D02*
X3507952Y-16327976D01*
X3527000Y-16337500D01*
X3536524Y-16347024D01*
X3546048Y-16366071D01*
X3555571Y-16404167D01*
X3555571Y-16451786D01*
X3546048Y-16489881D01*
X3536524Y-16508928D01*
X3527000Y-16518452D01*
X3507952Y-16527976D01*
X3488905Y-16527976D01*
X3469857Y-16518452D01*
X3460333Y-16508928D01*
X3450809Y-16489881D01*
X3441286Y-16451786D01*
X3441286Y-16404167D01*
X3450809Y-16366071D01*
X3460333Y-16347024D01*
X3469857Y-16337500D01*
X3488905Y-16327976D01*
X3679381Y-16327976D02*
X3698428Y-16327976D01*
X3717476Y-16337500D01*
X3727000Y-16347024D01*
X3736524Y-16366071D01*
X3746048Y-16404167D01*
X3746048Y-16451786D01*
X3736524Y-16489881D01*
X3727000Y-16508928D01*
X3717476Y-16518452D01*
X3698428Y-16527976D01*
X3679381Y-16527976D01*
X3660333Y-16518452D01*
X3650809Y-16508928D01*
X3641286Y-16489881D01*
X3631762Y-16451786D01*
X3631762Y-16404167D01*
X3641286Y-16366071D01*
X3650809Y-16347024D01*
X3660333Y-16337500D01*
X3679381Y-16327976D01*
X3831762Y-16527976D02*
X3831762Y-16394643D01*
X3831762Y-16413690D02*
X3841286Y-16404167D01*
X3860333Y-16394643D01*
X3888905Y-16394643D01*
X3907952Y-16404167D01*
X3917476Y-16423214D01*
X3917476Y-16527976D01*
X3917476Y-16423214D02*
X3927000Y-16404167D01*
X3946048Y-16394643D01*
X3974619Y-16394643D01*
X3993667Y-16404167D01*
X4003190Y-16423214D01*
X4003190Y-16527976D01*
X4098428Y-16527976D02*
X4098428Y-16394643D01*
X4098428Y-16413690D02*
X4107952Y-16404167D01*
X4127000Y-16394643D01*
X4155571Y-16394643D01*
X4174619Y-16404167D01*
X4184143Y-16423214D01*
X4184143Y-16527976D01*
X4184143Y-16423214D02*
X4193667Y-16404167D01*
X4212714Y-16394643D01*
X4241286Y-16394643D01*
X4260333Y-16404167D01*
X4269857Y-16423214D01*
X4269857Y-16527976D01*
X4660333Y-16318452D02*
X4488905Y-16575595D01*
X4917476Y-16327976D02*
X4936524Y-16327976D01*
X4955571Y-16337500D01*
X4965095Y-16347024D01*
X4974619Y-16366071D01*
X4984143Y-16404167D01*
X4984143Y-16451786D01*
X4974619Y-16489881D01*
X4965095Y-16508928D01*
X4955571Y-16518452D01*
X4936524Y-16527976D01*
X4917476Y-16527976D01*
X4898429Y-16518452D01*
X4888905Y-16508928D01*
X4879381Y-16489881D01*
X4869857Y-16451786D01*
X4869857Y-16404167D01*
X4879381Y-16366071D01*
X4888905Y-16347024D01*
X4898429Y-16337500D01*
X4917476Y-16327976D01*
X5069857Y-16508928D02*
X5079381Y-16518452D01*
X5069857Y-16527976D01*
X5060333Y-16518452D01*
X5069857Y-16508928D01*
X5069857Y-16527976D01*
X5269857Y-16527976D02*
X5155571Y-16527976D01*
X5212714Y-16527976D02*
X5212714Y-16327976D01*
X5193667Y-16356548D01*
X5174619Y-16375595D01*
X5155571Y-16385119D01*
X5441286Y-16394643D02*
X5441286Y-16527976D01*
X5393667Y-16318452D02*
X5346048Y-16461309D01*
X5469857Y-16461309D01*
X5650809Y-16527976D02*
X5536524Y-16527976D01*
X5593667Y-16527976D02*
X5593667Y-16327976D01*
X5574619Y-16356548D01*
X5555571Y-16375595D01*
X5536524Y-16385119D01*
X5717476Y-16327976D02*
X5850809Y-16327976D01*
X5765095Y-16527976D01*
X5917476Y-16327976D02*
X5917476Y-16366071D01*
X5993667Y-16327976D02*
X5993667Y-16366071D01*
X6288905Y-16604167D02*
X6279381Y-16594643D01*
X6260333Y-16566071D01*
X6250809Y-16547024D01*
X6241286Y-16518452D01*
X6231762Y-16470833D01*
X6231762Y-16432738D01*
X6241286Y-16385119D01*
X6250809Y-16356548D01*
X6260333Y-16337500D01*
X6279381Y-16308928D01*
X6288905Y-16299405D01*
X6450809Y-16394643D02*
X6450809Y-16527976D01*
X6403190Y-16318452D02*
X6355571Y-16461309D01*
X6479381Y-16461309D01*
X6707952Y-16527976D02*
X6707952Y-16327976D01*
X6793667Y-16527976D02*
X6793667Y-16423214D01*
X6784143Y-16404167D01*
X6765095Y-16394643D01*
X6736524Y-16394643D01*
X6717476Y-16404167D01*
X6707952Y-16413690D01*
X6917476Y-16527976D02*
X6898428Y-16518452D01*
X6888905Y-16508928D01*
X6879381Y-16489881D01*
X6879381Y-16432738D01*
X6888905Y-16413690D01*
X6898428Y-16404167D01*
X6917476Y-16394643D01*
X6946048Y-16394643D01*
X6965095Y-16404167D01*
X6974619Y-16413690D01*
X6984143Y-16432738D01*
X6984143Y-16489881D01*
X6974619Y-16508928D01*
X6965095Y-16518452D01*
X6946048Y-16527976D01*
X6917476Y-16527976D01*
X7098428Y-16527976D02*
X7079381Y-16518452D01*
X7069857Y-16499405D01*
X7069857Y-16327976D01*
X7250809Y-16518452D02*
X7231762Y-16527976D01*
X7193667Y-16527976D01*
X7174619Y-16518452D01*
X7165095Y-16499405D01*
X7165095Y-16423214D01*
X7174619Y-16404167D01*
X7193667Y-16394643D01*
X7231762Y-16394643D01*
X7250809Y-16404167D01*
X7260333Y-16423214D01*
X7260333Y-16442262D01*
X7165095Y-16461309D01*
X7336524Y-16518452D02*
X7355571Y-16527976D01*
X7393667Y-16527976D01*
X7412714Y-16518452D01*
X7422238Y-16499405D01*
X7422238Y-16489881D01*
X7412714Y-16470833D01*
X7393667Y-16461309D01*
X7365095Y-16461309D01*
X7346048Y-16451786D01*
X7336524Y-16432738D01*
X7336524Y-16423214D01*
X7346048Y-16404167D01*
X7365095Y-16394643D01*
X7393667Y-16394643D01*
X7412714Y-16404167D01*
X7488905Y-16604167D02*
X7498428Y-16594643D01*
X7517476Y-16566071D01*
X7527000Y-16547024D01*
X7536524Y-16518452D01*
X7546048Y-16470833D01*
X7546048Y-16432738D01*
X7536524Y-16385119D01*
X7527000Y-16356548D01*
X7517476Y-16337500D01*
X7498428Y-16308928D01*
X7488905Y-16299405D01*
M02*
