%TF.GenerationSoftware,KiCad,Pcbnew,(6.0.8-1)-1*%
%TF.CreationDate,2022-11-17T19:15:35-05:00*%
%TF.ProjectId,HermEIS,4865726d-4549-4532-9e6b-696361645f70,rev?*%
%TF.SameCoordinates,Original*%
%TF.FileFunction,Drillmap*%
%TF.FilePolarity,Positive*%
%FSLAX45Y45*%
G04 Gerber Fmt 4.5, Leading zero omitted, Abs format (unit mm)*
G04 Created by KiCad (PCBNEW (6.0.8-1)-1) date 2022-11-17 19:15:35*
%MOMM*%
%LPD*%
G01*
G04 APERTURE LIST*
%ADD10C,0.200000*%
G04 APERTURE END LIST*
D10*
X2727000Y-2395500D02*
X19727000Y-2395500D01*
X19727000Y-2395500D02*
X19727000Y-13395500D01*
X19727000Y-13395500D02*
X2727000Y-13395500D01*
X2727000Y-13395500D02*
X2727000Y-2395500D01*
X2974619Y-13715976D02*
X2974619Y-13515976D01*
X3022238Y-13515976D01*
X3050809Y-13525500D01*
X3069857Y-13544548D01*
X3079381Y-13563595D01*
X3088905Y-13601690D01*
X3088905Y-13630262D01*
X3079381Y-13668357D01*
X3069857Y-13687405D01*
X3050809Y-13706452D01*
X3022238Y-13715976D01*
X2974619Y-13715976D01*
X3174619Y-13715976D02*
X3174619Y-13582643D01*
X3174619Y-13620738D02*
X3184143Y-13601690D01*
X3193667Y-13592167D01*
X3212714Y-13582643D01*
X3231762Y-13582643D01*
X3298428Y-13715976D02*
X3298428Y-13582643D01*
X3298428Y-13515976D02*
X3288905Y-13525500D01*
X3298428Y-13535024D01*
X3307952Y-13525500D01*
X3298428Y-13515976D01*
X3298428Y-13535024D01*
X3422238Y-13715976D02*
X3403190Y-13706452D01*
X3393667Y-13687405D01*
X3393667Y-13515976D01*
X3527000Y-13715976D02*
X3507952Y-13706452D01*
X3498428Y-13687405D01*
X3498428Y-13515976D01*
X3755571Y-13715976D02*
X3755571Y-13515976D01*
X3822238Y-13658833D01*
X3888905Y-13515976D01*
X3888905Y-13715976D01*
X4069857Y-13715976D02*
X4069857Y-13611214D01*
X4060333Y-13592167D01*
X4041286Y-13582643D01*
X4003190Y-13582643D01*
X3984143Y-13592167D01*
X4069857Y-13706452D02*
X4050809Y-13715976D01*
X4003190Y-13715976D01*
X3984143Y-13706452D01*
X3974619Y-13687405D01*
X3974619Y-13668357D01*
X3984143Y-13649309D01*
X4003190Y-13639786D01*
X4050809Y-13639786D01*
X4069857Y-13630262D01*
X4165095Y-13582643D02*
X4165095Y-13782643D01*
X4165095Y-13592167D02*
X4184143Y-13582643D01*
X4222238Y-13582643D01*
X4241286Y-13592167D01*
X4250810Y-13601690D01*
X4260333Y-13620738D01*
X4260333Y-13677881D01*
X4250810Y-13696928D01*
X4241286Y-13706452D01*
X4222238Y-13715976D01*
X4184143Y-13715976D01*
X4165095Y-13706452D01*
X4346048Y-13696928D02*
X4355571Y-13706452D01*
X4346048Y-13715976D01*
X4336524Y-13706452D01*
X4346048Y-13696928D01*
X4346048Y-13715976D01*
X4346048Y-13592167D02*
X4355571Y-13601690D01*
X4346048Y-13611214D01*
X4336524Y-13601690D01*
X4346048Y-13592167D01*
X4346048Y-13611214D01*
M02*
