%TF.GenerationSoftware,KiCad,Pcbnew,(6.0.8-1)-1*%
%TF.CreationDate,2022-11-17T19:15:12-05:00*%
%TF.ProjectId,HermEIS,4865726d-4549-4532-9e6b-696361645f70,rev?*%
%TF.SameCoordinates,Original*%
%TF.FileFunction,Soldermask,Bot*%
%TF.FilePolarity,Negative*%
%FSLAX46Y46*%
G04 Gerber Fmt 4.6, Leading zero omitted, Abs format (unit mm)*
G04 Created by KiCad (PCBNEW (6.0.8-1)-1) date 2022-11-17 19:15:12*
%MOMM*%
%LPD*%
G01*
G04 APERTURE LIST*
%ADD10C,2.000000*%
%ADD11C,2.200000*%
%ADD12C,1.016000*%
%ADD13C,1.397000*%
%ADD14C,1.270000*%
%ADD15C,1.320800*%
%ADD16R,1.408000X1.408000*%
%ADD17C,1.408000*%
%ADD18C,2.100000*%
G04 APERTURE END LIST*
D10*
%TO.C,J2*%
X107000000Y-57200000D03*
D11*
X103850000Y-60350000D03*
X110150000Y-60350000D03*
X110150000Y-54050000D03*
X103850000Y-54050000D03*
%TD*%
D10*
%TO.C,J7*%
X107000000Y-73200000D03*
D11*
X103850000Y-76350000D03*
X110150000Y-76350000D03*
X110150000Y-70050000D03*
X103850000Y-70050000D03*
%TD*%
D12*
%TO.C,J19*%
X138282000Y-36709750D03*
X138282000Y-71190250D03*
%TD*%
D13*
%TO.C,J18*%
X190032800Y-73355000D03*
X190032800Y-70815000D03*
X190032800Y-68275000D03*
X190032800Y-65735000D03*
X190032800Y-63195000D03*
X190032800Y-60655000D03*
X190032800Y-58115000D03*
X190032800Y-55575000D03*
X190032800Y-53035000D03*
X190032800Y-50495000D03*
X190032800Y-47955000D03*
X190032800Y-45415000D03*
X190032800Y-42875000D03*
X190032800Y-40335000D03*
X190032800Y-37795000D03*
X190032800Y-35255000D03*
X187492800Y-73355000D03*
X187492800Y-70815000D03*
X187492800Y-68275000D03*
X187492800Y-65735000D03*
X187492800Y-63195000D03*
X187492800Y-60655000D03*
X187492800Y-58115000D03*
X187492800Y-55575000D03*
X187492800Y-53035000D03*
X187492800Y-50495000D03*
X187492800Y-47955000D03*
X187492800Y-45415000D03*
X187492800Y-42875000D03*
X187492800Y-40335000D03*
X187492800Y-37795000D03*
X187492800Y-35255000D03*
%TD*%
%TO.C,J17*%
X183112800Y-123745000D03*
X183112800Y-121205000D03*
X183112800Y-118665000D03*
X183112800Y-116125000D03*
X183112800Y-113585000D03*
X183112800Y-111045000D03*
X183112800Y-108505000D03*
X183112800Y-105965000D03*
X183112800Y-103425000D03*
X183112800Y-100885000D03*
X183112800Y-98345000D03*
X183112800Y-95805000D03*
X183112800Y-93265000D03*
X183112800Y-90725000D03*
X183112800Y-88185000D03*
X183112800Y-85645000D03*
X180572800Y-123745000D03*
X180572800Y-121205000D03*
X180572800Y-118665000D03*
X180572800Y-116125000D03*
X180572800Y-113585000D03*
X180572800Y-111045000D03*
X180572800Y-108505000D03*
X180572800Y-105965000D03*
X180572800Y-103425000D03*
X180572800Y-100885000D03*
X180572800Y-98345000D03*
X180572800Y-95805000D03*
X180572800Y-93265000D03*
X180572800Y-90725000D03*
X180572800Y-88185000D03*
X180572800Y-85645000D03*
%TD*%
D14*
%TO.C,J16*%
X55115700Y-51255000D03*
X55115700Y-53795000D03*
X55115700Y-56335000D03*
X55115700Y-58875000D03*
X55115700Y-61415000D03*
X55115700Y-63955000D03*
X55115700Y-66495000D03*
X55115700Y-69035000D03*
X55115700Y-71575000D03*
X55115700Y-74115000D03*
X55115700Y-76655000D03*
%TD*%
D12*
%TO.C,J20*%
X178282000Y-36709750D03*
X178282000Y-71190250D03*
%TD*%
D10*
%TO.C,J6*%
X123000000Y-41200000D03*
D11*
X126150000Y-44350000D03*
X126150000Y-38050000D03*
X119850000Y-44350000D03*
X119850000Y-38050000D03*
%TD*%
D13*
%TO.C,J21*%
X134710000Y-95926133D03*
X137250000Y-95926133D03*
X139790000Y-95926133D03*
X142330000Y-95926133D03*
X144870000Y-95926133D03*
X147410000Y-95926133D03*
X149950000Y-95926133D03*
X152490000Y-95926133D03*
X155030000Y-95926133D03*
X157570000Y-95926133D03*
X160110000Y-95926133D03*
X162650000Y-95926133D03*
X165190000Y-95926133D03*
X167730000Y-95926133D03*
X170270000Y-95926133D03*
X172810000Y-95926133D03*
X134710000Y-93386133D03*
X137250000Y-93386133D03*
X139790000Y-93386133D03*
X142330000Y-93386133D03*
X144870000Y-93386133D03*
X147410000Y-93386133D03*
X149950000Y-93386133D03*
X152490000Y-93386133D03*
X155030000Y-93386133D03*
X157570000Y-93386133D03*
X160110000Y-93386133D03*
X162650000Y-93386133D03*
X165190000Y-93386133D03*
X167730000Y-93386133D03*
X170270000Y-93386133D03*
X172810000Y-93386133D03*
%TD*%
%TO.C,J22*%
X134710000Y-87142800D03*
X137250000Y-87142800D03*
X139790000Y-87142800D03*
X142330000Y-87142800D03*
X144870000Y-87142800D03*
X147410000Y-87142800D03*
X149950000Y-87142800D03*
X152490000Y-87142800D03*
X155030000Y-87142800D03*
X157570000Y-87142800D03*
X160110000Y-87142800D03*
X162650000Y-87142800D03*
X165190000Y-87142800D03*
X167730000Y-87142800D03*
X170270000Y-87142800D03*
X172810000Y-87142800D03*
X134710000Y-84602800D03*
X137250000Y-84602800D03*
X139790000Y-84602800D03*
X142330000Y-84602800D03*
X144870000Y-84602800D03*
X147410000Y-84602800D03*
X149950000Y-84602800D03*
X152490000Y-84602800D03*
X155030000Y-84602800D03*
X157570000Y-84602800D03*
X160110000Y-84602800D03*
X162650000Y-84602800D03*
X165190000Y-84602800D03*
X167730000Y-84602800D03*
X170270000Y-84602800D03*
X172810000Y-84602800D03*
%TD*%
D10*
%TO.C,J11*%
X123000000Y-120600000D03*
D11*
X126150000Y-117450000D03*
X119850000Y-117450000D03*
X119850000Y-123750000D03*
X126150000Y-123750000D03*
%TD*%
D10*
%TO.C,J5*%
X107010000Y-120680000D03*
D11*
X110160000Y-123830000D03*
X110160000Y-117530000D03*
X103860000Y-123830000D03*
X103860000Y-117530000D03*
%TD*%
D15*
%TO.C,J15*%
X55407500Y-91955000D03*
X55407500Y-94495000D03*
X55407500Y-97035000D03*
X55407500Y-99575000D03*
X55407500Y-102115000D03*
X55407500Y-104655000D03*
X55407500Y-107195000D03*
X55407500Y-109735000D03*
X55407500Y-112275000D03*
X55407500Y-114815000D03*
%TD*%
D10*
%TO.C,J10*%
X123000000Y-104820000D03*
D11*
X119850000Y-107970000D03*
X126150000Y-107970000D03*
X126150000Y-101670000D03*
X119850000Y-101670000D03*
%TD*%
D10*
%TO.C,J1*%
X123000000Y-57100000D03*
D11*
X119850000Y-53950000D03*
X119850000Y-60250000D03*
X126150000Y-53950000D03*
X126150000Y-60250000D03*
%TD*%
D10*
%TO.C,J8*%
X123000000Y-73300000D03*
D11*
X126150000Y-70150000D03*
X119850000Y-70150000D03*
X126150000Y-76450000D03*
X119850000Y-76450000D03*
%TD*%
D10*
%TO.C,J4*%
X107010000Y-104840000D03*
D11*
X103860000Y-107990000D03*
X110160000Y-107990000D03*
X103860000Y-101690000D03*
X110160000Y-101690000D03*
%TD*%
D10*
%TO.C,J3*%
X106990000Y-88970000D03*
D11*
X110140000Y-85820000D03*
X103840000Y-92120000D03*
X110140000Y-92120000D03*
X103840000Y-85820000D03*
%TD*%
D13*
%TO.C,J12*%
X134710000Y-104709466D03*
X137250000Y-104709466D03*
X139790000Y-104709466D03*
X142330000Y-104709466D03*
X144870000Y-104709466D03*
X147410000Y-104709466D03*
X149950000Y-104709466D03*
X152490000Y-104709466D03*
X155030000Y-104709466D03*
X157570000Y-104709466D03*
X160110000Y-104709466D03*
X162650000Y-104709466D03*
X165190000Y-104709466D03*
X167730000Y-104709466D03*
X170270000Y-104709466D03*
X172810000Y-104709466D03*
X134710000Y-102169466D03*
X137250000Y-102169466D03*
X139790000Y-102169466D03*
X142330000Y-102169466D03*
X144870000Y-102169466D03*
X147410000Y-102169466D03*
X149950000Y-102169466D03*
X152490000Y-102169466D03*
X155030000Y-102169466D03*
X157570000Y-102169466D03*
X160110000Y-102169466D03*
X162650000Y-102169466D03*
X165190000Y-102169466D03*
X167730000Y-102169466D03*
X170270000Y-102169466D03*
X172810000Y-102169466D03*
%TD*%
D14*
%TO.C,J14*%
X34910000Y-51255000D03*
X34910000Y-53795000D03*
X34910000Y-56335000D03*
X34910000Y-58875000D03*
X34910000Y-61415000D03*
X34910000Y-63955000D03*
X34910000Y-66495000D03*
X34910000Y-69035000D03*
X34910000Y-71575000D03*
X34910000Y-74115000D03*
X34910000Y-76655000D03*
%TD*%
D16*
%TO.C,S1*%
X159950000Y-121750000D03*
D17*
X164950000Y-121750000D03*
X167450000Y-121750000D03*
X169950000Y-121750000D03*
D18*
X155850000Y-124550000D03*
X172050000Y-118950000D03*
%TD*%
D15*
%TO.C,J13*%
X35420000Y-91955000D03*
X35420000Y-94495000D03*
X35420000Y-97035000D03*
X35420000Y-99575000D03*
X35420000Y-102115000D03*
X35420000Y-104655000D03*
X35420000Y-107195000D03*
X35420000Y-109735000D03*
X35420000Y-112275000D03*
X35420000Y-114815000D03*
%TD*%
D10*
%TO.C,J9*%
X123000000Y-88970000D03*
D11*
X126150000Y-85820000D03*
X126150000Y-92120000D03*
X119850000Y-92120000D03*
X119850000Y-85820000D03*
%TD*%
D16*
%TO.C,S2*%
X138950000Y-121750000D03*
D17*
X143950000Y-121750000D03*
X146450000Y-121750000D03*
X148950000Y-121750000D03*
D18*
X134850000Y-124550000D03*
X151050000Y-118950000D03*
%TD*%
M02*
