%TF.GenerationSoftware,KiCad,Pcbnew,(6.0.8-1)-1*%
%TF.CreationDate,2022-11-09T12:39:36-05:00*%
%TF.ProjectId,HermEIS,4865726d-4549-4532-9e6b-696361645f70,rev?*%
%TF.SameCoordinates,Original*%
%TF.FileFunction,Copper,L2,Inr*%
%TF.FilePolarity,Positive*%
%FSLAX46Y46*%
G04 Gerber Fmt 4.6, Leading zero omitted, Abs format (unit mm)*
G04 Created by KiCad (PCBNEW (6.0.8-1)-1) date 2022-11-09 12:39:36*
%MOMM*%
%LPD*%
G01*
G04 APERTURE LIST*
%TA.AperFunction,ComponentPad*%
%ADD10C,2.286000*%
%TD*%
%TA.AperFunction,ComponentPad*%
%ADD11C,1.016000*%
%TD*%
%TA.AperFunction,ComponentPad*%
%ADD12C,1.397000*%
%TD*%
%TA.AperFunction,ComponentPad*%
%ADD13C,1.270000*%
%TD*%
%TA.AperFunction,ComponentPad*%
%ADD14C,1.320800*%
%TD*%
%TA.AperFunction,ComponentPad*%
%ADD15R,1.408000X1.408000*%
%TD*%
%TA.AperFunction,ComponentPad*%
%ADD16C,1.408000*%
%TD*%
%TA.AperFunction,ComponentPad*%
%ADD17C,2.100000*%
%TD*%
%TA.AperFunction,ViaPad*%
%ADD18C,4.000000*%
%TD*%
%TA.AperFunction,ViaPad*%
%ADD19C,0.800000*%
%TD*%
%TA.AperFunction,Conductor*%
%ADD20C,0.250000*%
%TD*%
%TA.AperFunction,Conductor*%
%ADD21C,0.200000*%
%TD*%
G04 APERTURE END LIST*
D10*
%TO.N,/CE*%
%TO.C,J2*%
X107000000Y-57250000D03*
%TO.N,GND*%
X101920000Y-62330000D03*
X112080000Y-62330000D03*
X101920000Y-52170000D03*
X112080000Y-52170000D03*
%TD*%
%TO.N,/V_ref*%
%TO.C,J7*%
X107000000Y-73250000D03*
%TO.N,GND*%
X101920000Y-68170000D03*
X112080000Y-68170000D03*
X101920000Y-78330000D03*
X112080000Y-78330000D03*
%TD*%
D11*
%TO.N,N/C*%
%TO.C,J19*%
X143452000Y-36864750D03*
X143452000Y-71345250D03*
%TD*%
D12*
%TO.N,/C22*%
%TO.C,J18*%
X190032800Y-73355000D03*
%TO.N,/A21*%
X190032800Y-70815000D03*
%TO.N,/A20*%
X190032800Y-68275000D03*
%TO.N,/J20*%
X190032800Y-65735000D03*
%TO.N,/J22*%
X190032800Y-63195000D03*
%TO.N,/W20*%
X190032800Y-60655000D03*
%TO.N,/T19*%
X190032800Y-58115000D03*
%TO.N,/W22*%
X190032800Y-55575000D03*
%TO.N,/T20*%
X190032800Y-53035000D03*
%TO.N,/U19*%
X190032800Y-50495000D03*
%TO.N,/P17*%
X190032800Y-47955000D03*
%TO.N,/V20*%
X190032800Y-45415000D03*
%TO.N,/N16*%
X190032800Y-42875000D03*
%TO.N,/C5*%
X190032800Y-40335000D03*
%TO.N,/M17*%
X190032800Y-37795000D03*
%TO.N,/A5*%
X190032800Y-35255000D03*
%TO.N,/M18*%
X187492800Y-73355000D03*
%TO.N,/D14*%
X187492800Y-70815000D03*
%TO.N,/P18*%
X187492800Y-68275000D03*
%TO.N,/C14*%
X187492800Y-65735000D03*
%TO.N,/R19*%
X187492800Y-63195000D03*
%TO.N,/E16*%
X187492800Y-60655000D03*
%TO.N,/D9*%
X187492800Y-58115000D03*
%TO.N,/D17*%
X187492800Y-55575000D03*
%TO.N,/C8*%
X187492800Y-53035000D03*
%TO.N,/D7*%
X187492800Y-50495000D03*
%TO.N,/D10*%
X187492800Y-47955000D03*
%TO.N,/D8*%
X187492800Y-45415000D03*
%TO.N,/C10*%
X187492800Y-42875000D03*
%TO.N,/L17*%
X187492800Y-40335000D03*
%TO.N,/D11*%
X187492800Y-37795000D03*
%TO.N,/K18*%
X187492800Y-35255000D03*
%TD*%
%TO.N,/Vref_o*%
%TO.C,J17*%
X183112800Y-123745000D03*
%TO.N,/chn1*%
X183112800Y-121205000D03*
%TO.N,/chn2*%
X183112800Y-118665000D03*
%TO.N,/chn3*%
X183112800Y-116125000D03*
%TO.N,/chn4*%
X183112800Y-113585000D03*
%TO.N,/chn5*%
X183112800Y-111045000D03*
%TO.N,/chn6*%
X183112800Y-108505000D03*
%TO.N,/chn7*%
X183112800Y-105965000D03*
%TO.N,/WE1*%
X183112800Y-103425000D03*
%TO.N,/WE2*%
X183112800Y-100885000D03*
%TO.N,/WE3*%
X183112800Y-98345000D03*
%TO.N,/WE4*%
X183112800Y-95805000D03*
%TO.N,/WE5*%
X183112800Y-93265000D03*
%TO.N,/WE6*%
X183112800Y-90725000D03*
%TO.N,/WE7*%
X183112800Y-88185000D03*
%TO.N,/F_EIS_DDS*%
X183112800Y-85645000D03*
%TO.N,/CV_S2*%
X180572800Y-123745000D03*
%TO.N,/EIS_S3*%
X180572800Y-121205000D03*
%TO.N,/SIN_2*%
X180572800Y-118665000D03*
%TO.N,/SIN_1*%
X180572800Y-116125000D03*
%TO.N,/V_ref*%
X180572800Y-113585000D03*
X180572800Y-111045000D03*
%TO.N,/CE*%
X180572800Y-108505000D03*
X180572800Y-105965000D03*
%TO.N,/WE1*%
X180572800Y-103425000D03*
%TO.N,/WE2*%
X180572800Y-100885000D03*
%TO.N,/WE3*%
X180572800Y-98345000D03*
%TO.N,/WE4*%
X180572800Y-95805000D03*
%TO.N,/WE5*%
X180572800Y-93265000D03*
%TO.N,/WE6*%
X180572800Y-90725000D03*
%TO.N,/WE7*%
X180572800Y-88185000D03*
%TO.N,/CV_DAC*%
X180572800Y-85645000D03*
%TD*%
D13*
%TO.N,unconnected-(J16-Pad1)*%
%TO.C,J16*%
X55115700Y-51255000D03*
%TO.N,unconnected-(J16-Pad2)*%
X55115700Y-53795000D03*
%TO.N,unconnected-(J16-Pad3)*%
X55115700Y-56335000D03*
%TO.N,unconnected-(J16-Pad4)*%
X55115700Y-58875000D03*
%TO.N,unconnected-(J16-Pad5)*%
X55115700Y-61415000D03*
%TO.N,unconnected-(J16-Pad6)*%
X55115700Y-63955000D03*
%TO.N,unconnected-(J16-Pad7)*%
X55115700Y-66495000D03*
%TO.N,unconnected-(J16-Pad8)*%
X55115700Y-69035000D03*
%TO.N,unconnected-(J16-Pad9)*%
X55115700Y-71575000D03*
%TO.N,unconnected-(J16-Pad10)*%
X55115700Y-74115000D03*
%TO.N,unconnected-(J16-Pad11)*%
X55115700Y-76655000D03*
%TD*%
D11*
%TO.N,N/C*%
%TO.C,J20*%
X178282000Y-36709750D03*
X178282000Y-71190250D03*
%TD*%
D10*
%TO.N,/CV_S1*%
%TO.C,J6*%
X123020000Y-41280000D03*
%TO.N,GND*%
X117940000Y-46360000D03*
X128100000Y-36200000D03*
X117940000Y-36200000D03*
X128100000Y-46360000D03*
%TD*%
D12*
%TO.N,/A_NCS*%
%TO.C,J21*%
X134710000Y-95926133D03*
%TO.N,/A_SCK*%
X137250000Y-95926133D03*
%TO.N,/A_SDI*%
X139790000Y-95926133D03*
%TO.N,/A_SDO1*%
X142330000Y-95926133D03*
%TO.N,/A_SDO2*%
X144870000Y-95926133D03*
%TO.N,/A_SDO3*%
X147410000Y-95926133D03*
%TO.N,/A_SDO4*%
X149950000Y-95926133D03*
%TO.N,/A_SDO5*%
X152490000Y-95926133D03*
%TO.N,/A_SDO6*%
X155030000Y-95926133D03*
%TO.N,/A_SDO7*%
X157570000Y-95926133D03*
%TO.N,/A_SDO8*%
X160110000Y-95926133D03*
%TO.N,/D20*%
X162650000Y-95926133D03*
%TO.N,/D_7*%
X165190000Y-95926133D03*
%TO.N,/D_6*%
X167730000Y-95926133D03*
%TO.N,/D_5*%
X170270000Y-95926133D03*
%TO.N,/D_4*%
X172810000Y-95926133D03*
%TO.N,/D_3*%
X134710000Y-93386133D03*
%TO.N,/D_2*%
X137250000Y-93386133D03*
%TO.N,/D_1*%
X139790000Y-93386133D03*
%TO.N,/D_0*%
X142330000Y-93386133D03*
%TO.N,/FQ_UD*%
X144870000Y-93386133D03*
%TO.N,/K20*%
X147410000Y-93386133D03*
%TO.N,/FT_NCS*%
X149950000Y-93386133D03*
%TO.N,/FT_SCK*%
X152490000Y-93386133D03*
%TO.N,/FT_SDI*%
X155030000Y-93386133D03*
%TO.N,/FT_SDO*%
X157570000Y-93386133D03*
%TO.N,/Rin_scl*%
X160110000Y-93386133D03*
%TO.N,/Rin_sda*%
X162650000Y-93386133D03*
%TO.N,/P21*%
X165190000Y-93386133D03*
%TO.N,/R20*%
X167730000Y-93386133D03*
%TO.N,/P22*%
X170270000Y-93386133D03*
%TO.N,/DAC1_LDAC*%
X172810000Y-93386133D03*
%TD*%
%TO.N,GND*%
%TO.C,J22*%
X134710000Y-87142800D03*
%TO.N,/SQ_1*%
X137250000Y-87142800D03*
%TO.N,/SQ_2*%
X139790000Y-87142800D03*
%TO.N,unconnected-(J22-PadA4)*%
X142330000Y-87142800D03*
%TO.N,/A18*%
X144870000Y-87142800D03*
%TO.N,/F_VREF_1*%
X147410000Y-87142800D03*
%TO.N,/V_ref*%
X149950000Y-87142800D03*
%TO.N,/chn1_r*%
X152490000Y-87142800D03*
%TO.N,/chn2_r*%
X155030000Y-87142800D03*
%TO.N,/chn3_r*%
X157570000Y-87142800D03*
%TO.N,/chn4_r*%
X160110000Y-87142800D03*
%TO.N,/chn5_r*%
X162650000Y-87142800D03*
%TO.N,/chn6_r*%
X165190000Y-87142800D03*
%TO.N,/chn7_r*%
X167730000Y-87142800D03*
%TO.N,GND*%
X170270000Y-87142800D03*
X172810000Y-87142800D03*
%TO.N,/L19*%
X134710000Y-84602800D03*
%TO.N,/H21*%
X137250000Y-84602800D03*
%TO.N,/K21*%
X139790000Y-84602800D03*
%TO.N,/H22*%
X142330000Y-84602800D03*
%TO.N,/K22*%
X144870000Y-84602800D03*
%TO.N,/F21*%
X147410000Y-84602800D03*
%TO.N,/G20*%
X149950000Y-84602800D03*
%TO.N,/F22*%
X152490000Y-84602800D03*
%TO.N,/G22*%
X155030000Y-84602800D03*
%TO.N,/D21*%
X157570000Y-84602800D03*
%TO.N,/E20*%
X160110000Y-84602800D03*
%TO.N,/D22*%
X162650000Y-84602800D03*
%TO.N,/E22*%
X165190000Y-84602800D03*
%TO.N,/B21*%
X167730000Y-84602800D03*
%TO.N,/C20*%
X170270000Y-84602800D03*
%TO.N,/B22*%
X172810000Y-84602800D03*
%TD*%
D10*
%TO.N,/WE7*%
%TO.C,J11*%
X123020000Y-120675000D03*
%TO.N,GND*%
X128100000Y-125755000D03*
X117940000Y-125755000D03*
X117940000Y-115595000D03*
X128100000Y-115595000D03*
%TD*%
%TO.N,/WE6*%
%TO.C,J5*%
X107000000Y-120670000D03*
%TO.N,GND*%
X112080000Y-125750000D03*
X101920000Y-125750000D03*
X112080000Y-115590000D03*
X101920000Y-115590000D03*
%TD*%
D14*
%TO.N,/SIN_2*%
%TO.C,J15*%
X55407500Y-91955000D03*
%TO.N,/SIN_1*%
X55407500Y-94495000D03*
%TO.N,/SQ_2*%
X55407500Y-97035000D03*
%TO.N,/SQ_1*%
X55407500Y-99575000D03*
%TO.N,GND*%
X55407500Y-102115000D03*
%TO.N,/N22*%
X55407500Y-104655000D03*
%TO.N,/L20*%
X55407500Y-107195000D03*
%TO.N,/FQ_UD*%
X55407500Y-109735000D03*
%TO.N,/K20*%
X55407500Y-112275000D03*
%TO.N,+3.3V*%
X55407500Y-114815000D03*
%TD*%
D10*
%TO.N,/WE5*%
%TO.C,J10*%
X123020000Y-104825000D03*
%TO.N,GND*%
X128100000Y-99745000D03*
X117940000Y-109905000D03*
X117940000Y-99745000D03*
X128100000Y-109905000D03*
%TD*%
%TO.N,/CE*%
%TO.C,J1*%
X123020000Y-57255000D03*
%TO.N,GND*%
X128100000Y-52175000D03*
X117940000Y-52175000D03*
X128100000Y-62335000D03*
X117940000Y-62335000D03*
%TD*%
%TO.N,/WE1*%
%TO.C,J8*%
X123020000Y-73255000D03*
%TO.N,GND*%
X128100000Y-78335000D03*
X117940000Y-68175000D03*
X117940000Y-78335000D03*
X128100000Y-68175000D03*
%TD*%
%TO.N,/WE4*%
%TO.C,J4*%
X107000000Y-104820000D03*
%TO.N,GND*%
X101920000Y-109900000D03*
X101920000Y-99740000D03*
X112080000Y-99740000D03*
X112080000Y-109900000D03*
%TD*%
%TO.N,/WE2*%
%TO.C,J3*%
X107000000Y-88970000D03*
%TO.N,GND*%
X112080000Y-94050000D03*
X101920000Y-94050000D03*
X112080000Y-83890000D03*
X101920000Y-83890000D03*
%TD*%
D12*
%TO.N,/JTAG_TCK*%
%TO.C,J12*%
X134710000Y-104709466D03*
%TO.N,/JTAG_TMS*%
X137250000Y-104709466D03*
%TO.N,/JTAG_TDO*%
X139790000Y-104709466D03*
%TO.N,/JTAG_TDI*%
X142330000Y-104709466D03*
%TO.N,unconnected-(J12-PadA5)*%
X144870000Y-104709466D03*
%TO.N,/SYS_CLK4*%
X147410000Y-104709466D03*
%TO.N,/SYS_CLK5*%
X149950000Y-104709466D03*
%TO.N,/USB_SCL*%
X152490000Y-104709466D03*
%TO.N,/USB_SDA*%
X155030000Y-104709466D03*
%TO.N,/+VCCO1*%
X157570000Y-104709466D03*
%TO.N,/+VCCO0*%
X160110000Y-104709466D03*
%TO.N,/+1.8V*%
X162650000Y-104709466D03*
X165190000Y-104709466D03*
%TO.N,/+1.2V*%
X167730000Y-104709466D03*
X170270000Y-104709466D03*
%TO.N,+5V*%
X172810000Y-104709466D03*
%TO.N,/DAC1_NCS*%
X134710000Y-102169466D03*
%TO.N,/DAC1_SCK*%
X137250000Y-102169466D03*
%TO.N,/DAC1_SDI*%
X139790000Y-102169466D03*
%TO.N,/N22*%
X142330000Y-102169466D03*
%TO.N,/L20*%
X144870000Y-102169466D03*
%TO.N,/F_RST_I*%
X147410000Y-102169466D03*
%TO.N,/F_RST_O*%
X149950000Y-102169466D03*
%TO.N,+5V*%
X152490000Y-102169466D03*
X155030000Y-102169466D03*
%TO.N,-3V*%
X157570000Y-102169466D03*
X160110000Y-102169466D03*
%TO.N,-0v5*%
X162650000Y-102169466D03*
%TO.N,nVDD_2*%
X165190000Y-102169466D03*
%TO.N,GND*%
X167730000Y-102169466D03*
%TO.N,+3.3V*%
X170270000Y-102169466D03*
X172810000Y-102169466D03*
%TD*%
D13*
%TO.N,unconnected-(J14-Pad1)*%
%TO.C,J14*%
X34910000Y-51255000D03*
%TO.N,unconnected-(J14-Pad2)*%
X34910000Y-53795000D03*
%TO.N,GND*%
X34910000Y-56335000D03*
%TO.N,/FT_SCK*%
X34910000Y-58875000D03*
%TO.N,/FT_SDO*%
X34910000Y-61415000D03*
%TO.N,/FT_SDI*%
X34910000Y-63955000D03*
%TO.N,/FT_NCS*%
X34910000Y-66495000D03*
%TO.N,unconnected-(J14-Pad8)*%
X34910000Y-69035000D03*
%TO.N,unconnected-(J14-Pad9)*%
X34910000Y-71575000D03*
%TO.N,unconnected-(J14-Pad10)*%
X34910000Y-74115000D03*
%TO.N,unconnected-(J14-Pad11)*%
X34910000Y-76655000D03*
%TD*%
D15*
%TO.N,/CV_S1*%
%TO.C,S1*%
X159950000Y-121750000D03*
D16*
%TO.N,/CV_ref*%
X164950000Y-121750000D03*
%TO.N,/CV_S2*%
X167450000Y-121750000D03*
%TO.N,unconnected-(S1-Pad4)*%
X169950000Y-121750000D03*
D17*
%TO.N,Net-(S1-PadS1)*%
X155850000Y-124550000D03*
X172050000Y-118950000D03*
%TD*%
D14*
%TO.N,GND*%
%TO.C,J13*%
X35420000Y-91955000D03*
%TO.N,/D_7*%
X35420000Y-94495000D03*
%TO.N,/D_6*%
X35420000Y-97035000D03*
%TO.N,/D_5*%
X35420000Y-99575000D03*
%TO.N,/D_4*%
X35420000Y-102115000D03*
%TO.N,/D_3*%
X35420000Y-104655000D03*
%TO.N,/D_2*%
X35420000Y-107195000D03*
%TO.N,/D_1*%
X35420000Y-109735000D03*
%TO.N,/D_0*%
X35420000Y-112275000D03*
%TO.N,+3.3V*%
X35420000Y-114815000D03*
%TD*%
D10*
%TO.N,/WE3*%
%TO.C,J9*%
X123020000Y-88975000D03*
%TO.N,GND*%
X117940000Y-94055000D03*
X128100000Y-94055000D03*
X128100000Y-83895000D03*
X117940000Y-83895000D03*
%TD*%
D15*
%TO.N,/EIS_S3*%
%TO.C,S2*%
X138950000Y-121750000D03*
D16*
%TO.N,/V_dds*%
X143950000Y-121750000D03*
%TO.N,/SIN_1*%
X146450000Y-121750000D03*
%TO.N,/SIN_2*%
X148950000Y-121750000D03*
D17*
%TO.N,Net-(S2-PadS1)*%
X134850000Y-124550000D03*
X151050000Y-118950000D03*
%TD*%
D18*
%TO.N,*%
X194270000Y-130955000D03*
X30270000Y-26955000D03*
X194270000Y-26955000D03*
X30270000Y-130955000D03*
D19*
%TO.N,GND*%
X109670000Y-119855000D03*
X63130000Y-98245000D03*
X67270000Y-89405000D03*
X81670000Y-47255000D03*
X84130000Y-43295000D03*
X88370000Y-35005000D03*
X135470000Y-35915000D03*
X75370000Y-74415000D03*
X40819500Y-43205000D03*
X98820000Y-41655000D03*
X96870000Y-36205000D03*
X100770000Y-118280500D03*
X98990000Y-54585000D03*
X70620000Y-119905000D03*
X74632701Y-45592299D03*
X63830000Y-63835000D03*
X46870000Y-51255000D03*
X76757701Y-36242701D03*
X63480000Y-60935000D03*
X108170000Y-32255000D03*
X66870000Y-81755000D03*
X83750000Y-72615000D03*
X72645500Y-89355000D03*
X66830000Y-73575000D03*
X78210000Y-89785000D03*
X75820000Y-69755000D03*
X136420000Y-42505000D03*
X171727652Y-125272652D03*
X186480000Y-123635000D03*
X122320000Y-101035000D03*
X79080000Y-32625000D03*
X68040000Y-36785000D03*
X43470000Y-41605000D03*
X64390000Y-50415000D03*
X98560000Y-72275000D03*
X83620000Y-64525000D03*
X153710000Y-126865000D03*
X46920000Y-48629500D03*
X75520000Y-119575000D03*
X136130000Y-83035000D03*
X67350000Y-63875000D03*
X70775000Y-97280000D03*
X47820000Y-32555000D03*
X135820000Y-40255000D03*
X43470000Y-31655000D03*
X72870000Y-33305000D03*
X67400000Y-47668000D03*
X52970000Y-41955000D03*
X78230000Y-85775000D03*
%TO.N,+5V*%
X162040000Y-27975000D03*
X71070000Y-48405000D03*
X187220000Y-101955000D03*
X144170000Y-33255000D03*
X59070000Y-51055000D03*
X97620000Y-69455000D03*
X151170000Y-107705000D03*
X97570000Y-93405000D03*
X35720000Y-47905000D03*
X117110000Y-30239500D03*
X97620000Y-81455000D03*
X97544500Y-117655000D03*
X97620000Y-32555000D03*
X172820000Y-107675000D03*
X163920000Y-40805000D03*
X97620000Y-46405000D03*
X97620000Y-57555000D03*
X164770000Y-34555000D03*
X109900000Y-31065000D03*
X97620000Y-105405000D03*
X184982701Y-35117701D03*
%TO.N,/chn2*%
X83444500Y-57205000D03*
X81820000Y-79205000D03*
X121420000Y-126655000D03*
X81820000Y-110305000D03*
X81820000Y-121205000D03*
X98970000Y-120255000D03*
X81820000Y-99505000D03*
X97970000Y-124255000D03*
X81820000Y-88755000D03*
X84070000Y-35105000D03*
X83570000Y-46505000D03*
%TO.N,-3V*%
X70820000Y-63815000D03*
X72314560Y-118635038D03*
X78020000Y-52155000D03*
X72870000Y-96555000D03*
X60120000Y-45905000D03*
X72570000Y-74455000D03*
X71070000Y-67155000D03*
X71270000Y-111655000D03*
X70420000Y-88955000D03*
X76570000Y-34755000D03*
%TO.N,/chn3*%
X84520000Y-47755000D03*
X84420000Y-111605000D03*
X112040000Y-120805000D03*
X84420000Y-90105000D03*
X175270000Y-119255000D03*
X136790000Y-121055000D03*
X84570000Y-58505000D03*
X84670000Y-36305000D03*
X84420000Y-100855000D03*
X84570000Y-69255000D03*
X84420000Y-122555000D03*
%TO.N,+3.3V*%
X136170000Y-38505000D03*
X93400000Y-118755000D03*
X47970000Y-43155000D03*
X76320000Y-85755000D03*
X171570000Y-33355000D03*
X59970000Y-110025000D03*
X76280000Y-112845000D03*
X112120000Y-36105000D03*
X67370000Y-96555000D03*
X93390000Y-94515000D03*
X45370000Y-35255000D03*
X93460000Y-106515000D03*
X93420000Y-46505000D03*
X72920000Y-52255000D03*
X75820000Y-68405000D03*
X76520000Y-89755000D03*
X76270000Y-107925000D03*
X140370000Y-39305000D03*
X93420000Y-58505000D03*
X93410000Y-82485000D03*
X154470000Y-50855000D03*
X70710000Y-118835000D03*
X93420000Y-33755000D03*
X61770000Y-91855000D03*
X38370000Y-38855000D03*
X75170000Y-49205000D03*
X63720000Y-35655000D03*
X42620000Y-43155000D03*
X93420000Y-70505000D03*
X70570000Y-74455500D03*
X74831250Y-63603750D03*
%TO.N,/chn1*%
X82720000Y-98305000D03*
X82720000Y-119955000D03*
X82720000Y-109005000D03*
X80970000Y-40605000D03*
X175175497Y-128210497D03*
X80570000Y-36355000D03*
X118520000Y-121418500D03*
X82720000Y-87555000D03*
X82720000Y-66105000D03*
X82720000Y-76855000D03*
X80570000Y-39055000D03*
X83250000Y-45075000D03*
X99120000Y-118105000D03*
%TO.N,-0v5*%
X33670000Y-38455000D03*
%TO.N,nVDD_2*%
X76110000Y-43255000D03*
X51770000Y-37855000D03*
X74120000Y-122515000D03*
X67570000Y-100155000D03*
X48270000Y-37445000D03*
X74370000Y-100355000D03*
X88470000Y-36255000D03*
X65020000Y-80655000D03*
X166420000Y-109655000D03*
X107930000Y-37155000D03*
X136420000Y-112205000D03*
X74170000Y-78305000D03*
X58120000Y-57955000D03*
X151540000Y-32125000D03*
X65170000Y-125979500D03*
X63620000Y-40935000D03*
X109070000Y-116255000D03*
%TO.N,Net-(R14-Pad2)*%
X43870000Y-36005000D03*
X35870000Y-41755000D03*
X52120000Y-31405000D03*
X39070000Y-40755000D03*
%TO.N,/Vref_o*%
X87570000Y-86305000D03*
X57370000Y-118205000D03*
X69920000Y-39805000D03*
X87820000Y-107855000D03*
X138370000Y-133179500D03*
X87720000Y-64855000D03*
X87770000Y-97055000D03*
X87920000Y-54105000D03*
X87770000Y-118705000D03*
X87920000Y-75555000D03*
X87970000Y-32505000D03*
%TO.N,/WE2*%
X70420000Y-72705000D03*
X66220000Y-68555000D03*
X120470000Y-91015000D03*
%TO.N,/WE3*%
X80060000Y-68645000D03*
X80420000Y-77955000D03*
X177570000Y-81055000D03*
X90720000Y-79655000D03*
X75450000Y-75705000D03*
%TO.N,/chn4*%
X87870000Y-49055000D03*
X87770000Y-102105000D03*
X128520000Y-119005000D03*
X90570000Y-115730500D03*
X88745500Y-123805000D03*
X99220000Y-112555000D03*
X87770000Y-112905000D03*
X87870000Y-59755000D03*
X87920000Y-70505000D03*
X88770000Y-37605000D03*
X87770000Y-81255000D03*
%TO.N,/chn5*%
X87720000Y-82505000D03*
X87770000Y-114155000D03*
X87920000Y-71755000D03*
X84170000Y-124679500D03*
X87920000Y-38855000D03*
X87920000Y-61055000D03*
X87920000Y-50305000D03*
X171970000Y-116329500D03*
X87770000Y-93205000D03*
%TO.N,/chn6*%
X87870000Y-83805000D03*
X87920000Y-40105000D03*
X87920000Y-124655000D03*
X87870000Y-62355000D03*
X87870000Y-105255000D03*
X130120000Y-88655000D03*
X122370000Y-95855000D03*
X175870000Y-90605000D03*
X87870000Y-94555000D03*
X87920000Y-73055000D03*
X162720000Y-89255000D03*
X87870000Y-51605000D03*
%TO.N,/chn7*%
X175470000Y-108555000D03*
X105920000Y-115855000D03*
X123645500Y-116405000D03*
%TO.N,/A_NCS*%
X146570000Y-27879500D03*
X89570000Y-76930000D03*
X89030000Y-124965000D03*
X146520000Y-44205000D03*
X89570000Y-64880000D03*
X89620000Y-52880000D03*
X89470000Y-88930000D03*
X132130000Y-97925000D03*
X89520000Y-112880000D03*
X89670000Y-40155000D03*
X89470000Y-100880000D03*
%TO.N,/A_SDO1*%
X94350000Y-37555000D03*
X134921850Y-43126850D03*
X110330000Y-70755000D03*
X109590000Y-40465000D03*
%TO.N,/A_SCK*%
X94510000Y-61055000D03*
X94070000Y-73005000D03*
X94177701Y-36377299D03*
X114345500Y-123802119D03*
X94020000Y-49055000D03*
X136720000Y-44105000D03*
X93870000Y-97005000D03*
X93740000Y-121245000D03*
X93820000Y-109105000D03*
X126450000Y-104115000D03*
X92650000Y-124780500D03*
X93920000Y-85055000D03*
%TO.N,/WE1*%
X130120000Y-80805000D03*
X72870000Y-37405000D03*
X112620000Y-48705000D03*
X83400000Y-31429500D03*
%TO.N,/V_ref*%
X185220000Y-109775000D03*
X114070000Y-29055000D03*
%TO.N,/CV_ref*%
X109560000Y-54245000D03*
X123820000Y-110115000D03*
X123720000Y-126145000D03*
%TO.N,/CE*%
X47620000Y-41705000D03*
X189070000Y-76355000D03*
X77520000Y-44155000D03*
X91120000Y-43455000D03*
%TO.N,/A_SDO2*%
X147070000Y-98005000D03*
X134045500Y-59155000D03*
X146920000Y-77740500D03*
X146770000Y-82829500D03*
X146520000Y-45695000D03*
%TO.N,/WE4*%
X107020000Y-95155000D03*
X153950000Y-82785000D03*
X75620000Y-94909500D03*
%TO.N,/WE5*%
X76370000Y-97855000D03*
X79170000Y-103805000D03*
X122620000Y-116505000D03*
X168384101Y-99914946D03*
%TO.N,Net-(R39-Pad2)*%
X77334549Y-38235049D03*
X69170000Y-33755000D03*
%TO.N,/WE6*%
X173260000Y-132355000D03*
X67120000Y-118355000D03*
X66590000Y-113605000D03*
%TO.N,/WE7*%
X72260000Y-121055000D03*
X181750000Y-130745000D03*
X80650000Y-113615000D03*
%TO.N,/A_SDO4*%
X121500000Y-79205000D03*
X132700000Y-41995000D03*
X134117299Y-109852299D03*
X126470000Y-41895000D03*
X146650000Y-46995000D03*
X123400000Y-67905000D03*
X119370000Y-112305000D03*
%TO.N,/A_SDO6*%
X150370000Y-73405000D03*
X150780000Y-78465000D03*
X153320000Y-89500500D03*
X118000000Y-91445000D03*
%TO.N,/A_SDO8*%
X142770000Y-118005000D03*
X164420000Y-68505000D03*
X156470000Y-56355000D03*
X177120000Y-128685000D03*
X153520000Y-123255000D03*
X191720000Y-114405000D03*
X104360000Y-121665000D03*
X167920000Y-109175000D03*
X183170000Y-79205000D03*
X94526452Y-121901677D03*
X138570000Y-117779500D03*
X164820000Y-99305000D03*
%TO.N,Net-(R11-Pad2)*%
X37970000Y-33955000D03*
X38670000Y-36879500D03*
%TO.N,/SIN_2*%
X175270000Y-120455000D03*
X51870000Y-91955000D03*
%TO.N,/SIN_1*%
X50970000Y-94455000D03*
X175270000Y-117555000D03*
X146470000Y-114755000D03*
%TO.N,/SQ_2*%
X143470000Y-98055000D03*
X49370000Y-97055000D03*
X137670000Y-128955000D03*
%TO.N,/SQ_1*%
X48370000Y-99555000D03*
X137670000Y-126355000D03*
%TO.N,Net-(C37-Pad1)*%
X126780000Y-29795000D03*
X165870000Y-29155000D03*
%TO.N,/D_3*%
X117220000Y-59735000D03*
X140092701Y-44512299D03*
X101240000Y-72725000D03*
X130770000Y-129255000D03*
%TO.N,/D_2*%
X135450000Y-50055000D03*
X132026850Y-75298150D03*
X125070000Y-128530500D03*
X133894500Y-55355000D03*
X133970000Y-89379500D03*
%TO.N,/D_1*%
X129300000Y-57998500D03*
X148428296Y-60582589D03*
X106010000Y-85575000D03*
X133270000Y-129055000D03*
%TO.N,Net-(R28-Pad2)*%
X79080000Y-101005000D03*
X79070000Y-97165000D03*
%TO.N,/D_0*%
X140014990Y-49942518D03*
X145950000Y-92045000D03*
X135470000Y-128855000D03*
X148570000Y-91080500D03*
X152750000Y-77805000D03*
X130010000Y-64255000D03*
%TO.N,/FT_SCK*%
X126410000Y-49705000D03*
X172557299Y-77867701D03*
X43170000Y-58955000D03*
X134670000Y-52255000D03*
X155570000Y-98255000D03*
%TO.N,/FT_SDO*%
X190920000Y-82805000D03*
X178320000Y-32855000D03*
X178570000Y-96330500D03*
X43070000Y-61305000D03*
X123770000Y-54455000D03*
X159370000Y-99255000D03*
X129670000Y-37780500D03*
%TO.N,Net-(SW2-Pad1)*%
X53070000Y-32155000D03*
X99080000Y-30475000D03*
X39370000Y-41905000D03*
%TO.N,Net-(SW2-Pad2)*%
X47570000Y-39605000D03*
X106020000Y-39655000D03*
%TO.N,/F_RST_I*%
X136870000Y-77455000D03*
X136370000Y-59155000D03*
%TO.N,/F_RST_O*%
X148830000Y-107645000D03*
X158470000Y-66845000D03*
X182630000Y-65265000D03*
X154570000Y-115215000D03*
X174180000Y-98880500D03*
%TO.N,/FT_SDI*%
X43060000Y-64025000D03*
X121320000Y-110005000D03*
X122320000Y-112455000D03*
X146780000Y-54515000D03*
X112166515Y-90626917D03*
%TO.N,/JTAG_TCK*%
X192470000Y-107655000D03*
X137120048Y-119479500D03*
X142382299Y-39042701D03*
%TO.N,/JTAG_TMS*%
X153570000Y-117955000D03*
X177470000Y-127205000D03*
X146270000Y-40205000D03*
X184870000Y-28905000D03*
X153520000Y-121105000D03*
%TO.N,/JTAG_TDO*%
X148670000Y-99605000D03*
X148520000Y-77079500D03*
X140670000Y-42405000D03*
X144220000Y-91105000D03*
%TO.N,/JTAG_TDI*%
X154720000Y-118055000D03*
X119920000Y-41905000D03*
X141670000Y-40505000D03*
X119870000Y-56205000D03*
X149070000Y-118299500D03*
X141420000Y-121605000D03*
%TO.N,/F_VREF_1*%
X137267701Y-75159500D03*
X133170000Y-53755000D03*
X131970000Y-62255000D03*
%TO.N,/SYS_CLK4*%
X163020000Y-99605000D03*
X139870000Y-35155000D03*
X169757700Y-90792700D03*
%TO.N,/A5*%
X182670000Y-47955000D03*
%TO.N,/D_7*%
X148410000Y-50054500D03*
X158320353Y-56354647D03*
X163449951Y-74679549D03*
%TO.N,/D_6*%
X140115424Y-47884174D03*
X177270000Y-100955000D03*
%TO.N,/D_5*%
X175760000Y-129985000D03*
X170770000Y-129455000D03*
X177457371Y-79605500D03*
X147540000Y-50825000D03*
X191740000Y-112275000D03*
%TO.N,/D_4*%
X66870000Y-125979500D03*
X136470000Y-49655000D03*
X54970000Y-126955000D03*
X132044500Y-80455000D03*
X120870000Y-93355000D03*
X132960116Y-62391662D03*
X104570000Y-114855000D03*
X44382299Y-130042701D03*
X168770000Y-130055000D03*
%TO.N,/B21*%
X155020000Y-66355000D03*
X167270000Y-78055000D03*
X148947609Y-66116397D03*
X161870000Y-51605000D03*
%TO.N,/B22*%
X159990000Y-53375000D03*
X155295047Y-61429952D03*
X147420000Y-67005500D03*
X170270000Y-77879500D03*
%TO.N,/A20*%
X141322299Y-71667299D03*
X152870000Y-41505000D03*
X161544503Y-73410497D03*
X154070000Y-48355000D03*
%TO.N,/A21*%
X149220000Y-68905000D03*
X184970000Y-64105000D03*
X155170000Y-41504500D03*
%TO.N,/FT_NCS*%
X176070000Y-85505000D03*
X148160000Y-53695000D03*
X43000000Y-66465000D03*
%TO.N,/FQ_UD*%
X148596000Y-57820524D03*
X108660000Y-99245000D03*
X108250000Y-91315000D03*
%TO.N,/D8*%
X177570000Y-53055000D03*
%TO.N,/D10*%
X170670000Y-51555000D03*
%TO.N,/C10*%
X177770000Y-47955000D03*
%TO.N,/D14*%
X182670000Y-49455000D03*
%TO.N,/C14*%
X180820000Y-49555000D03*
X180120000Y-72605000D03*
%TO.N,/J22*%
X147070000Y-69655000D03*
X149570000Y-48155000D03*
%TO.N,/J20*%
X184470000Y-61605000D03*
X145920000Y-71355000D03*
X165100000Y-64695000D03*
X147757299Y-47942299D03*
%TO.N,/C22*%
X140944500Y-67705000D03*
X142570000Y-73955000D03*
X118820000Y-43105000D03*
X138020000Y-34405000D03*
X124420000Y-32855000D03*
X132420000Y-73105000D03*
%TO.N,/C20*%
X140944500Y-66405000D03*
X165833107Y-71351893D03*
X168770000Y-77955000D03*
X148770000Y-73055000D03*
X162870000Y-51005000D03*
%TO.N,/E22*%
X163590000Y-72255000D03*
X160620000Y-51805000D03*
X174520000Y-85705000D03*
X151120000Y-64205000D03*
X136917149Y-68868101D03*
%TO.N,/E20*%
X157819500Y-77805000D03*
X136099476Y-68050428D03*
X160779951Y-72009549D03*
%TO.N,/G22*%
X156770000Y-48055000D03*
X150495500Y-57096024D03*
X144120000Y-74705000D03*
X140090000Y-63635000D03*
%TO.N,/F22*%
X156524500Y-47005000D03*
X179169500Y-104375000D03*
X154270000Y-55355000D03*
X162948381Y-91691322D03*
X187000000Y-88945000D03*
X152190000Y-91075000D03*
X182820000Y-73315000D03*
%TO.N,/G20*%
X155470000Y-42954000D03*
X135494000Y-65534998D03*
X143870000Y-82829500D03*
X146870000Y-73505000D03*
X155220000Y-63855000D03*
%TO.N,/F21*%
X154930000Y-58575000D03*
X137780000Y-77015000D03*
X141354503Y-83150497D03*
X155160000Y-52705000D03*
X147970000Y-73825000D03*
X156085500Y-57825000D03*
X151152299Y-61837299D03*
X148767701Y-61522701D03*
%TO.N,/K22*%
X154270000Y-43505000D03*
X136343263Y-63927139D03*
X141970000Y-77740500D03*
X150112753Y-51987799D03*
%TO.N,/H22*%
X150620000Y-45255000D03*
X142443137Y-62419088D03*
X133054500Y-70085000D03*
%TO.N,/K21*%
X134420000Y-80179500D03*
X153270000Y-47405000D03*
X142245500Y-65005000D03*
X137320000Y-80179500D03*
X150495500Y-58855000D03*
X135300498Y-64085498D03*
%TO.N,/H21*%
X151732701Y-45392299D03*
X135495000Y-66605000D03*
X147070451Y-61255451D03*
X141895500Y-60455000D03*
%TO.N,/L19*%
X149470000Y-44005000D03*
X136119452Y-61767201D03*
X146870000Y-43055000D03*
%TO.N,/C5*%
X182870000Y-37055000D03*
X164420000Y-46505000D03*
X175257701Y-44842701D03*
X149020000Y-36855000D03*
%TO.N,/+VCCO1*%
X129032299Y-91467299D03*
X141620000Y-50054500D03*
X138520000Y-100505000D03*
X141070000Y-107605000D03*
X121970000Y-70105000D03*
%TO.N,/A_SDI*%
X93915000Y-87600000D03*
X93865000Y-99550000D03*
X126094500Y-96655000D03*
X94065000Y-63600000D03*
X94065000Y-75550000D03*
X98520000Y-96605500D03*
X142820000Y-44905000D03*
X94015000Y-51600000D03*
X93815000Y-111650000D03*
X93710000Y-123915000D03*
X94015000Y-38850000D03*
%TO.N,/L20*%
X115700000Y-102855000D03*
X123320000Y-83005906D03*
X146732747Y-58403247D03*
%TO.N,/N22*%
X140370000Y-58455000D03*
X155450000Y-89379500D03*
X152770000Y-98855000D03*
X156370000Y-78355000D03*
X118570000Y-119555000D03*
X49470000Y-104655000D03*
X156370000Y-73955000D03*
%TO.N,/A_SDO3*%
X135040000Y-45695000D03*
X130645500Y-59447500D03*
%TO.N,/A_SDO5*%
X93940000Y-86345000D03*
X133680000Y-47515000D03*
X147370000Y-90229500D03*
X122070000Y-91875000D03*
X132824500Y-86579500D03*
%TO.N,/A_SDO7*%
X107990000Y-108485000D03*
X155470000Y-81929500D03*
X136370000Y-47455000D03*
X123150000Y-92675000D03*
X131857701Y-61042701D03*
X93820000Y-110355000D03*
%TO.N,/R20*%
X140794440Y-57005500D03*
X123770000Y-37780500D03*
X82522299Y-43430500D03*
X80940000Y-70405000D03*
X66160000Y-70815000D03*
X66360000Y-93275000D03*
X80770000Y-35105000D03*
X62595500Y-117175000D03*
X79160000Y-116325000D03*
X80530000Y-93275000D03*
%TO.N,/P21*%
X142220000Y-56405000D03*
X77340000Y-93999500D03*
X63030000Y-71595000D03*
X77010000Y-71565000D03*
X62280000Y-115745000D03*
X70650000Y-44985000D03*
X76250000Y-115865000D03*
X67630000Y-45455000D03*
X60470000Y-49585000D03*
X79310000Y-33630500D03*
X63320000Y-93615000D03*
%TO.N,/K20*%
X128270000Y-106155000D03*
X113210000Y-112875000D03*
X141397701Y-54129500D03*
X121120000Y-86605000D03*
X110200000Y-107685000D03*
%TO.N,/chn1_r*%
X104370000Y-66705000D03*
X69420000Y-38035000D03*
X109320000Y-72455000D03*
X83875992Y-32308384D03*
X108520000Y-30305000D03*
X110320000Y-35905000D03*
X103857299Y-38917701D03*
%TO.N,/chn2_r*%
X158370000Y-28355000D03*
X59870000Y-71555000D03*
X127007299Y-74267701D03*
X142370000Y-27955000D03*
X125620000Y-37405000D03*
%TO.N,/chn3_r*%
X71845500Y-76385000D03*
X107910000Y-49425000D03*
X124320000Y-35755000D03*
X80040000Y-60535000D03*
X80460000Y-76325000D03*
%TO.N,/chn4_r*%
X65150000Y-89725000D03*
X125830000Y-52985000D03*
X140670000Y-90555000D03*
X131180000Y-91095000D03*
%TO.N,/chn5_r*%
X83580000Y-59755000D03*
X79020000Y-93999500D03*
X106160000Y-45585000D03*
X132580000Y-32395000D03*
X83600000Y-94165000D03*
X61500000Y-71535000D03*
X64550000Y-84275000D03*
X135220000Y-89379500D03*
X94710000Y-55775000D03*
X71820000Y-98445000D03*
X90660000Y-55755000D03*
X83570000Y-86315000D03*
X117470000Y-38965000D03*
%TO.N,/chn6_r*%
X62400000Y-111775000D03*
X154310000Y-31945000D03*
X136962701Y-106737701D03*
X31380000Y-83475000D03*
%TO.N,/chn7_r*%
X149190000Y-32405000D03*
X116750000Y-25895000D03*
X64044500Y-120305000D03*
X120850000Y-27955000D03*
X138920000Y-91065000D03*
X161300000Y-90225000D03*
X83670000Y-118405000D03*
X30200000Y-84725000D03*
X101850000Y-120155000D03*
%TO.N,/+1.2V*%
X170870000Y-39155000D03*
X179270000Y-107155000D03*
X193132299Y-98567299D03*
X179282701Y-77692299D03*
X186370000Y-104855000D03*
%TO.N,/+1.8V*%
X178670000Y-113705000D03*
X186320000Y-112055000D03*
X183020000Y-35555000D03*
X165870000Y-112955000D03*
%TO.N,/SYS_CLK5*%
X169970000Y-41355000D03*
X181020000Y-81779500D03*
X168870000Y-97455000D03*
%TO.N,/USB_SCL*%
X180385500Y-79179500D03*
X191670000Y-110555000D03*
X171370000Y-35955000D03*
%TO.N,/USB_SDA*%
X156220000Y-117954500D03*
X171570000Y-41505000D03*
X191720000Y-117205000D03*
X178520000Y-73180500D03*
X162520000Y-120179500D03*
%TO.N,/W20*%
X192770000Y-38955000D03*
X152820000Y-42555000D03*
X179770000Y-33805000D03*
%TO.N,/T19*%
X170870000Y-42355000D03*
X163870000Y-47755000D03*
X148744500Y-40555000D03*
%TO.N,/W22*%
X175620000Y-42355000D03*
X164070000Y-42955000D03*
%TO.N,/T20*%
X153151620Y-38329500D03*
X170870000Y-43855000D03*
X193170000Y-40955000D03*
X162520000Y-45605000D03*
%TO.N,/U19*%
X185170000Y-42655000D03*
X192370000Y-42855000D03*
X165920000Y-47455000D03*
X153386261Y-39588739D03*
%TO.N,/P17*%
X185270000Y-46055000D03*
X169970000Y-44655000D03*
X161420000Y-46755000D03*
X148770000Y-39055000D03*
X176794500Y-49955000D03*
%TO.N,/V20*%
X154420000Y-36555000D03*
%TO.N,/N16*%
X171070000Y-46855000D03*
X176870000Y-48755000D03*
X154420000Y-38355000D03*
%TO.N,/M17*%
X175170000Y-47155000D03*
%TO.N,/M18*%
X169120000Y-47905000D03*
X170344500Y-56655000D03*
X176120000Y-73180500D03*
%TO.N,/P18*%
X181045500Y-73805500D03*
X171082299Y-48767299D03*
%TO.N,/R19*%
X165770000Y-49555000D03*
%TO.N,/E16*%
X185070000Y-48955000D03*
X185170000Y-54755000D03*
%TO.N,/D9*%
X168470000Y-50355000D03*
%TO.N,/D17*%
X174970000Y-52955000D03*
%TO.N,/C8*%
X175139027Y-50585973D03*
%TO.N,/+VCCO0*%
X171670000Y-51755000D03*
X178870000Y-110855000D03*
X171620000Y-59955000D03*
X166245500Y-61755000D03*
X161420000Y-112179500D03*
X180920000Y-83755000D03*
%TO.N,/L17*%
X184270000Y-52755000D03*
%TO.N,/D11*%
X183470000Y-54355000D03*
X174970000Y-54355000D03*
%TO.N,/K18*%
X176670000Y-55155000D03*
%TO.N,/A18*%
X159220000Y-89305000D03*
X187320000Y-84055000D03*
X168082351Y-90561736D03*
X184382701Y-66117701D03*
%TO.N,/CV_DAC*%
X67920000Y-53405000D03*
X59170000Y-35655000D03*
X79000000Y-61370500D03*
X99070000Y-65515000D03*
%TO.N,/CV_S2*%
X65970000Y-31429500D03*
X81280000Y-49965000D03*
X56790000Y-39835000D03*
X63290000Y-38635000D03*
X140170000Y-129055000D03*
X56470000Y-120355000D03*
%TO.N,/EIS_S3*%
X80170000Y-120255000D03*
X122678267Y-118966336D03*
X72970000Y-54155000D03*
X70420000Y-56855000D03*
%TO.N,Net-(C39-Pad1)*%
X70420000Y-53305000D03*
X81620000Y-59155000D03*
%TO.N,Net-(C39-Pad2)*%
X81770000Y-56205000D03*
X72720000Y-50355000D03*
%TO.N,Net-(C40-Pad1)*%
X67220000Y-57105000D03*
X60170000Y-57105000D03*
X76370000Y-52855000D03*
%TO.N,Net-(C41-Pad1)*%
X74920000Y-55965000D03*
X75930000Y-50705500D03*
%TO.N,/D21*%
X184950000Y-97545000D03*
X158970497Y-53794503D03*
X157790000Y-42815000D03*
X185457701Y-84467299D03*
X146555415Y-64844183D03*
X173330000Y-71535000D03*
%TO.N,/D22*%
X165000000Y-82169500D03*
X159010000Y-43345000D03*
X164345500Y-77885408D03*
X157470000Y-67365000D03*
X147657701Y-65342701D03*
%TO.N,/DAC1_NCS*%
X126720000Y-106355000D03*
X63370000Y-52155000D03*
X124842300Y-78432700D03*
X147034647Y-56639647D03*
%TO.N,/DAC1_SCK*%
X105770000Y-79355000D03*
X58970000Y-118955000D03*
X120970000Y-103855000D03*
X58970000Y-53555000D03*
X135394952Y-58079952D03*
X126570000Y-101855000D03*
%TO.N,/DAC1_SDI*%
X117060000Y-72465000D03*
X121790000Y-67845000D03*
X128570000Y-43580500D03*
X140329894Y-55548557D03*
X111570000Y-87955000D03*
X122570000Y-109155000D03*
X80670000Y-83955000D03*
X109030000Y-86535000D03*
%TO.N,/DAC1_LDAC*%
X160770000Y-77955000D03*
X178070000Y-84555000D03*
X141390000Y-58095000D03*
X64470000Y-54755000D03*
X122770000Y-46455000D03*
%TO.N,Net-(R53-Pad1)*%
X78170000Y-54255000D03*
X60370000Y-47855000D03*
%TO.N,Net-(R53-Pad2)*%
X81360000Y-54135000D03*
X62900000Y-44915000D03*
%TO.N,Net-(R55-Pad2)*%
X81430000Y-51275000D03*
X64370000Y-43740500D03*
%TO.N,/F_EIS_DDS*%
X72030000Y-45235000D03*
X128220000Y-30545000D03*
X107750000Y-47045000D03*
%TO.N,/CV_S1*%
X122020000Y-125155000D03*
X120470000Y-108755000D03*
X119820000Y-69855000D03*
X123020000Y-99305000D03*
%TO.N,/V_dds*%
X39820000Y-33705000D03*
%TO.N,/Rin_scl*%
X132080000Y-43445000D03*
X170520000Y-126355000D03*
X174820000Y-105705000D03*
X49520000Y-34255000D03*
X132620000Y-36155000D03*
X140079122Y-48945075D03*
%TO.N,/Rin_sda*%
X167770000Y-89105000D03*
X177082302Y-94888790D03*
X150135500Y-55370900D03*
X140150000Y-54445000D03*
X154194500Y-56505000D03*
X51020000Y-34130500D03*
%TO.N,/Vref_r*%
X160320000Y-31655000D03*
X64070000Y-33205000D03*
X60720000Y-35605000D03*
X112310000Y-29779500D03*
%TO.N,/P22*%
X174420500Y-95155000D03*
X147760000Y-58495000D03*
X178520000Y-93185000D03*
X177550000Y-83225000D03*
X155080000Y-59765000D03*
%TO.N,/D20*%
X166270000Y-91155000D03*
X165820500Y-77879500D03*
X140020000Y-46355000D03*
X151577701Y-50054500D03*
%TD*%
D20*
%TO.N,GND*%
X100040000Y-55635000D02*
X100040000Y-66290000D01*
X66870000Y-73615000D02*
X66870000Y-81755000D01*
X128960000Y-83035000D02*
X136130000Y-83035000D01*
X96870000Y-36205000D02*
X104220000Y-36205000D01*
X128100000Y-52175000D02*
X128100000Y-46360000D01*
X88370000Y-35005000D02*
X89120000Y-34255000D01*
X66420000Y-63875000D02*
X67350000Y-63875000D01*
X78230000Y-89765000D02*
X78210000Y-89785000D01*
X101920000Y-78330000D02*
X101920000Y-75635000D01*
X44095000Y-40980000D02*
X51995000Y-40980000D01*
X117940000Y-109905000D02*
X112085000Y-109905000D01*
X43470000Y-41605000D02*
X44095000Y-40980000D01*
X42070000Y-41705000D02*
X40819500Y-42955500D01*
X114475000Y-125750000D02*
X115795000Y-124430000D01*
X84135305Y-33355000D02*
X80698299Y-33355000D01*
X122320305Y-124430000D02*
X122970000Y-125079695D01*
X128100000Y-94055000D02*
X128100000Y-83895000D01*
X122970000Y-125079695D02*
X122970000Y-126455000D01*
X77295000Y-34410000D02*
X77295000Y-35705402D01*
X42170000Y-41605000D02*
X42070000Y-41705000D01*
X112080000Y-125750000D02*
X114475000Y-125750000D01*
X63480000Y-60935000D02*
X66420000Y-63875000D01*
X89120000Y-34255000D02*
X89120000Y-31605000D01*
X71520000Y-33305000D02*
X72870000Y-33305000D01*
X101920000Y-117130500D02*
X101920000Y-115590000D01*
X85885305Y-31605000D02*
X84135305Y-33355000D01*
D21*
X135470000Y-35915000D02*
X135010000Y-35455000D01*
D20*
X100770000Y-118280500D02*
X101920000Y-117130500D01*
X128100000Y-125825000D02*
X128100000Y-125755000D01*
X89120000Y-31605000D02*
X85885305Y-31605000D01*
X115795000Y-124430000D02*
X122320305Y-124430000D01*
X100040000Y-66290000D02*
X101920000Y-68170000D01*
X51995000Y-40980000D02*
X52970000Y-41955000D01*
X126970000Y-126955000D02*
X128100000Y-125825000D01*
X79080000Y-32625000D02*
X78400000Y-33305000D01*
D21*
X128845000Y-35455000D02*
X128100000Y-36200000D01*
X135010000Y-35455000D02*
X128845000Y-35455000D01*
D20*
X78230000Y-85775000D02*
X78230000Y-89765000D01*
X44370000Y-32555000D02*
X47820000Y-32555000D01*
X80698299Y-33355000D02*
X77810598Y-36242701D01*
X77295000Y-35705402D02*
X76757701Y-36242701D01*
X68040000Y-36785000D02*
X71520000Y-33305000D01*
X75820000Y-69755000D02*
X75734695Y-69755000D01*
X122970000Y-126455000D02*
X123470000Y-126955000D01*
X77810598Y-36242701D02*
X76757701Y-36242701D01*
X66914695Y-60935000D02*
X63480000Y-60935000D01*
X79080000Y-32625000D02*
X77295000Y-34410000D01*
X43470000Y-41605000D02*
X42170000Y-41605000D01*
X98990000Y-54585000D02*
X100040000Y-55635000D01*
X43470000Y-31655000D02*
X44370000Y-32555000D01*
X40819500Y-42955500D02*
X40819500Y-43205000D01*
X78400000Y-33305000D02*
X72870000Y-33305000D01*
X101920000Y-75635000D02*
X98560000Y-72275000D01*
X117940000Y-109905000D02*
X117940000Y-99745000D01*
X104220000Y-36205000D02*
X108170000Y-32255000D01*
X112085000Y-109905000D02*
X112080000Y-109900000D01*
X128100000Y-83895000D02*
X128960000Y-83035000D01*
X66830000Y-73575000D02*
X66870000Y-73615000D01*
X123470000Y-126955000D02*
X126970000Y-126955000D01*
X75734695Y-69755000D02*
X66914695Y-60935000D01*
%TO.N,+5V*%
X152490000Y-102169466D02*
X151170000Y-103489466D01*
X151170000Y-103489466D02*
X151170000Y-107705000D01*
X184460000Y-34595000D02*
X164810000Y-34595000D01*
X155710000Y-34305000D02*
X145220000Y-34305000D01*
X145220000Y-34305000D02*
X144170000Y-33255000D01*
X164810000Y-34595000D02*
X164770000Y-34555000D01*
X97620000Y-32555000D02*
X98620000Y-33555000D01*
X55920000Y-47905000D02*
X59070000Y-51055000D01*
X184982701Y-35117701D02*
X184460000Y-34595000D01*
X98620000Y-33555000D02*
X102120000Y-33555000D01*
X162040000Y-27975000D02*
X155710000Y-34305000D01*
X35720000Y-47905000D02*
X55920000Y-47905000D01*
X102120000Y-33555000D02*
X104540000Y-31135000D01*
X104540000Y-31135000D02*
X104610000Y-31065000D01*
X104610000Y-31065000D02*
X109900000Y-31065000D01*
%TO.N,-3V*%
X70420000Y-88955000D02*
X70670000Y-88955000D01*
X75870000Y-47555000D02*
X73870000Y-47555000D01*
X73870000Y-47555000D02*
X73020000Y-46705000D01*
X73020000Y-46705000D02*
X60920000Y-46705000D01*
X72314560Y-118635038D02*
X72770000Y-118179598D01*
X78020000Y-52155000D02*
X78020000Y-49705000D01*
X72770000Y-113055000D02*
X71370000Y-111655000D01*
X72870000Y-110055000D02*
X71270000Y-111655000D01*
X70420000Y-88955000D02*
X72870000Y-91405000D01*
X72870000Y-96555000D02*
X72870000Y-110055000D01*
X72570000Y-68555000D02*
X72570000Y-74455000D01*
X71170000Y-67155000D02*
X72570000Y-68555000D01*
X72870000Y-91405000D02*
X72870000Y-96555000D01*
X70670000Y-88955000D02*
X72570000Y-87055000D01*
X72570000Y-87055000D02*
X72570000Y-74455000D01*
X60920000Y-46705000D02*
X60120000Y-45905000D01*
X72770000Y-118179598D02*
X72770000Y-113055000D01*
X76570000Y-34755000D02*
X71270000Y-34755000D01*
X71270000Y-34755000D02*
X60120000Y-45905000D01*
X78020000Y-49705000D02*
X75870000Y-47555000D01*
%TO.N,/chn3*%
X84570000Y-47805000D02*
X84570000Y-58505000D01*
X85020000Y-36655000D02*
X85020000Y-47255000D01*
X84420000Y-111605000D02*
X84420000Y-122555000D01*
X84570000Y-69255000D02*
X84570000Y-89955000D01*
X84420000Y-90105000D02*
X84420000Y-100855000D01*
X84520000Y-47755000D02*
X84570000Y-47805000D01*
X113378000Y-122143000D02*
X135702000Y-122143000D01*
X112040000Y-120805000D02*
X113378000Y-122143000D01*
X84670000Y-36305000D02*
X85020000Y-36655000D01*
X135702000Y-122143000D02*
X136790000Y-121055000D01*
X84570000Y-89955000D02*
X84420000Y-90105000D01*
X85020000Y-47255000D02*
X84520000Y-47755000D01*
X84420000Y-100855000D02*
X84420000Y-111605000D01*
X84570000Y-58505000D02*
X84570000Y-69255000D01*
%TO.N,+3.3V*%
X71770000Y-51405000D02*
X71770000Y-49355000D01*
X76280000Y-107935000D02*
X76270000Y-107925000D01*
X39570000Y-36055000D02*
X40370000Y-35255000D01*
X42620000Y-43155000D02*
X47970000Y-43155000D01*
X69860000Y-52255000D02*
X69170000Y-52945000D01*
X75820000Y-68405000D02*
X75820000Y-64592500D01*
X76280000Y-112845000D02*
X76280000Y-107935000D01*
X72920000Y-52255000D02*
X69860000Y-52255000D01*
X69170000Y-52945000D02*
X69170000Y-57942500D01*
X74520000Y-48555000D02*
X75170000Y-49205000D01*
X38370000Y-38855000D02*
X39570000Y-37655000D01*
X70570000Y-83055000D02*
X61770000Y-91855000D01*
X75820000Y-64592500D02*
X74831250Y-63603750D01*
X72620000Y-52255000D02*
X71770000Y-51405000D01*
X71770000Y-49355000D02*
X72570000Y-48555000D01*
X72570000Y-48555000D02*
X74520000Y-48555000D01*
X70570000Y-74455500D02*
X70570000Y-83055000D01*
X40370000Y-35255000D02*
X45370000Y-35255000D01*
X69170000Y-57942500D02*
X74831250Y-63603750D01*
X72920000Y-52255000D02*
X72620000Y-52255000D01*
X39570000Y-37655000D02*
X39570000Y-36055000D01*
%TO.N,/chn1*%
X82720000Y-98305000D02*
X82720000Y-109005000D01*
X82720000Y-87555000D02*
X82720000Y-98305000D01*
X82720000Y-109005000D02*
X82720000Y-119955000D01*
X83250000Y-45075000D02*
X82720000Y-45605000D01*
X82720000Y-45605000D02*
X82720000Y-66105000D01*
X83250000Y-45075000D02*
X83141494Y-45075000D01*
X83141494Y-45075000D02*
X80970000Y-42903506D01*
X82720000Y-66105000D02*
X82720000Y-76855000D01*
X80970000Y-42903506D02*
X80970000Y-40605000D01*
X82720000Y-76855000D02*
X82720000Y-87555000D01*
X80570000Y-39055000D02*
X80570000Y-36355000D01*
%TO.N,nVDD_2*%
X96640000Y-37105000D02*
X107880000Y-37105000D01*
X112565305Y-120305000D02*
X109070000Y-116809695D01*
X65020000Y-80655000D02*
X60470000Y-85205000D01*
X119295000Y-118130000D02*
X119295000Y-120080000D01*
X48570000Y-37745000D02*
X48270000Y-37445000D01*
X63620000Y-40935000D02*
X63000000Y-40935000D01*
X74120000Y-122515000D02*
X73580000Y-123055000D01*
X107880000Y-37105000D02*
X107930000Y-37155000D01*
X89145000Y-35580000D02*
X95115000Y-35580000D01*
X67570000Y-100155000D02*
X63320000Y-104405000D01*
X60470000Y-93055000D02*
X67570000Y-100155000D01*
X121820000Y-115605000D02*
X119295000Y-118130000D01*
X68094500Y-123055000D02*
X65170000Y-125979500D01*
X64834500Y-126315000D02*
X65170000Y-125979500D01*
X48570000Y-37755000D02*
X48670000Y-37855000D01*
X63000000Y-40935000D02*
X59920000Y-37855000D01*
X88470000Y-36255000D02*
X89145000Y-35580000D01*
X119295000Y-120080000D02*
X119070000Y-120305000D01*
X48670000Y-37855000D02*
X51770000Y-37855000D01*
X109070000Y-116355000D02*
X109070000Y-116255000D01*
X60470000Y-85205000D02*
X60470000Y-93055000D01*
X109070000Y-116809695D02*
X109070000Y-116355000D01*
X59920000Y-37855000D02*
X51770000Y-37855000D01*
X63320000Y-126315000D02*
X64834500Y-126315000D01*
X63320000Y-104405000D02*
X63320000Y-126315000D01*
X136420000Y-112205000D02*
X135570000Y-113055000D01*
X119070000Y-120305000D02*
X112565305Y-120305000D01*
X48570000Y-37755000D02*
X48570000Y-37745000D01*
X95115000Y-35580000D02*
X96640000Y-37105000D01*
X124370000Y-113055000D02*
X121820000Y-115605000D01*
X73580000Y-123055000D02*
X68094500Y-123055000D01*
X135570000Y-113055000D02*
X124370000Y-113055000D01*
%TO.N,Net-(R14-Pad2)*%
X39070000Y-40755000D02*
X38070000Y-41755000D01*
X45670000Y-36005000D02*
X50270000Y-31405000D01*
X38070000Y-41755000D02*
X35870000Y-41755000D01*
X43820000Y-36005000D02*
X43870000Y-36005000D01*
X39070000Y-40755000D02*
X43820000Y-36005000D01*
X50270000Y-31405000D02*
X52120000Y-31405000D01*
X43870000Y-36005000D02*
X45670000Y-36005000D01*
%TO.N,/Vref_o*%
X85470000Y-116405000D02*
X87770000Y-118705000D01*
X185370000Y-124755000D02*
X184360000Y-123745000D01*
X87970000Y-32505000D02*
X86170000Y-32505000D01*
X86170000Y-32505000D02*
X85520000Y-33155000D01*
X85470000Y-64805000D02*
X87670000Y-64805000D01*
X138370000Y-133179500D02*
X142044500Y-129505000D01*
X87770000Y-97055000D02*
X85470000Y-97055000D01*
X87920000Y-75555000D02*
X85520000Y-75555000D01*
X74220000Y-39805000D02*
X77070000Y-36955000D01*
X85470000Y-86255000D02*
X87520000Y-86255000D01*
X85470000Y-44005000D02*
X85470000Y-54105000D01*
X85470000Y-86255000D02*
X85470000Y-97055000D01*
X85470000Y-64805000D02*
X85470000Y-75505000D01*
X85470000Y-97055000D02*
X85470000Y-107805000D01*
X86120000Y-34355000D02*
X87970000Y-32505000D01*
X77770000Y-36955000D02*
X80370000Y-34355000D01*
X69920000Y-39805000D02*
X74220000Y-39805000D01*
X85470000Y-33205000D02*
X85470000Y-44005000D01*
X87670000Y-64805000D02*
X87720000Y-64855000D01*
X85470000Y-54105000D02*
X85470000Y-64805000D01*
X87520000Y-86255000D02*
X87570000Y-86305000D01*
X87820000Y-107855000D02*
X87770000Y-107805000D01*
X85470000Y-107805000D02*
X85470000Y-116405000D01*
X175520000Y-131205000D02*
X175785000Y-131470000D01*
X80370000Y-34355000D02*
X86120000Y-34355000D01*
X142044500Y-129505000D02*
X167170000Y-129505000D01*
X87920000Y-54105000D02*
X85470000Y-54105000D01*
X85470000Y-75505000D02*
X85470000Y-86255000D01*
X167170000Y-129505000D02*
X168870000Y-131205000D01*
X182055000Y-131470000D02*
X185370000Y-128155000D01*
X87770000Y-107805000D02*
X85470000Y-107805000D01*
X168870000Y-131205000D02*
X175520000Y-131205000D01*
X85520000Y-75555000D02*
X85470000Y-75505000D01*
X185370000Y-128155000D02*
X185370000Y-124755000D01*
X77070000Y-36955000D02*
X77770000Y-36955000D01*
X85520000Y-33155000D02*
X85470000Y-33205000D01*
X175785000Y-131470000D02*
X182055000Y-131470000D01*
X184360000Y-123745000D02*
X183112800Y-123745000D01*
%TO.N,/WE2*%
X66220000Y-68555000D02*
X66270000Y-68555000D01*
X66270000Y-68555000D02*
X70420000Y-72705000D01*
%TO.N,/WE3*%
X80060000Y-71095000D02*
X75450000Y-75705000D01*
X80060000Y-68645000D02*
X80060000Y-71095000D01*
%TO.N,/chn4*%
X88150000Y-86750305D02*
X88150000Y-92559695D01*
X88595000Y-82270000D02*
X88595000Y-86305305D01*
X88745000Y-37630000D02*
X88745000Y-49030000D01*
X88745000Y-59730000D02*
X88745000Y-62505305D01*
X88540000Y-51960305D02*
X88540000Y-53699695D01*
X88210000Y-76290305D02*
X88210000Y-80695000D01*
X88645000Y-71450000D02*
X88645000Y-75855305D01*
X87895000Y-59730000D02*
X88745000Y-59730000D01*
X88745000Y-123804500D02*
X88745500Y-123805000D01*
X88500000Y-70235000D02*
X88745000Y-70480000D01*
X87870000Y-59755000D02*
X87895000Y-59730000D01*
X88745000Y-93154695D02*
X88745000Y-102130000D01*
X88645000Y-75855305D02*
X88210000Y-76290305D01*
X87895000Y-49030000D02*
X88745000Y-49030000D01*
X87795000Y-81230000D02*
X88745000Y-81230000D01*
X88210000Y-80695000D02*
X88745000Y-81230000D01*
X88720000Y-102105000D02*
X88745000Y-102130000D01*
X88150000Y-92559695D02*
X88745000Y-93154695D01*
X88745000Y-53904695D02*
X88745000Y-59730000D01*
X87870000Y-49055000D02*
X87895000Y-49030000D01*
X87920000Y-70505000D02*
X87945000Y-70480000D01*
X87945000Y-70480000D02*
X88745000Y-70480000D01*
X88745000Y-102130000D02*
X88745000Y-112880000D01*
X87795000Y-112880000D02*
X88745000Y-112880000D01*
X88500000Y-62750305D02*
X88500000Y-70235000D01*
X88540000Y-53699695D02*
X88745000Y-53904695D01*
X88745000Y-51755305D02*
X88540000Y-51960305D01*
X88745000Y-81230000D02*
X88150000Y-81825000D01*
X87770000Y-102105000D02*
X88720000Y-102105000D01*
X88745000Y-49030000D02*
X88745000Y-51755305D01*
X88745000Y-112880000D02*
X88745000Y-123804500D01*
X88210000Y-71015000D02*
X88645000Y-71450000D01*
X87770000Y-81255000D02*
X87795000Y-81230000D01*
X88595000Y-86305305D02*
X88150000Y-86750305D01*
X88150000Y-81825000D02*
X88595000Y-82270000D01*
X88770000Y-37605000D02*
X88745000Y-37630000D01*
X88745000Y-70480000D02*
X88210000Y-71015000D01*
X88745000Y-62505305D02*
X88500000Y-62750305D01*
X87770000Y-112905000D02*
X87795000Y-112880000D01*
%TO.N,/chn6*%
X187970000Y-92055000D02*
X188470000Y-92555000D01*
X130120000Y-88655000D02*
X155620000Y-88655000D01*
X175870000Y-90605000D02*
X176370000Y-90605000D01*
X161320000Y-86605000D02*
X161320000Y-89005000D01*
X156270000Y-86455000D02*
X156820000Y-85905000D01*
X188470000Y-92555000D02*
X188470000Y-105505000D01*
X161570000Y-89255000D02*
X162720000Y-89255000D01*
X155620000Y-88655000D02*
X156270000Y-88005000D01*
X156270000Y-88005000D02*
X156270000Y-86455000D01*
X188470000Y-105505000D02*
X185470000Y-108505000D01*
X156820000Y-85905000D02*
X160620000Y-85905000D01*
X160620000Y-85905000D02*
X161320000Y-86605000D01*
X177820000Y-92055000D02*
X187970000Y-92055000D01*
X185470000Y-108505000D02*
X183112800Y-108505000D01*
X161320000Y-89005000D02*
X161570000Y-89255000D01*
X176370000Y-90605000D02*
X177820000Y-92055000D01*
%TO.N,/chn7*%
X125923500Y-114127000D02*
X131142000Y-114127000D01*
X133620000Y-116605000D02*
X164520000Y-116605000D01*
X123645500Y-116405000D02*
X125923500Y-114127000D01*
X175470000Y-113855000D02*
X175470000Y-108555000D01*
X164520000Y-116605000D02*
X165520000Y-115605000D01*
X165520000Y-115605000D02*
X173720000Y-115605000D01*
X131142000Y-114127000D02*
X133620000Y-116605000D01*
X173720000Y-115605000D02*
X175470000Y-113855000D01*
%TO.N,/A_NCS*%
X89670000Y-52830000D02*
X89620000Y-52880000D01*
X89570000Y-88830000D02*
X89470000Y-88930000D01*
X89520000Y-100930000D02*
X89470000Y-100880000D01*
X141420000Y-39105000D02*
X146520000Y-44205000D01*
X89620000Y-64830000D02*
X89570000Y-64880000D01*
X89520000Y-112880000D02*
X89520000Y-100930000D01*
X89570000Y-64880000D02*
X89570000Y-76930000D01*
X143170000Y-31805000D02*
X141420000Y-33555000D01*
X150620000Y-33505000D02*
X146870000Y-33505000D01*
X89670000Y-40155000D02*
X89670000Y-52830000D01*
X89470000Y-100880000D02*
X89470000Y-88930000D01*
X146570000Y-27879500D02*
X150620000Y-31929500D01*
X89620000Y-52880000D02*
X89620000Y-64830000D01*
X89470000Y-112930000D02*
X89520000Y-112880000D01*
X89570000Y-76930000D02*
X89570000Y-88830000D01*
X89470000Y-124525000D02*
X89470000Y-112930000D01*
X89030000Y-124965000D02*
X89470000Y-124525000D01*
X141420000Y-33555000D02*
X141420000Y-39105000D01*
X150620000Y-31929500D02*
X150620000Y-33505000D01*
X146870000Y-33505000D02*
X145170000Y-31805000D01*
X145170000Y-31805000D02*
X143170000Y-31805000D01*
%TO.N,/A_SDO1*%
X109590000Y-40465000D02*
X110330000Y-41205000D01*
X94350000Y-37555000D02*
X106720000Y-37555000D01*
X109590000Y-40425000D02*
X109590000Y-40465000D01*
X106720000Y-37555000D02*
X109590000Y-40425000D01*
X110330000Y-41205000D02*
X110330000Y-70755000D01*
%TO.N,/A_SCK*%
X92620000Y-109105000D02*
X92570000Y-109055000D01*
X93820000Y-109105000D02*
X92620000Y-109105000D01*
X92570000Y-61055000D02*
X92570000Y-73105000D01*
X92570000Y-49055000D02*
X94020000Y-49055000D01*
X92620000Y-85055000D02*
X92570000Y-85005000D01*
X92570000Y-49055000D02*
X92570000Y-61055000D01*
X94070000Y-73005000D02*
X92670000Y-73005000D01*
X92670000Y-73005000D02*
X92570000Y-73105000D01*
X93719695Y-36830000D02*
X92570000Y-37979695D01*
X94177701Y-36377299D02*
X93725000Y-36830000D01*
X92570000Y-73105000D02*
X92570000Y-85005000D01*
X93870000Y-97005000D02*
X92620000Y-97005000D01*
X92570000Y-97055000D02*
X92570000Y-109055000D01*
X94510000Y-61055000D02*
X92570000Y-61055000D01*
X92620000Y-97005000D02*
X92570000Y-97055000D01*
X92570000Y-120075000D02*
X92570000Y-109055000D01*
X92570000Y-37979695D02*
X92570000Y-49055000D01*
X129061133Y-104115000D02*
X126450000Y-104115000D01*
X137250000Y-95926133D02*
X129061133Y-104115000D01*
X92570000Y-85005000D02*
X92570000Y-97055000D01*
X93740000Y-121245000D02*
X92570000Y-120075000D01*
X93920000Y-85055000D02*
X92620000Y-85055000D01*
X93725000Y-36830000D02*
X93719695Y-36830000D01*
%TO.N,/V_ref*%
X114970000Y-29955000D02*
X114970000Y-67356066D01*
X147070000Y-81855000D02*
X148610000Y-83395000D01*
X120765000Y-73250000D02*
X129370000Y-81855000D01*
X107000000Y-73250000D02*
X120765000Y-73250000D01*
X148610000Y-83395000D02*
X148610000Y-85802800D01*
X114070000Y-29055000D02*
X114970000Y-29955000D01*
X107000000Y-71875000D02*
X107000000Y-73250000D01*
X110846066Y-71480000D02*
X107395000Y-71480000D01*
X129370000Y-81855000D02*
X147070000Y-81855000D01*
X114970000Y-67356066D02*
X110846066Y-71480000D01*
X107395000Y-71480000D02*
X107000000Y-71875000D01*
X148610000Y-85802800D02*
X149950000Y-87142800D01*
%TO.N,/CV_ref*%
X107930000Y-76295000D02*
X110110000Y-74115000D01*
X137090000Y-125325000D02*
X150350000Y-125325000D01*
X131230000Y-123935000D02*
X134590000Y-127295000D01*
X102360000Y-72915000D02*
X102360000Y-74785000D01*
X153410000Y-128385000D02*
X159390000Y-128385000D01*
X102360000Y-74785000D02*
X103870000Y-76295000D01*
X118300000Y-74115000D02*
X119500000Y-74115000D01*
X125010000Y-108925000D02*
X123820000Y-110115000D01*
X109560000Y-54245000D02*
X109560000Y-65715000D01*
X119500000Y-74115000D02*
X126030000Y-80645000D01*
X123890000Y-96575000D02*
X124200000Y-96885000D01*
X109560000Y-65715000D02*
X102360000Y-72915000D01*
X125010000Y-97695000D02*
X125010000Y-108925000D01*
X164950000Y-122825000D02*
X164950000Y-121750000D01*
X110110000Y-74115000D02*
X118300000Y-74115000D01*
X124200000Y-96885000D02*
X125010000Y-97695000D01*
X135120000Y-127295000D02*
X137090000Y-125325000D01*
X123890000Y-93675000D02*
X123890000Y-96575000D01*
X123720000Y-126145000D02*
X125930000Y-123935000D01*
X159390000Y-128385000D02*
X164950000Y-122825000D01*
X150350000Y-125325000D02*
X153410000Y-128385000D01*
X134590000Y-127295000D02*
X135120000Y-127295000D01*
X125930000Y-123935000D02*
X131230000Y-123935000D01*
X126030000Y-91535000D02*
X123890000Y-93675000D01*
X103870000Y-76295000D02*
X107930000Y-76295000D01*
X126030000Y-80645000D02*
X126030000Y-91535000D01*
%TO.N,/WE5*%
X176390000Y-106935000D02*
X176390000Y-101325000D01*
X174970000Y-107605000D02*
X175720000Y-107605000D01*
X168974155Y-100505000D02*
X168384101Y-99914946D01*
X76370000Y-101005000D02*
X76370000Y-97855000D01*
X131592000Y-113677000D02*
X134070000Y-116155000D01*
X174970000Y-113718604D02*
X174970000Y-109705000D01*
X165170000Y-115155000D02*
X173533604Y-115155000D01*
X175570000Y-100505000D02*
X168974155Y-100505000D01*
X164170000Y-116155000D02*
X165170000Y-115155000D01*
X122620000Y-116505000D02*
X122620000Y-115679695D01*
X124622695Y-113677000D02*
X131592000Y-113677000D01*
X79170000Y-103805000D02*
X76370000Y-101005000D01*
X175720000Y-107605000D02*
X176390000Y-106935000D01*
X173533604Y-115155000D02*
X174970000Y-113718604D01*
X134070000Y-116155000D02*
X164170000Y-116155000D01*
X122620000Y-115679695D02*
X124622695Y-113677000D01*
X176390000Y-101325000D02*
X175570000Y-100505000D01*
X174970000Y-109705000D02*
X173920000Y-108655000D01*
X173920000Y-108655000D02*
X174970000Y-107605000D01*
%TO.N,/WE6*%
X189310000Y-92725000D02*
X189310000Y-124855000D01*
X66590000Y-117825000D02*
X66590000Y-113605000D01*
X187310000Y-90725000D02*
X189310000Y-92725000D01*
X189310000Y-124855000D02*
X181810000Y-132355000D01*
X181810000Y-132355000D02*
X173260000Y-132355000D01*
X67120000Y-118355000D02*
X66590000Y-117825000D01*
X183112800Y-90725000D02*
X187310000Y-90725000D01*
%TO.N,/WE7*%
X133258604Y-117230000D02*
X122469695Y-117230000D01*
X164210226Y-117055000D02*
X133433604Y-117055000D01*
X80650000Y-113615000D02*
X79700000Y-113615000D01*
X171034695Y-130745000D02*
X168479000Y-128189305D01*
X121780000Y-119435000D02*
X123020000Y-120675000D01*
X133433604Y-117055000D02*
X133258604Y-117230000D01*
X168479000Y-128189305D02*
X168479000Y-121323774D01*
X122469695Y-117230000D02*
X121780000Y-117919695D01*
X79700000Y-113615000D02*
X72260000Y-121055000D01*
X181750000Y-130745000D02*
X171034695Y-130745000D01*
X121780000Y-117919695D02*
X121780000Y-119435000D01*
X168479000Y-121323774D02*
X164210226Y-117055000D01*
%TO.N,/A_SDO4*%
X123400000Y-64945000D02*
X125105000Y-63240000D01*
X132700000Y-41995000D02*
X132789500Y-41905500D01*
X123400000Y-67905000D02*
X123400000Y-64945000D01*
X135270000Y-37025000D02*
X136680000Y-37025000D01*
X125105000Y-43260000D02*
X126470000Y-41895000D01*
X136680000Y-37025000D02*
X146650000Y-46995000D01*
X132789500Y-39505500D02*
X135270000Y-37025000D01*
X132789500Y-41905500D02*
X132789500Y-39505500D01*
X125105000Y-63240000D02*
X125105000Y-43260000D01*
%TO.N,/A_SDO8*%
X160670000Y-96486133D02*
X160110000Y-95926133D01*
X119302462Y-111255000D02*
X123298299Y-111255000D01*
X104360000Y-119526701D02*
X107095000Y-116791701D01*
X148369695Y-100330000D02*
X159320305Y-100330000D01*
X166370000Y-100955000D02*
X164770000Y-99355000D01*
X116221604Y-111823000D02*
X118734462Y-111823000D01*
X159320305Y-100330000D02*
X160670000Y-98980305D01*
X115853604Y-111455000D02*
X116221604Y-111823000D01*
X118734462Y-111823000D02*
X119302462Y-111255000D01*
X135990000Y-100335000D02*
X136970000Y-99355000D01*
X110207000Y-111818000D02*
X112874462Y-111818000D01*
X112874462Y-111818000D02*
X113237462Y-111455000D01*
X164770000Y-99355000D02*
X164820000Y-99305000D01*
X135990000Y-106255000D02*
X135990000Y-100335000D01*
X129540000Y-111725000D02*
X134660000Y-106605000D01*
X147394695Y-99355000D02*
X148369695Y-100330000D01*
X134660000Y-106605000D02*
X135640000Y-106605000D01*
X123298299Y-111255000D02*
X123768299Y-111725000D01*
X160670000Y-98980305D02*
X160670000Y-96486133D01*
X167920000Y-109175000D02*
X166370000Y-107625000D01*
X135640000Y-106605000D02*
X135990000Y-106255000D01*
X104360000Y-121665000D02*
X104360000Y-119526701D01*
X166370000Y-107625000D02*
X166370000Y-100955000D01*
X107095000Y-114930000D02*
X110207000Y-111818000D01*
X123768299Y-111725000D02*
X129540000Y-111725000D01*
X107095000Y-116791701D02*
X107095000Y-114930000D01*
X136970000Y-99355000D02*
X147394695Y-99355000D01*
X113237462Y-111455000D02*
X115853604Y-111455000D01*
%TO.N,Net-(R11-Pad2)*%
X37970000Y-36179500D02*
X37970000Y-33955000D01*
X38670000Y-36879500D02*
X37970000Y-36179500D01*
%TO.N,/SIN_1*%
X145245000Y-122955000D02*
X146450000Y-121750000D01*
X101670000Y-122955000D02*
X145245000Y-122955000D01*
X50970000Y-94455000D02*
X50970000Y-119255000D01*
X99670000Y-124955000D02*
X101670000Y-122955000D01*
X58970000Y-127255000D02*
X98670000Y-127255000D01*
X50970000Y-119255000D02*
X58970000Y-127255000D01*
X98670000Y-127255000D02*
X99670000Y-126255000D01*
X99670000Y-126255000D02*
X99670000Y-124955000D01*
%TO.N,/SQ_2*%
X28070000Y-124855000D02*
X29970000Y-126755000D01*
X28070000Y-92255000D02*
X28070000Y-124855000D01*
X44270000Y-84655000D02*
X32370000Y-84655000D01*
X133770000Y-132855000D02*
X137670000Y-128955000D01*
X28070000Y-88955000D02*
X28070000Y-92255000D01*
X36070000Y-132855000D02*
X133770000Y-132855000D01*
X32370000Y-84655000D02*
X28070000Y-88955000D01*
X29970000Y-126755000D02*
X36070000Y-132855000D01*
X49370000Y-89755000D02*
X47770000Y-88155000D01*
X47770000Y-88155000D02*
X44270000Y-84655000D01*
X49370000Y-97055000D02*
X49370000Y-89755000D01*
%TO.N,/SQ_1*%
X133744695Y-131855000D02*
X136570000Y-129029695D01*
X36570000Y-131855000D02*
X133744695Y-131855000D01*
X32470000Y-85955000D02*
X28870000Y-89555000D01*
X47870000Y-98755000D02*
X47870000Y-89555000D01*
X136570000Y-127355000D02*
X137570000Y-126355000D01*
X137570000Y-126355000D02*
X137670000Y-126355000D01*
X47870000Y-89555000D02*
X44270000Y-85955000D01*
X47870000Y-99055000D02*
X47870000Y-98755000D01*
X44270000Y-85955000D02*
X32470000Y-85955000D01*
X48370000Y-99555000D02*
X47870000Y-99055000D01*
X28870000Y-124155000D02*
X36570000Y-131855000D01*
X136570000Y-129029695D02*
X136570000Y-127355000D01*
X28870000Y-89555000D02*
X28870000Y-124155000D01*
%TO.N,/D_3*%
X139775000Y-44830000D02*
X134095805Y-44830000D01*
X130018000Y-42216604D02*
X127503198Y-39701802D01*
X120645000Y-39720000D02*
X120645000Y-54404695D01*
X132576000Y-45683000D02*
X130018000Y-43125000D01*
X125180000Y-38265000D02*
X124620305Y-37705305D01*
X133242805Y-45683000D02*
X132576000Y-45683000D01*
X124620305Y-37045305D02*
X123970000Y-36395000D01*
X124620305Y-37705305D02*
X124620305Y-37045305D01*
X127503198Y-39701802D02*
X126066396Y-38265000D01*
X126066396Y-38265000D02*
X125180000Y-38265000D01*
X120645000Y-54404695D02*
X117220000Y-57829695D01*
X134095805Y-44830000D02*
X133242805Y-45683000D01*
X130018000Y-43125000D02*
X130018000Y-42216604D01*
X140092701Y-44512299D02*
X139775000Y-44830000D01*
X117220000Y-57829695D02*
X117220000Y-59735000D01*
X123970000Y-36395000D02*
X120645000Y-39720000D01*
%TO.N,/D_2*%
X131488650Y-75298150D02*
X126370000Y-70179500D01*
X130270000Y-55355000D02*
X133894500Y-55355000D01*
X132026850Y-75298150D02*
X131488650Y-75298150D01*
X126370000Y-59255000D02*
X130270000Y-55355000D01*
X126370000Y-70179500D02*
X126370000Y-59255000D01*
%TO.N,/D_1*%
X35420000Y-109735000D02*
X33190000Y-109735000D01*
X32370000Y-116655000D02*
X44970000Y-129255000D01*
X33190000Y-109735000D02*
X32370000Y-110555000D01*
X44970000Y-129255000D02*
X45695000Y-129980000D01*
X132345000Y-129980000D02*
X133270000Y-129055000D01*
X45695000Y-129980000D02*
X132345000Y-129980000D01*
X32370000Y-110555000D02*
X32370000Y-116655000D01*
%TO.N,Net-(R28-Pad2)*%
X79070000Y-100995000D02*
X79080000Y-101005000D01*
X79070000Y-97165000D02*
X79070000Y-100995000D01*
%TO.N,/D_0*%
X46966433Y-127755000D02*
X134370000Y-127755000D01*
X35420000Y-112275000D02*
X33950000Y-112275000D01*
X143671133Y-92045000D02*
X142330000Y-93386133D01*
X145950000Y-92045000D02*
X143671133Y-92045000D01*
X33370000Y-112855000D02*
X33370000Y-114158567D01*
X33950000Y-112275000D02*
X33370000Y-112855000D01*
X134370000Y-127755000D02*
X135470000Y-128855000D01*
X33370000Y-114158567D02*
X46966433Y-127755000D01*
%TO.N,/FT_SCK*%
X159295305Y-79005000D02*
X157444695Y-79005000D01*
X150055000Y-78765305D02*
X150294695Y-79005000D01*
X131132701Y-70017701D02*
X131132701Y-60640299D01*
X134670000Y-57103000D02*
X134670000Y-52255000D01*
X157095000Y-78655305D02*
X157095000Y-73654695D01*
X157444695Y-79005000D02*
X157095000Y-78655305D01*
X154989695Y-73230000D02*
X150055000Y-78164695D01*
X160045000Y-78255305D02*
X159295305Y-79005000D01*
X171394598Y-76705000D02*
X160994695Y-76705000D01*
X172557299Y-77867701D02*
X171394598Y-76705000D01*
X160045000Y-77654695D02*
X160045000Y-78255305D01*
X131132701Y-60640299D02*
X134670000Y-57103000D01*
X135058299Y-79005000D02*
X133820000Y-77766701D01*
X133820000Y-77766701D02*
X133820000Y-72705000D01*
X150294695Y-79005000D02*
X135058299Y-79005000D01*
X160994695Y-76705000D02*
X160045000Y-77654695D01*
X157095000Y-73654695D02*
X156670305Y-73230000D01*
X133820000Y-72705000D02*
X131132701Y-70017701D01*
X156670305Y-73230000D02*
X154989695Y-73230000D01*
X150055000Y-78164695D02*
X150055000Y-78765305D01*
%TO.N,Net-(SW2-Pad1)*%
X39370000Y-41905000D02*
X40406396Y-41905000D01*
X98760000Y-30155000D02*
X80020000Y-30155000D01*
X50156396Y-32155000D02*
X53070000Y-32155000D01*
X78020000Y-32155000D02*
X53070000Y-32155000D01*
X80020000Y-30155000D02*
X78020000Y-32155000D01*
X99080000Y-30475000D02*
X98760000Y-30155000D01*
X40406396Y-41905000D02*
X48313198Y-33998198D01*
X48313198Y-33998198D02*
X50156396Y-32155000D01*
%TO.N,/F_RST_I*%
X136145000Y-78180000D02*
X136870000Y-77455000D01*
X136370000Y-59755000D02*
X134270000Y-61855000D01*
X136370000Y-59155000D02*
X136370000Y-59755000D01*
X134270000Y-61855000D02*
X134270000Y-77580305D01*
X134869695Y-78180000D02*
X136145000Y-78180000D01*
X134270000Y-77580305D02*
X134869695Y-78180000D01*
%TO.N,/F_RST_O*%
X148720000Y-103399466D02*
X148720000Y-107535000D01*
X167267208Y-60225000D02*
X164290000Y-60225000D01*
X148720000Y-107535000D02*
X148830000Y-107645000D01*
X172307208Y-65265000D02*
X167267208Y-60225000D01*
X182630000Y-65265000D02*
X172307208Y-65265000D01*
X158260000Y-66635000D02*
X158470000Y-66845000D01*
X158260000Y-66255000D02*
X158260000Y-66635000D01*
X149950000Y-102169466D02*
X148720000Y-103399466D01*
X164290000Y-60225000D02*
X158260000Y-66255000D01*
%TO.N,/FT_SDI*%
X124560000Y-99183299D02*
X124560000Y-108265000D01*
X119669598Y-98130000D02*
X123506701Y-98130000D01*
X123506701Y-98130000D02*
X124560000Y-99183299D01*
X122820000Y-110005000D02*
X121320000Y-110005000D01*
X112166515Y-90626917D02*
X119669598Y-98130000D01*
X124560000Y-108265000D02*
X122820000Y-110005000D01*
%TO.N,/JTAG_TCK*%
X146838787Y-34755000D02*
X156194695Y-34755000D01*
X162244695Y-28705000D02*
X164020000Y-28705000D01*
X165970000Y-26755000D02*
X186420000Y-26755000D01*
X142382299Y-39042701D02*
X142551086Y-39042701D01*
X186420000Y-26755000D02*
X195920000Y-36255000D01*
X195920000Y-36255000D02*
X195920000Y-104205000D01*
X156194695Y-34755000D02*
X162244695Y-28705000D01*
X142551086Y-39042701D02*
X146838787Y-34755000D01*
X164020000Y-28705000D02*
X165970000Y-26755000D01*
X195920000Y-104205000D02*
X192470000Y-107655000D01*
%TO.N,/JTAG_TMS*%
X168520000Y-28455000D02*
X184420000Y-28455000D01*
X153520000Y-121105000D02*
X153570000Y-121055000D01*
X147870000Y-37605000D02*
X156370000Y-37605000D01*
X153570000Y-121055000D02*
X153570000Y-118355000D01*
X146270000Y-39205000D02*
X147870000Y-37605000D01*
X156370000Y-37605000D02*
X164070000Y-29905000D01*
X146270000Y-40205000D02*
X146270000Y-39205000D01*
X153570000Y-118355000D02*
X153570000Y-117955000D01*
X164070000Y-29905000D02*
X167070000Y-29905000D01*
X167070000Y-29905000D02*
X168520000Y-28455000D01*
X184420000Y-28455000D02*
X184870000Y-28905000D01*
%TO.N,/JTAG_TDO*%
X143813251Y-72248251D02*
X143077964Y-72248251D01*
X144220000Y-91105000D02*
X146576315Y-91105000D01*
X143077964Y-72248251D02*
X142548999Y-71719286D01*
X146576315Y-91105000D02*
X148670000Y-93198685D01*
X141520500Y-61855305D02*
X142970500Y-60405305D01*
X142519695Y-45630000D02*
X142095000Y-45205305D01*
X142095000Y-45205305D02*
X142095000Y-44010000D01*
X140670000Y-42585000D02*
X140670000Y-42405000D01*
X142970500Y-60405305D02*
X142970500Y-45630000D01*
X141690000Y-70112215D02*
X141690000Y-65474805D01*
X142548999Y-70971214D02*
X141690000Y-70112215D01*
X142970500Y-45630000D02*
X142519695Y-45630000D01*
X141690000Y-65474805D02*
X141520500Y-65305305D01*
X148670000Y-93198685D02*
X148670000Y-99605000D01*
X142548999Y-71719286D02*
X142548999Y-70971214D01*
X142095000Y-44010000D02*
X140670000Y-42585000D01*
X148520000Y-76955000D02*
X143813251Y-72248251D01*
X148520000Y-77079500D02*
X148520000Y-76955000D01*
X141520500Y-65305305D02*
X141520500Y-61855305D01*
%TO.N,/JTAG_TDI*%
X152110456Y-121955000D02*
X152270000Y-121955000D01*
X152270000Y-121955000D02*
X154570000Y-121955000D01*
X149070000Y-118914544D02*
X152110456Y-121955000D01*
X154570000Y-121955000D02*
X154720000Y-121805000D01*
X149070000Y-118299500D02*
X149070000Y-118914544D01*
X154720000Y-121805000D02*
X154720000Y-118055000D01*
%TO.N,/D_7*%
X149683604Y-60305000D02*
X152056201Y-60305000D01*
X148410000Y-52344903D02*
X150860000Y-54794903D01*
X150860000Y-54794903D02*
X150860000Y-55905000D01*
X152056201Y-60305000D02*
X155705896Y-56655305D01*
X156169695Y-57080000D02*
X157595000Y-57080000D01*
X155705896Y-56655305D02*
X155745000Y-56655305D01*
X149320500Y-59941896D02*
X149683604Y-60305000D01*
X155745000Y-56655305D02*
X156169695Y-57080000D01*
X149320500Y-56380805D02*
X149320500Y-59941896D01*
X157595000Y-57080000D02*
X158320353Y-56354647D01*
X149319695Y-56380000D02*
X149320500Y-56380805D01*
X148410000Y-50054500D02*
X148410000Y-52344903D01*
X150860000Y-55905000D02*
X150385000Y-56380000D01*
X150385000Y-56380000D02*
X149319695Y-56380000D01*
%TO.N,/D_6*%
X167730000Y-97915000D02*
X167730000Y-95926133D01*
X176370000Y-100055000D02*
X169870000Y-100055000D01*
X169870000Y-100055000D02*
X167730000Y-97915000D01*
X177270000Y-100955000D02*
X176370000Y-100055000D01*
%TO.N,/D_5*%
X172640000Y-99605000D02*
X170270000Y-97235000D01*
X176840000Y-102410305D02*
X177995000Y-101255305D01*
X177995000Y-101255305D02*
X177995000Y-100180000D01*
X177995000Y-100180000D02*
X177420000Y-99605000D01*
X177420000Y-99605000D02*
X172640000Y-99605000D01*
X176840000Y-105261396D02*
X176840000Y-102410305D01*
X170770000Y-129455000D02*
X177770000Y-122455000D01*
X175760000Y-129985000D02*
X171300000Y-129985000D01*
X177770000Y-106191396D02*
X176840000Y-105261396D01*
X170270000Y-97235000D02*
X170270000Y-95926133D01*
X177770000Y-122455000D02*
X177770000Y-106191396D01*
X171300000Y-129985000D02*
X170770000Y-129455000D01*
%TO.N,/D_4*%
X97270000Y-123355000D02*
X97270000Y-123941396D01*
X94965305Y-124205000D02*
X93190805Y-125979500D01*
X97270000Y-123941396D02*
X97006396Y-124205000D01*
X104570000Y-116055000D02*
X97270000Y-123355000D01*
X104570000Y-114855000D02*
X104570000Y-116055000D01*
X97006396Y-124205000D02*
X94965305Y-124205000D01*
X93190805Y-125979500D02*
X66870000Y-125979500D01*
%TO.N,/B21*%
X161870000Y-51605000D02*
X161870000Y-59505000D01*
X167730000Y-78515000D02*
X167270000Y-78055000D01*
X161870000Y-59505000D02*
X155020000Y-66355000D01*
X167730000Y-84602800D02*
X167730000Y-78515000D01*
X148947609Y-66116397D02*
X149186212Y-66355000D01*
X149186212Y-66355000D02*
X155020000Y-66355000D01*
%TO.N,/B22*%
X159970000Y-53395000D02*
X159970000Y-56754999D01*
X151935000Y-63480000D02*
X153985048Y-61429952D01*
X153985048Y-61429952D02*
X155295047Y-61429952D01*
X159990000Y-53375000D02*
X159970000Y-53395000D01*
X147420000Y-67005500D02*
X147420000Y-66605000D01*
X149152802Y-65146893D02*
X150819695Y-63480000D01*
X147420000Y-66605000D02*
X148878107Y-65146893D01*
X172810000Y-80419500D02*
X170270000Y-77879500D01*
X159970000Y-56754999D02*
X155295047Y-61429952D01*
X150819695Y-63480000D02*
X151935000Y-63480000D01*
X148878107Y-65146893D02*
X149152802Y-65146893D01*
X172810000Y-84602800D02*
X172810000Y-80419500D01*
%TO.N,/A21*%
X147495305Y-70255000D02*
X147370305Y-70380000D01*
X178795305Y-70255000D02*
X147495305Y-70255000D01*
X165320000Y-51680305D02*
X165320000Y-57641396D01*
X165320000Y-57641396D02*
X171783604Y-64105000D01*
X160695000Y-47055305D02*
X165320000Y-51680305D01*
X180871805Y-72331500D02*
X178795305Y-70255000D01*
X147370305Y-70380000D02*
X146769695Y-70380000D01*
X188516300Y-72331500D02*
X180871805Y-72331500D01*
X159058604Y-41230000D02*
X160695000Y-42866396D01*
X160695000Y-42866396D02*
X160695000Y-47055305D01*
X190032800Y-70815000D02*
X188516300Y-72331500D01*
X146794695Y-68905000D02*
X149220000Y-68905000D01*
X155444500Y-41230000D02*
X159058604Y-41230000D01*
X146320000Y-69379695D02*
X146794695Y-68905000D01*
X171783604Y-64105000D02*
X184970000Y-64105000D01*
X146769695Y-70380000D02*
X146320000Y-69930305D01*
X155170000Y-41504500D02*
X155444500Y-41230000D01*
X146320000Y-69930305D02*
X146320000Y-69379695D01*
%TO.N,/FT_NCS*%
X161070000Y-92105000D02*
X151231133Y-92105000D01*
X151231133Y-92105000D02*
X149950000Y-93386133D01*
X167858581Y-94705000D02*
X162120000Y-94705000D01*
X161470000Y-92505000D02*
X161070000Y-92105000D01*
X161470000Y-94055000D02*
X161470000Y-92505000D01*
X176070000Y-85505000D02*
X168753500Y-92821500D01*
X168753500Y-92821500D02*
X168753500Y-93810081D01*
X168753500Y-93810081D02*
X167858581Y-94705000D01*
X162120000Y-94705000D02*
X161470000Y-94055000D01*
%TO.N,/FQ_UD*%
X108660000Y-96255000D02*
X108660000Y-99245000D01*
X108250000Y-91315000D02*
X108250000Y-95845000D01*
X108250000Y-95845000D02*
X108660000Y-96255000D01*
%TO.N,/D8*%
X177570000Y-53055000D02*
X180670000Y-53055000D01*
X184345000Y-49380000D02*
X184345000Y-48562800D01*
X180670000Y-53055000D02*
X184345000Y-49380000D01*
X184345000Y-48562800D02*
X187492800Y-45415000D01*
%TO.N,/C10*%
X187492800Y-42875000D02*
X186794300Y-43573500D01*
X186794300Y-43573500D02*
X182151500Y-43573500D01*
X182151500Y-43573500D02*
X177770000Y-47955000D01*
%TO.N,/J22*%
X190032800Y-63195000D02*
X188516300Y-64711500D01*
X188516300Y-64711500D02*
X186813500Y-64711500D01*
X186813500Y-64711500D02*
X186570000Y-64955000D01*
X181870000Y-69655000D02*
X147070000Y-69655000D01*
X186570000Y-64955000D02*
X181870000Y-69655000D01*
%TO.N,/J20*%
X142970000Y-69375000D02*
X144950000Y-71355000D01*
X142970500Y-64274500D02*
X146070000Y-61175000D01*
X164080000Y-64695000D02*
X160230000Y-68545000D01*
X145440000Y-56025000D02*
X146055000Y-55410000D01*
X146070000Y-61175000D02*
X146070000Y-59805000D01*
X142970500Y-66635498D02*
X142970500Y-64274500D01*
X144950000Y-71355000D02*
X145920000Y-71355000D01*
X142970000Y-66535000D02*
X142970000Y-69375000D01*
X146055000Y-49644598D02*
X147757299Y-47942299D01*
X160230000Y-68545000D02*
X149885305Y-68545000D01*
X146070000Y-59805000D02*
X145440000Y-59175000D01*
X165100000Y-64695000D02*
X164080000Y-64695000D01*
X145440000Y-59175000D02*
X145440000Y-56025000D01*
X149520305Y-68180000D02*
X144515002Y-68180000D01*
X144515002Y-68180000D02*
X142970500Y-66635498D01*
X149885305Y-68545000D02*
X149520305Y-68180000D01*
X146055000Y-55410000D02*
X146055000Y-49644598D01*
%TO.N,/C22*%
X140320000Y-71705000D02*
X142570000Y-73955000D01*
X116472000Y-68783066D02*
X118268934Y-70580000D01*
X124609104Y-69055000D02*
X132109104Y-76555000D01*
X132770000Y-76555000D02*
X132770000Y-73455000D01*
X125970000Y-34405000D02*
X124420000Y-32855000D01*
X132109104Y-76555000D02*
X132770000Y-76555000D01*
X119408000Y-43693000D02*
X119408000Y-53462000D01*
X140320000Y-68329500D02*
X140320000Y-71705000D01*
X132770000Y-73455000D02*
X132420000Y-73105000D01*
X118268934Y-70580000D02*
X120120305Y-70580000D01*
X118820000Y-43105000D02*
X119408000Y-43693000D01*
X138020000Y-34405000D02*
X125970000Y-34405000D01*
X116472000Y-56398000D02*
X116472000Y-68783066D01*
X121645305Y-69055000D02*
X124609104Y-69055000D01*
X120120305Y-70580000D02*
X121645305Y-69055000D01*
X140944500Y-67705000D02*
X140320000Y-68329500D01*
X119408000Y-53462000D02*
X116472000Y-56398000D01*
%TO.N,/C20*%
X165186214Y-70705000D02*
X151120000Y-70705000D01*
X151120000Y-70705000D02*
X148770000Y-73055000D01*
X165833107Y-71351893D02*
X165186214Y-70705000D01*
X170270000Y-79455000D02*
X168770000Y-77955000D01*
X170270000Y-84602800D02*
X170270000Y-79455000D01*
%TO.N,/E22*%
X161420000Y-59305000D02*
X161420000Y-52605000D01*
X155870000Y-64855000D02*
X161420000Y-59305000D01*
X174470000Y-85655000D02*
X174520000Y-85705000D01*
X178320000Y-85355000D02*
X177470000Y-85355000D01*
X175670000Y-80180305D02*
X179070000Y-83580305D01*
X175870000Y-84155000D02*
X175270000Y-84155000D01*
X161420000Y-52605000D02*
X160620000Y-51805000D01*
X177470000Y-85355000D02*
X177070000Y-85355000D01*
X175270000Y-84155000D02*
X174470000Y-84955000D01*
X179070000Y-84605000D02*
X178870000Y-84805000D01*
X151120000Y-64205000D02*
X151770000Y-64855000D01*
X148309805Y-78105000D02*
X148747208Y-78105000D01*
X174470000Y-84955000D02*
X174470000Y-85655000D01*
X162530000Y-71195000D02*
X163590000Y-72255000D01*
X151770000Y-64855000D02*
X155870000Y-64855000D01*
X142080500Y-76565500D02*
X146770305Y-76565500D01*
X146770305Y-76565500D02*
X148309805Y-78105000D01*
X136917149Y-68868101D02*
X136917149Y-71402149D01*
X178870000Y-84805000D02*
X178320000Y-85355000D01*
X163590000Y-72255000D02*
X169320000Y-72255000D01*
X175670000Y-78605000D02*
X175670000Y-80180305D01*
X179070000Y-83580305D02*
X179070000Y-84605000D01*
X148747208Y-78105000D02*
X155657208Y-71195000D01*
X169320000Y-72255000D02*
X175670000Y-78605000D01*
X155657208Y-71195000D02*
X162530000Y-71195000D01*
X136917149Y-71402149D02*
X142080500Y-76565500D01*
X177070000Y-85355000D02*
X175870000Y-84155000D01*
%TO.N,/E20*%
X136070000Y-71204104D02*
X136070000Y-68079904D01*
X136070000Y-68079904D02*
X136099476Y-68050428D01*
X157819500Y-77805000D02*
X157620000Y-77605500D01*
X141881396Y-77015500D02*
X136070000Y-71204104D01*
X148933604Y-78555000D02*
X146709195Y-78555000D01*
X156781701Y-72705000D02*
X154783604Y-72705000D01*
X154783604Y-72705000D02*
X148933604Y-78555000D01*
X145169695Y-77015500D02*
X141881396Y-77015500D01*
X146709195Y-78555000D02*
X145169695Y-77015500D01*
X157620000Y-73543299D02*
X156781701Y-72705000D01*
X157620000Y-77605500D02*
X157620000Y-73543299D01*
%TO.N,/G22*%
X149770500Y-57821024D02*
X149770500Y-59755500D01*
X156770000Y-54954805D02*
X156770000Y-48055000D01*
X139660000Y-72395000D02*
X141970000Y-74705000D01*
X139660000Y-64065000D02*
X139660000Y-72395000D01*
X150495500Y-57096024D02*
X149770500Y-57821024D01*
X149770500Y-59755500D02*
X149870000Y-59855000D01*
X141970000Y-74705000D02*
X144120000Y-74705000D01*
X140090000Y-63635000D02*
X139660000Y-64065000D01*
X151869805Y-59855000D02*
X156770000Y-54954805D01*
X149870000Y-59855000D02*
X151869805Y-59855000D01*
%TO.N,/F22*%
X156045000Y-47484500D02*
X156524500Y-47005000D01*
X162332059Y-91075000D02*
X162948381Y-91691322D01*
X154270000Y-55355000D02*
X156045000Y-53580000D01*
X156045000Y-53580000D02*
X156045000Y-47484500D01*
X152190000Y-91075000D02*
X162332059Y-91075000D01*
%TO.N,/G20*%
X160245000Y-43052792D02*
X158872208Y-41680000D01*
X158872208Y-41680000D02*
X156744000Y-41680000D01*
X156744000Y-41680000D02*
X155470000Y-42954000D01*
X159744695Y-47742006D02*
X160245000Y-47241701D01*
X155220000Y-63855000D02*
X160970000Y-58105000D01*
X160245000Y-47241701D02*
X160245000Y-43052792D01*
X160970000Y-58105000D02*
X160970000Y-53180305D01*
X159744695Y-51955000D02*
X159744695Y-47742006D01*
X160970000Y-53180305D02*
X159744695Y-51955000D01*
%TO.N,/F21*%
X151474896Y-61522701D02*
X154422597Y-58575000D01*
X154422597Y-58575000D02*
X154930000Y-58575000D01*
X151152299Y-61837299D02*
X149082299Y-61837299D01*
X148767701Y-61522701D02*
X151474896Y-61522701D01*
X149082299Y-61837299D02*
X148767701Y-61522701D01*
%TO.N,/K22*%
X150112753Y-51987799D02*
X150112753Y-49412247D01*
X134769500Y-65105500D02*
X134769500Y-70540000D01*
X135600803Y-64810498D02*
X135064502Y-64810498D01*
X150112753Y-49412247D02*
X152820000Y-46705000D01*
X136343263Y-64068038D02*
X135600803Y-64810498D01*
X154270000Y-45379695D02*
X154270000Y-43505000D01*
X134769500Y-70540000D02*
X141970000Y-77740500D01*
X152944695Y-46705000D02*
X154270000Y-45379695D01*
X136343263Y-63927139D02*
X136343263Y-64068038D01*
X135064502Y-64810498D02*
X134769500Y-65105500D01*
X152820000Y-46705000D02*
X152944695Y-46705000D01*
%TO.N,/H22*%
X143420000Y-61955000D02*
X143420000Y-51254293D01*
X143420000Y-51254293D02*
X149419293Y-45255000D01*
X142955912Y-62419088D02*
X143420000Y-61955000D01*
X142443137Y-62419088D02*
X142955912Y-62419088D01*
X149419293Y-45255000D02*
X150620000Y-45255000D01*
%TO.N,/K21*%
X150495500Y-58855000D02*
X153270000Y-56080500D01*
X153270000Y-56080500D02*
X153270000Y-47405000D01*
%TO.N,/H21*%
X147530500Y-49329500D02*
X146505000Y-50355000D01*
X141890000Y-60455000D02*
X141895500Y-60455000D01*
X151732701Y-45392299D02*
X151732701Y-47155903D01*
X146505000Y-53214695D02*
X147505000Y-54214695D01*
X146520000Y-59618604D02*
X146520000Y-60705000D01*
X145900000Y-57068604D02*
X145890000Y-57078604D01*
X146520000Y-60705000D02*
X147070451Y-61255451D01*
X149559104Y-49329500D02*
X147530500Y-49329500D01*
X147505000Y-54815305D02*
X145900000Y-56420305D01*
X135495000Y-66605000D02*
X135740000Y-66605000D01*
X145890000Y-58988604D02*
X146520000Y-59618604D01*
X145890000Y-57078604D02*
X145890000Y-58988604D01*
X146505000Y-50355000D02*
X146505000Y-53214695D01*
X135740000Y-66605000D02*
X141890000Y-60455000D01*
X145900000Y-56420305D02*
X145900000Y-57068604D01*
X147505000Y-54214695D02*
X147505000Y-54815305D01*
X151732701Y-47155903D02*
X149559104Y-49329500D01*
%TO.N,/L19*%
X148520000Y-43055000D02*
X149470000Y-44005000D01*
X146870000Y-43055000D02*
X148520000Y-43055000D01*
%TO.N,/C5*%
X152195000Y-40780000D02*
X159245000Y-40780000D01*
X149020000Y-36855000D02*
X147983604Y-36855000D01*
X150770000Y-42205000D02*
X152195000Y-40780000D01*
X164420000Y-45955000D02*
X164420000Y-46505000D01*
X162970000Y-44505000D02*
X164420000Y-45955000D01*
X146670000Y-42205000D02*
X150770000Y-42205000D01*
X182870000Y-37055000D02*
X182870000Y-37230402D01*
X145120000Y-39718604D02*
X145120000Y-40655000D01*
X145120000Y-40655000D02*
X146670000Y-42205000D01*
X147983604Y-36855000D02*
X145120000Y-39718604D01*
X182870000Y-37230402D02*
X175257701Y-44842701D01*
X159245000Y-40780000D02*
X162970000Y-44505000D01*
%TO.N,/+VCCO1*%
X157570000Y-104709466D02*
X153344466Y-108935000D01*
X153344466Y-108935000D02*
X142400000Y-108935000D01*
X142400000Y-108935000D02*
X141070000Y-107605000D01*
%TO.N,/A_SDI*%
X93710000Y-123915000D02*
X96820000Y-120805000D01*
X96765000Y-38850000D02*
X96820000Y-38905000D01*
X96815000Y-87600000D02*
X96820000Y-87605000D01*
X96820000Y-63605000D02*
X96820000Y-75555000D01*
X93815000Y-111650000D02*
X93820000Y-111655000D01*
X94065000Y-63600000D02*
X96815000Y-63600000D01*
X94020000Y-51605000D02*
X96820000Y-51605000D01*
X139790000Y-95926133D02*
X138766500Y-94902633D01*
X94015000Y-38850000D02*
X96765000Y-38850000D01*
X129328433Y-94902633D02*
X127576066Y-96655000D01*
X127576066Y-96655000D02*
X126094500Y-96655000D01*
X94070000Y-75555000D02*
X96820000Y-75555000D01*
X138766500Y-94902633D02*
X129328433Y-94902633D01*
X96820000Y-75555000D02*
X96820000Y-87605000D01*
X96820000Y-38905000D02*
X96820000Y-51605000D01*
X94015000Y-51600000D02*
X94020000Y-51605000D01*
X96820000Y-51605000D02*
X96820000Y-63605000D01*
X94065000Y-75550000D02*
X94070000Y-75555000D01*
X98119500Y-96205000D02*
X96820000Y-96205000D01*
X93865000Y-99550000D02*
X93870000Y-99555000D01*
X96820000Y-120805000D02*
X96820000Y-111655000D01*
X93820000Y-111655000D02*
X96820000Y-111655000D01*
X96820000Y-87605000D02*
X96820000Y-96205000D01*
X98520000Y-96605500D02*
X98119500Y-96205000D01*
X96815000Y-63600000D02*
X96820000Y-63605000D01*
X96820000Y-99555000D02*
X96820000Y-111655000D01*
X96820000Y-96205000D02*
X96820000Y-99555000D01*
X93870000Y-99555000D02*
X96820000Y-99555000D01*
X93915000Y-87600000D02*
X96815000Y-87600000D01*
%TO.N,/N22*%
X124020000Y-112605000D02*
X125166396Y-112605000D01*
X141070000Y-105455000D02*
X141070000Y-103429466D01*
X125166396Y-112605000D02*
X125416396Y-112355000D01*
X138770000Y-107755000D02*
X141070000Y-105455000D01*
X129770000Y-112355000D02*
X134370000Y-107755000D01*
X141070000Y-103429466D02*
X142330000Y-102169466D01*
X156370000Y-73955000D02*
X156370000Y-78355000D01*
X125416396Y-112355000D02*
X129770000Y-112355000D01*
X134370000Y-107755000D02*
X138770000Y-107755000D01*
X118570000Y-119555000D02*
X118570000Y-118055000D01*
X118570000Y-118055000D02*
X124020000Y-112605000D01*
%TO.N,/A_SDO5*%
X128920000Y-88955000D02*
X128920000Y-87405000D01*
X128920000Y-87405000D02*
X129770000Y-86555000D01*
X129770000Y-86555000D02*
X132800000Y-86555000D01*
X130070000Y-90105000D02*
X128920000Y-88955000D01*
X132800000Y-86555000D02*
X132824500Y-86579500D01*
X147370000Y-90229500D02*
X142020805Y-90229500D01*
X139170000Y-90105000D02*
X130070000Y-90105000D01*
X140370000Y-91305000D02*
X139170000Y-90105000D01*
X142020805Y-90229500D02*
X140945305Y-91305000D01*
X140945305Y-91305000D02*
X140370000Y-91305000D01*
%TO.N,/R20*%
X61045000Y-91554695D02*
X61045000Y-92155305D01*
X81550000Y-112495000D02*
X81550000Y-115005000D01*
X65970000Y-92885000D02*
X66360000Y-93275000D01*
X65870000Y-86729695D02*
X61045000Y-91554695D01*
X80530000Y-93275000D02*
X80530000Y-111475000D01*
X140794440Y-57005500D02*
X140457847Y-57005500D01*
X129568000Y-46115653D02*
X129568000Y-43236604D01*
X129568000Y-43236604D02*
X126086396Y-39755000D01*
X82522299Y-36857299D02*
X82522299Y-43430500D01*
X126086396Y-39755000D02*
X125890000Y-39755000D01*
X125890000Y-39755000D02*
X123915500Y-37780500D01*
X80230000Y-116325000D02*
X79160000Y-116325000D01*
X123915500Y-37780500D02*
X123770000Y-37780500D01*
X61045000Y-92155305D02*
X61774695Y-92885000D01*
X140457847Y-57005500D02*
X129568000Y-46115653D01*
X66160000Y-70815000D02*
X65870000Y-71105000D01*
X80530000Y-111475000D02*
X81550000Y-112495000D01*
X65870000Y-71105000D02*
X65870000Y-86729695D01*
X81550000Y-115005000D02*
X80230000Y-116325000D01*
X80770000Y-35105000D02*
X82522299Y-36857299D01*
X61774695Y-92885000D02*
X65970000Y-92885000D01*
%TO.N,/P21*%
X118359695Y-28680000D02*
X132399695Y-42720000D01*
X106770000Y-27455000D02*
X114370000Y-27455000D01*
X134370000Y-79455000D02*
X162770000Y-79455000D01*
X141645000Y-44196396D02*
X141645000Y-45391701D01*
X117295000Y-71030000D02*
X122070305Y-71030000D01*
X58990000Y-67555000D02*
X63030000Y-71595000D01*
X142370000Y-56255000D02*
X142220000Y-56405000D01*
X163790000Y-80475000D02*
X163790000Y-91986133D01*
X122070305Y-71030000D02*
X122545305Y-70555000D01*
X79310000Y-33630500D02*
X82236000Y-30704500D01*
X132399695Y-42720000D02*
X133000305Y-42720000D01*
X125470000Y-70555000D02*
X134370000Y-79455000D01*
X68100000Y-44985000D02*
X67630000Y-45455000D01*
X97819500Y-30704500D02*
X99770000Y-32655000D01*
X82236000Y-30704500D02*
X97819500Y-30704500D01*
X115595000Y-28680000D02*
X118359695Y-28680000D01*
X115320000Y-28405000D02*
X115595000Y-28680000D01*
X142370000Y-46080000D02*
X142370000Y-56255000D01*
X99770000Y-32655000D02*
X101570000Y-32655000D01*
X142333299Y-46080000D02*
X142370000Y-46080000D01*
X141645000Y-45391701D02*
X142333299Y-46080000D01*
X60470000Y-49585000D02*
X60470000Y-55075000D01*
X139920000Y-42665000D02*
X139920000Y-42680305D01*
X140578604Y-43130000D02*
X141645000Y-44196396D01*
X114370000Y-27455000D02*
X115320000Y-28405000D01*
X115420000Y-28505000D02*
X115420000Y-69155000D01*
X134165305Y-41555000D02*
X138810000Y-41555000D01*
X140369695Y-43130000D02*
X140578604Y-43130000D01*
X115420000Y-69155000D02*
X117295000Y-71030000D01*
X101570000Y-32655000D02*
X106770000Y-27455000D01*
X122545305Y-70555000D02*
X125470000Y-70555000D01*
X115320000Y-28405000D02*
X115420000Y-28505000D01*
X139920000Y-42680305D02*
X140369695Y-43130000D01*
X138810000Y-41555000D02*
X139920000Y-42665000D01*
X60470000Y-55075000D02*
X58990000Y-56555000D01*
X163790000Y-91986133D02*
X165190000Y-93386133D01*
X70650000Y-44985000D02*
X68100000Y-44985000D01*
X133000305Y-42720000D02*
X134165305Y-41555000D01*
X58990000Y-56555000D02*
X58990000Y-67555000D01*
X162770000Y-79455000D02*
X163790000Y-80475000D01*
%TO.N,/K20*%
X145220000Y-98905000D02*
X146070000Y-98055000D01*
X146070000Y-98055000D02*
X146070000Y-94726133D01*
X135520000Y-98905000D02*
X145220000Y-98905000D01*
X146070000Y-94726133D02*
X147410000Y-93386133D01*
X128270000Y-106155000D02*
X135520000Y-98905000D01*
%TO.N,/chn1_r*%
X85029376Y-31155000D02*
X97633604Y-31155000D01*
X113170000Y-72505000D02*
X109370000Y-72505000D01*
X99583604Y-33105000D02*
X101870000Y-33105000D01*
X124920000Y-74505000D02*
X124920000Y-72705000D01*
X151320000Y-83655000D02*
X149020000Y-81355000D01*
X129620000Y-79279695D02*
X129620000Y-77205000D01*
X110320000Y-35905000D02*
X110320000Y-33405000D01*
X114070000Y-71605000D02*
X113170000Y-72505000D01*
X109370000Y-72505000D02*
X109320000Y-72455000D01*
X104370000Y-39430402D02*
X104370000Y-66705000D01*
X110950000Y-30085000D02*
X108740000Y-30085000D01*
X152490000Y-87142800D02*
X151320000Y-85972800D01*
X123820000Y-71605000D02*
X114070000Y-71605000D01*
X149020000Y-81355000D02*
X131695305Y-81355000D01*
X110320000Y-33405000D02*
X111070000Y-32655000D01*
X124920000Y-72705000D02*
X123820000Y-71605000D01*
X108740000Y-30085000D02*
X108520000Y-30305000D01*
X151320000Y-85972800D02*
X151320000Y-83655000D01*
X101870000Y-33105000D02*
X105120000Y-29855000D01*
X103857299Y-38917701D02*
X104370000Y-39430402D01*
X97633604Y-31155000D02*
X99583604Y-33105000D01*
X111070000Y-30205000D02*
X110950000Y-30085000D01*
X126120000Y-75705000D02*
X124920000Y-74505000D01*
X83875992Y-32308384D02*
X85029376Y-31155000D01*
X128120000Y-75705000D02*
X126120000Y-75705000D01*
X105120000Y-29855000D02*
X108070000Y-29855000D01*
X108070000Y-29855000D02*
X108520000Y-30305000D01*
X129620000Y-77205000D02*
X128120000Y-75705000D01*
X111070000Y-32655000D02*
X111070000Y-30205000D01*
X131695305Y-81355000D02*
X129620000Y-79279695D01*
%TO.N,/chn2_r*%
X154675000Y-82460000D02*
X153119500Y-80904500D01*
X153513500Y-85626300D02*
X153513500Y-84246805D01*
X130101802Y-76886607D02*
X130101802Y-75823198D01*
X134119695Y-80904500D02*
X130101802Y-76886607D01*
X153119500Y-80904500D02*
X134119695Y-80904500D01*
X128546305Y-74267701D02*
X127007299Y-74267701D01*
X130101802Y-75823198D02*
X128546305Y-74267701D01*
X155030000Y-87142800D02*
X153513500Y-85626300D01*
X154675000Y-83085305D02*
X154675000Y-82460000D01*
X153513500Y-84246805D02*
X154675000Y-83085305D01*
%TO.N,/chn3_r*%
X81665000Y-62160000D02*
X81665000Y-75120000D01*
X81665000Y-75120000D02*
X80460000Y-76325000D01*
X80040000Y-60535000D02*
X81665000Y-62160000D01*
%TO.N,/chn4_r*%
X153019695Y-90225500D02*
X157027300Y-90225500D01*
X141720000Y-89505000D02*
X152595000Y-89505000D01*
X157027300Y-90225500D02*
X160110000Y-87142800D01*
X152595000Y-89505000D02*
X152595000Y-89800805D01*
X152595000Y-89800805D02*
X153019695Y-90225500D01*
X140670000Y-90555000D02*
X141720000Y-89505000D01*
%TO.N,/chn6_r*%
X154310000Y-31279500D02*
X149535500Y-26505000D01*
X117050305Y-26620000D02*
X116449695Y-26620000D01*
X116334695Y-26505000D02*
X36840000Y-26505000D01*
X154310000Y-31945000D02*
X154310000Y-31279500D01*
X28950000Y-34395000D02*
X28950000Y-81045000D01*
X117165305Y-26505000D02*
X117050305Y-26620000D01*
X36840000Y-26505000D02*
X28950000Y-34395000D01*
X28950000Y-81045000D02*
X31380000Y-83475000D01*
X116449695Y-26620000D02*
X116334695Y-26505000D01*
X149535500Y-26505000D02*
X117165305Y-26505000D01*
%TO.N,/chn7_r*%
X149190000Y-32405000D02*
X143740000Y-26955000D01*
X143740000Y-26955000D02*
X121850000Y-26955000D01*
X116750000Y-25895000D02*
X36813604Y-25895000D01*
X36813604Y-25895000D02*
X28500000Y-34208604D01*
X28500000Y-83025000D02*
X30200000Y-84725000D01*
X121850000Y-26955000D02*
X120850000Y-27955000D01*
X28500000Y-34208604D02*
X28500000Y-83025000D01*
%TO.N,/+1.8V*%
X179170000Y-113205000D02*
X178670000Y-113705000D01*
X186320000Y-112055000D02*
X186306500Y-112068500D01*
X186306500Y-112068500D02*
X180306500Y-112068500D01*
X165190000Y-112275000D02*
X165190000Y-104709466D01*
X165870000Y-112955000D02*
X165190000Y-112275000D01*
X180306500Y-112068500D02*
X179170000Y-113205000D01*
%TO.N,/SYS_CLK5*%
X169815367Y-94409633D02*
X168870000Y-95355000D01*
X171315367Y-92996029D02*
X171315367Y-94409633D01*
X179520000Y-83005000D02*
X179520000Y-84791396D01*
X171315367Y-94409633D02*
X169815367Y-94409633D01*
X180745500Y-81779500D02*
X179520000Y-83005000D01*
X179520000Y-84791396D02*
X171315367Y-92996029D01*
X168870000Y-95355000D02*
X168870000Y-97455000D01*
X181020000Y-81779500D02*
X180745500Y-81779500D01*
%TO.N,/USB_SDA*%
X174920000Y-73305000D02*
X178582299Y-76967299D01*
X190945000Y-84030000D02*
X190945000Y-116430000D01*
X162520000Y-120179500D02*
X160295000Y-117954500D01*
X177795000Y-72455500D02*
X176020000Y-72455500D01*
X176020000Y-72455500D02*
X175769500Y-72455500D01*
X178520000Y-73180500D02*
X177795000Y-72455500D01*
X178582299Y-76967299D02*
X183882299Y-76967299D01*
X190945000Y-116430000D02*
X191720000Y-117205000D01*
X160295000Y-117954500D02*
X156220000Y-117954500D01*
X183882299Y-76967299D02*
X185070000Y-78155000D01*
X175769500Y-72455500D02*
X174920000Y-73305000D01*
X185070000Y-78155000D02*
X190945000Y-84030000D01*
%TO.N,/T19*%
X190032800Y-58115000D02*
X190032800Y-58692200D01*
X174270000Y-59355000D02*
X166770000Y-51855000D01*
X166770000Y-46455000D02*
X170870000Y-42355000D01*
X164520000Y-48405000D02*
X166670000Y-48405000D01*
X166770000Y-47605000D02*
X166770000Y-46455000D01*
X190032800Y-58692200D02*
X189370000Y-59355000D01*
X166770000Y-48305000D02*
X166770000Y-47605000D01*
X189370000Y-59355000D02*
X174270000Y-59355000D01*
X166770000Y-51855000D02*
X166770000Y-47605000D01*
X163870000Y-47755000D02*
X164520000Y-48405000D01*
X166670000Y-48405000D02*
X166770000Y-48305000D01*
%TO.N,/W22*%
X175070000Y-42355000D02*
X173270000Y-40555000D01*
X189009300Y-56598500D02*
X190032800Y-55575000D01*
X182426500Y-56598500D02*
X189009300Y-56598500D01*
X175620000Y-42355000D02*
X173720000Y-42355000D01*
X175620000Y-42355000D02*
X175070000Y-42355000D01*
X173720000Y-42355000D02*
X169845000Y-46230000D01*
X169845000Y-46230000D02*
X169845000Y-48205305D01*
X169370000Y-48630000D02*
X169370000Y-52255000D01*
X181770000Y-57255000D02*
X182426500Y-56598500D01*
X173270000Y-40555000D02*
X166470000Y-40555000D01*
X169845000Y-48205305D02*
X169420305Y-48630000D01*
X169420305Y-48630000D02*
X169370000Y-48630000D01*
X169370000Y-52255000D02*
X174370000Y-57255000D01*
X174370000Y-57255000D02*
X181770000Y-57255000D01*
X166470000Y-40555000D02*
X164070000Y-42955000D01*
%TO.N,/U19*%
X154127522Y-40330000D02*
X159431396Y-40330000D01*
X153386261Y-39588739D02*
X154127522Y-40330000D01*
X159431396Y-40330000D02*
X165920000Y-46818604D01*
X165920000Y-47305000D02*
X165920000Y-47455000D01*
X165920000Y-46818604D02*
X165920000Y-47305000D01*
%TO.N,/P17*%
X177894500Y-48855000D02*
X180270000Y-48855000D01*
X183070000Y-46055000D02*
X185270000Y-46055000D01*
X180270000Y-48855000D02*
X183070000Y-46055000D01*
X176794500Y-49955000D02*
X177894500Y-48855000D01*
%TO.N,/V20*%
X195470000Y-36441396D02*
X195470000Y-43255000D01*
X186233604Y-27205000D02*
X195470000Y-36441396D01*
X166156396Y-27205000D02*
X186233604Y-27205000D01*
X164206396Y-29155000D02*
X166156396Y-27205000D01*
X193310000Y-45415000D02*
X190032800Y-45415000D01*
X162431091Y-29155000D02*
X164206396Y-29155000D01*
X154070000Y-36555000D02*
X152920000Y-35405000D01*
X157983604Y-35355000D02*
X162451802Y-30886802D01*
X162451802Y-30886802D02*
X162100545Y-30535545D01*
X152970000Y-35355000D02*
X157983604Y-35355000D01*
X152920000Y-35405000D02*
X152970000Y-35355000D01*
X195470000Y-43255000D02*
X193310000Y-45415000D01*
X154420000Y-36555000D02*
X154070000Y-36555000D01*
X162100545Y-29485546D02*
X162431091Y-29155000D01*
X162100545Y-30535545D02*
X162100545Y-29485546D01*
%TO.N,/N16*%
X188516300Y-41358500D02*
X190032800Y-42875000D01*
X174470000Y-39805000D02*
X177020000Y-42355000D01*
X154420000Y-38355000D02*
X155945000Y-39880000D01*
X174976899Y-44098198D02*
X172220097Y-46855000D01*
X172220097Y-46855000D02*
X172020000Y-46855000D01*
X177020000Y-42444006D02*
X176639503Y-42824503D01*
X155945000Y-39880000D02*
X174395000Y-39880000D01*
X176639503Y-42824503D02*
X176636893Y-42824503D01*
X175363198Y-44098198D02*
X174976899Y-44098198D01*
X176870000Y-48755000D02*
X176870000Y-46655000D01*
X182166500Y-41358500D02*
X188516300Y-41358500D01*
X176870000Y-46655000D02*
X182166500Y-41358500D01*
X176636893Y-42824503D02*
X175363198Y-44098198D01*
X174395000Y-39880000D02*
X174470000Y-39805000D01*
X177020000Y-42355000D02*
X177020000Y-42444006D01*
X172020000Y-46855000D02*
X171070000Y-46855000D01*
%TO.N,/M17*%
X190270000Y-32955000D02*
X188170000Y-32955000D01*
X188170000Y-32955000D02*
X175170000Y-45955000D01*
X190032800Y-37795000D02*
X191570000Y-36257800D01*
X191570000Y-36257800D02*
X191570000Y-34255000D01*
X191570000Y-34255000D02*
X190270000Y-32955000D01*
X175170000Y-45955000D02*
X175170000Y-47155000D01*
%TO.N,/M18*%
X176120000Y-73180500D02*
X177469500Y-74530000D01*
X186317800Y-74530000D02*
X187492800Y-73355000D01*
X177469500Y-74530000D02*
X186317800Y-74530000D01*
%TO.N,/R19*%
X165770000Y-57455000D02*
X165770000Y-49555000D01*
X171570000Y-63255000D02*
X165770000Y-57455000D01*
X171630000Y-63195000D02*
X171570000Y-63255000D01*
X187492800Y-63195000D02*
X171630000Y-63195000D01*
%TO.N,/D9*%
X187492800Y-58115000D02*
X174130000Y-58115000D01*
X174130000Y-58115000D02*
X168470000Y-52455000D01*
X168470000Y-52455000D02*
X168470000Y-50355000D01*
%TO.N,/+VCCO0*%
X161420000Y-112179500D02*
X161420000Y-106019466D01*
X177290000Y-102596701D02*
X177290000Y-105047792D01*
X182670248Y-83755000D02*
X184136300Y-85221052D01*
X184136300Y-86188700D02*
X183170000Y-87155000D01*
X178445000Y-101441701D02*
X177290000Y-102596701D01*
X178420000Y-106177792D02*
X178420000Y-110405000D01*
X184136300Y-85221052D02*
X184136300Y-86188700D01*
X178420000Y-110405000D02*
X178870000Y-110855000D01*
X175145000Y-90230000D02*
X175145000Y-96680000D01*
X161420000Y-106019466D02*
X160110000Y-104709466D01*
X177290000Y-105047792D02*
X178420000Y-106177792D01*
X183170000Y-87155000D02*
X178220000Y-87155000D01*
X178445000Y-99980000D02*
X178445000Y-101441701D01*
X178220000Y-87155000D02*
X175145000Y-90230000D01*
X175145000Y-96680000D02*
X178445000Y-99980000D01*
X180920000Y-83755000D02*
X182670248Y-83755000D01*
%TO.N,/D11*%
X183470000Y-54355000D02*
X181770000Y-56055000D01*
X176270000Y-56055000D02*
X174970000Y-54755000D01*
X181770000Y-56055000D02*
X176270000Y-56055000D01*
X174970000Y-54755000D02*
X174970000Y-54355000D01*
%TO.N,/K18*%
X176070000Y-54555000D02*
X176670000Y-55155000D01*
X187492800Y-35255000D02*
X176070000Y-46677800D01*
X176070000Y-46677800D02*
X176070000Y-54555000D01*
%TO.N,/CV_S2*%
X45370000Y-82855000D02*
X53170000Y-90655000D01*
X53170000Y-106955000D02*
X53170000Y-117055000D01*
X64370000Y-28255000D02*
X35770000Y-28255000D01*
X160145000Y-129055000D02*
X167450000Y-121750000D01*
X32570000Y-82855000D02*
X45370000Y-82855000D01*
X31170000Y-32855000D02*
X30270000Y-33755000D01*
X53170000Y-90655000D02*
X53170000Y-106955000D01*
X30270000Y-80555000D02*
X32570000Y-82855000D01*
X65970000Y-31429500D02*
X65970000Y-29855000D01*
X65970000Y-29855000D02*
X64370000Y-28255000D01*
X30270000Y-33755000D02*
X30270000Y-80555000D01*
X140170000Y-129055000D02*
X160145000Y-129055000D01*
X35770000Y-28255000D02*
X31170000Y-32855000D01*
X53170000Y-117055000D02*
X56470000Y-120355000D01*
%TO.N,/EIS_S3*%
X74370000Y-118155000D02*
X72970000Y-119555000D01*
X73670000Y-121655000D02*
X78770000Y-121655000D01*
X72470000Y-119555000D02*
X71170000Y-120855000D01*
X77870000Y-64355000D02*
X77870000Y-69679695D01*
X73370000Y-93755000D02*
X75370000Y-95755000D01*
X136770000Y-117955000D02*
X138950000Y-120135000D01*
X71170000Y-120855000D02*
X71170000Y-121555000D01*
X72670000Y-119555000D02*
X72470000Y-119555000D01*
X70420000Y-56905000D02*
X77870000Y-64355000D01*
X73370000Y-74179695D02*
X73370000Y-93755000D01*
X71170000Y-121555000D02*
X71770000Y-122155000D01*
X78770000Y-121655000D02*
X80170000Y-120255000D01*
X71970000Y-122355000D02*
X72470000Y-122355000D01*
X123689603Y-117955000D02*
X136770000Y-117955000D01*
X71770000Y-122155000D02*
X71970000Y-122355000D01*
X70420000Y-56855000D02*
X70420000Y-56905000D01*
X72970000Y-119555000D02*
X72670000Y-119555000D01*
X72470000Y-122355000D02*
X72970000Y-122355000D01*
X75370000Y-95755000D02*
X75370000Y-117155000D01*
X75370000Y-117155000D02*
X74370000Y-118155000D01*
X122678267Y-118966336D02*
X123689603Y-117955000D01*
X72970000Y-122355000D02*
X73670000Y-121655000D01*
X77870000Y-69679695D02*
X73370000Y-74179695D01*
X138950000Y-120135000D02*
X138950000Y-121750000D01*
%TO.N,Net-(C39-Pad1)*%
X70420000Y-53979695D02*
X70420000Y-53305000D01*
X75595305Y-59155000D02*
X70420000Y-53979695D01*
X81620000Y-59155000D02*
X75595305Y-59155000D01*
%TO.N,Net-(C39-Pad2)*%
X78570000Y-56205000D02*
X72720000Y-50355000D01*
X81770000Y-56205000D02*
X78570000Y-56205000D01*
%TO.N,Net-(C40-Pad1)*%
X60170000Y-57105000D02*
X67220000Y-57105000D01*
%TO.N,/D21*%
X148369598Y-63030000D02*
X146555415Y-64844183D01*
X155840000Y-60248603D02*
X155383651Y-60704952D01*
X180980000Y-79989598D02*
X180170293Y-79989598D01*
X151748604Y-63030000D02*
X148369598Y-63030000D01*
X185457701Y-84467299D02*
X180980000Y-79989598D01*
X159450000Y-56605000D02*
X155840000Y-60215000D01*
X154994742Y-60704952D02*
X154719742Y-60979952D01*
X158430994Y-53255000D02*
X157790000Y-53255000D01*
X173330000Y-73149305D02*
X173330000Y-71535000D01*
X158970497Y-53794503D02*
X158430994Y-53255000D01*
X153798652Y-60979952D02*
X151748604Y-63030000D01*
X154719742Y-60979952D02*
X153798652Y-60979952D01*
X155383651Y-60704952D02*
X154994742Y-60704952D01*
X157790000Y-53255000D02*
X157790000Y-54799695D01*
X155840000Y-60215000D02*
X155840000Y-60248603D01*
X157790000Y-54799695D02*
X159450000Y-56459695D01*
X159450000Y-56459695D02*
X159450000Y-56605000D01*
X157790000Y-42815000D02*
X157790000Y-53255000D01*
X180170293Y-79989598D02*
X173330000Y-73149305D01*
%TO.N,/D22*%
X165095500Y-82169500D02*
X165000000Y-82169500D01*
X164345500Y-77885408D02*
X165470000Y-79009908D01*
X165470000Y-79009908D02*
X165470000Y-81795000D01*
X146690000Y-65855000D02*
X147030000Y-65515000D01*
X147900000Y-67730000D02*
X147055000Y-67730000D01*
X157105000Y-67730000D02*
X147900000Y-67730000D01*
X165470000Y-81795000D02*
X165095500Y-82169500D01*
X147055000Y-67730000D02*
X146690000Y-67365000D01*
X147202299Y-65342701D02*
X147657701Y-65342701D01*
X146690000Y-67365000D02*
X146690000Y-65855000D01*
X147030000Y-65515000D02*
X147202299Y-65342701D01*
X157470000Y-67365000D02*
X157105000Y-67730000D01*
%TO.N,/DAC1_NCS*%
X125725000Y-105360000D02*
X125725000Y-97773604D01*
X128080305Y-106880000D02*
X129999466Y-106880000D01*
X106645000Y-114330000D02*
X109607000Y-111368000D01*
X126480000Y-80070400D02*
X124842300Y-78432700D01*
X123519695Y-110840000D02*
X124120305Y-110840000D01*
X106645000Y-116605305D02*
X106645000Y-114330000D01*
X116408000Y-111373000D02*
X118548066Y-111373000D01*
X61555000Y-125186396D02*
X63173604Y-126805000D01*
X126480000Y-94341396D02*
X126480000Y-80835330D01*
X124386396Y-96435000D02*
X126480000Y-94341396D01*
X59570000Y-95710305D02*
X61555000Y-97695305D01*
X96445305Y-126805000D02*
X106645000Y-116605305D01*
X59440000Y-56741396D02*
X59440000Y-66979695D01*
X126480000Y-80835330D02*
X126480000Y-80070400D01*
X112688066Y-111368000D02*
X113161066Y-110895000D01*
X59570000Y-80655000D02*
X59570000Y-95710305D01*
X119116066Y-110805000D02*
X123484695Y-110805000D01*
X60920000Y-55261396D02*
X59440000Y-56741396D01*
X115930000Y-110895000D02*
X116408000Y-111373000D01*
X63173604Y-126805000D02*
X96445305Y-126805000D01*
X62070000Y-52155000D02*
X60920000Y-53305000D01*
X125725000Y-97773604D02*
X124386396Y-96435000D01*
X63770000Y-71309695D02*
X63770000Y-76455000D01*
X124120305Y-110840000D02*
X128080305Y-106880000D01*
X129999466Y-106880000D02*
X134710000Y-102169466D01*
X61555000Y-97695305D02*
X61555000Y-125186396D01*
X126720000Y-106355000D02*
X125725000Y-105360000D01*
X113161066Y-110895000D02*
X115930000Y-110895000D01*
X118548066Y-111373000D02*
X119116066Y-110805000D01*
X59440000Y-66979695D02*
X63770000Y-71309695D01*
X63370000Y-52155000D02*
X62070000Y-52155000D01*
X63770000Y-76455000D02*
X59570000Y-80655000D01*
X60920000Y-53305000D02*
X60920000Y-55261396D01*
X123484695Y-110805000D02*
X123519695Y-110840000D01*
X109607000Y-111368000D02*
X112688066Y-111368000D01*
%TO.N,/DAC1_SCK*%
X123770000Y-99029695D02*
X123770000Y-101055000D01*
X108305000Y-87790707D02*
X119094293Y-98580000D01*
X123320305Y-98580000D02*
X123770000Y-99029695D01*
X58970000Y-53555000D02*
X57170000Y-55355000D01*
X57170000Y-55355000D02*
X57170000Y-61055000D01*
X58970000Y-75855000D02*
X58970000Y-118955000D01*
X105770000Y-79355000D02*
X105770000Y-83505000D01*
X119094293Y-98580000D02*
X123320305Y-98580000D01*
X108305000Y-86040000D02*
X108305000Y-87790707D01*
X105770000Y-83505000D02*
X108305000Y-86040000D01*
X123770000Y-101055000D02*
X120970000Y-103855000D01*
X57170000Y-61055000D02*
X57170000Y-74055000D01*
X57170000Y-74055000D02*
X58970000Y-75855000D01*
%TO.N,/DAC1_SDI*%
X122080000Y-65628604D02*
X122080000Y-67625000D01*
X122080000Y-67625000D02*
X121860000Y-67845000D01*
X125900000Y-40205000D02*
X124655000Y-41450000D01*
X128570000Y-43580500D02*
X128570000Y-42875000D01*
X124655000Y-41450000D02*
X124655000Y-44075000D01*
X124655000Y-63053604D02*
X122080000Y-65628604D01*
X124655000Y-44075000D02*
X124655000Y-63053604D01*
X121860000Y-67845000D02*
X121790000Y-67845000D01*
X128570000Y-42875000D02*
X125900000Y-40205000D01*
%TO.N,/DAC1_LDAC*%
X177420000Y-84555000D02*
X178070000Y-84555000D01*
X162410000Y-77155000D02*
X170570805Y-77155000D01*
X173260000Y-80395000D02*
X177420000Y-84555000D01*
X160770000Y-77955000D02*
X161610000Y-77955000D01*
X170570805Y-77155000D02*
X173260000Y-79844195D01*
X161610000Y-77955000D02*
X162410000Y-77155000D01*
X173260000Y-79844195D02*
X173260000Y-80395000D01*
%TO.N,Net-(R55-Pad2)*%
X73820000Y-43755000D02*
X81340000Y-51275000D01*
X64384500Y-43755000D02*
X73820000Y-43755000D01*
X64370000Y-43740500D02*
X64384500Y-43755000D01*
X81340000Y-51275000D02*
X81430000Y-51275000D01*
%TO.N,/CV_S1*%
X119670000Y-107955000D02*
X120470000Y-108755000D01*
X120320000Y-56780305D02*
X120320000Y-69355000D01*
X121320000Y-55780305D02*
X120320000Y-56780305D01*
X120320000Y-69355000D02*
X119820000Y-69855000D01*
X121320000Y-42980000D02*
X121320000Y-55780305D01*
X121720000Y-99305000D02*
X119670000Y-101355000D01*
X123020000Y-99305000D02*
X121720000Y-99305000D01*
X123020000Y-41280000D02*
X121320000Y-42980000D01*
X119670000Y-101355000D02*
X119670000Y-107955000D01*
%TO.N,/Vref_r*%
X60720000Y-35605000D02*
X63120000Y-33205000D01*
X63120000Y-33205000D02*
X64070000Y-33205000D01*
%TO.N,/P22*%
X147592701Y-58662299D02*
X147592701Y-60738695D01*
X151579909Y-62562299D02*
X154377208Y-59765000D01*
X147795451Y-60941445D02*
X147795451Y-61580451D01*
X147760000Y-58495000D02*
X147592701Y-58662299D01*
X147795451Y-61580451D02*
X148777299Y-62562299D01*
X148777299Y-62562299D02*
X151579909Y-62562299D01*
X154377208Y-59765000D02*
X155080000Y-59765000D01*
X147592701Y-60738695D02*
X147795451Y-60941445D01*
%TO.N,/D20*%
X165820500Y-77879500D02*
X166213500Y-78272500D01*
X166213500Y-91098500D02*
X166270000Y-91155000D01*
X166213500Y-78272500D02*
X166213500Y-91098500D01*
%TD*%
M02*
