%TF.GenerationSoftware,KiCad,Pcbnew,(6.0.8-1)-1*%
%TF.CreationDate,2022-11-09T12:39:36-05:00*%
%TF.ProjectId,HermEIS,4865726d-4549-4532-9e6b-696361645f70,rev?*%
%TF.SameCoordinates,Original*%
%TF.FileFunction,Paste,Top*%
%TF.FilePolarity,Positive*%
%FSLAX46Y46*%
G04 Gerber Fmt 4.6, Leading zero omitted, Abs format (unit mm)*
G04 Created by KiCad (PCBNEW (6.0.8-1)-1) date 2022-11-09 12:39:36*
%MOMM*%
%LPD*%
G01*
G04 APERTURE LIST*
G04 Aperture macros list*
%AMRoundRect*
0 Rectangle with rounded corners*
0 $1 Rounding radius*
0 $2 $3 $4 $5 $6 $7 $8 $9 X,Y pos of 4 corners*
0 Add a 4 corners polygon primitive as box body*
4,1,4,$2,$3,$4,$5,$6,$7,$8,$9,$2,$3,0*
0 Add four circle primitives for the rounded corners*
1,1,$1+$1,$2,$3*
1,1,$1+$1,$4,$5*
1,1,$1+$1,$6,$7*
1,1,$1+$1,$8,$9*
0 Add four rect primitives between the rounded corners*
20,1,$1+$1,$2,$3,$4,$5,0*
20,1,$1+$1,$4,$5,$6,$7,0*
20,1,$1+$1,$6,$7,$8,$9,0*
20,1,$1+$1,$8,$9,$2,$3,0*%
G04 Aperture macros list end*
%ADD10R,0.508000X0.876300*%
%ADD11RoundRect,0.250000X-0.350000X-0.450000X0.350000X-0.450000X0.350000X0.450000X-0.350000X0.450000X0*%
%ADD12RoundRect,0.250000X0.475000X-0.337500X0.475000X0.337500X-0.475000X0.337500X-0.475000X-0.337500X0*%
%ADD13RoundRect,0.250000X-0.337500X-0.475000X0.337500X-0.475000X0.337500X0.475000X-0.337500X0.475000X0*%
%ADD14R,1.447800X0.457200*%
%ADD15R,0.650000X0.400000*%
%ADD16RoundRect,0.250000X-0.475000X0.337500X-0.475000X-0.337500X0.475000X-0.337500X0.475000X0.337500X0*%
%ADD17RoundRect,0.250000X0.450000X-0.350000X0.450000X0.350000X-0.450000X0.350000X-0.450000X-0.350000X0*%
%ADD18RoundRect,0.250000X0.337500X0.475000X-0.337500X0.475000X-0.337500X-0.475000X0.337500X-0.475000X0*%
%ADD19R,2.971800X0.558800*%
%ADD20R,1.200000X0.400000*%
%ADD21RoundRect,0.150000X-0.825000X-0.150000X0.825000X-0.150000X0.825000X0.150000X-0.825000X0.150000X0*%
%ADD22RoundRect,0.250000X-0.450000X0.350000X-0.450000X-0.350000X0.450000X-0.350000X0.450000X0.350000X0*%
%ADD23R,1.701800X0.990600*%
%ADD24RoundRect,0.250000X0.350000X0.450000X-0.350000X0.450000X-0.350000X-0.450000X0.350000X-0.450000X0*%
%ADD25RoundRect,0.150000X-0.587500X-0.150000X0.587500X-0.150000X0.587500X0.150000X-0.587500X0.150000X0*%
%ADD26RoundRect,0.075000X-0.700000X-0.075000X0.700000X-0.075000X0.700000X0.075000X-0.700000X0.075000X0*%
%ADD27RoundRect,0.075000X-0.075000X-0.700000X0.075000X-0.700000X0.075000X0.700000X-0.075000X0.700000X0*%
G04 APERTURE END LIST*
D10*
%TO.C,U9*%
X49730200Y-47669450D03*
X50670000Y-47669450D03*
X51609800Y-47669450D03*
X51609800Y-45040550D03*
X50670000Y-45040550D03*
X49730200Y-45040550D03*
%TD*%
D11*
%TO.C,R46*%
X76970000Y-122005000D03*
X78970000Y-122005000D03*
%TD*%
D12*
%TO.C,C12*%
X45370000Y-33742500D03*
X45370000Y-31667500D03*
%TD*%
D13*
%TO.C,C15*%
X63732500Y-65755000D03*
X65807500Y-65755000D03*
%TD*%
D14*
%TO.C,J19*%
X144506100Y-38503050D03*
X138333900Y-38503050D03*
X144506100Y-39303150D03*
X138333900Y-39303150D03*
X144506100Y-40103250D03*
X138333900Y-40103250D03*
X144506100Y-40903350D03*
X138333900Y-40903350D03*
X144506100Y-41703450D03*
X138333900Y-41703450D03*
X144506100Y-42503550D03*
X138333900Y-42503550D03*
X144506100Y-43303650D03*
X138333900Y-43303650D03*
X144506100Y-44103750D03*
X138333900Y-44103750D03*
X144506100Y-44903850D03*
X138333900Y-44903850D03*
X144506100Y-45703950D03*
X138333900Y-45703950D03*
X144506100Y-46504050D03*
X138333900Y-46504050D03*
X144506100Y-47304150D03*
X138333900Y-47304150D03*
X144506100Y-48104250D03*
X138333900Y-48104250D03*
X144506100Y-48904350D03*
X138333900Y-48904350D03*
X144506100Y-49704450D03*
X138333900Y-49704450D03*
X144506100Y-50504550D03*
X138333900Y-50504550D03*
X144506100Y-51304650D03*
X138333900Y-51304650D03*
X144506100Y-52104750D03*
X138333900Y-52104750D03*
X144506100Y-52904850D03*
X138333900Y-52904850D03*
X144506100Y-53704950D03*
X138333900Y-53704950D03*
X144506100Y-54505050D03*
X138333900Y-54505050D03*
X144506100Y-55305150D03*
X138333900Y-55305150D03*
X144506100Y-56105250D03*
X138333900Y-56105250D03*
X144506100Y-56905350D03*
X138333900Y-56905350D03*
X144506100Y-57705450D03*
X138333900Y-57705450D03*
X144506100Y-58505550D03*
X138333900Y-58505550D03*
X144506100Y-59305650D03*
X138333900Y-59305650D03*
X144506100Y-60105750D03*
X138333900Y-60105750D03*
X144506100Y-60905850D03*
X138333900Y-60905850D03*
X144506100Y-61705950D03*
X138333900Y-61705950D03*
X144506100Y-62506050D03*
X138333900Y-62506050D03*
X144506100Y-63306150D03*
X138333900Y-63306150D03*
X144506100Y-64106250D03*
X138333900Y-64106250D03*
X144506100Y-64906350D03*
X138333900Y-64906350D03*
X144506100Y-65706450D03*
X138333900Y-65706450D03*
X144506100Y-66506550D03*
X138333900Y-66506550D03*
X144506100Y-67306650D03*
X138333900Y-67306650D03*
X144506100Y-68106750D03*
X138333900Y-68106750D03*
X144506100Y-68906850D03*
X138333900Y-68906850D03*
X144506100Y-69706950D03*
X138333900Y-69706950D03*
%TD*%
D12*
%TO.C,C9*%
X54870000Y-47392500D03*
X54870000Y-45317500D03*
%TD*%
D15*
%TO.C,U14*%
X77070000Y-69105000D03*
X77070000Y-69755000D03*
X77070000Y-70405000D03*
X78970000Y-70405000D03*
X78970000Y-69755000D03*
X78970000Y-69105000D03*
%TD*%
D16*
%TO.C,C46*%
X59770000Y-62077500D03*
X59770000Y-64152500D03*
%TD*%
D17*
%TO.C,R3*%
X95620000Y-53955000D03*
X95620000Y-51955000D03*
%TD*%
D11*
%TO.C,R30*%
X68320000Y-91605000D03*
X70320000Y-91605000D03*
%TD*%
D12*
%TO.C,C34*%
X73270000Y-48392500D03*
X73270000Y-46317500D03*
%TD*%
D18*
%TO.C,C30*%
X69757500Y-110005000D03*
X67682500Y-110005000D03*
%TD*%
D17*
%TO.C,R18*%
X68770000Y-81255000D03*
X68770000Y-79255000D03*
%TD*%
D13*
%TO.C,C28*%
X77182500Y-110005000D03*
X79257500Y-110005000D03*
%TD*%
D17*
%TO.C,R25*%
X65320000Y-101105000D03*
X65320000Y-99105000D03*
%TD*%
D19*
%TO.C,SW2*%
X100253800Y-38755000D03*
X105486200Y-41255000D03*
X100253800Y-43755000D03*
%TD*%
D13*
%TO.C,C20*%
X63820000Y-87605000D03*
X65895000Y-87605000D03*
%TD*%
D17*
%TO.C,R9*%
X95620000Y-126205000D03*
X95620000Y-124205000D03*
%TD*%
D11*
%TO.C,R34*%
X60720000Y-37255000D03*
X62720000Y-37255000D03*
%TD*%
D20*
%TO.C,U21*%
X68870000Y-117032500D03*
X68870000Y-117667500D03*
X68870000Y-118302500D03*
X68870000Y-118937500D03*
X68870000Y-119572500D03*
X68870000Y-120207500D03*
X68870000Y-120842500D03*
X68870000Y-121477500D03*
X74070000Y-121477500D03*
X74070000Y-120842500D03*
X74070000Y-120207500D03*
X74070000Y-119572500D03*
X74070000Y-118937500D03*
X74070000Y-118302500D03*
X74070000Y-117667500D03*
X74070000Y-117032500D03*
%TD*%
D17*
%TO.C,R53*%
X62170000Y-48355000D03*
X62170000Y-46355000D03*
%TD*%
D14*
%TO.C,J20*%
X179336100Y-38348050D03*
X173163900Y-38348050D03*
X179336100Y-39148150D03*
X173163900Y-39148150D03*
X179336100Y-39948250D03*
X173163900Y-39948250D03*
X179336100Y-40748350D03*
X173163900Y-40748350D03*
X179336100Y-41548450D03*
X173163900Y-41548450D03*
X179336100Y-42348550D03*
X173163900Y-42348550D03*
X179336100Y-43148650D03*
X173163900Y-43148650D03*
X179336100Y-43948750D03*
X173163900Y-43948750D03*
X179336100Y-44748850D03*
X173163900Y-44748850D03*
X179336100Y-45548950D03*
X173163900Y-45548950D03*
X179336100Y-46349050D03*
X173163900Y-46349050D03*
X179336100Y-47149150D03*
X173163900Y-47149150D03*
X179336100Y-47949250D03*
X173163900Y-47949250D03*
X179336100Y-48749350D03*
X173163900Y-48749350D03*
X179336100Y-49549450D03*
X173163900Y-49549450D03*
X179336100Y-50349550D03*
X173163900Y-50349550D03*
X179336100Y-51149650D03*
X173163900Y-51149650D03*
X179336100Y-51949750D03*
X173163900Y-51949750D03*
X179336100Y-52749850D03*
X173163900Y-52749850D03*
X179336100Y-53549950D03*
X173163900Y-53549950D03*
X179336100Y-54350050D03*
X173163900Y-54350050D03*
X179336100Y-55150150D03*
X173163900Y-55150150D03*
X179336100Y-55950250D03*
X173163900Y-55950250D03*
X179336100Y-56750350D03*
X173163900Y-56750350D03*
X179336100Y-57550450D03*
X173163900Y-57550450D03*
X179336100Y-58350550D03*
X173163900Y-58350550D03*
X179336100Y-59150650D03*
X173163900Y-59150650D03*
X179336100Y-59950750D03*
X173163900Y-59950750D03*
X179336100Y-60750850D03*
X173163900Y-60750850D03*
X179336100Y-61550950D03*
X173163900Y-61550950D03*
X179336100Y-62351050D03*
X173163900Y-62351050D03*
X179336100Y-63151150D03*
X173163900Y-63151150D03*
X179336100Y-63951250D03*
X173163900Y-63951250D03*
X179336100Y-64751350D03*
X173163900Y-64751350D03*
X179336100Y-65551450D03*
X173163900Y-65551450D03*
X179336100Y-66351550D03*
X173163900Y-66351550D03*
X179336100Y-67151650D03*
X173163900Y-67151650D03*
X179336100Y-67951750D03*
X173163900Y-67951750D03*
X179336100Y-68751850D03*
X173163900Y-68751850D03*
X179336100Y-69551950D03*
X173163900Y-69551950D03*
%TD*%
D21*
%TO.C,U5*%
X86015000Y-81230000D03*
X86015000Y-82500000D03*
X86015000Y-83770000D03*
X86015000Y-85040000D03*
X86015000Y-86310000D03*
X86015000Y-87580000D03*
X86015000Y-88850000D03*
X86015000Y-90120000D03*
X90965000Y-90120000D03*
X90965000Y-88850000D03*
X90965000Y-87580000D03*
X90965000Y-86310000D03*
X90965000Y-85040000D03*
X90965000Y-83770000D03*
X90965000Y-82500000D03*
X90965000Y-81230000D03*
%TD*%
D17*
%TO.C,R56*%
X62220000Y-41855000D03*
X62220000Y-39855000D03*
%TD*%
D11*
%TO.C,R33*%
X60620000Y-33855000D03*
X62620000Y-33855000D03*
%TD*%
D17*
%TO.C,R23*%
X74270000Y-70255000D03*
X74270000Y-68255000D03*
%TD*%
D11*
%TO.C,R12*%
X49170000Y-39455000D03*
X51170000Y-39455000D03*
%TD*%
D20*
%TO.C,U10*%
X40770000Y-37232500D03*
X40770000Y-37867500D03*
X40770000Y-38502500D03*
X40770000Y-39137500D03*
X40770000Y-39772500D03*
X40770000Y-40407500D03*
X40770000Y-41042500D03*
X40770000Y-41677500D03*
X45970000Y-41677500D03*
X45970000Y-41042500D03*
X45970000Y-40407500D03*
X45970000Y-39772500D03*
X45970000Y-39137500D03*
X45970000Y-38502500D03*
X45970000Y-37867500D03*
X45970000Y-37232500D03*
%TD*%
D22*
%TO.C,R16*%
X65020000Y-72755000D03*
X65020000Y-74755000D03*
%TD*%
D17*
%TO.C,R17*%
X65020000Y-79005000D03*
X65020000Y-77005000D03*
%TD*%
D11*
%TO.C,R47*%
X68470000Y-114005000D03*
X70470000Y-114005000D03*
%TD*%
D22*
%TO.C,R24*%
X65320000Y-94855000D03*
X65320000Y-96855000D03*
%TD*%
D16*
%TO.C,C13*%
X76020000Y-79217500D03*
X76020000Y-81292500D03*
%TD*%
D11*
%TO.C,R28*%
X77070000Y-95855000D03*
X79070000Y-95855000D03*
%TD*%
%TO.C,R20*%
X76770000Y-73755000D03*
X78770000Y-73755000D03*
%TD*%
D16*
%TO.C,C25*%
X74970000Y-35667500D03*
X74970000Y-37742500D03*
%TD*%
D17*
%TO.C,R49*%
X72470000Y-59255000D03*
X72470000Y-57255000D03*
%TD*%
D18*
%TO.C,C17*%
X74307500Y-65755000D03*
X72232500Y-65755000D03*
%TD*%
D12*
%TO.C,C42*%
X76770000Y-48392500D03*
X76770000Y-46317500D03*
%TD*%
D11*
%TO.C,R52*%
X69470000Y-55055000D03*
X71470000Y-55055000D03*
%TD*%
D16*
%TO.C,C4*%
X95620000Y-93417500D03*
X95620000Y-95492500D03*
%TD*%
D17*
%TO.C,R6*%
X95620000Y-65955000D03*
X95620000Y-63955000D03*
%TD*%
%TO.C,R42*%
X65220000Y-123505000D03*
X65220000Y-121505000D03*
%TD*%
D16*
%TO.C,C3*%
X95620000Y-45417500D03*
X95620000Y-47492500D03*
%TD*%
%TO.C,C8*%
X95620000Y-105417500D03*
X95620000Y-107492500D03*
%TD*%
D23*
%TO.C,SW1*%
X106261600Y-34924999D03*
X100978400Y-34924999D03*
X106261600Y-31225001D03*
X100978400Y-31225001D03*
%TD*%
D11*
%TO.C,R10*%
X49170000Y-35955000D03*
X51170000Y-35955000D03*
%TD*%
%TO.C,R35*%
X64920000Y-41755000D03*
X66920000Y-41755000D03*
%TD*%
D15*
%TO.C,U12*%
X63020000Y-69105000D03*
X63020000Y-69755000D03*
X63020000Y-70405000D03*
X64920000Y-70405000D03*
X64920000Y-69755000D03*
X64920000Y-69105000D03*
%TD*%
%TO.C,U11*%
X49120000Y-31405000D03*
X49120000Y-32055000D03*
X49120000Y-32705000D03*
X51020000Y-32705000D03*
X51020000Y-32055000D03*
X51020000Y-31405000D03*
%TD*%
D21*
%TO.C,U8*%
X86015000Y-117480000D03*
X86015000Y-118750000D03*
X86015000Y-120020000D03*
X86015000Y-121290000D03*
X86015000Y-122560000D03*
X86015000Y-123830000D03*
X86015000Y-125100000D03*
X86015000Y-126370000D03*
X90965000Y-126370000D03*
X90965000Y-125100000D03*
X90965000Y-123830000D03*
X90965000Y-122560000D03*
X90965000Y-121290000D03*
X90965000Y-120020000D03*
X90965000Y-118750000D03*
X90965000Y-117480000D03*
%TD*%
D17*
%TO.C,R1*%
X95570000Y-41255000D03*
X95570000Y-39255000D03*
%TD*%
D13*
%TO.C,C19*%
X77245000Y-87605000D03*
X79320000Y-87605000D03*
%TD*%
D24*
%TO.C,R54*%
X57920000Y-37255000D03*
X55920000Y-37255000D03*
%TD*%
D15*
%TO.C,U17*%
X77320000Y-91205000D03*
X77320000Y-91855000D03*
X77320000Y-92505000D03*
X79220000Y-92505000D03*
X79220000Y-91855000D03*
X79220000Y-91205000D03*
%TD*%
D25*
%TO.C,D2*%
X39132500Y-44605000D03*
X39132500Y-46505000D03*
X41007500Y-45555000D03*
%TD*%
D21*
%TO.C,U1*%
X86195000Y-32510000D03*
X86195000Y-33780000D03*
X86195000Y-35050000D03*
X86195000Y-36320000D03*
X86195000Y-37590000D03*
X86195000Y-38860000D03*
X86195000Y-40130000D03*
X86195000Y-41400000D03*
X91145000Y-41400000D03*
X91145000Y-40130000D03*
X91145000Y-38860000D03*
X91145000Y-37590000D03*
X91145000Y-36320000D03*
X91145000Y-35050000D03*
X91145000Y-33780000D03*
X91145000Y-32510000D03*
%TD*%
D17*
%TO.C,R4*%
X95620000Y-101705000D03*
X95620000Y-99705000D03*
%TD*%
D16*
%TO.C,C35*%
X147170000Y-33387500D03*
X147170000Y-35462500D03*
%TD*%
D17*
%TO.C,R5*%
X112120000Y-34275000D03*
X112120000Y-32275000D03*
%TD*%
%TO.C,R48*%
X74720000Y-114755000D03*
X74720000Y-112755000D03*
%TD*%
%TO.C,R43*%
X68970000Y-126505000D03*
X68970000Y-124505000D03*
%TD*%
D12*
%TO.C,C39*%
X79970000Y-59192500D03*
X79970000Y-57117500D03*
%TD*%
D11*
%TO.C,R11*%
X34620000Y-33255000D03*
X36620000Y-33255000D03*
%TD*%
D15*
%TO.C,U19*%
X80632500Y-31855000D03*
X80632500Y-32505000D03*
X80632500Y-33155000D03*
X82532500Y-33155000D03*
X82532500Y-32505000D03*
X82532500Y-31855000D03*
%TD*%
D21*
%TO.C,U6*%
X86015000Y-93230000D03*
X86015000Y-94500000D03*
X86015000Y-95770000D03*
X86015000Y-97040000D03*
X86015000Y-98310000D03*
X86015000Y-99580000D03*
X86015000Y-100850000D03*
X86015000Y-102120000D03*
X90965000Y-102120000D03*
X90965000Y-100850000D03*
X90965000Y-99580000D03*
X90965000Y-98310000D03*
X90965000Y-97040000D03*
X90965000Y-95770000D03*
X90965000Y-94500000D03*
X90965000Y-93230000D03*
%TD*%
D17*
%TO.C,R38*%
X78970000Y-41955000D03*
X78970000Y-39955000D03*
%TD*%
D16*
%TO.C,C26*%
X82570000Y-39717500D03*
X82570000Y-41792500D03*
%TD*%
D17*
%TO.C,R44*%
X72470000Y-126505000D03*
X72470000Y-124505000D03*
%TD*%
D15*
%TO.C,U22*%
X77270000Y-113605000D03*
X77270000Y-114255000D03*
X77270000Y-114905000D03*
X79170000Y-114905000D03*
X79170000Y-114255000D03*
X79170000Y-113605000D03*
%TD*%
D20*
%TO.C,U25*%
X74370000Y-50332500D03*
X74370000Y-50967500D03*
X74370000Y-51602500D03*
X74370000Y-52237500D03*
X74370000Y-52872500D03*
X74370000Y-53507500D03*
X74370000Y-54142500D03*
X74370000Y-54777500D03*
X79570000Y-54777500D03*
X79570000Y-54142500D03*
X79570000Y-53507500D03*
X79570000Y-52872500D03*
X79570000Y-52237500D03*
X79570000Y-51602500D03*
X79570000Y-50967500D03*
X79570000Y-50332500D03*
%TD*%
D13*
%TO.C,C44*%
X166212500Y-45300000D03*
X168287500Y-45300000D03*
%TD*%
D11*
%TO.C,R51*%
X69470000Y-51655000D03*
X71470000Y-51655000D03*
%TD*%
D17*
%TO.C,R8*%
X95620000Y-77955000D03*
X95620000Y-75955000D03*
%TD*%
D16*
%TO.C,C11*%
X95620000Y-117667500D03*
X95620000Y-119742500D03*
%TD*%
D24*
%TO.C,R14*%
X36620000Y-40205000D03*
X34620000Y-40205000D03*
%TD*%
D17*
%TO.C,R55*%
X54820000Y-41855000D03*
X54820000Y-39855000D03*
%TD*%
D16*
%TO.C,C27*%
X76220000Y-124467500D03*
X76220000Y-126542500D03*
%TD*%
D11*
%TO.C,R36*%
X69520000Y-41755000D03*
X71520000Y-41755000D03*
%TD*%
D21*
%TO.C,U3*%
X86145000Y-57230000D03*
X86145000Y-58500000D03*
X86145000Y-59770000D03*
X86145000Y-61040000D03*
X86145000Y-62310000D03*
X86145000Y-63580000D03*
X86145000Y-64850000D03*
X86145000Y-66120000D03*
X91095000Y-66120000D03*
X91095000Y-64850000D03*
X91095000Y-63580000D03*
X91095000Y-62310000D03*
X91095000Y-61040000D03*
X91095000Y-59770000D03*
X91095000Y-58500000D03*
X91095000Y-57230000D03*
%TD*%
D13*
%TO.C,C29*%
X62970000Y-110005000D03*
X65045000Y-110005000D03*
%TD*%
D16*
%TO.C,C18*%
X76320000Y-101567500D03*
X76320000Y-103642500D03*
%TD*%
D18*
%TO.C,C16*%
X70057500Y-65755000D03*
X67982500Y-65755000D03*
%TD*%
D12*
%TO.C,C43*%
X80270000Y-48392500D03*
X80270000Y-46317500D03*
%TD*%
D26*
%TO.C,U24*%
X150875000Y-35550000D03*
X150875000Y-36050000D03*
X150875000Y-36550000D03*
X150875000Y-37050000D03*
X150875000Y-37550000D03*
X150875000Y-38050000D03*
X150875000Y-38550000D03*
X150875000Y-39050000D03*
X150875000Y-39550000D03*
X150875000Y-40050000D03*
X150875000Y-40550000D03*
X150875000Y-41050000D03*
X150875000Y-41550000D03*
X150875000Y-42050000D03*
X150875000Y-42550000D03*
X150875000Y-43050000D03*
D27*
X152800000Y-44975000D03*
X153300000Y-44975000D03*
X153800000Y-44975000D03*
X154300000Y-44975000D03*
X154800000Y-44975000D03*
X155300000Y-44975000D03*
X155800000Y-44975000D03*
X156300000Y-44975000D03*
X156800000Y-44975000D03*
X157300000Y-44975000D03*
X157800000Y-44975000D03*
X158300000Y-44975000D03*
X158800000Y-44975000D03*
X159300000Y-44975000D03*
X159800000Y-44975000D03*
X160300000Y-44975000D03*
D26*
X162225000Y-43050000D03*
X162225000Y-42550000D03*
X162225000Y-42050000D03*
X162225000Y-41550000D03*
X162225000Y-41050000D03*
X162225000Y-40550000D03*
X162225000Y-40050000D03*
X162225000Y-39550000D03*
X162225000Y-39050000D03*
X162225000Y-38550000D03*
X162225000Y-38050000D03*
X162225000Y-37550000D03*
X162225000Y-37050000D03*
X162225000Y-36550000D03*
X162225000Y-36050000D03*
X162225000Y-35550000D03*
D27*
X160300000Y-33625000D03*
X159800000Y-33625000D03*
X159300000Y-33625000D03*
X158800000Y-33625000D03*
X158300000Y-33625000D03*
X157800000Y-33625000D03*
X157300000Y-33625000D03*
X156800000Y-33625000D03*
X156300000Y-33625000D03*
X155800000Y-33625000D03*
X155300000Y-33625000D03*
X154800000Y-33625000D03*
X154300000Y-33625000D03*
X153800000Y-33625000D03*
X153300000Y-33625000D03*
X152800000Y-33625000D03*
%TD*%
D15*
%TO.C,U15*%
X63320000Y-91205000D03*
X63320000Y-91855000D03*
X63320000Y-92505000D03*
X65220000Y-92505000D03*
X65220000Y-91855000D03*
X65220000Y-91205000D03*
%TD*%
D17*
%TO.C,R19*%
X72270000Y-81255000D03*
X72270000Y-79255000D03*
%TD*%
D18*
%TO.C,C22*%
X74857500Y-87605000D03*
X72782500Y-87605000D03*
%TD*%
D16*
%TO.C,C1*%
X95570000Y-32717500D03*
X95570000Y-34792500D03*
%TD*%
D17*
%TO.C,R31*%
X74820000Y-92105000D03*
X74820000Y-90105000D03*
%TD*%
%TO.C,R57*%
X58420000Y-41855000D03*
X58420000Y-39855000D03*
%TD*%
D18*
%TO.C,C23*%
X77620000Y-31755000D03*
X75545000Y-31755000D03*
%TD*%
D11*
%TO.C,R32*%
X55920000Y-33855000D03*
X57920000Y-33855000D03*
%TD*%
D21*
%TO.C,U4*%
X86145000Y-69230000D03*
X86145000Y-70500000D03*
X86145000Y-71770000D03*
X86145000Y-73040000D03*
X86145000Y-74310000D03*
X86145000Y-75580000D03*
X86145000Y-76850000D03*
X86145000Y-78120000D03*
X91095000Y-78120000D03*
X91095000Y-76850000D03*
X91095000Y-75580000D03*
X91095000Y-74310000D03*
X91095000Y-73040000D03*
X91095000Y-71770000D03*
X91095000Y-70500000D03*
X91095000Y-69230000D03*
%TD*%
D11*
%TO.C,R45*%
X76970000Y-118505000D03*
X78970000Y-118505000D03*
%TD*%
D12*
%TO.C,C6*%
X58270000Y-47392500D03*
X58270000Y-45317500D03*
%TD*%
D11*
%TO.C,R29*%
X77070000Y-99355000D03*
X79070000Y-99355000D03*
%TD*%
D17*
%TO.C,R50*%
X68870000Y-59255000D03*
X68870000Y-57255000D03*
%TD*%
D20*
%TO.C,U13*%
X68670000Y-72532500D03*
X68670000Y-73167500D03*
X68670000Y-73802500D03*
X68670000Y-74437500D03*
X68670000Y-75072500D03*
X68670000Y-75707500D03*
X68670000Y-76342500D03*
X68670000Y-76977500D03*
X73870000Y-76977500D03*
X73870000Y-76342500D03*
X73870000Y-75707500D03*
X73870000Y-75072500D03*
X73870000Y-74437500D03*
X73870000Y-73802500D03*
X73870000Y-73167500D03*
X73870000Y-72532500D03*
%TD*%
D17*
%TO.C,R2*%
X95620000Y-89955000D03*
X95620000Y-87955000D03*
%TD*%
D11*
%TO.C,R21*%
X76770000Y-77255000D03*
X78770000Y-77255000D03*
%TD*%
D21*
%TO.C,U7*%
X86015000Y-105260000D03*
X86015000Y-106530000D03*
X86015000Y-107800000D03*
X86015000Y-109070000D03*
X86015000Y-110340000D03*
X86015000Y-111610000D03*
X86015000Y-112880000D03*
X86015000Y-114150000D03*
X90965000Y-114150000D03*
X90965000Y-112880000D03*
X90965000Y-111610000D03*
X90965000Y-110340000D03*
X90965000Y-109070000D03*
X90965000Y-107800000D03*
X90965000Y-106530000D03*
X90965000Y-105260000D03*
%TD*%
D22*
%TO.C,R41*%
X65220000Y-117255000D03*
X65220000Y-119255000D03*
%TD*%
D13*
%TO.C,C36*%
X155762500Y-49200000D03*
X157837500Y-49200000D03*
%TD*%
D17*
%TO.C,R26*%
X69070000Y-103605000D03*
X69070000Y-101605000D03*
%TD*%
%TO.C,R7*%
X95620000Y-113955000D03*
X95620000Y-111955000D03*
%TD*%
D13*
%TO.C,C45*%
X166212500Y-41925000D03*
X168287500Y-41925000D03*
%TD*%
D17*
%TO.C,R15*%
X41370000Y-33705000D03*
X41370000Y-31705000D03*
%TD*%
D20*
%TO.C,U18*%
X65870000Y-34232500D03*
X65870000Y-34867500D03*
X65870000Y-35502500D03*
X65870000Y-36137500D03*
X65870000Y-36772500D03*
X65870000Y-37407500D03*
X65870000Y-38042500D03*
X65870000Y-38677500D03*
X71070000Y-38677500D03*
X71070000Y-38042500D03*
X71070000Y-37407500D03*
X71070000Y-36772500D03*
X71070000Y-36137500D03*
X71070000Y-35502500D03*
X71070000Y-34867500D03*
X71070000Y-34232500D03*
%TD*%
D25*
%TO.C,D3*%
X44432500Y-44605000D03*
X44432500Y-46505000D03*
X46307500Y-45555000D03*
%TD*%
%TO.C,D1*%
X33832500Y-44605000D03*
X33832500Y-46505000D03*
X35707500Y-45555000D03*
%TD*%
D16*
%TO.C,C2*%
X95620000Y-81417500D03*
X95620000Y-83492500D03*
%TD*%
%TO.C,C10*%
X95620000Y-69417500D03*
X95620000Y-71492500D03*
%TD*%
D13*
%TO.C,C14*%
X76982500Y-65755000D03*
X79057500Y-65755000D03*
%TD*%
%TO.C,C24*%
X70782500Y-31755000D03*
X72857500Y-31755000D03*
%TD*%
%TO.C,C5*%
X49232500Y-42955000D03*
X51307500Y-42955000D03*
%TD*%
D18*
%TO.C,C21*%
X70320000Y-87605000D03*
X68245000Y-87605000D03*
%TD*%
D22*
%TO.C,R39*%
X78970000Y-35705000D03*
X78970000Y-37705000D03*
%TD*%
D21*
%TO.C,U23*%
X61495000Y-51050000D03*
X61495000Y-52320000D03*
X61495000Y-53590000D03*
X61495000Y-54860000D03*
X66445000Y-54860000D03*
X66445000Y-53590000D03*
X66445000Y-52320000D03*
X66445000Y-51050000D03*
%TD*%
D12*
%TO.C,C38*%
X65370000Y-59192500D03*
X65370000Y-57117500D03*
%TD*%
D11*
%TO.C,R22*%
X68020000Y-69505000D03*
X70020000Y-69505000D03*
%TD*%
D12*
%TO.C,C32*%
X65870000Y-48392500D03*
X65870000Y-46317500D03*
%TD*%
D17*
%TO.C,R27*%
X72570000Y-103605000D03*
X72570000Y-101605000D03*
%TD*%
D18*
%TO.C,C31*%
X74545000Y-110005000D03*
X72470000Y-110005000D03*
%TD*%
D16*
%TO.C,C41*%
X76270000Y-57117500D03*
X76270000Y-59192500D03*
%TD*%
%TO.C,C7*%
X95620000Y-57417500D03*
X95620000Y-59492500D03*
%TD*%
%TO.C,C40*%
X61870000Y-57117500D03*
X61870000Y-59192500D03*
%TD*%
D19*
%TO.C,SW3*%
X108853800Y-38755000D03*
X114086200Y-41255000D03*
X108853800Y-43755000D03*
%TD*%
D20*
%TO.C,U16*%
X68970000Y-94632500D03*
X68970000Y-95267500D03*
X68970000Y-95902500D03*
X68970000Y-96537500D03*
X68970000Y-97172500D03*
X68970000Y-97807500D03*
X68970000Y-98442500D03*
X68970000Y-99077500D03*
X74170000Y-99077500D03*
X74170000Y-98442500D03*
X74170000Y-97807500D03*
X74170000Y-97172500D03*
X74170000Y-96537500D03*
X74170000Y-95902500D03*
X74170000Y-95267500D03*
X74170000Y-94632500D03*
%TD*%
D11*
%TO.C,R13*%
X34620000Y-36730000D03*
X36620000Y-36730000D03*
%TD*%
D15*
%TO.C,U20*%
X63270000Y-113605000D03*
X63270000Y-114255000D03*
X63270000Y-114905000D03*
X65170000Y-114905000D03*
X65170000Y-114255000D03*
X65170000Y-113605000D03*
%TD*%
D13*
%TO.C,C37*%
X166212500Y-38550000D03*
X168287500Y-38550000D03*
%TD*%
D17*
%TO.C,R37*%
X74970000Y-41955000D03*
X74970000Y-39955000D03*
%TD*%
D12*
%TO.C,C33*%
X69370000Y-48392500D03*
X69370000Y-46317500D03*
%TD*%
D21*
%TO.C,U2*%
X86145000Y-45230000D03*
X86145000Y-46500000D03*
X86145000Y-47770000D03*
X86145000Y-49040000D03*
X86145000Y-50310000D03*
X86145000Y-51580000D03*
X86145000Y-52850000D03*
X86145000Y-54120000D03*
X91095000Y-54120000D03*
X91095000Y-52850000D03*
X91095000Y-51580000D03*
X91095000Y-50310000D03*
X91095000Y-49040000D03*
X91095000Y-47770000D03*
X91095000Y-46500000D03*
X91095000Y-45230000D03*
%TD*%
D17*
%TO.C,R40*%
X82470000Y-37555000D03*
X82470000Y-35555000D03*
%TD*%
M02*
